<svg width="25" height="25" viewBox="0 0 25 25" fill="none" xmlns="http://www.w3.org/2000/svg">
<mask id="path-1-outside-1_1026_40827" maskUnits="userSpaceOnUse" x="0" y="0" width="25" height="25" fill="black">
<rect fill="white" width="25" height="25"/>
<path d="M22.693 10.799C22.339 10.538 21.897 10.212 21.839 9.996C21.776 9.759 22.001 9.24 22.183 8.823C22.495 8.107 22.817 7.365 22.459 6.748C22.098 6.123 21.287 6.031 20.504 5.943C20.057 5.893 19.501 5.831 19.335 5.664C19.168 5.497 19.106 4.941 19.056 4.495C18.968 3.712 18.877 2.902 18.251 2.54C17.707 2.224 16.901 2.5 16.176 2.816C15.776 2.99 15.358 3.156 15.002 3.16C14.786 3.102 14.461 2.66 14.199 2.306C13.749 1.694 13.238 1 12.5 1C11.763 1 11.251 1.694 10.8 2.306C10.538 2.661 10.213 3.103 9.907 3.17C9.637 3.17 9.223 2.99 8.823 2.816C8.096 2.5 7.289 2.227 6.749 2.54C6.122 2.902 6.031 3.712 5.943 4.496C5.893 4.943 5.831 5.498 5.665 5.665C5.498 5.831 4.942 5.894 4.496 5.943C3.712 6.031 2.901 6.123 2.54 6.748C2.183 7.365 2.505 8.106 2.816 8.823C2.998 9.24 3.224 9.76 3.16 9.997C3.102 10.213 2.661 10.539 2.306 10.8C1.694 11.25 1 11.762 1 12.5C1 13.238 1.694 13.75 2.307 14.201C2.661 14.462 3.103 14.788 3.161 15.004C3.224 15.241 2.999 15.76 2.817 16.177C2.505 16.893 2.183 17.635 2.541 18.252C2.902 18.877 3.713 18.969 4.496 19.057C4.943 19.107 5.499 19.169 5.665 19.336C5.832 19.503 5.894 20.059 5.944 20.505C6.032 21.288 6.123 22.098 6.749 22.46C7.29 22.775 8.096 22.5 8.823 22.184C9.223 22.01 9.634 21.833 9.997 21.84C10.213 21.898 10.538 22.34 10.8 22.694C11.251 23.306 11.762 24 12.5 24C13.237 24 13.749 23.306 14.2 22.694C14.462 22.339 14.787 21.897 15.093 21.829C15.363 21.829 15.777 22.009 16.177 22.183C16.906 22.499 17.711 22.773 18.251 22.46C18.878 22.098 18.969 21.288 19.057 20.504C19.107 20.057 19.169 19.502 19.335 19.335C19.502 19.168 20.058 19.106 20.504 19.056C21.288 18.968 22.099 18.877 22.46 18.251C22.817 17.634 22.495 16.893 22.184 16.176C22.002 15.759 21.777 15.239 21.84 15.003C21.898 14.787 22.339 14.461 22.694 14.2C23.306 13.75 24 13.238 24 12.5C24 11.762 23.306 11.25 22.693 10.799Z"/>
<path d="M6.53862 15C6.49207 15 6.46879 14.9746 6.46879 14.9238V10.9181C6.46879 10.8673 6.49207 10.8419 6.53862 10.8419H7.44006C7.48238 10.8419 7.51201 10.8589 7.52893 10.8927L8.55099 12.9559C8.62294 13.0955 8.68854 13.231 8.74779 13.3622C8.81127 13.4934 8.8684 13.6182 8.91919 13.7367C8.96997 13.8552 9.01441 13.9652 9.0525 14.0668H9.07154C9.06731 13.9822 9.06308 13.8912 9.05885 13.7938C9.05461 13.6965 9.05038 13.5971 9.04615 13.4955C9.04192 13.3939 9.0398 13.2945 9.0398 13.1971C9.0398 13.0998 9.0398 13.0088 9.0398 12.9241V10.9181C9.0398 10.8673 9.06308 10.8419 9.10963 10.8419H9.70636C9.75715 10.8419 9.78254 10.8673 9.78254 10.9181V14.9238C9.78254 14.9746 9.75715 15 9.70636 15H8.81762C8.77529 15 8.74567 14.9831 8.72874 14.9492L7.73842 12.9559C7.67494 12.8289 7.61146 12.6998 7.54798 12.5686C7.48873 12.4332 7.42948 12.2999 7.37023 12.1687C7.31521 12.0375 7.26231 11.9127 7.21153 11.7942H7.19248C7.19671 11.8915 7.19883 11.991 7.19883 12.0925C7.20306 12.1941 7.20518 12.2957 7.20518 12.3972C7.20941 12.4988 7.21153 12.6004 7.21153 12.702C7.21153 12.8035 7.21153 12.9051 7.21153 13.0067V14.9238C7.21153 14.9746 7.18613 15 7.13535 15H6.53862Z"/>
<path d="M10.7852 15C10.7386 15 10.7154 14.9746 10.7154 14.9238V10.9181C10.7154 10.8673 10.7386 10.8419 10.7852 10.8419H13.2166C13.2631 10.8419 13.2864 10.8673 13.2864 10.9181V11.4387C13.2864 11.4895 13.2631 11.5148 13.2166 11.5148H11.4772V12.575H13.0642C13.1108 12.575 13.134 12.6004 13.134 12.6512V13.14C13.134 13.1908 13.1108 13.2162 13.0642 13.2162H11.4772V14.3271H13.2166C13.2631 14.3271 13.2864 14.3525 13.2864 14.4033V14.9238C13.2864 14.9746 13.2631 15 13.2166 15H10.7852Z"/>
<path d="M14.9879 15C14.9456 15 14.9181 14.9788 14.9054 14.9365L13.7818 10.9245C13.7649 10.8695 13.7881 10.8419 13.8516 10.8419H14.4674C14.5139 10.8419 14.5415 10.8631 14.5499 10.9054L15.1593 13.1781C15.1932 13.2881 15.2207 13.4045 15.2419 13.5272C15.2673 13.65 15.2905 13.7706 15.3117 13.8891C15.3371 14.0033 15.3604 14.1113 15.3815 14.2128H15.3942C15.4366 14.0647 15.4789 13.9187 15.5212 13.7748C15.5635 13.6267 15.608 13.4786 15.6545 13.3304L16.137 11.7815L15.9021 11.007C15.8936 10.9816 15.8957 10.9626 15.9084 10.9499C15.9254 10.9329 15.9444 10.9245 15.9656 10.9245H16.5877C16.63 10.9245 16.6554 10.9456 16.6639 10.988L17.2987 13.3431C17.341 13.487 17.3791 13.633 17.4129 13.7811C17.4468 13.925 17.4807 14.0689 17.5145 14.2128H17.5209C17.542 14.1113 17.5632 13.9991 17.5844 13.8764C17.6097 13.7536 17.6351 13.6309 17.6605 13.5082C17.6859 13.3812 17.7113 13.2627 17.7367 13.1527L18.3207 10.9054C18.3292 10.8631 18.3567 10.8419 18.4033 10.8419H19.0381C19.0973 10.8419 19.1185 10.8695 19.1016 10.9245L18.0097 14.9365C17.997 14.9788 17.9695 15 17.9272 15H17.1654C17.1188 15 17.0892 14.9788 17.0765 14.9365L16.7083 13.6288C16.666 13.4807 16.6237 13.3325 16.5813 13.1844C16.5432 13.0363 16.5073 12.8924 16.4734 12.7527H16.4607C16.4184 12.8924 16.3761 13.0342 16.3338 13.1781C16.2957 13.322 16.2533 13.468 16.2068 13.6161L15.8069 14.9429C15.7984 14.964 15.7878 14.9788 15.7751 14.9873C15.7624 14.9958 15.7455 15 15.7243 15H14.9879Z"/>
</mask>
<path d="M22.693 10.799C22.339 10.538 21.897 10.212 21.839 9.996C21.776 9.759 22.001 9.24 22.183 8.823C22.495 8.107 22.817 7.365 22.459 6.748C22.098 6.123 21.287 6.031 20.504 5.943C20.057 5.893 19.501 5.831 19.335 5.664C19.168 5.497 19.106 4.941 19.056 4.495C18.968 3.712 18.877 2.902 18.251 2.54C17.707 2.224 16.901 2.5 16.176 2.816C15.776 2.99 15.358 3.156 15.002 3.16C14.786 3.102 14.461 2.66 14.199 2.306C13.749 1.694 13.238 1 12.5 1C11.763 1 11.251 1.694 10.8 2.306C10.538 2.661 10.213 3.103 9.907 3.17C9.637 3.17 9.223 2.99 8.823 2.816C8.096 2.5 7.289 2.227 6.749 2.54C6.122 2.902 6.031 3.712 5.943 4.496C5.893 4.943 5.831 5.498 5.665 5.665C5.498 5.831 4.942 5.894 4.496 5.943C3.712 6.031 2.901 6.123 2.54 6.748C2.183 7.365 2.505 8.106 2.816 8.823C2.998 9.24 3.224 9.76 3.16 9.997C3.102 10.213 2.661 10.539 2.306 10.8C1.694 11.25 1 11.762 1 12.5C1 13.238 1.694 13.75 2.307 14.201C2.661 14.462 3.103 14.788 3.161 15.004C3.224 15.241 2.999 15.76 2.817 16.177C2.505 16.893 2.183 17.635 2.541 18.252C2.902 18.877 3.713 18.969 4.496 19.057C4.943 19.107 5.499 19.169 5.665 19.336C5.832 19.503 5.894 20.059 5.944 20.505C6.032 21.288 6.123 22.098 6.749 22.46C7.29 22.775 8.096 22.5 8.823 22.184C9.223 22.01 9.634 21.833 9.997 21.84C10.213 21.898 10.538 22.34 10.8 22.694C11.251 23.306 11.762 24 12.5 24C13.237 24 13.749 23.306 14.2 22.694C14.462 22.339 14.787 21.897 15.093 21.829C15.363 21.829 15.777 22.009 16.177 22.183C16.906 22.499 17.711 22.773 18.251 22.46C18.878 22.098 18.969 21.288 19.057 20.504C19.107 20.057 19.169 19.502 19.335 19.335C19.502 19.168 20.058 19.106 20.504 19.056C21.288 18.968 22.099 18.877 22.46 18.251C22.817 17.634 22.495 16.893 22.184 16.176C22.002 15.759 21.777 15.239 21.84 15.003C21.898 14.787 22.339 14.461 22.694 14.2C23.306 13.75 24 13.238 24 12.5C24 11.762 23.306 11.25 22.693 10.799Z" fill="black"/>
<path d="M6.53862 15C6.49207 15 6.46879 14.9746 6.46879 14.9238V10.9181C6.46879 10.8673 6.49207 10.8419 6.53862 10.8419H7.44006C7.48238 10.8419 7.51201 10.8589 7.52893 10.8927L8.55099 12.9559C8.62294 13.0955 8.68854 13.231 8.74779 13.3622C8.81127 13.4934 8.8684 13.6182 8.91919 13.7367C8.96997 13.8552 9.01441 13.9652 9.0525 14.0668H9.07154C9.06731 13.9822 9.06308 13.8912 9.05885 13.7938C9.05461 13.6965 9.05038 13.5971 9.04615 13.4955C9.04192 13.3939 9.0398 13.2945 9.0398 13.1971C9.0398 13.0998 9.0398 13.0088 9.0398 12.9241V10.9181C9.0398 10.8673 9.06308 10.8419 9.10963 10.8419H9.70636C9.75715 10.8419 9.78254 10.8673 9.78254 10.9181V14.9238C9.78254 14.9746 9.75715 15 9.70636 15H8.81762C8.77529 15 8.74567 14.9831 8.72874 14.9492L7.73842 12.9559C7.67494 12.8289 7.61146 12.6998 7.54798 12.5686C7.48873 12.4332 7.42948 12.2999 7.37023 12.1687C7.31521 12.0375 7.26231 11.9127 7.21153 11.7942H7.19248C7.19671 11.8915 7.19883 11.991 7.19883 12.0925C7.20306 12.1941 7.20518 12.2957 7.20518 12.3972C7.20941 12.4988 7.21153 12.6004 7.21153 12.702C7.21153 12.8035 7.21153 12.9051 7.21153 13.0067V14.9238C7.21153 14.9746 7.18613 15 7.13535 15H6.53862Z" fill="white"/>
<path d="M10.7852 15C10.7386 15 10.7154 14.9746 10.7154 14.9238V10.9181C10.7154 10.8673 10.7386 10.8419 10.7852 10.8419H13.2166C13.2631 10.8419 13.2864 10.8673 13.2864 10.9181V11.4387C13.2864 11.4895 13.2631 11.5148 13.2166 11.5148H11.4772V12.575H13.0642C13.1108 12.575 13.134 12.6004 13.134 12.6512V13.14C13.134 13.1908 13.1108 13.2162 13.0642 13.2162H11.4772V14.3271H13.2166C13.2631 14.3271 13.2864 14.3525 13.2864 14.4033V14.9238C13.2864 14.9746 13.2631 15 13.2166 15H10.7852Z" fill="white"/>
<path d="M14.9879 15C14.9456 15 14.9181 14.9788 14.9054 14.9365L13.7818 10.9245C13.7649 10.8695 13.7881 10.8419 13.8516 10.8419H14.4674C14.5139 10.8419 14.5415 10.8631 14.5499 10.9054L15.1593 13.1781C15.1932 13.2881 15.2207 13.4045 15.2419 13.5272C15.2673 13.65 15.2905 13.7706 15.3117 13.8891C15.3371 14.0033 15.3604 14.1113 15.3815 14.2128H15.3942C15.4366 14.0647 15.4789 13.9187 15.5212 13.7748C15.5635 13.6267 15.608 13.4786 15.6545 13.3304L16.137 11.7815L15.9021 11.007C15.8936 10.9816 15.8957 10.9626 15.9084 10.9499C15.9254 10.9329 15.9444 10.9245 15.9656 10.9245H16.5877C16.63 10.9245 16.6554 10.9456 16.6639 10.988L17.2987 13.3431C17.341 13.487 17.3791 13.633 17.4129 13.7811C17.4468 13.925 17.4807 14.0689 17.5145 14.2128H17.5209C17.542 14.1113 17.5632 13.9991 17.5844 13.8764C17.6097 13.7536 17.6351 13.6309 17.6605 13.5082C17.6859 13.3812 17.7113 13.2627 17.7367 13.1527L18.3207 10.9054C18.3292 10.8631 18.3567 10.8419 18.4033 10.8419H19.0381C19.0973 10.8419 19.1185 10.8695 19.1016 10.9245L18.0097 14.9365C17.997 14.9788 17.9695 15 17.9272 15H17.1654C17.1188 15 17.0892 14.9788 17.0765 14.9365L16.7083 13.6288C16.666 13.4807 16.6237 13.3325 16.5813 13.1844C16.5432 13.0363 16.5073 12.8924 16.4734 12.7527H16.4607C16.4184 12.8924 16.3761 13.0342 16.3338 13.1781C16.2957 13.322 16.2533 13.468 16.2068 13.6161L15.8069 14.9429C15.7984 14.964 15.7878 14.9788 15.7751 14.9873C15.7624 14.9958 15.7455 15 15.7243 15H14.9879Z" fill="white"/>
<path d="M22.693 10.799C22.339 10.538 21.897 10.212 21.839 9.996C21.776 9.759 22.001 9.24 22.183 8.823C22.495 8.107 22.817 7.365 22.459 6.748C22.098 6.123 21.287 6.031 20.504 5.943C20.057 5.893 19.501 5.831 19.335 5.664C19.168 5.497 19.106 4.941 19.056 4.495C18.968 3.712 18.877 2.902 18.251 2.54C17.707 2.224 16.901 2.5 16.176 2.816C15.776 2.99 15.358 3.156 15.002 3.16C14.786 3.102 14.461 2.66 14.199 2.306C13.749 1.694 13.238 1 12.5 1C11.763 1 11.251 1.694 10.8 2.306C10.538 2.661 10.213 3.103 9.907 3.17C9.637 3.17 9.223 2.99 8.823 2.816C8.096 2.5 7.289 2.227 6.749 2.54C6.122 2.902 6.031 3.712 5.943 4.496C5.893 4.943 5.831 5.498 5.665 5.665C5.498 5.831 4.942 5.894 4.496 5.943C3.712 6.031 2.901 6.123 2.54 6.748C2.183 7.365 2.505 8.106 2.816 8.823C2.998 9.24 3.224 9.76 3.16 9.997C3.102 10.213 2.661 10.539 2.306 10.8C1.694 11.25 1 11.762 1 12.5C1 13.238 1.694 13.75 2.307 14.201C2.661 14.462 3.103 14.788 3.161 15.004C3.224 15.241 2.999 15.76 2.817 16.177C2.505 16.893 2.183 17.635 2.541 18.252C2.902 18.877 3.713 18.969 4.496 19.057C4.943 19.107 5.499 19.169 5.665 19.336C5.832 19.503 5.894 20.059 5.944 20.505C6.032 21.288 6.123 22.098 6.749 22.46C7.29 22.775 8.096 22.5 8.823 22.184C9.223 22.01 9.634 21.833 9.997 21.84C10.213 21.898 10.538 22.34 10.8 22.694C11.251 23.306 11.762 24 12.5 24C13.237 24 13.749 23.306 14.2 22.694C14.462 22.339 14.787 21.897 15.093 21.829C15.363 21.829 15.777 22.009 16.177 22.183C16.906 22.499 17.711 22.773 18.251 22.46C18.878 22.098 18.969 21.288 19.057 20.504C19.107 20.057 19.169 19.502 19.335 19.335C19.502 19.168 20.058 19.106 20.504 19.056C21.288 18.968 22.099 18.877 22.46 18.251C22.817 17.634 22.495 16.893 22.184 16.176C22.002 15.759 21.777 15.239 21.84 15.003C21.898 14.787 22.339 14.461 22.694 14.2C23.306 13.75 24 13.238 24 12.5C24 11.762 23.306 11.25 22.693 10.799Z" stroke="white" stroke-width="2" mask="url(#path-1-outside-1_1026_40827)"/>
<path d="M6.53862 15C6.49207 15 6.46879 14.9746 6.46879 14.9238V10.9181C6.46879 10.8673 6.49207 10.8419 6.53862 10.8419H7.44006C7.48238 10.8419 7.51201 10.8589 7.52893 10.8927L8.55099 12.9559C8.62294 13.0955 8.68854 13.231 8.74779 13.3622C8.81127 13.4934 8.8684 13.6182 8.91919 13.7367C8.96997 13.8552 9.01441 13.9652 9.0525 14.0668H9.07154C9.06731 13.9822 9.06308 13.8912 9.05885 13.7938C9.05461 13.6965 9.05038 13.5971 9.04615 13.4955C9.04192 13.3939 9.0398 13.2945 9.0398 13.1971C9.0398 13.0998 9.0398 13.0088 9.0398 12.9241V10.9181C9.0398 10.8673 9.06308 10.8419 9.10963 10.8419H9.70636C9.75715 10.8419 9.78254 10.8673 9.78254 10.9181V14.9238C9.78254 14.9746 9.75715 15 9.70636 15H8.81762C8.77529 15 8.74567 14.9831 8.72874 14.9492L7.73842 12.9559C7.67494 12.8289 7.61146 12.6998 7.54798 12.5686C7.48873 12.4332 7.42948 12.2999 7.37023 12.1687C7.31521 12.0375 7.26231 11.9127 7.21153 11.7942H7.19248C7.19671 11.8915 7.19883 11.991 7.19883 12.0925C7.20306 12.1941 7.20518 12.2957 7.20518 12.3972C7.20941 12.4988 7.21153 12.6004 7.21153 12.702C7.21153 12.8035 7.21153 12.9051 7.21153 13.0067V14.9238C7.21153 14.9746 7.18613 15 7.13535 15H6.53862Z" stroke="white" stroke-width="2" mask="url(#path-1-outside-1_1026_40827)"/>
<path d="M10.7852 15C10.7386 15 10.7154 14.9746 10.7154 14.9238V10.9181C10.7154 10.8673 10.7386 10.8419 10.7852 10.8419H13.2166C13.2631 10.8419 13.2864 10.8673 13.2864 10.9181V11.4387C13.2864 11.4895 13.2631 11.5148 13.2166 11.5148H11.4772V12.575H13.0642C13.1108 12.575 13.134 12.6004 13.134 12.6512V13.14C13.134 13.1908 13.1108 13.2162 13.0642 13.2162H11.4772V14.3271H13.2166C13.2631 14.3271 13.2864 14.3525 13.2864 14.4033V14.9238C13.2864 14.9746 13.2631 15 13.2166 15H10.7852Z" stroke="white" stroke-width="2" mask="url(#path-1-outside-1_1026_40827)"/>
<path d="M14.9879 15C14.9456 15 14.9181 14.9788 14.9054 14.9365L13.7818 10.9245C13.7649 10.8695 13.7881 10.8419 13.8516 10.8419H14.4674C14.5139 10.8419 14.5415 10.8631 14.5499 10.9054L15.1593 13.1781C15.1932 13.2881 15.2207 13.4045 15.2419 13.5272C15.2673 13.65 15.2905 13.7706 15.3117 13.8891C15.3371 14.0033 15.3604 14.1113 15.3815 14.2128H15.3942C15.4366 14.0647 15.4789 13.9187 15.5212 13.7748C15.5635 13.6267 15.608 13.4786 15.6545 13.3304L16.137 11.7815L15.9021 11.007C15.8936 10.9816 15.8957 10.9626 15.9084 10.9499C15.9254 10.9329 15.9444 10.9245 15.9656 10.9245H16.5877C16.63 10.9245 16.6554 10.9456 16.6639 10.988L17.2987 13.3431C17.341 13.487 17.3791 13.633 17.4129 13.7811C17.4468 13.925 17.4807 14.0689 17.5145 14.2128H17.5209C17.542 14.1113 17.5632 13.9991 17.5844 13.8764C17.6097 13.7536 17.6351 13.6309 17.6605 13.5082C17.6859 13.3812 17.7113 13.2627 17.7367 13.1527L18.3207 10.9054C18.3292 10.8631 18.3567 10.8419 18.4033 10.8419H19.0381C19.0973 10.8419 19.1185 10.8695 19.1016 10.9245L18.0097 14.9365C17.997 14.9788 17.9695 15 17.9272 15H17.1654C17.1188 15 17.0892 14.9788 17.0765 14.9365L16.7083 13.6288C16.666 13.4807 16.6237 13.3325 16.5813 13.1844C16.5432 13.0363 16.5073 12.8924 16.4734 12.7527H16.4607C16.4184 12.8924 16.3761 13.0342 16.3338 13.1781C16.2957 13.322 16.2533 13.468 16.2068 13.6161L15.8069 14.9429C15.7984 14.964 15.7878 14.9788 15.7751 14.9873C15.7624 14.9958 15.7455 15 15.7243 15H14.9879Z" stroke="white" stroke-width="2" mask="url(#path-1-outside-1_1026_40827)"/>
</svg>
