<svg width="23" height="23" viewBox="0 0 23 23" fill="none" xmlns="http://www.w3.org/2000/svg">
<path d="M21.694 9.799C21.34 9.538 20.898 9.212 20.84 8.996C20.777 8.759 21.002 8.24 21.184 7.823C21.496 7.107 21.818 6.365 21.46 5.748C21.099 5.123 20.288 5.031 19.505 4.943C19.058 4.893 18.502 4.831 18.336 4.664C18.169 4.497 18.107 3.941 18.057 3.495C17.969 2.712 17.878 1.902 17.252 1.54C16.708 1.224 15.902 1.5 15.177 1.816C14.777 1.99 14.359 2.156 14.003 2.16C13.787 2.102 13.462 1.66 13.2 1.306C12.75 0.694 12.239 0 11.501 0C10.764 0 10.252 0.694 9.80098 1.306C9.53898 1.661 9.21398 2.103 8.90798 2.17C8.63798 2.17 8.22398 1.99 7.82398 1.816C7.09698 1.5 6.28998 1.227 5.74998 1.54C5.12298 1.902 5.03198 2.712 4.94398 3.496C4.89398 3.943 4.83198 4.498 4.66598 4.665C4.49898 4.831 3.94298 4.894 3.49698 4.943C2.71298 5.031 1.90198 5.123 1.54098 5.748C1.18398 6.365 1.50598 7.106 1.81698 7.823C1.99898 8.24 2.22498 8.76 2.16098 8.997C2.10298 9.213 1.66198 9.539 1.30698 9.8C0.694977 10.25 0.000976562 10.762 0.000976562 11.5C0.000976562 12.238 0.694977 12.75 1.30798 13.201C1.66198 13.462 2.10398 13.788 2.16198 14.004C2.22498 14.241 1.99998 14.76 1.81798 15.177C1.50598 15.893 1.18398 16.635 1.54198 17.252C1.90298 17.877 2.71398 17.969 3.49698 18.057C3.94398 18.107 4.49998 18.169 4.66598 18.336C4.83298 18.503 4.89498 19.059 4.94498 19.505C5.03298 20.288 5.12398 21.098 5.74998 21.46C6.29098 21.775 7.09698 21.5 7.82398 21.184C8.22398 21.01 8.63498 20.833 8.99798 20.84C9.21398 20.898 9.53898 21.34 9.80098 21.694C10.252 22.306 10.763 23 11.501 23C12.238 23 12.75 22.306 13.201 21.694C13.463 21.339 13.788 20.897 14.094 20.829C14.364 20.829 14.778 21.009 15.178 21.183C15.907 21.499 16.712 21.773 17.252 21.46C17.879 21.098 17.97 20.288 18.058 19.504C18.108 19.057 18.17 18.502 18.336 18.335C18.503 18.168 19.059 18.106 19.505 18.056C20.289 17.968 21.1 17.877 21.461 17.251C21.818 16.634 21.496 15.893 21.185 15.176C21.003 14.759 20.778 14.239 20.841 14.003C20.899 13.787 21.34 13.461 21.695 13.2C22.307 12.75 23.001 12.238 23.001 11.5C23.001 10.762 22.307 10.25 21.694 9.799Z" fill="black"/>
<path d="M5.5396 14C5.49304 14 5.46977 13.9746 5.46977 13.9238V9.91812C5.46977 9.86734 5.49304 9.84194 5.5396 9.84194H6.44104C6.48336 9.84194 6.51298 9.85887 6.52991 9.89273L7.55197 11.9559C7.62391 12.0955 7.68951 12.231 7.74876 12.3622C7.81224 12.4934 7.86938 12.6182 7.92016 12.7367C7.97095 12.8552 8.01539 12.9652 8.05347 13.0668H8.07252C8.06829 12.9822 8.06405 12.8912 8.05982 12.7938C8.05559 12.6965 8.05136 12.5971 8.04713 12.4955C8.04289 12.3939 8.04078 12.2945 8.04078 12.1971C8.04078 12.0998 8.04078 12.0088 8.04078 11.9241V9.91812C8.04078 9.86734 8.06405 9.84194 8.11061 9.84194H8.70734C8.75812 9.84194 8.78351 9.86734 8.78351 9.91812V13.9238C8.78351 13.9746 8.75812 14 8.70734 14H7.81859C7.77627 14 7.74665 13.9831 7.72972 13.9492L6.7394 11.9559C6.67592 11.8289 6.61244 11.6998 6.54896 11.5686C6.48971 11.4332 6.43046 11.2999 6.37121 11.1687C6.31619 11.0375 6.26329 10.9127 6.2125 10.7942H6.19346C6.19769 10.8915 6.19981 10.991 6.19981 11.0925C6.20404 11.1941 6.20615 11.2957 6.20615 11.3972C6.21039 11.4988 6.2125 11.6004 6.2125 11.702C6.2125 11.8035 6.2125 11.9051 6.2125 12.0067V13.9238C6.2125 13.9746 6.18711 14 6.13632 14H5.5396Z" fill="white"/>
<path d="M9.78618 14C9.73963 14 9.71635 13.9746 9.71635 13.9238V9.91812C9.71635 9.86734 9.73963 9.84194 9.78618 9.84194H12.2175C12.2641 9.84194 12.2874 9.86734 12.2874 9.91812V10.4387C12.2874 10.4895 12.2641 10.5148 12.2175 10.5148H10.4781V11.575H12.0652C12.1117 11.575 12.135 11.6004 12.135 11.6512V12.14C12.135 12.1908 12.1117 12.2162 12.0652 12.2162H10.4781V13.3271H12.2175C12.2641 13.3271 12.2874 13.3525 12.2874 13.4033V13.9238C12.2874 13.9746 12.2641 14 12.2175 14H9.78618Z" fill="white"/>
<path d="M13.9889 14C13.9466 14 13.9191 13.9788 13.9064 13.9365L12.7828 9.92447C12.7658 9.86945 12.7891 9.84194 12.8526 9.84194H13.4684C13.5149 9.84194 13.5424 9.8631 13.5509 9.90543L14.1603 12.1781C14.1942 12.2881 14.2217 12.4045 14.2428 12.5272C14.2682 12.65 14.2915 12.7706 14.3127 12.8891C14.3381 13.0033 14.3613 13.1113 14.3825 13.2128H14.3952C14.4375 13.0647 14.4798 12.9187 14.5222 12.7748C14.5645 12.6267 14.6089 12.4786 14.6555 12.3304L15.1379 10.7815L14.9031 10.007C14.8946 9.9816 14.8967 9.96256 14.9094 9.94986C14.9263 9.93293 14.9454 9.92447 14.9665 9.92447H15.5887C15.631 9.92447 15.6564 9.94563 15.6648 9.98795L16.2997 12.3431C16.342 12.487 16.3801 12.633 16.4139 12.7811C16.4478 12.925 16.4816 13.0689 16.5155 13.2128H16.5218C16.543 13.1113 16.5642 12.9991 16.5853 12.8764C16.6107 12.7536 16.6361 12.6309 16.6615 12.5082C16.6869 12.3812 16.7123 12.2627 16.7377 12.1527L17.3217 9.90543C17.3302 9.8631 17.3577 9.84194 17.4042 9.84194H18.0391C18.0983 9.84194 18.1195 9.86945 18.1025 9.92447L17.0107 13.9365C16.998 13.9788 16.9704 14 16.9281 14H16.1663C16.1198 14 16.0902 13.9788 16.0775 13.9365L15.7093 12.6288C15.667 12.4807 15.6246 12.3325 15.5823 12.1844C15.5442 12.0363 15.5083 11.8924 15.4744 11.7527H15.4617C15.4194 11.8924 15.3771 12.0342 15.3347 12.1781C15.2966 12.322 15.2543 12.468 15.2078 12.6161L14.8078 13.9429C14.7994 13.964 14.7888 13.9788 14.7761 13.9873C14.7634 13.9958 14.7465 14 14.7253 14H13.9889Z" fill="white"/>
</svg>
