<svg width="22" height="22" viewBox="0 0 22 22" fill="none" xmlns="http://www.w3.org/2000/svg">
<g id="sorting 1">
<path id="Vector" fill-rule="evenodd" clip-rule="evenodd" d="M11.8889 8.26664C12.1573 8.51529 12.5926 8.51529 12.8611 8.26664L15.8125 5.53311L18.7639 8.26664C19.0323 8.51529 19.4676 8.51529 19.7361 8.26664C20.0046 8.01798 20.0046 7.61479 19.7361 7.36614L16.2986 4.18237C16.0301 3.93372 15.5948 3.93372 15.3264 4.18237L11.8889 7.36614C11.6204 7.61479 11.6204 8.01798 11.8889 8.26664Z" fill="white"/>
<path id="Vector_2" fill-rule="evenodd" clip-rule="evenodd" d="M15.8125 12.9102C16.1922 12.9102 16.5 12.6251 16.5 12.2734V4.63235C16.5 4.28067 16.1922 3.9956 15.8125 3.9956C15.4328 3.9956 15.125 4.28067 15.125 4.63235V12.2734C15.125 12.6251 15.4328 12.9102 15.8125 12.9102Z" fill="white"/>
<path id="Vector_3" fill-rule="evenodd" clip-rule="evenodd" d="M3.4375 10.9997C3.4375 11.3515 3.74531 11.6367 4.125 11.6367H10.3125C10.6922 11.6367 11 11.3515 11 10.9997C11 10.6479 10.6922 10.3627 10.3125 10.3627H4.125C3.74531 10.3627 3.4375 10.6479 3.4375 10.9997Z" fill="white"/>
<path id="Vector_4" fill-rule="evenodd" clip-rule="evenodd" d="M3.4375 16.0934C3.4375 16.4453 3.74531 16.7305 4.125 16.7305H15.8125C16.1922 16.7305 16.5 16.4453 16.5 16.0934C16.5 15.7416 16.1922 15.4564 15.8125 15.4564H4.125C3.74531 15.4564 3.4375 15.7416 3.4375 16.0934Z" fill="white"/>
<path id="Vector_5" fill-rule="evenodd" clip-rule="evenodd" d="M3.4375 5.90545C3.4375 6.25728 3.74531 6.54248 4.125 6.54248H8.9375C9.31721 6.54248 9.625 6.25728 9.625 5.90545C9.625 5.55362 9.31721 5.26842 8.9375 5.26842H4.125C3.74531 5.26842 3.4375 5.55362 3.4375 5.90545Z" fill="white"/>
</g>
</svg>
