<svg width="22" height="22" viewBox="0 0 22 22" fill="none" xmlns="http://www.w3.org/2000/svg">
<g id="sorting 2">
<path id="Vector" fill-rule="evenodd" clip-rule="evenodd" d="M11.8889 13.7334C12.1573 13.4847 12.5926 13.4847 12.8611 13.7334L15.8125 16.4669L18.7639 13.7334C19.0323 13.4847 19.4676 13.4847 19.7361 13.7334C20.0046 13.982 20.0046 14.3852 19.7361 14.6339L16.2986 17.8176C16.0301 18.0663 15.5948 18.0663 15.3264 17.8176L11.8889 14.6339C11.6204 14.3852 11.6204 13.982 11.8889 13.7334Z" fill="white"/>
<path id="Vector_2" fill-rule="evenodd" clip-rule="evenodd" d="M15.8125 9.08984C16.1922 9.08984 16.5 9.37492 16.5 9.7266V17.3676C16.5 17.7193 16.1922 18.0044 15.8125 18.0044C15.4328 18.0044 15.125 17.7193 15.125 17.3676V9.7266C15.125 9.37492 15.4328 9.08984 15.8125 9.08984Z" fill="white"/>
<path id="Vector_3" fill-rule="evenodd" clip-rule="evenodd" d="M3.4375 11.0003C3.4375 10.6485 3.74531 10.3633 4.125 10.3633H10.3125C10.6922 10.3633 11 10.6485 11 11.0003C11 11.3521 10.6922 11.6373 10.3125 11.6373H4.125C3.74531 11.6373 3.4375 11.3521 3.4375 11.0003Z" fill="white"/>
<path id="Vector_4" fill-rule="evenodd" clip-rule="evenodd" d="M3.4375 5.90656C3.4375 5.55474 3.74531 5.26953 4.125 5.26953H15.8125C16.1922 5.26953 16.5 5.55474 16.5 5.90656C16.5 6.25838 16.1922 6.54359 15.8125 6.54359H4.125C3.74531 6.54359 3.4375 6.25838 3.4375 5.90656Z" fill="white"/>
<path id="Vector_5" fill-rule="evenodd" clip-rule="evenodd" d="M3.4375 16.0945C3.4375 15.7427 3.74531 15.4575 4.125 15.4575H8.9375C9.31721 15.4575 9.625 15.7427 9.625 16.0945C9.625 16.4464 9.31721 16.7316 8.9375 16.7316H4.125C3.74531 16.7316 3.4375 16.4464 3.4375 16.0945Z" fill="white"/>
</g>
</svg>
