<svg width="24" height="24" viewBox="0 0 24 24" fill="none" xmlns="http://www.w3.org/2000/svg">
<g id="spicy 1" clip-path="url(#clip0_202_5837)">
<g id="Mask group">
<path id="Vector 2" d="M5 20.5L1.5 22.5L5.5 23.5L12.5 21.5L17.5 17L22 11L23.5 9L23 7L21.5 5.5L20 4L17.5 3.5L15.5 4.5L14 8L11.5 13.5L8.5 18L5 20.5Z" fill="#ED222A"/>
<mask id="mask0_202_5837" style="mask-type:luminance" maskUnits="userSpaceOnUse" x="0" y="0" width="24" height="24">
<g id="Group">
<path id="bg" d="M24 0H0V24H24V0Z" fill="white"/>
<g id="Group_2">
<path id="path981" d="M21.2344 5.48438C21.2344 6.00216 20.8147 6.42188 20.2969 6.42188C19.7791 6.42188 19.3594 6.00216 19.3594 5.48438C19.3594 4.96659 19.7791 4.54688 20.2969 4.54688C20.8147 4.54688 21.2344 4.96659 21.2344 5.48438Z" fill="white"/>
<path id="path985" d="M0.84682 18.2812C-0.0240232 17.6991 -0.262101 16.5151 0.315117 15.6368L1.96568 13.125C2.83652 13.7071 3.0746 14.8912 2.49738 15.7695L0.84682 18.2812Z" fill="white"/>
<path id="path989" d="M0.84682 14.8594C-0.0240232 14.2772 -0.262101 13.0932 0.315117 12.2149L1.96568 9.70313C2.83652 10.2853 3.0746 11.4692 2.49738 12.3476L0.84682 14.8594Z" fill="white"/>
<path id="path993" d="M0.84682 11.4375C-0.0240232 10.8554 -0.262101 9.67134 0.315117 8.793L1.96568 6.28125C2.83652 6.86339 3.0746 8.04736 2.49738 8.92575L0.84682 11.4375Z" fill="white"/>
<path id="path997" d="M5.11245 13.4531C4.2416 12.871 4.00352 11.687 4.58074 10.8086L6.2313 8.29688C7.10215 8.87902 7.34023 10.063 6.76301 10.9414L5.11245 13.4531Z" fill="white"/>
<path id="path1001" d="M5.11245 10.0312C4.2416 9.44911 4.00352 8.26509 4.58074 7.38675L6.2313 4.875C7.10215 5.45714 7.34023 6.64111 6.76301 7.5195L5.11245 10.0312Z" fill="white"/>
<path id="path1005" d="M0.84682 8.01562C-0.0240232 7.43348 -0.262101 6.24947 0.315117 5.37113L1.96568 2.85938C2.83652 3.44152 3.0746 4.62548 2.49738 5.50388L0.84682 8.01562Z" fill="white"/>
<path id="path1009" d="M5.11245 6.60938C4.2416 6.02723 4.00352 4.84322 4.58074 3.96488L6.2313 1.45313C7.10215 2.03527 7.34023 3.21923 6.76301 4.09763L5.11245 6.60938Z" fill="white"/>
<path id="path1013" d="M9.3312 9.04688C8.46035 8.46473 8.22227 7.28072 8.79949 6.40238L10.4501 3.89063C11.3209 4.47277 11.559 5.65678 10.9818 6.53513L9.3312 9.04688Z" fill="white"/>
<path id="path1017" d="M9.3312 5.625C8.46035 5.04286 8.22227 3.85884 8.79949 2.9805L10.4501 0.46875C11.3209 1.05089 11.559 2.23491 10.9818 3.11325L9.3312 5.625Z" fill="white"/>
</g>
</g>
</mask>
<g mask="url(#mask0_202_5837)">
<g id="Group_3">
<g id="g957">
<g id="g959">
<g id="Clip path group">
<mask id="mask1_202_5837" style="mask-type:luminance" maskUnits="userSpaceOnUse" x="0" y="0" width="24" height="24">
<g id="clipPath965">
<path id="path963" d="M0 1.90735e-06H24V24H0V1.90735e-06Z" fill="white"/>
</g>
</mask>
<g mask="url(#mask1_202_5837)">
<g id="g961">
<g id="g967">
<path id="path969" d="M1.21794 22.2629L1.19727 22.3219C2.65812 22.8261 4.07445 23.0599 5.43669 23.0625C14.9286 23.0803 21.7922 12.2599 22.786 9.43071C23.9246 6.18926 21.2572 4.74214 19.8667 4.0782C18.4762 3.41426 15.7589 3.08445 14.5743 6.45706C9.32094 21.4122 1.21794 22.2629 1.21794 22.2629Z" stroke="white" stroke-width="1.5625" stroke-miterlimit="10"/>
</g>
<g id="g971">
<path id="path973" d="M20.3438 5.36719C20.3438 5.36719 22.125 3.98438 22.125 4.26546e-07" stroke="white" stroke-width="1.5625" stroke-miterlimit="10"/>
</g>
<g id="g975">
<path id="path977" d="M17.6714 3.70313C16.4996 4.21875 15.9371 7.03125 20.0621 9" stroke="white" stroke-width="1.5625" stroke-miterlimit="10"/>
</g>
<g id="g979">
<path id="path981_2" d="M21.2344 5.48438C21.2344 6.00216 20.8147 6.42188 20.2969 6.42188C19.7791 6.42188 19.3594 6.00216 19.3594 5.48438C19.3594 4.96659 19.7791 4.54688 20.2969 4.54688C20.8147 4.54688 21.2344 4.96659 21.2344 5.48438Z" fill="white"/>
</g>
<g id="g983">
<path id="path985_2" d="M0.84682 18.2812C-0.0240232 17.6991 -0.262101 16.5151 0.315117 15.6368L1.96568 13.125C2.83652 13.7071 3.0746 14.8912 2.49738 15.7695L0.84682 18.2812Z" fill="white"/>
</g>
<g id="g987">
<path id="path989_2" d="M0.84682 14.8594C-0.0240232 14.2772 -0.262101 13.0932 0.315117 12.2149L1.96568 9.70313C2.83652 10.2853 3.0746 11.4692 2.49738 12.3476L0.84682 14.8594Z" fill="white"/>
</g>
<g id="g991">
<path id="path993_2" d="M0.84682 11.4375C-0.0240232 10.8554 -0.262101 9.67134 0.315117 8.793L1.96568 6.28125C2.83652 6.86339 3.0746 8.04736 2.49738 8.92575L0.84682 11.4375Z" fill="white"/>
</g>
<g id="g995">
<path id="path997_2" d="M5.11245 13.4531C4.2416 12.871 4.00352 11.687 4.58074 10.8086L6.2313 8.29688C7.10215 8.87902 7.34023 10.063 6.76301 10.9414L5.11245 13.4531Z" fill="white"/>
</g>
<g id="g999">
<path id="path1001_2" d="M5.11245 10.0312C4.2416 9.44911 4.00352 8.26509 4.58074 7.38675L6.2313 4.875C7.10215 5.45714 7.34023 6.64111 6.76301 7.5195L5.11245 10.0312Z" fill="white"/>
</g>
<g id="g1003">
<path id="path1005_2" d="M0.84682 8.01562C-0.0240232 7.43348 -0.262101 6.24947 0.315117 5.37113L1.96568 2.85938C2.83652 3.44152 3.0746 4.62548 2.49738 5.50388L0.84682 8.01562Z" fill="white"/>
</g>
<g id="g1007">
<path id="path1009_2" d="M5.11245 6.60938C4.2416 6.02723 4.00352 4.84322 4.58074 3.96488L6.2313 1.45313C7.10215 2.03527 7.34023 3.21923 6.76301 4.09763L5.11245 6.60938Z" fill="white"/>
</g>
<g id="g1011">
<path id="path1013_2" d="M9.3312 9.04688C8.46035 8.46473 8.22227 7.28072 8.79949 6.40238L10.4501 3.89063C11.3209 4.47277 11.559 5.65678 10.9818 6.53513L9.3312 9.04688Z" fill="white"/>
</g>
<g id="g1015">
<path id="path1017_2" d="M9.3312 5.625C8.46035 5.04286 8.22227 3.85884 8.79949 2.9805L10.4501 0.46875C11.3209 1.05089 11.559 2.23491 10.9818 3.11325L9.3312 5.625Z" fill="white"/>
</g>
</g>
</g>
</g>
</g>
</g>
</g>
</g>
</g>
</g>
<defs>
<clipPath id="clip0_202_5837">
<rect width="24" height="24" fill="white"/>
</clipPath>
</defs>
</svg>
