<svg width="23" height="23" viewBox="0 0 23 23" fill="none" xmlns="http://www.w3.org/2000/svg">
<g id="vegan 1" clip-path="url(#clip0_202_5827)">
<g id="Group">
<path id="Vector 1" d="M12.5 1L8 3L4.5 5L2.5 7.5L1.5 11V14L3 18L4.5 20.5L6 22L7.5 22.5H11L15.5 21.5L18.5 19.5L20.5 17L21.5 13.5V7L20.5 6H16.5L15 5.5L13.5 2.5L12.5 1Z" fill="#149773"/>
<path id="Vector" d="M22.3023 5.97619C22.3068 5.636 22.0051 5.29023 21.6259 5.3025L15.82 5.3113L13.5493 0.394197C13.4126 0.117478 13.0645 -0.118137 12.653 0.0644256L6.79142 2.77928C4.24183 3.96019 2.30467 6.06329 1.33682 8.70115C0.368982 11.3391 0.486318 14.1959 1.66722 16.7455C1.67181 16.7554 1.67661 16.7652 1.68169 16.7749L4.74954 22.6351C4.87262 22.8674 5.16852 23.0634 5.50036 22.9807L11.8087 22.9712C14.6185 22.9669 17.2585 21.8687 19.2424 19.8789C21.2262 17.889 22.3164 15.2457 22.3121 12.4359L22.3023 5.97619ZM6.02024 20.6924C6.05717 15.6666 5.44268 12.7282 8.69193 9.36042C12.2183 5.89529 15.7241 6.77472 20.001 6.65442L6.02024 20.6924ZM13.0063 2.43711L14.3492 5.34499C13.4486 5.41516 12.5711 5.59911 11.733 5.88913L13.0063 2.43711ZM2.60367 9.16596C3.44734 6.86645 5.136 5.03319 7.35856 4.00376L11.7384 1.97513L10.0073 6.66834C9.18423 7.1349 8.41943 7.71628 7.73325 8.40458C5.74945 10.3944 4.65925 13.0377 4.66351 15.8475L4.66917 19.572L2.88497 16.1638C1.86183 13.9449 1.76183 11.4604 2.60367 9.16596ZM11.8067 21.6218L6.99186 21.6291L20.9554 7.60834L20.9627 12.4379C20.9704 17.4942 16.863 21.6141 11.8067 21.6218Z" fill="white"/>
</g>
</g>
<defs>
<clipPath id="clip0_202_5827">
<rect width="23" height="23" fill="white"/>
</clipPath>
</defs>
</svg>
