<svg width="17" height="13" viewBox="0 0 17 13" fill="none" xmlns="http://www.w3.org/2000/svg">
<path d="M16.1957 11.3555V12.3555C16.1957 12.6367 15.9457 12.8555 15.6957 12.8555C15.4144 12.8555 15.1957 12.6367 15.1957 12.3555V11.3867C15.1957 8.91797 13.1644 6.91797 10.6957 6.91797H2.07066L7.00816 11.043C7.22691 11.2305 7.22691 11.543 7.07066 11.7617C6.97691 11.793 6.82066 11.8555 6.69566 11.8555C6.57066 11.8555 6.44566 11.8242 6.35191 11.7617L0.351909 6.79297C0.258159 6.66797 0.195659 6.51172 0.195659 6.35547C0.195659 6.19922 0.258159 6.04297 0.351909 5.94922L6.35191 0.980469C6.57066 0.824219 6.88316 0.824219 7.07066 1.04297C7.22691 1.26172 7.22691 1.57422 7.00816 1.76172L2.07066 5.85547H10.6957C13.7269 5.85547 16.1957 8.32422 16.1957 11.3555Z" fill="white"/>
</svg>
