<svg width="16" height="19" viewBox="0 0 16 19" fill="none" xmlns="http://www.w3.org/2000/svg">
<path d="M3.9375 0.25C4.21875 0.25 4.5 0.53125 4.5 0.8125V2.5H11.25V0.8125C11.25 0.53125 11.4961 0.25 11.8125 0.25C12.0938 0.25 12.375 0.53125 12.375 0.8125V2.5H13.5C14.7305 2.5 15.75 3.51953 15.75 4.75V16C15.75 17.2656 14.7305 18.25 13.5 18.25H2.25C0.984375 18.25 0 17.2656 0 16V4.75C0 3.51953 0.984375 2.5 2.25 2.5H3.375V0.8125C3.375 0.53125 3.62109 0.25 3.9375 0.25ZM14.625 7H10.9688V9.53125H14.625V7ZM14.625 10.6562H10.9688V13.4688H14.625V10.6562ZM14.625 14.5938H10.9688V17.125H13.5C14.0977 17.125 14.625 16.6328 14.625 16V14.5938ZM9.84375 13.4688V10.6562H5.90625V13.4688H9.84375ZM5.90625 17.125H9.84375V14.5938H5.90625V17.125ZM4.78125 13.4688V10.6562H1.125V13.4688H4.78125ZM1.125 14.5938V16C1.125 16.6328 1.61719 17.125 2.25 17.125H4.78125V14.5938H1.125ZM1.125 9.53125H4.78125V7H1.125V9.53125ZM5.90625 9.53125H9.84375V7H5.90625V9.53125ZM13.5 3.625H2.25C1.61719 3.625 1.125 4.15234 1.125 4.75V5.875H14.625V4.75C14.625 4.15234 14.0977 3.625 13.5 3.625Z" fill="white"/>
</svg>
