<svg width="11" height="13" viewBox="0 0 11 13" fill="none" xmlns="http://www.w3.org/2000/svg">
<path d="M10.125 2C10.3125 2 10.5 2.1875 10.5 2.375C10.5 2.58594 10.3125 2.75 10.125 2.75H9.67969L9.09375 11.1172C9.02344 11.9141 8.36719 12.5 7.59375 12.5H2.88281C2.10938 12.5 1.45312 11.9141 1.38281 11.1172L0.796875 2.75H0.375C0.164062 2.75 0 2.58594 0 2.375C0 2.1875 0.164062 2 0.375 2H2.60156L3.21094 1.03906C3.39844 0.710938 3.77344 0.5 4.14844 0.5H6.32812C6.70312 0.5 7.07812 0.710938 7.26562 1.03906L7.875 2H10.125ZM4.14844 1.25C4.03125 1.25 3.91406 1.32031 3.84375 1.4375L3.46875 2H7.00781L6.63281 1.4375C6.5625 1.32031 6.44531 1.25 6.32812 1.25H4.14844ZM8.92969 2.75H1.54688L2.13281 11.0703C2.15625 11.4453 2.48438 11.75 2.88281 11.75H7.59375C7.99219 11.75 8.32031 11.4453 8.34375 11.0703L8.92969 2.75Z" fill="white"/>
</svg>
