<svg width="45" height="45" viewBox="0 0 45 45" fill="none" xmlns="http://www.w3.org/2000/svg">
<path d="M44.5625 22.75C44.5625 23.2773 44.1406 23.5938 43.7188 23.5938H23.4688V43.8438C23.4688 44.3711 23.0469 44.793 22.625 44.793C22.0977 44.793 21.7812 44.3711 21.7812 43.8438V23.5938H1.53125C1.00391 23.5938 0.6875 23.2773 0.6875 22.8555C0.6875 22.3281 1.00391 21.9062 1.53125 21.9062H21.7812V1.65625C21.7812 1.23438 22.0977 0.917969 22.625 0.917969C23.0469 0.917969 23.4688 1.23438 23.4688 1.65625V21.9062H43.7188C44.1406 21.9062 44.5625 22.3281 44.5625 22.75Z" fill="white"/>
</svg>
