<svg width="95" height="95" viewBox="0 0 95 95" fill="none" xmlns="http://www.w3.org/2000/svg">
<path d="M50.5 64.5H44L40.5 87L43 93H52.5L54.5 85.5L50.5 64.5Z" fill="#ED222A"/>
<path d="M86.1021 74.492C85.4989 71.4761 83.237 64.238 74.6418 61.6746C74.6418 61.6746 67.7052 59.5634 62.4275 58.9603C59.7132 58.6587 57.7529 56.246 57.7529 53.5317C59.5624 51.873 61.2211 49.7618 62.5783 47.4999H76.4513L73.1338 22.9206C71.3243 10.2539 60.3164 0.753906 47.4989 0.753906C34.6814 0.753906 23.8243 10.2539 22.0148 22.9206L18.6973 47.4999H32.4195C33.7767 49.7618 35.4354 51.873 37.2449 53.5317H37.0941C37.0941 56.246 35.1338 58.6587 32.5703 58.9603C27.7449 59.5634 20.5068 61.6746 20.5068 61.6746C14.4751 63.4841 10.2529 68.4603 9.04651 74.6428C7.08619 84.8968 10.2529 94.3968 10.2529 94.3968H85.0465C84.8957 94.246 88.0624 84.746 86.1021 74.492ZM22.1656 44.4841L25.0306 23.373C26.5386 12.2142 36.1894 3.76978 47.4989 3.76978C58.8084 3.76978 68.4592 12.2142 69.9672 23.373L72.8322 44.4841H64.0862C64.0862 44.4841 66.8005 38.6031 66.8005 32.4206L66.9513 18.8491C60.3164 19.4523 59.7132 13.873 58.356 11.7618C58.356 11.7618 47.8005 25.6349 27.7449 18.3968V32.4206C27.7449 36.0396 28.8005 40.4126 30.61 44.4841H22.1656ZM30.9116 32.4206V22.3174C30.9116 22.3174 45.0862 27.4444 57.7529 16.8888C57.7529 16.8888 59.2608 20.8095 64.237 21.865V32.5714C64.237 35.2857 63.483 38.4523 62.2767 41.619H54.8878C54.2846 39.8095 52.6259 38.6031 50.6656 38.6031C48.1021 38.6031 46.1418 40.5634 46.1418 43.1269C46.1418 45.6904 48.1021 47.6507 50.6656 47.6507C52.6259 47.6507 54.2846 46.4444 54.8878 44.6349H60.7687C57.7529 50.365 52.9275 55.1904 47.4989 55.1904C38.3005 55.0396 30.9116 41.3174 30.9116 32.4206ZM52.0227 42.9761C52.0227 43.8809 51.4195 44.4841 50.5148 44.4841C49.61 44.4841 49.0068 43.8809 49.0068 42.9761C49.0068 42.0714 49.61 41.4682 50.5148 41.4682C51.2687 41.4682 52.0227 42.0714 52.0227 42.9761ZM39.6576 55.492C42.0703 56.9999 44.6338 57.9047 47.3481 57.9047C50.0624 57.9047 52.6259 56.9999 55.0386 55.492C55.7925 58.5079 58.2052 60.7698 61.2211 61.5238L54.737 80.9761L52.3243 65.4444H53.3799V62.4285H41.4671V65.4444H42.6735L40.2608 81.1269L33.7767 61.5238C36.6418 60.7698 38.9037 58.5079 39.6576 55.492ZM12.5148 91.2301C11.3084 85.9523 11.0068 80.373 11.9116 74.9444C12.8164 69.9682 16.2846 65.8968 21.2608 64.5396C21.2608 64.5396 27.4433 62.7301 30.7608 62.2777L40.4116 91.2301H12.5148ZM43.5783 91.2301L42.3719 87.4603L45.8402 65.5952H49.3084L52.7767 87.3095L51.4195 91.2301H43.5783ZM82.6338 91.2301H54.5862L64.237 62.2777C67.4037 62.7301 73.737 64.5396 73.737 64.5396C80.9751 66.9523 82.6338 72.5317 83.0862 74.9444C83.991 80.373 83.8402 85.9523 82.6338 91.2301Z" fill="white"/>
</svg>
