<svg width="70" height="70" viewBox="0 0 70 70" fill="none" xmlns="http://www.w3.org/2000/svg">
<g id="sushi (2) 1">
<g id="Group">
<g id="Group_2">
<g id="Vector 15">
<path d="M29.1654 41.9998L26.832 45.4998L26.2487 48.4165L27.9987 50.1665H32.082L38.4987 49.5832L39.6654 48.4165L39.082 44.9165L37.9154 42.5832L36.1654 40.2498H32.6654L29.1654 41.9998Z" fill="#ED222A"/>
<path d="M11.082 34.4165L13.4154 34.9998H18.082L23.332 31.4998L22.7487 29.1665L20.9987 27.4165L18.6654 25.6665H15.7487L12.2487 27.4165L11.082 30.9165V34.4165Z" fill="#ED222A"/>
<path d="M48.4154 40.8332L45.4987 43.1665L44.9154 49.5832H56.582V44.3332L54.832 41.9998L51.332 40.2498L48.4154 40.8332Z" fill="#ED222A"/>
</g>
<path id="Vector" d="M33.2522 39.3345C29.18 39.3345 25.8672 42.6473 25.8672 46.7195V48.8206C25.8672 49.9225 26.7637 50.8188 27.8655 50.8188H38.6389C39.7409 50.8188 40.6372 49.9224 40.6372 48.8206V46.7195C40.6372 42.6473 37.3244 39.3345 33.2522 39.3345ZM33.2522 41.3853C34.2933 41.3853 35.2648 41.6862 36.0866 42.2039L32.9346 44.3053C32.1438 43.8406 31.224 43.5728 30.2422 43.5728H28.9486C29.9201 42.2477 31.487 41.3853 33.2522 41.3853ZM27.918 48.7681V46.7195C27.918 46.627 27.9203 46.5348 27.9251 46.4429C27.9252 46.4396 27.9256 46.4365 27.9258 46.4333C27.9404 46.1604 27.9757 45.89 28.0317 45.6235H30.242C32.0054 45.6235 33.4485 47.022 33.5204 48.7681H27.918ZM38.5864 48.7681H35.5707C35.5417 47.6266 35.1539 46.5726 34.5138 45.717L37.6119 43.6516C38.2248 44.5201 38.5864 45.578 38.5864 46.7195V48.7681Z" fill="white"/>
<g id="Vector_2">
<mask id="path-3-inside-1_245_5291" fill="white">
<path d="M68.291 53.1451H62.2154C63.0872 51.924 63.6025 50.4319 63.6025 48.8204V46.7193C63.6025 44.1426 62.8425 41.6564 61.4048 39.5294C61.0877 39.0602 60.4503 38.9369 59.981 39.2542C59.5118 39.5713 59.3886 40.2088 59.7058 40.678C60.9134 42.4645 61.5516 44.5537 61.5516 46.7195V48.8206C61.5516 50.5858 60.7026 52.156 59.3916 53.1453H44.7202C45.2169 52.4485 45.5976 51.6639 45.8329 50.8189H51.9519H56.1353C57.2373 50.8189 58.1336 49.9224 58.1336 48.8206V46.7195C58.1336 42.6473 54.8208 39.3345 50.7486 39.3345C48.5205 39.3345 46.5203 40.3269 45.1652 41.8924C44.7146 40.7844 44.112 39.7542 43.3863 38.8247C45.3169 37.0224 47.9053 35.9165 50.7485 35.9165C52.8198 35.9165 54.8347 36.5073 56.5754 37.6251C57.0519 37.9309 57.6863 37.793 57.9923 37.3162C58.2982 36.8398 58.16 36.2054 57.6834 35.8994C55.6116 34.569 53.2135 33.8657 50.7484 33.8657C47.3722 33.8657 44.2965 35.1748 42.0005 37.3113C39.7048 35.1748 36.6291 33.8657 33.2529 33.8657C32.0938 33.8657 30.9701 34.0201 29.9012 34.3091C29.9041 34.2245 29.9076 34.1401 29.9076 34.055V32.9817L65.1114 12.6568C65.903 12.1999 66.1752 11.1841 65.7181 10.3924L62.933 5.56756C62.7117 5.18393 62.3541 4.90953 61.9263 4.7951C61.4987 4.68025 61.0519 4.73932 60.6684 4.96067L27.3118 24.219C24.9635 21.1122 21.2399 19.1 17.0543 19.1C9.96666 19.1 4.20055 24.8661 4.20055 31.9537V34.0548C4.20055 38.1721 7.55029 41.5219 11.6676 41.5219H21.499C20.7929 43.1119 20.3994 44.8704 20.3994 46.7193V48.8204C20.3994 50.4319 20.9147 51.924 21.7865 53.1451H1.70898C0.766582 53.1451 0 53.9117 0 54.8541V58.2406C0 59.183 0.766582 59.9496 1.70898 59.9496H7.6717V63.5535C7.6717 64.4959 8.43828 65.2625 9.38068 65.2625H21.6016C22.1679 65.2625 22.627 64.8034 22.627 64.2371C22.627 63.6708 22.1679 63.2117 21.6016 63.2117H9.72248V59.9496H47.4414C48.0077 59.9496 48.4668 59.4905 48.4668 58.9242C48.4668 58.3579 48.0077 57.8988 47.4414 57.8988H2.05078V55.1959H67.9492V57.8988H52.2266C51.6603 57.8988 51.2012 58.3579 51.2012 58.9242C51.2012 59.4905 51.6603 59.9496 52.2266 59.9496H60.2775V63.2117H26.3867C25.8204 63.2117 25.3613 63.6708 25.3613 64.2371C25.3613 64.8034 25.8204 65.2625 26.3867 65.2625H60.6193C61.5617 65.2625 62.3283 64.4959 62.3283 63.5535V59.9496H68.291C69.2334 59.9496 70 59.183 70 58.2406V54.8541C70 53.9118 69.2334 53.1451 68.291 53.1451ZM56.083 46.7195V48.7681H53.0672C53.0383 47.6266 52.6505 46.5727 52.0104 45.7171L55.1085 43.6517C55.7215 44.5201 56.083 45.578 56.083 46.7195ZM50.7488 41.3853C51.7899 41.3853 52.7614 41.6862 53.5832 42.2039L50.4312 44.3053C49.6404 43.8406 48.7205 43.5728 47.7388 43.5728H46.4451C47.4167 42.2477 48.9836 41.3853 50.7488 41.3853ZM47.7388 45.6236C49.5022 45.6236 50.9452 47.022 51.0171 48.7681H46.1069V46.7195C46.1069 46.3503 46.0904 45.9849 46.0597 45.6236H47.7388ZM61.3534 6.93324L62.037 8.11723L37.1569 22.4817L28.9939 27.1945C28.8232 26.7677 28.6289 26.3529 28.4151 25.95L61.3534 6.93324ZM28.6739 29.7474L35.7794 25.645L63.0623 9.8932L63.7459 11.0772L20.0555 36.3018C19.8974 36.393 19.7132 36.4175 19.537 36.3702C19.3606 36.323 19.2132 36.2098 19.1219 36.0516C18.9335 35.7251 19.0456 35.3062 19.3721 35.1178L28.6739 29.7474ZM16.7366 29.5397C15.9458 29.075 15.0259 28.8071 14.0442 28.8071H12.7505C13.7221 27.4821 15.2888 26.6196 17.0542 26.6196C18.0953 26.6196 19.0668 26.9206 19.8886 27.4383L16.7366 29.5397ZM17.3227 34.0025H11.7199V31.9539C11.7199 31.8614 11.7223 31.7692 11.7271 31.6773C11.7272 31.674 11.7276 31.6709 11.7277 31.6677C11.7424 31.3948 11.7776 31.1244 11.8337 30.8579H14.044C15.8077 30.8579 17.2506 32.2563 17.3227 34.0025ZM21.414 28.886C21.862 29.5208 22.1748 30.257 22.3113 31.0529L19.2136 32.8413C19.0403 32.1479 18.7321 31.5076 18.3161 30.9514L21.414 28.886ZM6.25119 34.055V31.9539C6.25119 25.997 11.0973 21.1509 17.0542 21.1509C21.704 21.1509 25.6746 24.1047 27.1942 28.2336L24.168 29.9807C23.3029 26.864 20.4429 24.5687 17.0542 24.5687C12.982 24.5687 9.66916 27.8816 9.66916 31.9537V34.0548C9.66916 35.1568 10.5656 36.0531 11.6674 36.0531H17.0014C17.0453 36.4041 17.1582 36.7519 17.3459 37.0769C17.7111 37.7093 18.3008 38.1619 19.0062 38.3509C19.2418 38.414 19.4808 38.4453 19.7183 38.4453C20.1921 38.4453 20.6597 38.321 21.0811 38.0778L27.8544 34.1672C27.7941 37.1019 25.3898 39.4711 22.4409 39.4711H11.6674C8.68096 39.4712 6.25119 37.0414 6.25119 34.055ZM22.4502 48.8206V46.7195C22.4502 44.779 22.9677 42.9588 23.8677 41.3836C26.4562 40.8805 28.5718 39.0374 29.4584 36.6071C30.6396 36.1617 31.9179 35.9165 33.2531 35.9165C39.21 35.9165 44.0561 40.7626 44.0561 46.7195V48.8206C44.0561 50.5858 43.2071 52.156 41.8961 53.1453H24.6102C23.2992 52.1558 22.4502 50.5856 22.4502 48.8206Z"/>
</mask>
<path d="M68.291 53.1451H62.2154C63.0872 51.924 63.6025 50.4319 63.6025 48.8204V46.7193C63.6025 44.1426 62.8425 41.6564 61.4048 39.5294C61.0877 39.0602 60.4503 38.9369 59.981 39.2542C59.5118 39.5713 59.3886 40.2088 59.7058 40.678C60.9134 42.4645 61.5516 44.5537 61.5516 46.7195V48.8206C61.5516 50.5858 60.7026 52.156 59.3916 53.1453H44.7202C45.2169 52.4485 45.5976 51.6639 45.8329 50.8189H51.9519H56.1353C57.2373 50.8189 58.1336 49.9224 58.1336 48.8206V46.7195C58.1336 42.6473 54.8208 39.3345 50.7486 39.3345C48.5205 39.3345 46.5203 40.3269 45.1652 41.8924C44.7146 40.7844 44.112 39.7542 43.3863 38.8247C45.3169 37.0224 47.9053 35.9165 50.7485 35.9165C52.8198 35.9165 54.8347 36.5073 56.5754 37.6251C57.0519 37.9309 57.6863 37.793 57.9923 37.3162C58.2982 36.8398 58.16 36.2054 57.6834 35.8994C55.6116 34.569 53.2135 33.8657 50.7484 33.8657C47.3722 33.8657 44.2965 35.1748 42.0005 37.3113C39.7048 35.1748 36.6291 33.8657 33.2529 33.8657C32.0938 33.8657 30.9701 34.0201 29.9012 34.3091C29.9041 34.2245 29.9076 34.1401 29.9076 34.055V32.9817L65.1114 12.6568C65.903 12.1999 66.1752 11.1841 65.7181 10.3924L62.933 5.56756C62.7117 5.18393 62.3541 4.90953 61.9263 4.7951C61.4987 4.68025 61.0519 4.73932 60.6684 4.96067L27.3118 24.219C24.9635 21.1122 21.2399 19.1 17.0543 19.1C9.96666 19.1 4.20055 24.8661 4.20055 31.9537V34.0548C4.20055 38.1721 7.55029 41.5219 11.6676 41.5219H21.499C20.7929 43.1119 20.3994 44.8704 20.3994 46.7193V48.8204C20.3994 50.4319 20.9147 51.924 21.7865 53.1451H1.70898C0.766582 53.1451 0 53.9117 0 54.8541V58.2406C0 59.183 0.766582 59.9496 1.70898 59.9496H7.6717V63.5535C7.6717 64.4959 8.43828 65.2625 9.38068 65.2625H21.6016C22.1679 65.2625 22.627 64.8034 22.627 64.2371C22.627 63.6708 22.1679 63.2117 21.6016 63.2117H9.72248V59.9496H47.4414C48.0077 59.9496 48.4668 59.4905 48.4668 58.9242C48.4668 58.3579 48.0077 57.8988 47.4414 57.8988H2.05078V55.1959H67.9492V57.8988H52.2266C51.6603 57.8988 51.2012 58.3579 51.2012 58.9242C51.2012 59.4905 51.6603 59.9496 52.2266 59.9496H60.2775V63.2117H26.3867C25.8204 63.2117 25.3613 63.6708 25.3613 64.2371C25.3613 64.8034 25.8204 65.2625 26.3867 65.2625H60.6193C61.5617 65.2625 62.3283 64.4959 62.3283 63.5535V59.9496H68.291C69.2334 59.9496 70 59.183 70 58.2406V54.8541C70 53.9118 69.2334 53.1451 68.291 53.1451ZM56.083 46.7195V48.7681H53.0672C53.0383 47.6266 52.6505 46.5727 52.0104 45.7171L55.1085 43.6517C55.7215 44.5201 56.083 45.578 56.083 46.7195ZM50.7488 41.3853C51.7899 41.3853 52.7614 41.6862 53.5832 42.2039L50.4312 44.3053C49.6404 43.8406 48.7205 43.5728 47.7388 43.5728H46.4451C47.4167 42.2477 48.9836 41.3853 50.7488 41.3853ZM47.7388 45.6236C49.5022 45.6236 50.9452 47.022 51.0171 48.7681H46.1069V46.7195C46.1069 46.3503 46.0904 45.9849 46.0597 45.6236H47.7388ZM61.3534 6.93324L62.037 8.11723L37.1569 22.4817L28.9939 27.1945C28.8232 26.7677 28.6289 26.3529 28.4151 25.95L61.3534 6.93324ZM28.6739 29.7474L35.7794 25.645L63.0623 9.8932L63.7459 11.0772L20.0555 36.3018C19.8974 36.393 19.7132 36.4175 19.537 36.3702C19.3606 36.323 19.2132 36.2098 19.1219 36.0516C18.9335 35.7251 19.0456 35.3062 19.3721 35.1178L28.6739 29.7474ZM16.7366 29.5397C15.9458 29.075 15.0259 28.8071 14.0442 28.8071H12.7505C13.7221 27.4821 15.2888 26.6196 17.0542 26.6196C18.0953 26.6196 19.0668 26.9206 19.8886 27.4383L16.7366 29.5397ZM17.3227 34.0025H11.7199V31.9539C11.7199 31.8614 11.7223 31.7692 11.7271 31.6773C11.7272 31.674 11.7276 31.6709 11.7277 31.6677C11.7424 31.3948 11.7776 31.1244 11.8337 30.8579H14.044C15.8077 30.8579 17.2506 32.2563 17.3227 34.0025ZM21.414 28.886C21.862 29.5208 22.1748 30.257 22.3113 31.0529L19.2136 32.8413C19.0403 32.1479 18.7321 31.5076 18.3161 30.9514L21.414 28.886ZM6.25119 34.055V31.9539C6.25119 25.997 11.0973 21.1509 17.0542 21.1509C21.704 21.1509 25.6746 24.1047 27.1942 28.2336L24.168 29.9807C23.3029 26.864 20.4429 24.5687 17.0542 24.5687C12.982 24.5687 9.66916 27.8816 9.66916 31.9537V34.0548C9.66916 35.1568 10.5656 36.0531 11.6674 36.0531H17.0014C17.0453 36.4041 17.1582 36.7519 17.3459 37.0769C17.7111 37.7093 18.3008 38.1619 19.0062 38.3509C19.2418 38.414 19.4808 38.4453 19.7183 38.4453C20.1921 38.4453 20.6597 38.321 21.0811 38.0778L27.8544 34.1672C27.7941 37.1019 25.3898 39.4711 22.4409 39.4711H11.6674C8.68096 39.4712 6.25119 37.0414 6.25119 34.055ZM22.4502 48.8206V46.7195C22.4502 44.779 22.9677 42.9588 23.8677 41.3836C26.4562 40.8805 28.5718 39.0374 29.4584 36.6071C30.6396 36.1617 31.9179 35.9165 33.2531 35.9165C39.21 35.9165 44.0561 40.7626 44.0561 46.7195V48.8206C44.0561 50.5858 43.2071 52.156 41.8961 53.1453H24.6102C23.2992 52.1558 22.4502 50.5856 22.4502 48.8206Z" fill="white" stroke="black" stroke-width="0.615385" mask="url(#path-3-inside-1_245_5291)"/>
</g>
</g>
</g>
</g>
</svg>
