<svg width="70" height="70" viewBox="0 0 70 70" fill="none" xmlns="http://www.w3.org/2000/svg">
<g id="food-delivery 1">
<g id="delivery, logistic, food, cart, shipping">
<g id="Vector">
<mask id="path-1-inside-1_245_5340" fill="white">
<path d="M64.5099 39.528C64.275 32.4969 61.5419 25.7797 56.8012 20.582C52.0605 15.3842 45.6225 12.0462 38.6427 11.167C39.0812 10.508 39.3328 9.74242 39.3705 8.95175C39.4083 8.16108 39.2308 7.37498 38.857 6.67722C38.4832 5.97946 37.9271 5.39619 37.248 4.98956C36.5688 4.58292 35.7921 4.36816 35.0005 4.36816C34.2089 4.36816 33.4322 4.58292 32.753 4.98956C32.0739 5.39619 31.5178 5.97946 31.144 6.67722C30.7702 7.37498 30.5927 8.16108 30.6305 8.95175C30.6682 9.74242 30.9198 10.508 31.3583 11.167C24.3785 12.0462 17.9405 15.3842 13.1998 20.582C8.45906 25.7797 5.726 32.4969 5.49112 39.528C4.5263 39.7682 3.67271 40.3313 3.07211 41.1237C2.4715 41.9161 2.16002 42.8901 2.1894 43.884C2.21878 44.8778 2.58726 45.8317 3.23362 46.5873C3.87999 47.3428 4.76536 47.8545 5.74268 48.0373L7.71143 53.9436C7.78678 54.1596 7.92707 54.347 8.11309 54.4801C8.2991 54.6133 8.52174 54.6857 8.7505 54.6873H13.2458C12.5154 55.3986 11.9349 56.2489 11.5385 57.1882C11.1421 58.1275 10.9379 59.1366 10.9379 60.1561C10.9379 61.1756 11.1421 62.1847 11.5385 63.124C11.9349 64.0632 12.5154 64.9136 13.2458 65.6248H5.46925C5.17917 65.6248 4.90097 65.7401 4.69585 65.9452C4.49073 66.1503 4.3755 66.4285 4.3755 66.7186C4.3755 67.0087 4.49073 67.2869 4.69585 67.492C4.90097 67.6971 5.17917 67.8123 5.46925 67.8123H18.5942C20.1158 67.8136 21.6031 67.3611 22.8661 66.5127C24.1291 65.6642 25.1104 64.4584 25.6846 63.0494C26.2588 61.6404 26.3997 60.0922 26.0895 58.6026C25.7792 57.1131 25.0317 55.7499 23.9427 54.6873H43.8708C43.1404 55.3986 42.5599 56.2489 42.1635 57.1882C41.7671 58.1275 41.5629 59.1366 41.5629 60.1561C41.5629 61.1756 41.7671 62.1847 42.1635 63.124C42.5599 64.0632 43.1404 64.9136 43.8708 65.6248H36.0942C35.8042 65.6248 35.526 65.7401 35.3208 65.9452C35.1157 66.1503 35.0005 66.4285 35.0005 66.7186C35.0005 67.0087 35.1157 67.2869 35.3208 67.492C35.526 67.6971 35.8042 67.8123 36.0942 67.8123H49.2192C50.7408 67.8136 52.2281 67.3611 53.4911 66.5127C54.7541 65.6642 55.7354 64.4584 56.3096 63.0494C56.8838 61.6404 57.0247 60.0922 56.7145 58.6026C56.4042 57.1131 55.6567 55.7499 54.5677 54.6873H61.2505C61.4792 54.6857 61.7019 54.6133 61.8879 54.4801C62.0739 54.347 62.2142 54.1596 62.2896 53.9436L64.2583 48.0373C65.2356 47.8545 66.121 47.3428 66.7674 46.5873C67.4137 45.8317 67.7822 44.8778 67.8116 43.884C67.841 42.8901 67.5295 41.9161 66.9289 41.1237C66.3283 40.3313 65.4747 39.7682 64.5099 39.528ZM35.0005 6.56234C35.4331 6.56234 35.8561 6.69063 36.2158 6.931C36.5755 7.17136 36.8559 7.513 37.0215 7.91272C37.187 8.31243 37.2304 8.75226 37.146 9.1766C37.0616 9.60093 36.8532 9.9907 36.5473 10.2966C36.2414 10.6026 35.8516 10.8109 35.4273 10.8953C35.0029 10.9797 34.5631 10.9364 34.1634 10.7708C33.7637 10.6053 33.422 10.3249 33.1817 9.96515C32.9413 9.60541 32.813 9.18248 32.813 8.74984C32.8147 8.17021 33.0457 7.61481 33.4556 7.20495C33.8655 6.79509 34.4209 6.56407 35.0005 6.56234ZM35.0005 13.1248C42.0603 13.1343 48.8437 15.8702 53.9346 20.7614C59.0255 25.6526 62.0305 32.321 62.3224 39.3748H7.67862C7.97048 32.321 10.9755 25.6526 16.0664 20.7614C21.1573 15.8702 27.9407 13.1343 35.0005 13.1248ZM24.063 60.1561C24.063 61.2377 23.7423 62.295 23.1413 63.1944C22.5404 64.0937 21.6863 64.7946 20.687 65.2085C19.6878 65.6225 18.5882 65.7308 17.5273 65.5198C16.4665 65.3087 15.4921 64.7879 14.7273 64.0231C13.9624 63.2583 13.4416 62.2838 13.2306 61.223C13.0196 60.1622 13.1279 59.0626 13.5418 58.0633C13.9557 57.064 14.6566 56.2099 15.556 55.609C16.4553 55.0081 17.5126 54.6873 18.5942 54.6873C20.0446 54.6873 21.4356 55.2635 22.4612 56.2891C23.4868 57.3147 24.063 58.7057 24.063 60.1561ZM54.688 60.1561C54.688 61.2377 54.3673 62.295 53.7663 63.1944C53.1654 64.0937 52.3113 64.7946 51.312 65.2085C50.3128 65.6225 49.2132 65.7308 48.1523 65.5198C47.0915 65.3087 46.1171 64.7879 45.3523 64.0231C44.5874 63.2583 44.0666 62.2838 43.8556 61.223C43.6446 60.1622 43.7529 59.0626 44.1668 58.0633C44.5807 57.064 45.2816 56.2099 46.181 55.609C47.0803 55.0081 48.1376 54.6873 49.2192 54.6873C50.6697 54.6873 52.0606 55.2635 53.0862 56.2891C54.1118 57.3147 54.688 58.7057 54.688 60.1561ZM60.463 52.4998H9.538L8.08331 48.1248H61.9177L60.463 52.4998ZM63.438 45.9373H6.563C5.98284 45.9373 5.42644 45.7069 5.0162 45.2966C4.60596 44.8864 4.3755 44.33 4.3755 43.7498C4.3755 43.1697 4.60596 42.6133 5.0162 42.203C5.42644 41.7928 5.98284 41.5623 6.563 41.5623H63.438C64.0182 41.5623 64.5746 41.7928 64.9848 42.203C65.395 42.6133 65.6255 43.1697 65.6255 43.7498C65.6255 44.33 65.395 44.8864 64.9848 45.2966C64.5746 45.7069 64.0182 45.9373 63.438 45.9373Z"/>
</mask>
<path d="M64.5099 39.528C64.275 32.4969 61.5419 25.7797 56.8012 20.582C52.0605 15.3842 45.6225 12.0462 38.6427 11.167C39.0812 10.508 39.3328 9.74242 39.3705 8.95175C39.4083 8.16108 39.2308 7.37498 38.857 6.67722C38.4832 5.97946 37.9271 5.39619 37.248 4.98956C36.5688 4.58292 35.7921 4.36816 35.0005 4.36816C34.2089 4.36816 33.4322 4.58292 32.753 4.98956C32.0739 5.39619 31.5178 5.97946 31.144 6.67722C30.7702 7.37498 30.5927 8.16108 30.6305 8.95175C30.6682 9.74242 30.9198 10.508 31.3583 11.167C24.3785 12.0462 17.9405 15.3842 13.1998 20.582C8.45906 25.7797 5.726 32.4969 5.49112 39.528C4.5263 39.7682 3.67271 40.3313 3.07211 41.1237C2.4715 41.9161 2.16002 42.8901 2.1894 43.884C2.21878 44.8778 2.58726 45.8317 3.23362 46.5873C3.87999 47.3428 4.76536 47.8545 5.74268 48.0373L7.71143 53.9436C7.78678 54.1596 7.92707 54.347 8.11309 54.4801C8.2991 54.6133 8.52174 54.6857 8.7505 54.6873H13.2458C12.5154 55.3986 11.9349 56.2489 11.5385 57.1882C11.1421 58.1275 10.9379 59.1366 10.9379 60.1561C10.9379 61.1756 11.1421 62.1847 11.5385 63.124C11.9349 64.0632 12.5154 64.9136 13.2458 65.6248H5.46925C5.17917 65.6248 4.90097 65.7401 4.69585 65.9452C4.49073 66.1503 4.3755 66.4285 4.3755 66.7186C4.3755 67.0087 4.49073 67.2869 4.69585 67.492C4.90097 67.6971 5.17917 67.8123 5.46925 67.8123H18.5942C20.1158 67.8136 21.6031 67.3611 22.8661 66.5127C24.1291 65.6642 25.1104 64.4584 25.6846 63.0494C26.2588 61.6404 26.3997 60.0922 26.0895 58.6026C25.7792 57.1131 25.0317 55.7499 23.9427 54.6873H43.8708C43.1404 55.3986 42.5599 56.2489 42.1635 57.1882C41.7671 58.1275 41.5629 59.1366 41.5629 60.1561C41.5629 61.1756 41.7671 62.1847 42.1635 63.124C42.5599 64.0632 43.1404 64.9136 43.8708 65.6248H36.0942C35.8042 65.6248 35.526 65.7401 35.3208 65.9452C35.1157 66.1503 35.0005 66.4285 35.0005 66.7186C35.0005 67.0087 35.1157 67.2869 35.3208 67.492C35.526 67.6971 35.8042 67.8123 36.0942 67.8123H49.2192C50.7408 67.8136 52.2281 67.3611 53.4911 66.5127C54.7541 65.6642 55.7354 64.4584 56.3096 63.0494C56.8838 61.6404 57.0247 60.0922 56.7145 58.6026C56.4042 57.1131 55.6567 55.7499 54.5677 54.6873H61.2505C61.4792 54.6857 61.7019 54.6133 61.8879 54.4801C62.0739 54.347 62.2142 54.1596 62.2896 53.9436L64.2583 48.0373C65.2356 47.8545 66.121 47.3428 66.7674 46.5873C67.4137 45.8317 67.7822 44.8778 67.8116 43.884C67.841 42.8901 67.5295 41.9161 66.9289 41.1237C66.3283 40.3313 65.4747 39.7682 64.5099 39.528ZM35.0005 6.56234C35.4331 6.56234 35.8561 6.69063 36.2158 6.931C36.5755 7.17136 36.8559 7.513 37.0215 7.91272C37.187 8.31243 37.2304 8.75226 37.146 9.1766C37.0616 9.60093 36.8532 9.9907 36.5473 10.2966C36.2414 10.6026 35.8516 10.8109 35.4273 10.8953C35.0029 10.9797 34.5631 10.9364 34.1634 10.7708C33.7637 10.6053 33.422 10.3249 33.1817 9.96515C32.9413 9.60541 32.813 9.18248 32.813 8.74984C32.8147 8.17021 33.0457 7.61481 33.4556 7.20495C33.8655 6.79509 34.4209 6.56407 35.0005 6.56234ZM35.0005 13.1248C42.0603 13.1343 48.8437 15.8702 53.9346 20.7614C59.0255 25.6526 62.0305 32.321 62.3224 39.3748H7.67862C7.97048 32.321 10.9755 25.6526 16.0664 20.7614C21.1573 15.8702 27.9407 13.1343 35.0005 13.1248ZM24.063 60.1561C24.063 61.2377 23.7423 62.295 23.1413 63.1944C22.5404 64.0937 21.6863 64.7946 20.687 65.2085C19.6878 65.6225 18.5882 65.7308 17.5273 65.5198C16.4665 65.3087 15.4921 64.7879 14.7273 64.0231C13.9624 63.2583 13.4416 62.2838 13.2306 61.223C13.0196 60.1622 13.1279 59.0626 13.5418 58.0633C13.9557 57.064 14.6566 56.2099 15.556 55.609C16.4553 55.0081 17.5126 54.6873 18.5942 54.6873C20.0446 54.6873 21.4356 55.2635 22.4612 56.2891C23.4868 57.3147 24.063 58.7057 24.063 60.1561ZM54.688 60.1561C54.688 61.2377 54.3673 62.295 53.7663 63.1944C53.1654 64.0937 52.3113 64.7946 51.312 65.2085C50.3128 65.6225 49.2132 65.7308 48.1523 65.5198C47.0915 65.3087 46.1171 64.7879 45.3523 64.0231C44.5874 63.2583 44.0666 62.2838 43.8556 61.223C43.6446 60.1622 43.7529 59.0626 44.1668 58.0633C44.5807 57.064 45.2816 56.2099 46.181 55.609C47.0803 55.0081 48.1376 54.6873 49.2192 54.6873C50.6697 54.6873 52.0606 55.2635 53.0862 56.2891C54.1118 57.3147 54.688 58.7057 54.688 60.1561ZM60.463 52.4998H9.538L8.08331 48.1248H61.9177L60.463 52.4998ZM63.438 45.9373H6.563C5.98284 45.9373 5.42644 45.7069 5.0162 45.2966C4.60596 44.8864 4.3755 44.33 4.3755 43.7498C4.3755 43.1697 4.60596 42.6133 5.0162 42.203C5.42644 41.7928 5.98284 41.5623 6.563 41.5623H63.438C64.0182 41.5623 64.5746 41.7928 64.9848 42.203C65.395 42.6133 65.6255 43.1697 65.6255 43.7498C65.6255 44.33 65.395 44.8864 64.9848 45.2966C64.5746 45.7069 64.0182 45.9373 63.438 45.9373Z" fill="white" stroke="black" stroke-width="0.6" mask="url(#path-1-inside-1_245_5340)"/>
</g>
<path id="Vector_2" d="M49.5938 63.4375C50.2427 63.4375 50.8771 63.2451 51.4167 62.8845C51.9563 62.524 52.3769 62.0115 52.6252 61.4119C52.8736 60.8124 52.9386 60.1526 52.812 59.5161C52.6853 58.8796 52.3728 58.2949 51.9139 57.8361C51.4551 57.3772 50.8704 57.0647 50.2339 56.938C49.5974 56.8114 48.9376 56.8764 48.3381 57.1248C47.7385 57.3731 47.226 57.7937 46.8655 58.3333C46.5049 58.8729 46.3125 59.5073 46.3125 60.1563C46.3125 61.0265 46.6582 61.8611 47.2736 62.4764C47.8889 63.0918 48.7235 63.4375 49.5938 63.4375ZM49.5938 59.0625C49.8101 59.0625 50.0215 59.1266 50.2014 59.2468C50.3813 59.367 50.5215 59.5378 50.6042 59.7377C50.687 59.9375 50.7087 60.1575 50.6665 60.3696C50.6243 60.5818 50.5201 60.7767 50.3671 60.9297C50.2142 61.0826 50.0193 61.1868 49.8071 61.229C49.595 61.2712 49.375 61.2495 49.1752 61.1667C48.9753 61.084 48.8045 60.9438 48.6843 60.7639C48.5641 60.584 48.5 60.3726 48.5 60.1563C48.5 59.8662 48.6152 59.588 48.8204 59.3829C49.0255 59.1777 49.3037 59.0625 49.5938 59.0625Z" fill="#ED222A"/>
<path id="Vector_3" d="M18.5938 63.4375C19.2427 63.4375 19.8771 63.2451 20.4167 62.8845C20.9563 62.524 21.3769 62.0115 21.6252 61.4119C21.8736 60.8124 21.9386 60.1526 21.812 59.5161C21.6853 58.8796 21.3728 58.2949 20.9139 57.8361C20.4551 57.3772 19.8704 57.0647 19.2339 56.938C18.5974 56.8114 17.9376 56.8764 17.3381 57.1248C16.7385 57.3731 16.226 57.7937 15.8655 58.3333C15.5049 58.8729 15.3125 59.5073 15.3125 60.1563C15.3125 61.0265 15.6582 61.8611 16.2736 62.4764C16.8889 63.0918 17.7235 63.4375 18.5938 63.4375ZM18.5938 59.0625C18.8101 59.0625 19.0215 59.1266 19.2014 59.2468C19.3813 59.367 19.5215 59.5378 19.6042 59.7377C19.687 59.9375 19.7087 60.1575 19.6665 60.3696C19.6243 60.5818 19.5201 60.7767 19.3671 60.9297C19.2142 61.0826 19.0193 61.1868 18.8071 61.229C18.595 61.2712 18.375 61.2495 18.1752 61.1667C17.9753 61.084 17.8045 60.9438 17.6843 60.7639C17.5641 60.584 17.5 60.3726 17.5 60.1563C17.5 59.8662 17.6152 59.588 17.8204 59.3829C18.0255 59.1777 18.3037 59.0625 18.5938 59.0625Z" fill="#ED222A"/>
<path id="Vector_4" d="M41.8174 16.4068L41.8174 16.4069L41.8214 16.408C46.2992 17.6981 50.3311 20.2054 53.4685 23.6509C56.6058 27.0962 58.7255 31.3446 59.5917 35.9231C59.6368 36.1687 59.5827 36.4223 59.4413 36.6281C59.2997 36.8341 59.0823 36.9755 58.8367 37.0213L58.8358 37.0215C58.7798 37.0323 58.7228 37.0376 58.6657 37.0373H58.6652C58.4446 37.0372 58.231 36.9599 58.0615 36.8187C57.8921 36.6775 57.7774 36.4814 57.7375 36.2644L57.7373 36.2637C56.9363 32.0308 54.9763 28.1032 52.0755 24.9181C49.1748 21.733 45.447 19.4153 41.3073 18.223L41.3073 18.223L41.3022 18.2217C41.1795 18.191 41.0643 18.136 40.9633 18.0599C40.8623 17.9838 40.7777 17.8882 40.7144 17.7787C40.651 17.6693 40.6104 17.5483 40.5947 17.4228C40.5791 17.2973 40.5889 17.17 40.6234 17.0484C40.6579 16.9268 40.7165 16.8133 40.7958 16.7148C40.875 16.6162 40.9732 16.5346 41.0846 16.4748C41.196 16.415 41.3182 16.3781 41.4441 16.3664C41.57 16.3548 41.697 16.3685 41.8174 16.4068ZM57.59 36.2916C57.6362 36.543 57.7691 36.7703 57.9655 36.9339C58.1619 37.0975 58.4095 37.1872 58.6651 37.1873C58.7319 37.1876 58.7986 37.1814 58.8642 37.1688L57.59 36.2916Z" fill="white" stroke="black" stroke-width="0.3"/>
<path id="Vector_5" d="M37.287 15.4153C36.5312 15.3475 35.7656 15.3125 35 15.3125C34.7099 15.3125 34.4317 15.4277 34.2266 15.6329C34.0215 15.838 33.9062 16.1162 33.9062 16.4062C33.9062 16.6963 34.0215 16.9745 34.2266 17.1796C34.4317 17.3848 34.7099 17.5 35 17.5C35.7 17.5 36.4022 17.5317 37.088 17.5941C37.1219 17.5941 37.1558 17.5941 37.1886 17.5941C37.4787 17.6071 37.7621 17.5044 37.9764 17.3085C38.1908 17.1126 38.3185 16.8396 38.3316 16.5495C38.3446 16.2595 38.2419 15.9761 38.046 15.7617C37.8501 15.5474 37.5771 15.4196 37.287 15.4066V15.4153Z" fill="white"/>
<path id="Vector_6" d="M14.2188 16.2562H3.28125C3.03095 16.2562 2.79091 16.1568 2.61392 15.9798C2.43693 15.8028 2.3375 15.5628 2.3375 15.3125C2.3375 15.0622 2.43693 14.8222 2.61392 14.6452C2.79091 14.4682 3.03095 14.3688 3.28125 14.3688H14.2188C14.469 14.3688 14.7091 14.4682 14.8861 14.6452C15.0631 14.8222 15.1625 15.0622 15.1625 15.3125C15.1625 15.5628 15.0631 15.8028 14.8861 15.9798C14.7091 16.1568 14.469 16.2562 14.2188 16.2562Z" fill="white" stroke="black" stroke-width="0.3"/>
<path id="Vector_7" d="M20.7812 11.8812H7.65625C7.40595 11.8812 7.16591 11.7818 6.98892 11.6048C6.81193 11.4278 6.7125 11.1878 6.7125 10.9375C6.7125 10.6872 6.81193 10.4472 6.98892 10.2702C7.16591 10.0932 7.40595 9.99375 7.65625 9.99375H20.7812C21.0315 9.99375 21.2716 10.0932 21.4486 10.2702C21.6256 10.4472 21.725 10.6872 21.725 10.9375C21.725 11.1878 21.6256 11.4278 21.4486 11.6048C21.2716 11.7818 21.0315 11.8812 20.7812 11.8812Z" fill="white" stroke="black" stroke-width="0.3"/>
<path id="Vector_8" d="M25.1562 7.50625H16.4062C16.156 7.50625 15.9159 7.40682 15.7389 7.22983C15.5619 7.05284 15.4625 6.8128 15.4625 6.5625C15.4625 6.3122 15.5619 6.07216 15.7389 5.89517C15.9159 5.71818 16.156 5.61875 16.4062 5.61875H25.1562C25.4065 5.61875 25.6466 5.71818 25.8236 5.89517C26.0006 6.07216 26.1 6.3122 26.1 6.5625C26.1 6.8128 26.0006 7.05284 25.8236 7.22983C25.6466 7.40682 25.4065 7.50625 25.1562 7.50625Z" fill="white" stroke="black" stroke-width="0.3"/>
<path id="Vector_9" d="M12.0312 7.50625H10.9375C10.6872 7.50625 10.4472 7.40682 10.2702 7.22983C10.0932 7.05284 9.99375 6.8128 9.99375 6.5625C9.99375 6.3122 10.0932 6.07216 10.2702 5.89517C10.4472 5.71818 10.6872 5.61875 10.9375 5.61875H12.0312C12.2815 5.61875 12.5216 5.71818 12.6986 5.89517C12.8756 6.07216 12.975 6.3122 12.975 6.5625C12.975 6.8128 12.8756 7.05284 12.6986 7.22983C12.5216 7.40682 12.2815 7.50625 12.0312 7.50625Z" fill="white" stroke="black" stroke-width="0.3"/>
</g>
<circle id="Ellipse 5" cx="19" cy="60" r="2" fill="#ED222A"/>
<circle id="Ellipse 6" cx="49" cy="60" r="2" fill="#ED222A"/>
</g>
</svg>
