<svg width="71" height="71" viewBox="0 0 71 71" fill="none" xmlns="http://www.w3.org/2000/svg">
<g id="sushi (3) 1" clip-path="url(#clip0_245_5314)">
<path id="Vector" d="M39.5299 40.3021C41.0552 40.3021 42.2904 39.0669 42.2904 37.5417C42.2904 36.0164 41.0552 34.7812 39.5299 34.7812C38.0047 34.7812 36.7695 36.0164 36.7695 37.5417C36.7695 39.0669 38.0047 40.3021 39.5299 40.3021Z" fill="#ED222A"/>
<path id="Vector_2" d="M20.0057 63.7655C20.0057 64.4168 19.4769 64.9457 18.8255 64.9457C18.1742 64.9457 17.6453 64.4168 17.6453 63.7655C17.6453 63.1141 18.1742 62.5853 18.8255 62.5853C19.4769 62.5853 20.0057 63.1141 20.0057 63.7655Z" fill="white" stroke="black" stroke-width="0.4"/>
<path id="Vector_3" d="M20.7497 6.06793L20.6084 5.92674L20.671 5.86406C20.7474 5.94533 20.7496 6.06128 20.7497 6.06793ZM20.4055 6.90104C20.4055 6.58171 20.5395 6.27885 20.7499 6.06808L20.7504 6.06758L20.753 6.06493L20.7642 6.05376L20.8091 6.00885L20.9821 5.83585L21.6042 5.21369L23.5 3.31792L26.2721 0.545786L26.1307 0.404358L26.2722 0.545779C26.4935 0.324454 26.7936 0.2 27.1066 0.2H43.6691C43.9821 0.2 44.2822 0.324454 44.5035 0.545779L50.0205 6.06277L50.022 6.06446L50.0289 6.07157L50.0418 6.08477C50.0516 6.09493 50.0651 6.10941 50.0813 6.12818C50.1138 6.16588 50.157 6.22113 50.2 6.29264C50.2861 6.43558 50.3701 6.64084 50.3701 6.90104V18.2188V18.4188H50.5701H57.4712C58.0478 18.4188 58.5403 18.836 58.6352 19.4049L66.3811 65.8779C66.3811 65.8779 66.3811 65.878 66.3811 65.878C66.5715 67.0234 66.2508 68.1874 65.5006 69.0731C64.7498 69.9588 63.654 70.4667 62.4938 70.4667H8.28183C7.12108 70.4667 6.02528 69.9588 5.27505 69.0731C4.52479 68.1874 4.20367 67.0228 4.39455 65.878L4.19727 65.8451L4.39455 65.878L12.1404 19.4049L12.1405 19.4048C12.2349 18.836 12.7272 18.4188 13.3045 18.4188H20.2055H20.4055V18.2188V6.90104ZM42.2889 18.4188H42.4889V18.2188V8.28125V8.08125H42.2889H28.4868H28.2868V8.28125V18.2188V18.4188H28.4868H42.2889ZM22.966 8.08125H22.766V8.28125V18.2188V18.4188H22.966H25.7264H25.9264V18.2188V8.28125V8.08125H25.7264H22.966ZM45.0493 8.08125H44.8493V8.28125V18.2188V18.4188H45.0493H47.8097H48.0097V18.2188V8.28125V8.08125H47.8097H45.0493ZM27.6781 2.56042H27.5952L27.5367 2.619L24.7762 5.37941L24.4348 5.72083H24.9177H45.8575H46.3403L45.9989 5.37941L43.2385 2.619L43.1799 2.56042H43.0971H27.6781ZM6.72267 66.2662L6.72264 66.2664C6.64566 66.7307 6.77138 67.1878 7.07564 67.5475L7.07588 67.5478C7.38066 67.9068 7.81053 68.1063 8.28183 68.1063H62.4938C62.9651 68.1063 63.3951 67.9068 63.6994 67.5477C64.0043 67.1879 64.13 66.7307 64.053 66.2659L64.053 66.2657L56.499 20.9463L56.4712 20.7792H56.3018H14.4739H14.3045L14.2766 20.9463L6.72267 66.2662Z" fill="white" stroke="black" stroke-width="0.4"/>
<path id="Vector_4" d="M23.1648 63.7655C23.1648 63.1136 23.6932 62.5853 24.3451 62.5853H51.9492C52.6006 62.5853 53.1294 63.1136 53.1294 63.7655C53.1294 64.4173 52.6006 64.9457 51.9492 64.9457H24.3451C23.6932 64.9457 23.1648 64.4174 23.1648 63.7655Z" fill="white" stroke="black" stroke-width="0.4"/>
<path id="Vector_5" d="M20.0468 53.4266L20.0466 53.4267C19.9111 53.4774 19.7715 53.5014 19.6347 53.5014C19.1558 53.5014 18.7056 53.2078 18.5287 52.7333L18.5287 52.7332C18.301 52.1229 18.6112 51.4429 19.222 51.2152L19.2221 51.2151L26.3275 48.5642L26.4104 48.5332L26.4433 48.451L35.5386 25.6813L35.5387 25.6813C35.7802 25.0759 36.4672 24.7809 37.0724 25.0229C37.6778 25.265 37.9723 25.9514 37.7303 26.5567L37.7303 26.5568L36.4789 29.6903L36.3131 30.1055L36.7332 29.9524C37.6092 29.633 38.5511 29.4604 39.5275 29.4604C43.9831 29.4604 47.6088 33.0855 47.6088 37.5416C47.6088 38.565 47.4157 39.5562 47.0584 40.4743L46.8966 40.8902L47.3147 40.7342L50.7264 39.4613C51.3374 39.2335 52.0173 39.5439 52.2451 40.1546C52.4728 40.7655 52.1625 41.445 51.5517 41.6728L51.5515 41.6728C51.419 41.7224 45.6097 43.8897 39.8314 46.0454L31.9008 49.0041L29.2908 49.9777L28.5588 50.2508L28.3652 50.323L28.2989 50.3477L28.2151 50.3785L28.182 50.4613L25.2976 57.6832L25.2976 57.6832C25.0569 58.2862 24.3714 58.584 23.7637 58.3415C23.1584 58.0994 22.8639 57.4129 23.1055 56.8077L25.0604 51.9134L25.2279 51.4939L24.8047 51.6518L20.0468 53.4266ZM34.255 35.3177H34.2527L34.2028 35.4445C33.9402 36.1122 33.8067 36.818 33.8067 37.5416C33.8067 40.6961 36.3725 43.2624 39.5275 43.2624C42.6547 43.2624 45.2483 40.7292 45.2483 37.5416C45.2483 34.3871 42.682 31.8208 39.5275 31.8208C37.2067 31.8208 35.1517 33.1892 34.255 35.3177ZM32.278 41.1074L32.0793 40.7051L31.9129 41.1217L29.5649 46.9995L29.3974 47.4189L29.8206 47.2611L35.7388 45.0533L36.1563 44.8975L35.7624 44.6891C34.2575 43.893 33.033 42.6363 32.278 41.1074Z" fill="white" stroke="black" stroke-width="0.4"/>
</g>
<defs>
<clipPath id="clip0_245_5314">
<rect width="70.6667" height="70.6667" fill="white"/>
</clipPath>
</defs>
</svg>
