<svg width="64" height="64" viewBox="0 0 64 64" fill="none" xmlns="http://www.w3.org/2000/svg">
<path d="M60.7906 36.1328V58.6609C60.7906 61.601 58.3986 63.993 55.4585 63.993H8.53598C5.59586 63.993 3.20388 61.601 3.20388 58.6609V36.1328C3.20388 35.5439 3.68137 35.0664 4.2703 35.0664C4.85923 35.0664 5.33672 35.5439 5.33672 36.1328V58.6609C5.33672 60.425 6.77185 61.8602 8.53598 61.8602H20.1333V43.8643C20.1333 40.9242 22.5253 38.5322 25.4654 38.5322H38.529C41.4692 38.5322 43.8611 40.9242 43.8611 43.8643V57.5945C43.8611 58.1834 43.3837 58.6609 42.7947 58.6609C42.2058 58.6609 41.7283 58.1834 41.7283 57.5945V43.8643C41.7283 42.1003 40.293 40.6651 38.529 40.6651H25.4654C23.7014 40.6651 22.2661 42.1003 22.2661 43.8643V61.8602H30.9308V45.0641C30.9308 44.4751 31.4083 43.9976 31.9972 43.9976C32.5862 43.9976 33.0636 44.4751 33.0636 45.0641V61.8602H55.4585C57.2225 61.8602 58.6577 60.425 58.6577 58.6609V36.1328C58.6577 35.5439 59.1352 35.0664 59.7241 35.0664C60.3131 35.0664 60.7906 35.5437 60.7906 36.1328ZM6.93635 17.0705C6.93635 17.6595 7.41384 18.137 8.00277 18.137C66.0251 18.137 63.1483 18.2407 63.5722 17.9155C63.7937 17.745 63.9386 17.4991 63.9784 17.2181C64.0378 16.7895 64.4205 17.8434 56.9701 0.650197C56.8009 0.260154 56.4166 0.0078125 55.9915 0.0078125H8.00264C7.57767 0.0078125 7.19309 0.260287 7.0242 0.650197L0.0924659 16.6465C-0.0300391 16.9294 0.00448626 16.4804 0.00448626 23.6866C0.0122178 28.5368 3.95891 32.4828 8.80245 32.4828C12.1322 32.4828 15.0381 30.6179 16.5317 27.8764C19.8678 34.007 28.6549 34.0138 31.9971 27.8806C35.3366 34.0089 44.1199 34.0102 47.4602 27.8806C48.9528 30.6197 51.8589 32.4828 55.1917 32.4828C60.043 32.4828 63.9897 28.5361 63.9897 23.6849C63.9897 23.0959 63.5122 22.6185 62.9233 22.6185C62.3343 22.6185 61.8568 23.0959 61.8568 23.6849C61.8568 27.36 58.8669 30.35 55.1917 30.35C51.5166 30.35 48.5266 27.36 48.5266 23.6849C48.5266 23.0959 48.0491 22.6185 47.4602 22.6185C46.8712 22.6185 46.3938 23.0959 46.3938 23.6849C46.3938 27.36 43.4038 30.35 39.7286 30.35C36.0535 30.35 33.0635 27.36 33.0635 23.6849C33.0635 23.0959 32.586 22.6185 31.9971 22.6185C31.4082 22.6185 30.9307 23.0959 30.9307 23.6849C30.9307 27.36 27.9407 30.35 24.2655 30.35C20.6721 30.35 17.6004 27.4621 17.6004 23.6315C17.6004 23.0426 17.1229 22.5651 16.534 22.5651C15.9451 22.5651 15.4676 23.0426 15.4676 23.6315C15.4676 27.4297 12.4151 30.35 8.80245 30.35C5.13317 30.35 2.14306 27.3592 2.13733 23.6849V17.2915L8.70288 2.14065H55.2916L61.299 16.0041H8.00277C7.41371 16.0041 6.93635 16.4815 6.93635 17.0705Z" fill="white"/>
</svg>
