<svg width="56" height="64" viewBox="0 0 56 64" fill="none" xmlns="http://www.w3.org/2000/svg">
<path d="M55.2658 16.3337C51.7259 13.9315 48.1768 12.7748 45.0668 12.2817V9.83907C45.0668 9.4132 45.4134 9.06667 45.8392 9.06667H49.2278C49.6536 9.06667 50.0002 9.4132 50.0002 9.83907C50.0002 10.4281 50.4778 10.9057 51.0668 10.9057C51.6559 10.9057 52.1335 10.4281 52.1335 9.83907C52.1335 8.2368 50.83 6.93333 49.2278 6.93333H48.6668V4.13333H54.5335C55.1226 4.13333 55.6002 3.65573 55.6002 3.06667C55.6002 2.4776 55.1226 2 54.5335 2H48.6668V1.06667C48.6668 0.4776 48.1892 0 47.6002 0C47.0111 0 46.5335 0.4776 46.5335 1.06667V2H40.6668C40.0778 2 39.6002 2.4776 39.6002 3.06667C39.6002 3.65573 40.0778 4.13333 40.6668 4.13333H46.5335V6.93333H45.8392C44.237 6.93333 42.9335 8.2368 42.9335 9.83907V12.0344C41.7706 11.9493 40.6964 11.9501 39.7419 11.9992C39.2418 12.0249 38.8268 12.3952 38.7446 12.8892C38.6744 13.3105 38.3874 15.0348 38.288 15.6316C31.3186 17.3181 23.9878 17.2624 17.0423 15.4637C16.4718 15.3159 15.8899 15.6587 15.7423 16.2289C15.5947 16.7992 15.9372 17.3812 16.5075 17.5289C24.026 19.476 31.9742 19.476 39.4928 17.5289C39.9008 17.4233 40.2083 17.0872 40.2776 16.6715C40.361 16.1708 40.6888 14.2011 40.7055 14.1013C45.1648 14.0365 49.6184 15.2201 53.6002 17.7893V22.2087C52.1232 22.2767 48.9303 22.4237 42.1776 22.7352C41.7812 22.7535 41.4278 22.9904 41.26 23.35C39.4491 27.2343 39.5192 27.0444 39.485 27.2484C39.3882 27.8239 39.7763 28.3791 40.36 28.4771C43.7536 29.0473 46.7152 30.9801 48.4856 33.78C50.0882 36.3144 54.038 35.0643 53.8882 32.0641C53.8236 30.7699 53.6359 29.4725 53.3304 28.2084C53.192 27.6357 52.6158 27.2839 52.0431 27.4221C51.4704 27.5605 51.1184 28.1369 51.2568 28.7095C51.5311 29.8445 51.6995 31.0089 51.7575 32.1705C51.7858 32.7357 51.337 32.9227 51.1987 32.9664C51.0615 33.0099 50.5896 33.1152 50.289 32.6397C48.4352 29.708 45.4874 27.5827 42.0668 26.668L42.9208 24.8364C49.9308 24.5129 54.7159 24.2927 54.7159 24.2927C55.2854 24.2667 55.7335 23.7973 55.7335 23.2275V17.2164C55.7335 16.8628 55.5584 16.5323 55.2658 16.3337Z" fill="white"/>
<path d="M37.8666 40.5333H36.655C35.6553 38.4472 35.2586 36.1644 35.4926 33.8579C36.5541 33.652 37.6095 33.4028 38.6558 33.1085C39.2229 32.9491 39.5533 32.36 39.3938 31.7929C39.2345 31.2259 38.6457 30.8955 38.0782 31.0548C31.6411 32.8651 24.8453 32.908 18.3913 31.1835L14.7399 23.35C14.5723 22.9903 14.2187 22.7535 13.8223 22.7352C7.0702 22.4237 3.877 22.2767 2.39994 22.2087V17.7893C6.64874 15.048 11.4349 13.8872 16.1486 14.1296C16.7347 14.1599 17.2383 13.7073 17.2686 13.1191C17.2989 12.5308 16.8465 12.0293 16.2581 11.9991C15.3037 11.95 14.2295 11.9492 13.0665 12.0343V9.83907C13.0666 8.2368 11.7631 6.93333 10.1609 6.93333H9.4666V4.13333H15.3333C15.9223 4.13333 16.3999 3.65573 16.3999 3.06667C16.3999 2.4776 15.9223 2 15.3333 2H9.4666V1.06667C9.4666 0.4776 8.989 0 8.39994 0C7.81087 0 7.33327 0.4776 7.33327 1.06667V2H1.4666C0.877535 2 0.399935 2.4776 0.399935 3.06667C0.399935 3.65573 0.877535 4.13333 1.4666 4.13333H7.33327V6.93333H6.77234C5.17007 6.93333 3.8666 8.2368 3.8666 9.83907C3.8666 10.4281 4.3442 10.9057 4.93327 10.9057C5.52234 10.9057 5.99994 10.4281 5.99994 9.83907C5.99994 9.4132 6.34647 9.06667 6.77234 9.06667H10.1609C10.5867 9.06667 10.9333 9.4132 10.9333 9.83907V12.2817C7.82327 12.7749 4.27394 13.9315 0.734335 16.3337C0.441801 16.5323 0.266602 16.8628 0.266602 17.2164V23.2275C0.266602 23.7975 0.714735 24.2667 1.28407 24.2931C1.28407 24.2931 2.9962 24.3719 3.97647 24.4171C2.8714 26.848 2.2442 29.4131 2.1118 32.0644C1.9622 35.0615 5.91007 36.3175 7.51434 33.7803C8.46394 32.2784 9.80034 30.9857 11.379 30.0419C11.8846 29.7396 12.0495 29.0847 11.7473 28.5789C11.445 28.0733 10.7899 27.9085 10.2843 28.2107C8.42007 29.3252 6.8386 30.8569 5.71113 32.64C5.41047 33.1153 4.93887 33.0103 4.8014 32.9667C4.66314 32.9228 4.2142 32.736 4.24247 32.1707C4.37554 29.5071 5.06514 26.938 6.29167 24.5236C7.97074 24.6009 10.1779 24.7028 13.0791 24.8367L16.6661 32.5323C16.7973 32.814 17.0449 33.0245 17.3442 33.1087C18.3905 33.4029 19.4457 33.652 20.5071 33.858C20.7411 36.1645 20.3445 38.4473 19.3447 40.5335H18.1333C16.3689 40.5335 14.9333 41.9691 14.9333 43.7335V51.0753C14.9333 51.6644 15.4109 52.142 15.9999 52.142C16.589 52.142 17.0666 51.6644 17.0666 51.0753V43.7333C17.0666 43.1452 17.5451 42.6667 18.1333 42.6667H37.8666C38.4547 42.6667 38.9333 43.1452 38.9333 43.7333V47.3333H22.1533C21.5642 47.3333 21.0866 47.8109 21.0866 48.4C21.0866 48.9891 21.5642 49.4667 22.1533 49.4667H38.9333V60.8C38.9333 61.3881 38.4547 61.8667 37.8666 61.8667H18.1333C17.5451 61.8667 17.0666 61.3881 17.0666 60.8V57.2H34.5505C35.1395 57.2 35.6171 56.7224 35.6171 56.1333C35.6171 55.5443 35.1395 55.0667 34.5505 55.0667H15.9999C15.4109 55.0667 14.9333 55.5443 14.9333 56.1333V60.8C14.9333 62.5644 16.3689 64 18.1333 64H37.8666C39.631 64 41.0666 62.5644 41.0666 60.8V43.7333C41.0666 41.9689 39.631 40.5333 37.8666 40.5333ZM22.6767 34.2168C26.0886 34.6828 29.6653 34.7163 33.3231 34.2168C33.1867 36.3843 33.5263 38.5251 34.3266 40.5333H21.6733C22.4735 38.5251 22.8131 36.3843 22.6767 34.2168Z" fill="white"/>
</svg>
