<svg width="64" height="64" viewBox="0 0 64 64" fill="none" xmlns="http://www.w3.org/2000/svg">
<path d="M59.7333 11.7333H49.8667V4.26667C49.8667 1.914 47.9527 0 45.6 0H18.4C16.0473 0 14.1333 1.914 14.1333 4.26667V31.2917H4.26667C1.914 31.2917 0 33.2057 0 35.5584V43.4251C0 45.7777 1.914 47.6917 4.26667 47.6917H14.1333V59.7333C14.1333 62.086 16.0473 64 18.4 64H45.6C47.9527 64 49.8667 62.086 49.8667 59.7333V30.0344C49.8667 29.4453 49.3891 28.9677 48.8 28.9677C48.2109 28.9677 47.7333 29.4453 47.7333 30.0344V56.5333H20.8473C20.2583 56.5333 19.7807 57.0109 19.7807 57.6C19.7807 58.1891 20.2583 58.6667 20.8473 58.6667H47.7333V59.7333C47.7333 60.9096 46.7763 61.8667 45.6 61.8667H18.4C17.2237 61.8667 16.2667 60.9096 16.2667 59.7333V47.6916H17.8111C18.7355 49.4633 20.2372 50.8423 22.102 51.6151C24.1541 52.4655 26.1392 50.3259 25.1771 48.3388C25.0752 48.1284 24.9889 47.9124 24.9184 47.6916H32.4C34.7527 47.6916 36.6667 45.7776 36.6667 43.4249V35.5583C36.6667 33.2056 34.7527 31.2916 32.4 31.2916H21.1915C20.6024 31.2916 20.1248 31.7692 20.1248 32.3583C20.1248 32.9473 20.6024 33.4249 21.1915 33.4249H32.4C33.5763 33.4249 34.5333 34.382 34.5333 35.5583V43.4249C34.5333 44.6012 33.5763 45.5583 32.4 45.5583H23.6347C23.0161 45.5583 22.5263 46.0837 22.5708 46.7016C22.6355 47.5981 22.8664 48.4617 23.2569 49.2684C23.3279 49.4151 23.2717 49.5212 23.2121 49.5843C23.0892 49.7148 22.9608 49.6615 22.9185 49.6441C21.3528 48.9953 20.1284 47.7763 19.4707 46.2116C19.3043 45.8156 18.9168 45.5583 18.4873 45.5583H4.26667C3.0904 45.5583 2.13333 44.6012 2.13333 43.4249V35.5583C2.13333 34.382 3.0904 33.4249 4.26667 33.4249H15.2C15.7891 33.4249 16.2667 32.9473 16.2667 32.3583V4.26667C16.2667 3.0904 17.2237 2.13333 18.4 2.13333H21.0667V3.54667C21.0667 5.31107 22.5021 6.74667 24.2667 6.74667H39.7333C40.3224 6.74667 40.8 6.26907 40.8 5.68C40.8 5.09093 40.3224 4.61333 39.7333 4.61333H24.2667C23.6785 4.61333 23.2 4.1348 23.2 3.54667V2.13333H45.6C46.7763 2.13333 47.7333 3.0904 47.7333 4.26667V11.7333H30.2667C27.914 11.7333 26 13.6473 26 16V19.8667C26 21.5852 27.0227 23.1281 28.6056 23.7976C29.1477 24.0265 29.774 23.7732 30.0035 23.2307C30.2329 22.6881 29.9791 22.0623 29.4365 21.8328C28.6448 21.4979 28.1333 20.7261 28.1333 19.8667V16C28.1333 14.8237 29.0904 13.8667 30.2667 13.8667H59.7333C60.9096 13.8667 61.8667 14.8237 61.8667 16V19.8667C61.8667 21.0429 60.9096 22 59.7333 22H40.1793C39.7499 22 39.3624 22.2576 39.196 22.6533C38.5384 24.2179 37.314 25.4369 35.7483 26.0857C35.7063 26.1033 35.5779 26.1563 35.4547 26.026C35.3951 25.9628 35.3389 25.8567 35.4099 25.7101C35.8005 24.9035 36.0313 24.0399 36.096 23.1433C36.1383 22.5559 35.6964 22.0452 35.1088 22.0027C34.5195 21.9616 34.0105 22.4025 33.9681 22.9899C33.9231 23.6155 33.762 24.218 33.4897 24.7803C32.5257 26.7708 34.5173 28.9051 36.5648 28.0565C38.4296 27.2837 39.9313 25.9049 40.8556 24.1332H59.7333C62.086 24.1332 64 22.2192 64 19.8665V15.9999C64 13.6473 62.086 11.7333 59.7333 11.7333Z" fill="white"/>
</svg>
