<svg width="47" height="64" viewBox="0 0 47 64" fill="none" xmlns="http://www.w3.org/2000/svg">
<path d="M10.6667 27.0477L8.19827 28.5751C4.40067 30.9248 2.13333 34.9939 2.13333 39.4599V62.9333C2.13333 63.5224 1.65573 64 1.06667 64C0.4776 64 0 63.5224 0 62.9333V39.4599C0 34.2839 2.684 29.4784 7.07587 26.7608C11.5025 24.0219 11.3197 24.0667 11.7333 24.0667C12.3099 24.0667 12.7855 24.5283 12.7988 25.1084C12.8007 25.1899 12.8 39.7104 12.8 39.7919C12.8 40.604 13.67 41.1175 14.3807 40.7265L17.2808 39.1315C19.6331 37.838 22.538 38.5409 24.0379 40.7669C24.3672 41.2555 24.238 41.9184 23.7495 42.2476C23.2609 42.5767 22.5981 42.4477 22.2689 41.9591C21.3899 40.6547 19.6875 40.2423 18.3091 41.0007L15.4089 42.5957C13.2756 43.7688 10.6667 42.2265 10.6667 39.7919V27.0477ZM41.0667 0C40.1751 0 17.2104 0 16 0C13.0592 0 10.6667 2.39253 10.6667 5.33333V15.3333C10.6667 15.9224 11.1443 16.4 11.7333 16.4C12.3224 16.4 12.8 15.9224 12.8 15.3333V5.33333C12.8 3.56893 14.2356 2.13333 16 2.13333H18.3625L19.9624 5.01307C20.6204 6.19747 21.8709 6.93333 23.2259 6.93333H34.1073C34.6964 6.93333 35.174 6.45573 35.174 5.86667C35.174 5.2776 34.6964 4.8 34.1073 4.8H23.2259C22.6452 4.8 22.1092 4.48467 21.8272 3.97707L20.8029 2.13333H41.0667C42.8311 2.13333 44.2667 3.56893 44.2667 5.33333V58.6667C44.2667 60.4311 42.8311 61.8667 41.0667 61.8667H16C14.2356 61.8667 12.8 60.4311 12.8 58.6667C12.8 57.7563 12.6523 56.4196 13.9324 55.336L23.0941 47.5804C23.5437 47.1999 23.5997 46.5267 23.2192 46.0771C22.8384 45.6273 22.1655 45.5713 21.7159 45.9521L12.5541 53.7077C10.5072 55.4403 10.6667 57.6288 10.6667 58.6667C10.6667 61.6075 13.0592 64 16 64H41.0667C44.0075 64 46.4 61.6075 46.4 58.6667V5.33333C46.4 2.39253 44.0075 0 41.0667 0Z" fill="white"/>
</svg>
