<svg width="49" height="64" viewBox="0 0 49 64" fill="none" xmlns="http://www.w3.org/2000/svg">
<path d="M48.1717 52.7584L45.9116 29.404C45.7521 27.7555 44.3828 26.5123 42.7265 26.5123H40.7533V24.4257C40.7533 20.8467 37.8416 17.9349 34.2625 17.9349C30.6835 17.9349 27.7717 20.8467 27.7717 24.4257V26.5123H25.7987C24.1424 26.5123 22.7731 27.7555 22.6136 29.404L20.3535 52.7584C20.172 54.6333 21.6476 56.2667 23.5385 56.2667H28.4888C29.0779 56.2667 29.5555 55.7891 29.5555 55.2C29.5555 54.6109 29.0779 54.1333 28.4888 54.1333H23.5385C22.9085 54.1333 22.4159 53.5925 22.4768 52.9639L24.7369 29.6093C24.79 29.0597 25.2465 28.6455 25.7985 28.6455H27.7716V33.5036C27.7716 34.0927 28.2492 34.5703 28.8383 34.5703C29.4273 34.5703 29.9049 34.0927 29.9049 33.5036V24.4256C29.9049 22.0229 31.8597 20.0681 34.2624 20.0681C36.6651 20.0681 38.6199 22.0229 38.6199 24.4256V26.5121H34.1772C33.5881 26.5121 33.1105 26.9897 33.1105 27.5788C33.1105 28.1679 33.5881 28.6455 34.1772 28.6455H38.6199V33.5036C38.6199 34.0927 39.0975 34.5703 39.6865 34.5703C40.2756 34.5703 40.7532 34.0927 40.7532 33.5036V28.6455H42.7264C43.2785 28.6455 43.7348 29.0599 43.788 29.6093L46.0481 52.9639C46.1089 53.592 45.6167 54.1333 44.9864 54.1333H34.6665C34.0775 54.1333 33.5999 54.6109 33.5999 55.2V58.6667C33.5999 60.4311 32.1643 61.8667 30.3999 61.8667H5.3332C3.5688 61.8667 2.1332 60.4311 2.1332 58.6667V5.33333C2.1332 3.56893 3.5688 2.13333 5.3332 2.13333H7.69573L9.2956 5.01307C9.95374 6.19747 11.2043 6.93333 12.5592 6.93333H23.4408C24.0299 6.93333 24.5075 6.45573 24.5075 5.86667C24.5075 5.2776 24.0299 4.8 23.4408 4.8H12.5592C11.9785 4.8 11.4425 4.48467 11.1605 3.97707L10.1363 2.13333H30.4C32.1644 2.13333 33.6 3.56893 33.6 5.33333V13.8667C33.6 14.4557 34.0776 14.9333 34.6667 14.9333C35.2557 14.9333 35.7333 14.4557 35.7333 13.8667V5.33333C35.7333 2.39253 33.3408 0 30.4 0C29.5144 0 6.54707 0 5.33333 0C2.39253 0 0 2.39253 0 5.33333V58.6667C0 61.6075 2.39253 64 5.33333 64H30.4C33.3408 64 35.7333 61.6075 35.7333 58.6667V56.2667H44.9865C46.8701 56.2667 48.3539 54.6407 48.1717 52.7584Z" fill="white"/>
</svg>
