<svg width="46" height="64" viewBox="0 0 46 64" fill="none" xmlns="http://www.w3.org/2000/svg">
<path d="M45.2643 19.7705C45.235 19.4475 45.5232 20.0464 40.8691 11.6844V5.33333C40.8691 2.37453 38.4575 0 35.5382 0C10.4011 0 55.8363 0 10.4691 0C7.52829 0 5.13576 2.39253 5.13576 5.33333C5.13576 5.9224 5.61336 6.4 6.20242 6.4C6.79149 6.4 7.26909 5.9224 7.26909 5.33333C7.26909 3.5688 8.70456 2.13333 10.4691 2.13333H12.7748L14.3747 5.01307C15.0327 6.19747 16.2832 6.93333 17.6382 6.93333H28.3666C28.9556 6.93333 29.4332 6.45573 29.4332 5.86667C29.4332 5.2776 28.9556 4.8 28.3666 4.8H17.6382C17.0575 4.8 16.5215 4.48467 16.2395 3.97707L15.2152 2.13333H35.5358C37.3002 2.13333 38.7358 3.5688 38.7358 5.33333V10.8945H6.20242C5.81536 10.8945 5.45869 11.1043 5.27042 11.4424C0.576822 19.8745 0.838688 19.386 0.790554 19.5305C0.712154 19.7656 0.735755 19.4425 0.735755 24.9043C0.735755 28.0436 2.52482 30.7713 5.13576 32.1265V58.6667C5.13576 61.6075 7.52829 64 10.4691 64H35.5358C38.4766 64 40.8691 61.6075 40.8691 58.6667V37.7764C40.8691 37.1873 40.3915 36.7097 39.8024 36.7097C39.2134 36.7097 38.7358 37.1873 38.7358 37.7764V58.6667C38.7358 60.4311 37.3002 61.8667 35.5358 61.8667H10.4691C8.70456 61.8667 7.26909 60.4311 7.26909 58.6667V32.8788C10.7546 33.5771 14.2146 31.9377 15.9358 28.9232C19.0643 34.4027 26.9387 34.4059 30.0691 28.9232C31.4707 31.3781 34.1122 33.0377 37.1358 33.0377C41.6206 33.0377 45.2691 29.3892 45.2691 24.9044C45.2691 19.4752 45.2714 19.8491 45.2643 19.7705ZM8.86909 30.9044C5.56069 30.9044 2.86909 28.2128 2.86909 24.9044V20.1436L6.82949 13.028H39.1754L42.388 18.8C40.5471 18.8 10.298 18.8 8.54655 18.8C7.95749 18.8 7.47989 19.2776 7.47989 19.8667C7.47989 20.4557 7.95749 20.9333 8.54655 20.9333H14.8691V24.9044C14.8691 28.2128 12.1775 30.9044 8.86909 30.9044ZM23.0024 30.9044C19.694 30.9044 17.0024 28.2128 17.0024 24.9044V20.9333H29.0024V24.9044C29.0024 28.2128 26.311 30.9044 23.0024 30.9044ZM43.1358 24.9044C43.1358 28.2128 40.4442 30.9044 37.1358 30.9044C33.8274 30.9044 31.1358 28.2128 31.1358 24.9044V20.9333H43.1358V24.9044Z" fill="white"/>
<path d="M31.8031 38.4007C31.8031 37.8116 31.3255 37.334 30.7365 37.334H15.2698C14.6807 37.334 14.2031 37.8116 14.2031 38.4007V47.8673C14.2031 48.4564 14.6807 48.934 15.2698 48.934H30.7365C31.3255 48.934 31.8031 48.4564 31.8031 47.8673V38.4007ZM29.6698 46.8007H16.3365V39.4673H29.6698V46.8007Z" fill="white"/>
</svg>
