<svg width="64" height="60" viewBox="0 0 64 60" fill="none" xmlns="http://www.w3.org/2000/svg">
<path d="M62.9331 48.5338H59.0665V12.2674C59.0665 9.3266 56.674 6.93408 53.7332 6.93408H50.1289C49.5399 6.93408 49.0623 7.41167 49.0623 8.00074C49.0623 8.5898 49.5399 9.0674 50.1289 9.0674H53.7332C55.4976 9.0674 56.9332 10.5029 56.9332 12.2674V48.5338H12.8645C12.2754 48.5338 11.7978 49.0114 11.7978 49.6005C11.7978 50.1895 12.2754 50.6671 12.8645 50.6671H61.6867C61.1307 54.3316 58.0016 57.0671 54.2188 57.0671H9.78105C6.03321 57.0671 2.91189 54.3764 2.31456 50.6765C2.31216 50.6619 2.02537 50.6671 6.00014 50.6671C6.5892 50.6671 7.0668 50.1895 7.0668 49.6005V12.2674C7.0668 10.5029 8.50239 9.0674 10.2668 9.0674H17.8667V34.2672H17.0667C16.4777 34.2672 16.0001 34.7448 16.0001 35.3339C16.0001 35.923 16.4777 36.4006 17.0667 36.4006H46.9332C47.5223 36.4006 47.9999 35.923 47.9999 35.3339C47.9999 34.7448 47.5223 34.2672 46.9332 34.2672H39.5999V2.9341H42.9332C43.5214 2.9341 43.9999 3.41263 43.9999 4.00076V30.1339C43.9999 30.723 44.4775 31.2006 45.0666 31.2006C45.6556 31.2006 46.1332 30.723 46.1332 30.1339V4.00076C46.1332 2.23624 44.6976 0.800781 42.9332 0.800781H21.0667C19.3023 0.800781 17.8667 2.23624 17.8667 4.00076V6.93408H10.2668C7.326 6.93408 4.93348 9.3266 4.93348 12.2674V48.5338H1.06684C0.412709 48.5338 -0.0879545 49.1183 0.0129783 49.7651L0.206844 51.0059C0.942972 55.7163 5.00295 59.2004 9.78118 59.2004H54.2189C58.9863 59.2004 63.0555 55.7267 63.7932 51.0059L63.9871 49.7651C64.0879 49.1186 63.5878 48.5338 62.9331 48.5338ZM20.0001 4.00076C20.0001 3.41263 20.4786 2.9341 21.0667 2.9341H37.4666V34.2672H32.9333V6.97701C32.9333 6.38795 32.4557 5.91035 31.8666 5.91035C31.2776 5.91035 30.8 6.38795 30.8 6.97701V34.2671H20.0001V4.00076Z" fill="white"/>
<path d="M25.5999 13.2C26.1889 13.2 26.6665 12.7224 26.6665 12.1333V9.06666C26.6665 8.4776 26.1889 8 25.5999 8C25.0108 8 24.5332 8.4776 24.5332 9.06666V12.1333C24.5332 12.7224 25.0108 13.2 25.5999 13.2Z" fill="white"/>
</svg>
