<svg width="60" height="64" viewBox="0 0 60 64" fill="none" xmlns="http://www.w3.org/2000/svg">
<path d="M55.3337 16.8H52.4004V8C52.4004 3.56707 48.8091 0 44.2671 0H34.6671C34.078 0 33.6004 0.4776 33.6004 1.06667C33.6004 1.65573 34.078 2.13333 34.6671 2.13333H44.2671C47.6315 2.13333 50.2671 4.71027 50.2671 8V22.6667H30.5337V8C30.5337 3.5888 26.9449 0 22.5337 0H22.2671C17.8559 0 14.2671 3.5888 14.2671 8V48.9333C14.2671 52.1683 11.6353 54.8 8.40039 54.8C5.16546 54.8 2.53372 52.1683 2.53372 48.9333V38C2.53372 37.4119 3.01226 36.9333 3.60039 36.9333H9.12292C9.71199 36.9333 10.1896 36.4557 10.1896 35.8667C10.1896 35.2776 9.71199 34.8 9.12292 34.8H3.60039C1.83586 34.8 0.400391 36.2355 0.400391 38V48.9333C0.400391 53.3445 3.98919 56.9333 8.40039 56.9333H16.624C17.2131 56.9333 17.6907 56.4557 17.6907 55.8667C17.6907 55.2776 17.2131 54.8 16.624 54.8H13.8317C15.41 53.3377 16.4004 51.2495 16.4004 48.9333V8C16.4004 4.76507 19.0321 2.13333 22.2671 2.13333H22.5337C25.7687 2.13333 28.4004 4.76507 28.4004 8V22.6667H28.1337C27.5447 22.6667 27.0671 23.1443 27.0671 23.7333C27.0671 24.3224 27.5447 24.8 28.1337 24.8H52.6671C53.2561 24.8 53.7337 24.3224 53.7337 23.7333C53.7337 23.1443 53.2561 22.6667 52.6671 22.6667H52.4004V18.9333H55.3337C56.51 18.9333 57.4671 19.8904 57.4671 21.0667V59.7333C57.4671 60.9096 56.51 61.8667 55.3337 61.8667H25.3337C24.1575 61.8667 23.2004 60.9096 23.2004 59.7333V21.0667C23.2004 19.8904 24.1575 18.9333 25.3337 18.9333C25.9228 18.9333 26.4004 18.4557 26.4004 17.8667C26.4004 17.2776 25.9228 16.8 25.3337 16.8C22.9811 16.8 21.0671 18.714 21.0671 21.0667V59.7333C21.0671 62.086 22.9811 64 25.3337 64H55.3337C57.6864 64 59.6004 62.086 59.6004 59.7333V21.0667C59.6004 18.714 57.6864 16.8 55.3337 16.8Z" fill="white"/>
<path d="M54.1337 37.4664V32.2664C54.1337 30.502 52.6981 29.0664 50.9337 29.0664H29.867C28.1026 29.0664 26.667 30.502 26.667 32.2664V37.4664C26.667 39.2308 28.1026 40.6664 29.867 40.6664H50.9337C52.6981 40.6664 54.1337 39.2308 54.1337 37.4664ZM52.0003 37.4664C52.0003 38.0545 51.5218 38.5331 50.9337 38.5331H29.867C29.2789 38.5331 28.8003 38.0545 28.8003 37.4664V32.2664C28.8003 31.6783 29.2789 31.1997 29.867 31.1997H50.9337C51.5218 31.1997 52.0003 31.6783 52.0003 32.2664V37.4664Z" fill="white"/>
<path d="M41.4666 44.2676H39.3333C38.7442 44.2676 38.2666 44.7452 38.2666 45.3342C38.2666 45.9233 38.7442 46.4009 39.3333 46.4009H41.4666C42.0557 46.4009 42.5333 45.9233 42.5333 45.3342C42.5333 44.7452 42.0557 44.2676 41.4666 44.2676Z" fill="white"/>
<path d="M32.1336 44.2676H30.0003C29.4112 44.2676 28.9336 44.7452 28.9336 45.3342C28.9336 45.9233 29.4112 46.4009 30.0003 46.4009H32.1336C32.7227 46.4009 33.2003 45.9233 33.2003 45.3342C33.2003 44.7452 32.7227 44.2676 32.1336 44.2676Z" fill="white"/>
<path d="M50.9334 44.2676H48.8001C48.211 44.2676 47.7334 44.7452 47.7334 45.3342C47.7334 45.9233 48.211 46.4009 48.8001 46.4009H50.9334C51.5225 46.4009 52.0001 45.9233 52.0001 45.3342C52.0001 44.7452 51.5225 44.2676 50.9334 44.2676Z" fill="white"/>
<path d="M41.4666 50.2676H39.3333C38.7442 50.2676 38.2666 50.7452 38.2666 51.3342C38.2666 51.9233 38.7442 52.4009 39.3333 52.4009H41.4666C42.0557 52.4009 42.5333 51.9233 42.5333 51.3342C42.5333 50.7452 42.0557 50.2676 41.4666 50.2676Z" fill="white"/>
<path d="M32.1336 50.2676H30.0003C29.4112 50.2676 28.9336 50.7452 28.9336 51.3342C28.9336 51.9233 29.4112 52.4009 30.0003 52.4009H32.1336C32.7227 52.4009 33.2003 51.9233 33.2003 51.3342C33.2003 50.7452 32.7227 50.2676 32.1336 50.2676Z" fill="white"/>
<path d="M50.9334 50.2676H48.8001C48.211 50.2676 47.7334 50.7452 47.7334 51.3342C47.7334 51.9233 48.211 52.4009 48.8001 52.4009H50.9334C51.5225 52.4009 52.0001 51.9233 52.0001 51.3342C52.0001 50.7452 51.5225 50.2676 50.9334 50.2676Z" fill="white"/>
<path d="M41.4666 56.2676H39.3333C38.7442 56.2676 38.2666 56.7452 38.2666 57.3342C38.2666 57.9233 38.7442 58.4009 39.3333 58.4009H41.4666C42.0557 58.4009 42.5333 57.9233 42.5333 57.3342C42.5333 56.7452 42.0557 56.2676 41.4666 56.2676Z" fill="white"/>
<path d="M32.1336 56.2676H30.0003C29.4112 56.2676 28.9336 56.7452 28.9336 57.3342C28.9336 57.9233 29.4112 58.4009 30.0003 58.4009H32.1336C32.7227 58.4009 33.2003 57.9233 33.2003 57.3342C33.2003 56.7452 32.7227 56.2676 32.1336 56.2676Z" fill="white"/>
<path d="M50.9334 56.2676H48.8001C48.211 56.2676 47.7334 56.7452 47.7334 57.3342C47.7334 57.9233 48.211 58.4009 48.8001 58.4009H50.9334C51.5225 58.4009 52.0001 57.9233 52.0001 57.3342C52.0001 56.7452 51.5225 56.2676 50.9334 56.2676Z" fill="white"/>
<path d="M34.6673 18.1333H46.1339C46.723 18.1333 47.2006 17.6557 47.2006 17.0667C47.2006 16.4776 46.723 16 46.1339 16H34.6673C34.0782 16 33.6006 16.4776 33.6006 17.0667C33.6006 17.6557 34.0782 18.1333 34.6673 18.1333Z" fill="white"/>
<path d="M44.8 10.1333C45.389 10.1333 45.8666 9.65573 45.8666 9.06667C45.8666 8.4776 45.389 8 44.8 8H40.6409C40.0518 8 39.5742 8.4776 39.5742 9.06667C39.5742 9.65573 40.0518 10.1333 40.6409 10.1333H44.8Z" fill="white"/>
<path d="M34.6673 10.1333H35.5834C36.1725 10.1333 36.6501 9.65573 36.6501 9.06667C36.6501 8.4776 36.1725 8 35.5834 8H34.6673C34.0782 8 33.6006 8.4776 33.6006 9.06667C33.6006 9.65573 34.0782 10.1333 34.6673 10.1333Z" fill="white"/>
</svg>
