<svg width="56" height="64" viewBox="0 0 56 64" fill="none" xmlns="http://www.w3.org/2000/svg">
<path d="M52.133 35.2004H44.3023V29.2005C44.3023 26.8478 42.3883 24.9338 40.0357 24.9338H8.0389C7.44984 24.9338 6.97225 25.4114 6.97225 26.0005C6.97225 26.5896 7.44984 27.0672 8.0389 27.0672H40.0356C41.2118 27.0672 42.1689 28.0242 42.1689 29.2005V36.267C42.1689 36.8561 42.6465 37.3337 43.2355 37.3337H52.1329C52.721 37.3337 53.1995 37.8122 53.1995 38.4003V44.8003C53.1995 45.3884 52.721 45.8669 52.1329 45.8669H39.333C38.1568 45.8669 37.1997 44.9099 37.1997 43.7336V39.467C37.1997 38.8058 37.4991 38.1926 38.0211 37.7848C38.4851 37.422 38.5675 36.7516 38.2045 36.2876C37.8419 35.8234 37.1716 35.7412 36.7073 36.104C35.6646 36.919 35.0664 38.1449 35.0664 39.4671V43.7337C35.0664 46.0864 36.9804 48.0004 39.333 48.0004H49.1996V56.5336C49.1996 59.4743 46.8071 61.8669 43.8663 61.8669H4.93347C3.75722 61.8669 2.80017 60.9098 2.80017 59.7335V58.4002H40.0356C42.3882 58.4002 44.3022 56.4863 44.3022 54.1336V52.5034C44.3022 51.9143 43.8246 51.4367 43.2355 51.4367C42.6465 51.4367 42.1689 51.9143 42.1689 52.5034V54.1335C42.1689 55.3097 41.2118 56.2668 40.0356 56.2668H2.8003V23.6005C2.8003 22.4243 3.75735 21.4674 4.93361 21.4674H43.8665C46.8072 21.4674 49.1997 23.8597 49.1997 26.8005V30.4822C49.1997 31.0712 49.6773 31.5488 50.2664 31.5488C50.8554 31.5488 51.333 31.0712 51.333 30.4822V26.8005C51.333 22.6835 47.9836 19.3339 43.8665 19.3339H28.2312C27.1804 15.9681 30.2418 13.7164 33.2782 15.9513C33.7526 16.3006 34.4203 16.1989 34.7696 15.7245C35.1187 15.2501 35.0172 14.5824 34.5428 14.2332C30.0864 10.9528 24.9676 14.2582 26.0327 19.3339H16.9267L39.0461 2.3452C39.4944 2.00133 40.1333 2.08653 40.4762 2.53293L50.6442 15.7717C50.9868 16.2177 50.9026 16.8593 50.4566 17.2018C49.9894 17.5606 49.9016 18.2303 50.2604 18.6975C50.6189 19.1646 51.2886 19.2526 51.7561 18.8938C53.135 17.8347 53.3953 15.8512 52.3362 14.4722L42.1681 1.23348C41.1065 -0.148774 39.1288 -0.40837 37.7465 0.65335L13.4242 19.3338H4.93361C2.58097 19.3338 0.666992 21.2478 0.666992 23.6004V59.7333C0.666992 62.0859 2.58097 63.9999 4.93361 63.9999H43.8665C47.9836 63.9999 51.333 60.6503 51.333 56.5333V48.0001H52.133C53.8974 48.0001 55.333 46.5645 55.333 44.8001V38.4002C55.333 36.6358 53.8974 35.2004 52.133 35.2004Z" fill="white"/>
<path d="M43.4666 41.6005C43.4666 40.6448 42.689 39.8672 41.7333 39.8672C40.7776 39.8672 40 40.6448 40 41.6005C40 42.5562 40.7776 43.3338 41.7333 43.3338C42.689 43.3338 43.4666 42.5562 43.4666 41.6005Z" fill="white"/>
</svg>
