<svg width="87" height="87" viewBox="0 0 87 87" fill="none" xmlns="http://www.w3.org/2000/svg">
<g clip-path="url(#clip0_783_52178)">
<path d="M76.6367 66.6047V85.7207H70.2646M67.7158 85.7207H10.3672V35.6785M10.3672 20.3856V10.1904M10.3672 7.6416V1.26953H76.6367V51.3117" stroke="white" stroke-width="2.54883" stroke-miterlimit="22.9256"/>
<path fill-rule="evenodd" clip-rule="evenodd" d="M76.6351 51.3125C76.6351 55.5181 73.194 58.959 68.9883 58.959C73.194 58.959 76.6351 62.3999 76.6351 66.6055C76.6351 62.3999 80.0762 58.959 84.2819 58.959C80.0762 58.959 76.6351 55.5181 76.6351 51.3125Z" stroke="white" stroke-width="2.54883" stroke-miterlimit="22.9256"/>
<path fill-rule="evenodd" clip-rule="evenodd" d="M61.3421 66.6035C61.3421 70.8091 57.901 74.25 53.6953 74.25C57.901 74.25 61.3421 77.6909 61.3421 81.8965C61.3421 77.6909 64.7832 74.25 68.989 74.25C64.7832 74.25 61.3421 70.8091 61.3421 66.6035Z" stroke="#FE5B21" stroke-width="2.54883" stroke-miterlimit="22.9256"/>
<path fill-rule="evenodd" clip-rule="evenodd" d="M10.3656 35.6777C10.3656 31.4722 13.8067 28.0312 18.0124 28.0312C13.8067 28.0312 10.3656 24.5903 10.3656 20.3848C10.3656 24.5903 6.92449 28.0312 2.71875 28.0312C6.92449 28.0312 10.3656 31.4722 10.3656 35.6777Z" stroke="white" stroke-width="2.54883" stroke-miterlimit="22.9256"/>
<path fill-rule="evenodd" clip-rule="evenodd" d="M25.6585 20.3848C25.6585 16.1792 29.0996 12.7383 33.3054 12.7383C29.0996 12.7383 25.6585 9.29736 25.6585 5.0918C25.6585 9.29736 22.2175 12.7383 18.0117 12.7383C22.2175 12.7383 25.6585 16.1792 25.6585 20.3848Z" stroke="#FE5B21" stroke-width="2.54883" stroke-miterlimit="22.9256"/>
<path d="M71.5391 7.64062V5.0918M71.5391 12.7383V10.1895" stroke="white" stroke-width="2.54883" stroke-miterlimit="22.9256"/>
<path d="M61.3403 1.26953L54.9683 25.4832M50.5078 13.3763L53.6938 1.26953" stroke="white" stroke-width="2.54883" stroke-miterlimit="22.9256"/>
<path d="M25.6602 85.7215L32.0322 61.5078M36.4927 73.6146L33.3066 85.7213" stroke="white" stroke-width="2.54883" stroke-miterlimit="22.9256"/>
</g>
<defs>
<clipPath id="clip0_783_52178">
<rect width="87" height="87" fill="white"/>
</clipPath>
</defs>
</svg>
