<svg width="88" height="88" viewBox="0 0 88 88" fill="none" xmlns="http://www.w3.org/2000/svg">
<path d="M36.2656 50.3691L35.0238 56.3225L18.6914 62.7677C13.4162 64.8494 8.37891 67.4088 8.37891 73.0802V75.109M8.37891 80.2651V86.7104H40.1328M42.7109 86.7106H45.2891M47.8672 86.7106H79.6209V80.2653M79.6211 75.109V73.0804C79.6211 67.4088 74.5838 64.8496 69.3086 62.7679L52.9762 56.3227L51.7344 50.3691" stroke="white" stroke-width="2.57814" stroke-miterlimit="22.9256"/>
<path d="M40.7172 23.3163C39.3366 19.1001 39.5811 11.0836 43.9999 9.02148C48.4186 11.0836 48.6634 19.0999 47.2825 23.3162" stroke="#FE5B21" stroke-width="2.57814" stroke-miterlimit="22.9256"/>
<path d="M33.7845 22.2135C31.4786 20.0469 30.2881 17.7358 30.4065 14.6613C34.2388 13.783 37.0385 14.7 40.0117 16.9543" stroke="#FE5B21" stroke-width="2.57814" stroke-miterlimit="22.9256"/>
<path d="M54.2155 22.2135C56.5214 20.0469 57.7118 17.7358 57.5935 14.6613C53.7612 13.783 50.9615 14.7 47.9883 16.9543" stroke="#FE5B21" stroke-width="2.57814" stroke-miterlimit="22.9256"/>
<path d="M58.3008 65.6973V63.1191M63.4569 68.2756V65.6974" stroke="white" stroke-width="2.57809" stroke-miterlimit="2.6131"/>
<path d="M49.1562 43.4336C49.1562 47.216 38.8438 47.216 38.8438 43.4336" stroke="white" stroke-width="2.57814" stroke-miterlimit="22.9256"/>
<path d="M64.6248 21.9431V21.9139C64.6248 10.5605 55.3537 1.28906 44 1.28906C38.7954 1.28906 34.0291 3.23812 30.3924 6.44222M28.5109 8.32597C25.3173 11.9604 23.3751 16.7186 23.3751 21.9137V21.9429M22.2842 61.3504C15.9769 52.4559 22.7677 43.8078 22.7677 36.7104M65.7158 61.3504C72.0231 52.4559 65.2324 43.8078 65.2324 36.7104" stroke="white" stroke-width="2.57814" stroke-miterlimit="22.9256"/>
<path d="M69.3088 71.2422V81.5547C69.3088 84.3896 66.9878 86.7109 64.1525 86.7109M23.8477 86.7109C21.0124 86.7109 18.6914 84.3908 18.6914 81.5547V71.2422" stroke="white" stroke-width="2.57814" stroke-miterlimit="22.9256"/>
<path d="M18.6914 75.1094L44.0002 80.2656L69.3088 75.1094" stroke="white" stroke-width="2.57814" stroke-miterlimit="22.9256"/>
<path d="M28.5854 38.2773C29.2461 46.187 35.9259 52.4569 43.9994 52.4569C52.073 52.4569 58.7528 46.1879 59.4133 38.2773" stroke="white" stroke-width="2.57814" stroke-miterlimit="22.9256"/>
<path d="M35.0234 56.3223L43.9998 64.7964" stroke="white" stroke-width="2.57814" stroke-miterlimit="22.9256"/>
<path d="M52.9762 56.3223L44 64.7964" stroke="white" stroke-width="2.57814" stroke-miterlimit="22.9256"/>
<path fill-rule="evenodd" clip-rule="evenodd" d="M44.0002 64.7969C41.5601 66.1073 39.3585 67.5928 38.5928 69.4196C37.2271 72.6782 40.6562 75.5385 44.0002 73.2932C47.3443 75.5385 50.7734 72.6782 49.4077 69.4196C48.6418 67.5928 46.4403 66.1074 44.0002 64.7969Z" stroke="#FE5B21" stroke-width="2.57814" stroke-miterlimit="22.9256"/>
<path d="M69.3086 75.1094H79.6209C81.0389 75.1094 82.199 76.2695 82.199 77.6875C82.199 79.1055 81.0389 80.2656 79.6209 80.2656H69.3086M18.6912 75.1094H8.37891C6.96094 75.1094 5.80078 76.2695 5.80078 77.6875C5.80078 79.1055 6.96094 80.2656 8.37891 80.2656H18.6912" stroke="white" stroke-width="2.57814" stroke-miterlimit="22.9256"/>
<path fill-rule="evenodd" clip-rule="evenodd" d="M43.9996 35.699C43.9996 37.117 45.1598 38.2772 46.5777 38.2772H59.4682C70.0538 38.2772 71.1555 26.6832 68.4915 20.2305C66.7002 21.4336 64.6688 22.2079 61.9829 22.2662C55.9387 22.3976 48.2389 21.1938 43.9994 25.3865C39.76 21.1938 32.0602 22.3976 26.016 22.2662C23.3301 22.2077 21.2989 21.4334 19.5074 20.2305C16.8434 26.6833 17.9453 38.2773 28.5309 38.2772H41.4213C42.8395 38.2772 43.9996 37.117 43.9996 35.699Z" stroke="white" stroke-width="2.57814" stroke-miterlimit="22.9256"/>
<path d="M56.34 30.3789C53.7626 29.6178 51.3582 30.142 49.7069 31.2927M31.6602 30.3789C34.2376 29.6178 36.642 30.142 38.2933 31.2927" stroke="white" stroke-width="2.57814" stroke-miterlimit="22.9256"/>
</svg>
