<svg width="88" height="88" viewBox="0 0 88 88" fill="none" xmlns="http://www.w3.org/2000/svg">
<path d="M43.9569 45.3867C32.6297 45.3867 23.4141 54.6021 23.4141 65.9296C23.4141 77.257 32.6297 86.4724 43.9569 86.4724C55.2842 86.4724 64.4997 77.257 64.4997 65.9296C64.4997 54.6021 55.2842 45.3867 43.9569 45.3867ZM43.9569 83.606C34.21 83.606 26.2804 75.6764 26.2804 65.9296C26.2804 56.1827 34.21 48.2531 43.9569 48.2531C53.7038 48.2531 61.6334 56.1827 61.6334 65.9296C61.6334 75.6764 53.7038 83.606 43.9569 83.606Z" fill="white"/>
<path d="M38.1211 55.7891V76.061L55.5422 65.9251L38.1211 55.7891ZM40.9876 60.7733L49.8423 65.9251L40.9876 71.077V60.7733Z" fill="#FE5B21"/>
<path d="M9.74658 29.7129V42.1341H22.1678V29.7129H9.74658ZM19.3013 39.2678H12.6129V32.5794H19.3013V39.2678Z" fill="white"/>
<path d="M28.375 29.7129V42.1341H40.7962V29.7129H28.375ZM37.9299 39.2678H31.2415V32.5794H37.9299V39.2678Z" fill="white"/>
<path d="M47.0151 29.7129V42.1341H59.4364V29.7129H47.0151ZM56.57 39.2678H49.8817V32.5794H56.57V39.2678Z" fill="white"/>
<path d="M65.6431 29.7129V42.1341H78.0643V29.7129H65.6431ZM75.1979 39.2678H68.5096V32.5794H75.1979V39.2678Z" fill="white"/>
<path d="M3.82422 11.0859V70.9947H21.6037V68.1283H6.69058V26.8515H81.2183V68.1283H66.7819V70.9947H84.0847V11.0859H3.82422ZM81.2183 23.985H6.69058V13.9525H81.2183V23.985Z" fill="white"/>
<path d="M14.4232 16.8164H11.5566V19.6828H14.4232V16.8164Z" fill="white"/>
<path d="M25.8878 16.8164H23.0215V19.6828H25.8878V16.8164Z" fill="white"/>
<path d="M20.1574 16.8164H17.291V19.6828H20.1574V16.8164Z" fill="white"/>
<path d="M65.0618 3.92383H62.1953V6.79036H65.0618V3.92383Z" fill="white"/>
<path d="M53.5968 3.92383H50.7305V6.79036H53.5968V3.92383Z" fill="white"/>
<path d="M70.7967 3.92383H67.9302V6.79036H70.7967V3.92383Z" fill="white"/>
<path d="M59.3314 3.92383H56.4648V6.79036H59.3314V3.92383Z" fill="white"/>
<path d="M87.9962 3.92383H85.1299V6.79036H87.9962V3.92383Z" fill="white"/>
<path d="M82.2614 3.92383H79.395V6.79036H82.2614V3.92383Z" fill="white"/>
<path d="M76.5272 3.92383H73.6606V6.79036H76.5272V3.92383Z" fill="white"/>
<path d="M44.7165 1.52734V3.91606H0V6.78242H44.7165V9.17114H47.5831V1.52734H44.7165Z" fill="white"/>
</svg>
