<svg width="88" height="88" viewBox="0 0 88 88" fill="none" xmlns="http://www.w3.org/2000/svg">
<g clip-path="url(#clip0_783_52262)">
<path d="M44.7959 44.6818V40.1484" stroke="white" stroke-width="2.58302" stroke-miterlimit="10"/>
<path d="M29.7559 40.1484V44.6818" stroke="white" stroke-width="2.58302" stroke-miterlimit="10"/>
<path d="M7.19971 88.0005V79.0547" stroke="white" stroke-width="2.58302" stroke-miterlimit="10"/>
<path d="M7.19971 76.4719V62.5942C7.19971 58.0895 10.1202 54.103 14.4149 52.7443L23.5623 49.8496L29.7581 44.6836" stroke="white" stroke-width="2.58302" stroke-miterlimit="10"/>
<path d="M44.7959 44.6836L50.99 49.8496L57.0342 51.7628" stroke="white" stroke-width="2.58302" stroke-miterlimit="10"/>
<path d="M67.3521 88.0014V74.9141" stroke="white" stroke-width="2.58302" stroke-miterlimit="10"/>
<path d="M37.2802 52.2028L29.761 44.6836L23.5664 49.8496L31.8832 56.8587L37.2802 52.2028Z" stroke="white" stroke-width="2.58302" stroke-miterlimit="10"/>
<path d="M37.2744 52.2028L44.7936 44.6836L50.9882 49.8496L42.6712 56.8587L37.2744 52.2028Z" stroke="white" stroke-width="2.58302" stroke-miterlimit="10"/>
<path d="M48.6542 23.4531V31.4796C48.6542 37.7637 43.56 42.858 37.2758 42.858C30.9917 42.858 25.8975 37.7637 25.8975 31.4796V23.4531" stroke="white" stroke-width="2.58302" stroke-miterlimit="10"/>
<path d="M45.8261 24.1618H28.7305C25.8773 24.1618 23.5645 21.849 23.5645 18.9958V17.1016H50.9921V18.9958C50.9921 21.849 48.6793 24.1618 45.8261 24.1618Z" stroke="white" stroke-width="2.58302" stroke-miterlimit="10"/>
<path d="M44.6543 3.52428L48.9472 4.79168L54.1649 9.02955C55.267 9.92328 55.4409 11.5402 54.5541 12.6475L50.9895 17.1023H23.5613L19.9985 12.6475C19.1116 11.5402 19.2838 9.92328 20.3859 9.02955L25.6036 4.79168L37.2754 1.34766L42.1625 2.78898" stroke="white" stroke-width="2.58302" stroke-miterlimit="10"/>
<path d="M31.8804 56.8574L34.6621 60.1038H39.8926L42.6741 56.8574" stroke="white" stroke-width="2.58302" stroke-miterlimit="10"/>
<path d="M31.2505 88.0001V84.5561C31.2505 78.3827 34.6945 60.1035 34.6945 60.1035H39.8605C39.8605 60.1035 43.3046 78.3827 43.3046 84.5561V88.0001" stroke="white" stroke-width="2.58302" stroke-miterlimit="10"/>
<path d="M25.9751 66.3223H15.6431V71.4883H25.9751V66.3223Z" stroke="#FE5B21" stroke-width="2.58302" stroke-miterlimit="10"/>
<path d="M79.0362 47.2321L77.2766 43.3776C77.2766 43.3776 75.4392 44.0073 73.4317 44.0073C71.4555 44.0073 67.3547 41.5254 67.3547 41.5254C67.3547 41.5254 64.0545 44.1036 61.2454 44.1036C59.8035 44.1036 57.4268 43.5975 57.4268 43.5975L55.7244 47.4836C59.5361 52.553 53.9111 57.6374 53.9111 63.6114C53.9111 70.8094 67.3547 74.9142 67.3547 74.9142C67.3547 74.9142 80.7983 70.8094 80.7983 63.6114C80.7983 57.6911 76.2405 52.2026 79.0362 47.2321Z" stroke="white" stroke-width="2.58302" stroke-miterlimit="10"/>
<path d="M67.3541 53.3887L69.4243 57.5833L74.0534 58.2559L70.7038 61.521L71.4945 66.1316L67.3541 63.9548L63.2137 66.1316L64.0044 61.521L60.6548 58.2559L65.2839 57.5833L67.3541 53.3887Z" stroke="#FE5B21" stroke-width="2.58302" stroke-miterlimit="10"/>
<path d="M16.5269 76.2441V88.0032" stroke="white" stroke-width="2.58302" stroke-miterlimit="10"/>
<path d="M58.0278 76.2441V88.0032" stroke="white" stroke-width="2.58302" stroke-miterlimit="10"/>
<path d="M37.2749 11.8067C38.7015 11.8067 39.8579 10.6502 39.8579 9.22364C39.8579 7.79708 38.7015 6.64062 37.2749 6.64062C35.8484 6.64062 34.6919 7.79708 34.6919 9.22364C34.6919 10.6502 35.8484 11.8067 37.2749 11.8067Z" stroke="white" stroke-width="2.58302" stroke-miterlimit="10"/>
<path d="M60.6377 49.1016H63.2207" stroke="white" stroke-width="2.58302" stroke-miterlimit="10"/>
<path d="M71.4873 49.1016H74.0703" stroke="white" stroke-width="2.58302" stroke-miterlimit="10"/>
</g>
<defs>
<clipPath id="clip0_783_52262">
<rect width="88" height="88" fill="white"/>
</clipPath>
</defs>
</svg>
