<svg width="111" height="89" viewBox="0 0 111 89" fill="none" xmlns="http://www.w3.org/2000/svg">
<path d="M90.5576 47.5597L88.9994 40.5214C89.2602 40.5536 89.5244 40.5714 89.7929 40.5714H94.1288C95.3263 40.5714 96.2968 39.6009 96.2968 38.4034V29.7316C96.2968 28.5341 95.3263 27.5636 94.1288 27.5636H89.7929C88.5293 27.5636 87.3497 27.9269 86.3504 28.5527L85.5052 24.7342C88.1457 24.376 90.1875 22.1089 90.1875 19.3719V15.456C90.1875 12.4708 87.7595 10.0428 84.7744 10.0428H71.9766C69.6773 10.0428 67.7092 11.4851 66.9259 13.5116H61.7871C58.6791 13.5116 56.1504 16.0403 56.1504 19.1483C56.1504 22.2563 58.6791 24.785 61.7871 24.785H72.9462V29.154C72.9462 30.3506 73.9167 31.322 75.1142 31.322C76.3117 31.322 77.2822 30.3506 77.2822 29.154V24.785H81.0761L86.518 49.3737L76.2185 67.7184C75.093 69.7153 72.9708 70.9551 70.6783 70.9551H44.9667C43.8904 61.9293 36.1941 54.9062 26.8828 54.9062C22.7628 54.9062 18.8757 56.2485 15.6416 58.7874C15.6373 58.79 15.6331 58.7934 15.6289 58.7967C11.7782 61.8251 9.35783 66.1721 8.79382 70.9551H4.34102C4.62387 55.3703 17.3903 42.7792 33.0412 42.7792H44.9515C46.165 42.7792 47.1533 43.7666 47.1533 44.981V64.4512C47.1533 65.6487 48.1238 66.6192 49.3213 66.6192H64.326C69.032 66.6192 73.3688 64.0608 75.6435 59.9425C76.6961 58.0371 77.2542 55.8793 77.2559 53.7037L77.2669 46.5003C77.2686 45.3028 76.299 44.3315 75.1015 44.3298H75.0989C73.9032 44.3298 72.9327 45.2977 72.931 46.4944L72.92 53.6986C72.9191 55.1451 72.5482 56.5788 71.8487 57.8449C70.3362 60.5828 67.4535 62.2833 64.326 62.2833H51.4893V44.981C51.4893 43.1789 50.7559 41.5444 49.5728 40.3605C50.7626 39.0513 51.4893 37.3127 51.4893 35.4081C51.4893 33.2554 50.5619 31.316 49.0859 29.967C49.3772 29.3852 49.5449 28.7306 49.5449 28.037V5.04297C49.5449 2.65228 47.5996 0.707031 45.2089 0.707031H22.2149C19.8242 0.707031 17.879 2.65228 17.879 5.04297V17.6172H8.69135C7.49389 17.6172 6.52338 18.5877 6.52338 19.7852C6.52338 20.9826 7.49389 21.9531 8.69135 21.9531H17.879V28.037H2.16797C0.970505 28.037 0 29.0075 0 30.205C0 31.4024 0.970505 32.3729 2.16797 32.3729H16.5909C16.1708 33.2994 15.9346 34.3266 15.9346 35.4081C15.9346 37.9385 17.2167 40.1751 19.1654 41.503C7.85973 46.756 0 58.2192 0 71.4853V73.124C0 74.3214 0.970505 75.2919 2.16797 75.2919H14.3518C14.3238 75.4317 14.3086 75.5765 14.3086 75.7255C14.3086 78.8716 15.473 81.7493 17.3903 83.957H8.69135C7.49389 83.957 6.52338 84.9275 6.52338 86.125C6.52338 87.3225 7.49389 88.293 8.69135 88.293H26.6321C26.716 88.2947 26.799 88.2997 26.8828 88.2997C33.8161 88.2997 39.457 82.6588 39.457 75.7255C39.457 75.5765 39.4418 75.4317 39.4138 75.2919H70.6783C74.092 75.2919 77.2822 73.6558 79.2816 70.9492H82.0271C81.4098 72.4516 81.082 74.0708 81.082 75.7255C81.082 78.8716 82.2465 81.7493 84.1638 83.957H56.0488C54.8513 83.957 53.8808 84.9275 53.8808 86.125C53.8808 87.3225 54.8513 88.293 56.0488 88.293H93.4056C93.4894 88.2947 93.5724 88.2997 93.6562 88.2997C100.59 88.2997 106.23 82.6588 106.23 75.7255C106.23 74.0708 105.903 72.4516 105.285 70.9492H108.832C110.029 70.9492 111 69.9787 111 68.7812C111 57.3376 101.9 47.9789 90.5576 47.5597ZM89.7929 31.8995H91.9608V36.2355H89.7929C88.5971 36.2355 87.6249 35.2633 87.6249 34.0675C87.6249 32.8726 88.5971 31.8995 89.7929 31.8995ZM36.0704 5.04297V9.81673H31.2958V5.04297H36.0704ZM22.2149 5.04297H26.9599V11.9847C26.9599 13.1822 27.9312 14.1527 29.1278 14.1527H38.2384C39.4359 14.1527 40.4064 13.1822 40.4064 11.9847V5.04297H45.2089L45.2123 28.037H45.2089H22.2149V5.04297ZM23.3057 38.4432C21.6323 38.4432 20.2705 37.0815 20.2705 35.4081C20.2705 33.7347 21.6323 32.3729 23.3057 32.3729H44.1182C45.7916 32.3729 47.1533 33.7347 47.1533 35.4081C47.1533 37.0815 45.7916 38.4432 44.1182 38.4432H23.3057ZM35.1211 75.7255C35.1211 80.2402 31.4703 83.9164 26.9667 83.9613C26.9387 83.9604 26.9108 83.957 26.8828 83.957H26.633C22.2056 83.8241 18.6445 80.1843 18.6445 75.7255C18.6445 75.5765 18.6293 75.4317 18.6013 75.2919H35.1643C35.1363 75.4317 35.1211 75.5765 35.1211 75.7255ZM13.1687 70.956C13.7056 67.5118 15.5145 64.4004 18.3083 62.2062C18.3151 62.2011 18.321 62.196 18.3278 62.191C20.7888 60.2618 23.7469 59.2422 26.8828 59.2422C33.8 59.2422 39.551 64.3276 40.5952 70.956H13.1687ZM60.4863 19.1483C60.4863 18.431 61.0698 17.8475 61.7871 17.8475H66.5634V19.3719C66.5634 19.7411 66.6007 20.101 66.671 20.4491H61.7871C61.0698 20.4491 60.4863 19.8656 60.4863 19.1483ZM75.1142 20.4491H71.9766C71.3829 20.4491 70.8994 19.9664 70.8994 19.3719V15.456C70.8994 14.8615 71.3829 14.3788 71.9766 14.3788H84.7744C85.368 14.3788 85.8516 14.8615 85.8516 15.456V19.3719C85.8516 19.9664 85.368 20.4491 84.7744 20.4491H75.1142ZM101.895 75.7255C101.895 80.2402 98.2437 83.9164 93.7401 83.9613C93.7121 83.9604 93.6842 83.957 93.6562 83.957H93.4064C88.979 83.8241 85.418 80.1843 85.418 75.7255C85.418 74.003 85.9549 72.3381 86.944 70.9492H100.368C101.358 72.3381 101.895 74.003 101.895 75.7255ZM101.405 66.6133H81.8112L90.0783 51.888C98.5215 52.0439 105.472 58.4165 106.526 66.6133H101.405Z" fill="white"/>
</svg>
