<svg width="87" height="87" viewBox="0 0 87 87" fill="none" xmlns="http://www.w3.org/2000/svg">
<g clip-path="url(#clip0_783_52048)">
<path d="M70.6912 65.2513C70.5933 65.2513 70.4918 65.2441 70.3903 65.226C69.4043 65.0628 68.7373 64.1276 68.9004 63.1416L71.6917 46.3216C72.0723 44.0995 71.0356 41.8483 69.1143 40.7101L53.3492 31.47C52.4864 30.9625 52.1964 29.8532 52.7003 28.9868C53.2114 28.1241 54.3243 27.8413 55.1834 28.338L70.9558 37.5817C74.1712 39.4812 75.8967 43.2367 75.2659 46.9233L72.4747 63.7325C72.3297 64.6206 71.5612 65.2513 70.6912 65.2513Z" fill="white"/>
<path d="M16.3093 65.2489C15.4393 65.2489 14.6708 64.6182 14.5258 63.7337L11.7346 46.9137C11.1038 43.2343 12.833 39.4824 16.0411 37.5865L31.9657 28.234C32.8103 27.7265 33.9341 28.0093 34.4452 28.8793C34.9527 29.7384 34.6627 30.8513 33.7963 31.3552L17.879 40.7077C15.965 41.8423 14.9282 44.097 15.3088 46.3083L18.1001 63.1392C18.2632 64.1252 17.5962 65.0604 16.6102 65.2235C16.5087 65.2417 16.4072 65.2489 16.3093 65.2489Z" fill="white"/>
<path d="M43.4855 86.9989C43.2281 86.9989 42.9635 86.9409 42.7206 86.8285L22.7976 77.5702C22.1596 77.273 21.75 76.635 21.75 75.9281V54.566C21.75 53.9461 22.0654 53.3697 22.5874 53.0362C23.1057 52.7027 23.7583 52.6592 24.3238 52.9239L44.2468 62.1821C44.8848 62.4794 45.2944 63.121 45.2944 63.8242V85.1864C45.2944 85.8062 44.979 86.3826 44.457 86.7161C44.167 86.9046 43.8263 86.9989 43.4855 86.9989ZM25.375 74.7717L41.673 82.348V64.9842L25.375 57.408V74.7717Z" fill="white"/>
<path d="M43.5146 86.9993C43.1739 86.9993 42.8331 86.9051 42.5395 86.7166C42.0139 86.3831 41.7021 85.8067 41.7021 85.1868V63.8247C41.7021 63.1214 42.1118 62.4798 42.7498 62.1826L62.6728 52.9243C63.2346 52.6633 63.8908 52.7032 64.4091 53.0367C64.9348 53.3738 65.2502 53.9502 65.2502 54.5701V75.9322C65.2502 76.6354 64.8405 77.2771 64.2025 77.5743L44.2795 86.8326C44.033 86.9413 43.772 86.9993 43.5146 86.9993ZM45.3271 64.9847V82.3484L61.6252 74.7722V57.4084L45.3271 64.9847Z" fill="white"/>
<path d="M63.4359 56.3834C63.1786 56.3834 62.9176 56.329 62.6711 56.213L43.5129 47.31L24.3222 56.213C23.4232 56.6444 22.3357 56.242 21.9188 55.3321C21.4983 54.4259 21.8898 53.3493 22.7997 52.9288L42.7517 43.6705C43.2338 43.4458 43.7884 43.4458 44.2778 43.6705L64.2008 52.9288C65.1071 53.3493 65.4986 54.4259 65.0781 55.3358C64.7736 55.9919 64.1174 56.3834 63.4359 56.3834Z" fill="white"/>
<path d="M54.3768 68.8739C53.3763 68.8739 52.5643 68.0619 52.5643 67.0614V59.9564L33.8774 51.0425C32.9711 50.6111 32.5905 49.5309 33.0219 48.6283C33.4533 47.7256 34.5371 47.3414 35.4361 47.7728L55.0365 57.118C55.7071 57.3899 56.1893 58.0388 56.1893 58.7964V67.0614C56.1893 68.0619 55.3773 68.8739 54.3768 68.8739Z" fill="white"/>
<path d="M12.936 29H9.31104C6.31316 29 3.87354 26.5604 3.87354 23.5625V16.3125C3.87354 13.3146 6.31316 10.875 9.31104 10.875H12.936C15.9339 10.875 18.3735 13.3146 18.3735 16.3125V23.5625C18.3735 26.5604 15.9339 29 12.936 29ZM9.31104 14.5C8.31416 14.5 7.49854 15.3156 7.49854 16.3125V23.5625C7.49854 24.5594 8.31416 25.375 9.31104 25.375H12.936C13.9329 25.375 14.7485 24.5594 14.7485 23.5625V16.3125C14.7485 15.3156 13.9329 14.5 12.936 14.5H9.31104Z" fill="white"/>
<path d="M19.9375 3.625H1.8125C0.812 3.625 0 2.813 0 1.8125C0 0.812 0.812 0 1.8125 0H19.9375C20.938 0 21.75 0.812 21.75 1.8125C21.75 2.813 20.938 3.625 19.9375 3.625Z" fill="white"/>
<path d="M10.875 14.5C9.8745 14.5 9.0625 13.688 9.0625 12.6875V1.8125C9.0625 0.812 9.8745 0 10.875 0C11.8755 0 12.6875 0.812 12.6875 1.8125V12.6875C12.6875 13.688 11.8755 14.5 10.875 14.5Z" fill="white"/>
<path d="M78.186 29H74.561C71.5632 29 69.1235 26.5604 69.1235 23.5625V16.3125C69.1235 13.3146 71.5632 10.875 74.561 10.875H78.186C81.1839 10.875 83.6235 13.3146 83.6235 16.3125V23.5625C83.6235 26.5604 81.1839 29 78.186 29ZM74.561 14.5C73.5642 14.5 72.7485 15.3156 72.7485 16.3125V23.5625C72.7485 24.5594 73.5642 25.375 74.561 25.375H78.186C79.1829 25.375 79.9985 24.5594 79.9985 23.5625V16.3125C79.9985 15.3156 79.1829 14.5 78.186 14.5H74.561Z" fill="white"/>
<path d="M85.1875 3.625H67.0625C66.062 3.625 65.25 2.813 65.25 1.8125C65.25 0.812 66.062 0 67.0625 0H85.1875C86.188 0 87 0.812 87 1.8125C87 2.813 86.188 3.625 85.1875 3.625Z" fill="white"/>
<path d="M76.125 14.5C75.1245 14.5 74.3125 13.688 74.3125 12.6875V1.8125C74.3125 0.812 75.1245 0 76.125 0C77.1255 0 77.9375 0.812 77.9375 1.8125V12.6875C77.9375 13.688 77.1255 14.5 76.125 14.5Z" fill="white"/>
<path d="M43.7522 36.25C37.6767 36.25 32.2609 33.1216 29.3646 28.0829C28.4039 26.4118 26.6132 25.375 24.6919 25.375H16.5647C15.5642 25.375 14.7522 24.563 14.7522 23.5625C14.7522 22.562 15.5642 21.75 16.5647 21.75H24.6883C27.9037 21.75 30.8979 23.4864 32.5075 26.274C34.7622 30.1926 38.9708 32.625 43.4984 32.625C48.2762 32.625 52.4848 30.1926 54.7432 26.2776C56.3454 23.4864 59.3433 21.75 62.5623 21.75H68.8735V18.125H62.5623C59.3433 18.125 56.3454 16.3886 54.7432 13.5974C52.4848 9.68237 48.2762 7.25 43.7522 7.25C38.9708 7.25 34.7622 9.68237 32.5075 13.5974C30.8979 16.3886 27.9037 18.125 24.6919 18.125H16.5647C15.5642 18.125 14.7522 17.313 14.7522 16.3125C14.7522 15.312 15.5642 14.5 16.5647 14.5H24.6883C26.6096 14.5 28.4003 13.4633 29.3646 11.7885C32.2609 6.75338 37.6803 3.625 43.4984 3.625C49.5703 3.625 54.9861 6.75338 57.8861 11.7921C58.8431 13.4633 60.6375 14.5 62.5623 14.5H70.686C71.6865 14.5 72.4985 15.312 72.4985 16.3125V23.5625C72.4985 24.563 71.6865 25.375 70.686 25.375H62.5623C60.6375 25.375 58.8467 26.4118 57.8861 28.0829C54.9861 33.1216 49.5703 36.25 43.7522 36.25Z" fill="white"/>
</g>
<defs>
<clipPath id="clip0_783_52048">
<rect width="87" height="87" fill="white"/>
</clipPath>
</defs>
</svg>
