<svg width="100" height="100" viewBox="0 0 100 100" fill="none" xmlns="http://www.w3.org/2000/svg">
<path d="M99.7936 29.5954L94.8778 19.7657C92.7587 15.5251 88.4971 12.8907 83.7557 12.8907C79.8915 12.8907 76.1987 14.7235 73.8594 17.7979L68.3422 24.0063C66.8717 21.9153 64.7147 20.3641 62.2298 19.6553L52.3606 16.835C44.8055 14.6762 37.4186 8.85711 32.0936 0.8698C31.6163 0.153785 30.7264 -0.165356 29.9026 0.0838629C29.079 0.333277 28.5155 1.09265 28.5155 1.9532V12.4786C28.5155 17.3702 29.2481 22.194 30.6954 26.8485C29.1786 27.2255 27.6491 27.5409 26.1268 27.787C23.1444 28.2706 20.1059 28.5157 17.0956 28.5157H1.95299C1.24303 28.5157 0.588933 28.9011 0.244792 29.5221C-0.0993487 30.1432 -0.0794268 30.902 0.29694 31.504L11.9923 50.2171C16.9895 58.2114 25.5958 63.228 35.0239 63.6413L16.2383 84.9063C13.3438 87.8659 14.3501 92.819 18.1735 94.4108L28.5159 99.5188C28.5618 99.5415 28.6085 99.5624 28.6559 99.5813C31.6471 100.777 35.0569 99.3255 36.2641 96.3376L43.4813 79.2969H57.8124C74.3282 79.2969 88.2811 65.8807 88.2811 50.0001V38.2813C88.2811 35.0505 90.9096 32.422 94.1405 32.422H98.0467C98.7237 32.422 99.3524 32.0716 99.7083 31.4956C100.064 30.9198 100.096 30.2007 99.7936 29.5954ZM32.4217 7.77371C37.8042 14.0786 44.4633 18.6411 51.2874 20.5911L61.1575 23.4116C63.0823 23.9608 64.7046 25.2841 65.635 27.053L60.4434 32.895L51.3231 27.4229C47.3727 25.0528 42.6712 24.11 38.0057 24.8651C36.5397 25.1028 35.604 25.4011 34.4526 25.7739C33.1048 21.4688 32.4217 17.0053 32.4217 12.4786V7.77371ZM94.1405 28.5157C88.7557 28.5157 84.3749 32.8966 84.3749 38.2813V50.0001C84.3749 63.7632 72.2108 75.3907 57.8124 75.3907H42.1874C36.6227 75.3907 31.6208 78.4823 29.1339 83.4587L28.7217 84.2829C28.2393 85.2477 28.6305 86.4208 29.5954 86.9032C30.5602 87.3856 31.7335 86.9942 32.2157 86.0296C32.443 85.7268 33.9239 81.3266 39.0409 79.7651L32.6606 94.8301C32.6553 94.8425 32.6503 94.8546 32.6454 94.8671C32.2579 95.8368 31.1655 96.3397 30.1655 95.9766C19.1714 90.5489 19.8339 90.8678 19.7018 90.8153C18.3967 90.2934 18.0534 88.6149 19.0473 87.6212C19.1147 87.5536 23.1942 82.9309 40.2352 63.6423C47.3997 63.3239 54.103 60.3778 59.1936 55.2872C59.9563 54.5245 59.9563 53.2878 59.1936 52.5249C58.4309 51.762 57.1942 51.7622 56.4313 52.5249C47.7374 61.2194 37.4169 59.5692 36.2674 59.7657C27.6891 59.7657 19.8524 55.4221 15.3046 48.1466L14.0557 46.1483L15.4657 46.6985C24.4079 50.1876 35.5739 48.9444 43.2708 43.8128C44.1682 43.2143 44.4106 42.0018 43.8124 41.1042C43.2139 40.2067 42.0014 39.9641 41.1038 40.5626C34.3432 45.0702 24.6106 46.0735 16.8854 43.0595L10.5899 40.6034L5.47702 32.422H17.0956C20.3147 32.422 23.5635 32.1598 26.7512 31.643C33.3184 30.5813 36.0774 29.1348 38.6305 28.7212C42.3411 28.1206 46.1305 28.8628 49.3137 30.7725L64.62 39.9559C65.5446 40.5112 66.7446 40.2114 67.2997 39.2864C67.8548 38.3616 67.5549 37.1618 66.6301 36.6067L63.852 34.9399C77.5741 19.4952 76.8407 20.3329 76.9337 20.2093C78.536 18.0725 81.0864 16.7969 83.7557 16.7969C87.0075 16.7969 89.9303 18.6036 91.3839 21.5124L94.8862 28.5157H94.1405Z" fill="white"/>
</svg>
