<svg width="116" height="84" viewBox="0 0 116 84" fill="none" xmlns="http://www.w3.org/2000/svg">
<path opacity="0.05" d="M4.89999 83.5C2.09999 83.5 0.999992 82.1 1.59999 79.3L17.2 3.4C17.6 1.2 18.8 0.100001 20.8 0.100001H54.4C55.8 0.100001 56.8 0.500002 57.4 1.3C57.8 2.3 57.8 3.5 57.4 4.9L32.8 80.8C32.2 82.6 31 83.5 29.2 83.5H4.89999ZM62.2 83.5C59.6 83.5 58.6 82.1 59.2 79.3L74.5 3.4C74.9 1.2 76.1 0.100001 78.1 0.100001H112C113.2 0.100001 114.1 0.500002 114.7 1.3C115.3 2.3 115.3 3.5 114.7 4.9L90.1 80.8C89.5 82.6 88.3 83.5 86.5 83.5L62.2 83.5Z" fill="white"/>
</svg>
