<svg width="367" height="10" viewBox="0 0 367 10" fill="none" xmlns="http://www.w3.org/2000/svg">
<g opacity="0.6">
<rect x="0.581055" y="0.5" width="9.98315" height="9" fill="#060D1E" stroke="#2A3551"/>
<rect x="20.3508" y="0.5" width="9.98315" height="9" fill="#060D1E" stroke="#2A3551"/>
<rect x="40.1204" y="0.5" width="9.98315" height="9" fill="#060D1E" stroke="#2A3551"/>
<rect x="59.8901" y="0.5" width="9.98315" height="9" fill="#060D1E" stroke="#2A3551"/>
<rect x="79.6597" y="0.5" width="9.98315" height="9" fill="#060D1E" stroke="#2A3551"/>
<rect x="99.4294" y="0.5" width="9.98315" height="9" fill="#060D1E" stroke="#2A3551"/>
<rect x="119.199" y="0.5" width="9.98315" height="9" fill="#060D1E" stroke="#2A3551"/>
<rect x="138.969" y="0.5" width="9.98315" height="9" fill="#060D1E" stroke="#2A3551"/>
<rect x="158.738" y="0.5" width="9.98315" height="9" fill="#060D1E" stroke="#2A3551"/>
<rect x="178.508" y="0.5" width="9.98315" height="9" fill="#060D1E" stroke="#2A3551"/>
<rect x="198.278" y="0.5" width="9.98315" height="9" fill="#060D1E" stroke="#2A3551"/>
<rect x="218.047" y="0.5" width="9.98315" height="9" fill="#060D1E" stroke="#2A3551"/>
<rect x="237.817" y="0.5" width="9.98315" height="9" fill="#060D1E" stroke="#2A3551"/>
<rect x="257.587" y="0.5" width="9.98315" height="9" fill="#060D1E" stroke="#2A3551"/>
<rect x="277.356" y="0.5" width="9.98315" height="9" fill="#060D1E" stroke="#2A3551"/>
<rect x="297.126" y="0.5" width="9.98315" height="9" fill="#060D1E" stroke="#2A3551"/>
<rect x="316.896" y="0.5" width="9.98315" height="9" fill="#060D1E" stroke="#2A3551"/>
<rect x="336.665" y="0.5" width="9.98315" height="9" fill="#060D1E" stroke="#2A3551"/>
<rect x="356.435" y="0.5" width="9.98315" height="9" fill="#060D1E" stroke="#2A3551"/>
</g>
</svg>
