<svg width="24" height="19" viewBox="0 0 24 19" fill="none" xmlns="http://www.w3.org/2000/svg">
<path d="M24 16.75V18.25C24 18.6719 23.625 19 23.25 19C22.8281 19 22.5 18.6719 22.5 18.25V16.7969C22.5 13.0938 19.4531 10.0938 15.75 10.0938H2.8125L10.2188 16.2812C10.5469 16.5625 10.5469 17.0312 10.3125 17.3594C10.1719 17.4062 9.9375 17.5 9.75 17.5C9.5625 17.5 9.375 17.4531 9.23438 17.3594L0.234375 9.90625C0.09375 9.71875 0 9.48438 0 9.25C0 9.01562 0.09375 8.78125 0.234375 8.64062L9.23438 1.1875C9.5625 0.953125 10.0312 0.953125 10.3125 1.28125C10.5469 1.60938 10.5469 2.07812 10.2188 2.35938L2.8125 8.5H15.75C20.2969 8.5 24 12.2031 24 16.75Z" fill="white"/>
</svg>
