<svg width="28" height="32" viewBox="0 0 28 32" fill="none" xmlns="http://www.w3.org/2000/svg">
<path d="M8 4H20V0.5C20 0.25 20.1875 0 20.5 0C20.75 0 21 0.25 21 0.5V4H24C26.1875 4 28 5.8125 28 8V28C28 30.25 26.1875 32 24 32H4C1.75 32 0 30.25 0 28V8C0 5.8125 1.75 4 4 4H7V0.5C7 0.25 7.1875 0 7.5 0C7.75 0 8 0.25 8 0.5V4ZM27 18V12H19V18H27ZM18 12H10V18H18V12ZM9 12H1V18H9V12ZM1 19V25H9V19H1ZM1 26V28C1 29.6875 2.3125 31 4 31H9V26H1ZM10 31H18V26H10V31ZM19 31H24C25.625 31 27 29.6875 27 28V26H19V31ZM27 25V19H19V25H27ZM4 5C2.3125 5 1 6.375 1 8V11H27V8C27 6.375 25.625 5 24 5H21V7.5C21 7.8125 20.75 8 20.5 8C20.1875 8 20 7.8125 20 7.5V5H8V7.5C8 7.8125 7.75 8 7.5 8C7.1875 8 7 7.8125 7 7.5V5H4ZM18 19H10V25H18V19Z" fill="white"/>
</svg>
