<svg width="32" height="32" viewBox="0 0 32 32" fill="none" xmlns="http://www.w3.org/2000/svg">
<path d="M15.5 6.5C15.5 6.25 15.6875 6 16 6C16.25 6 16.5 6.25 16.5 6.5V15.75L22.25 19.625C22.5 19.75 22.5625 20.0625 22.375 20.3125C22.25 20.5625 21.9375 20.625 21.6875 20.4375L15.6875 16.4375C15.5625 16.375 15.4375 16.1875 15.4375 16L15.5 6.5ZM16 0C24.8125 0 32 7.1875 32 16C32 24.875 24.8125 32 16 32C7.125 32 0 24.875 0 16C0 7.1875 7.125 0 16 0ZM1 16C1 24.3125 7.6875 31 16 31C24.25 31 31 24.3125 31 16C31 7.75 24.25 1 16 1C7.6875 1 1 7.75 1 16Z" fill="white"/>
</svg>
