<svg width="33" height="29" viewBox="0 0 33 29" fill="none" xmlns="http://www.w3.org/2000/svg">
<path d="M20.125 0.1875C20.3125 0 20.625 0 20.8125 0.1875L29.8125 9.25C32.6875 12.1875 32.6875 16.875 29.8125 19.8125L21.8125 27.875C21.625 28.0625 21.3125 28.0625 21.125 27.875C20.9375 27.6875 20.875 27.375 21.125 27.1875L29.0625 19.125C31.625 16.5625 31.625 12.5 29.0625 9.9375L20.125 0.875C19.9375 0.6875 19.9375 0.375 20.125 0.1875ZM4.5 7C4.5 5.625 5.5625 4.5 7 4.5C8.375 4.5 9.5 5.625 9.5 7C9.5 8.4375 8.375 9.5 7 9.5C5.5625 9.5 4.5 8.4375 4.5 7ZM7 8.5C7.8125 8.5 8.5 7.875 8.5 7C8.5 6.1875 7.8125 5.5 7 5.5C6.125 5.5 5.5 6.1875 5.5 7C5.5 7.875 6.125 8.5 7 8.5ZM3 0H12.3125C13.375 0 14.375 0.4375 15.125 1.1875L25.625 11.6875C27.1875 13.25 27.1875 15.8125 25.625 17.375L17.3125 25.6875C15.75 27.25 13.1875 27.25 11.625 25.6875L1.125 15.1875C0.375 14.4375 0 13.4375 0 12.375V3C0 1.375 1.3125 0 3 0ZM1 3V12.375C1 13.1875 1.3125 13.9375 1.875 14.5L12.375 25C13.5 26.1875 15.4375 26.1875 16.5625 25L24.9375 16.625C26.125 15.5 26.125 13.5625 24.9375 12.4375L14.4375 1.9375C13.875 1.375 13.125 1 12.3125 1H3C1.875 1 1 1.9375 1 3Z" fill="white"/>
</svg>
