<svg width="30" height="29" viewBox="0 0 30 29" fill="none" xmlns="http://www.w3.org/2000/svg">
<g id="instagram (1) 1">
<path id="Vector" d="M17.9208 14.4516C17.9208 15.0286 17.7497 15.5927 17.4291 16.0724C17.1085 16.5522 16.6529 16.9261 16.1198 17.1469C15.5867 17.3678 15.0001 17.4255 14.4342 17.313C13.8683 17.2004 13.3484 16.9225 12.9404 16.5145C12.5324 16.1065 12.2546 15.5867 12.142 15.0208C12.0294 14.4548 12.0872 13.8682 12.308 13.3352C12.5288 12.8021 12.9028 12.3464 13.3825 12.0259C13.8623 11.7053 14.4263 11.5342 15.0034 11.5342C15.7767 11.5354 16.5181 11.8431 17.065 12.39C17.6118 12.9368 17.9196 13.6782 17.9208 14.4516Z" fill="white"/>
<path id="Vector_2" d="M18.4065 7.89355H11.5961C11.2171 7.89408 10.842 7.96926 10.4921 8.11481C10.1421 8.26036 9.8243 8.47342 9.55674 8.74183C9.28917 9.01023 9.0771 9.32872 8.93265 9.6791C8.7882 10.0295 8.71419 10.4049 8.71485 10.7839V18.1181C8.71419 18.4971 8.7882 18.8725 8.93266 19.2228C9.07711 19.5732 9.28918 19.8917 9.55674 20.1601C9.82431 20.4285 10.1421 20.6416 10.4921 20.7871C10.842 20.9327 11.2172 21.0079 11.5961 21.0084H18.4065C18.7854 21.0079 19.1606 20.9327 19.5105 20.7871C19.8605 20.6416 20.1783 20.4285 20.4459 20.1601C20.7134 19.8917 20.9255 19.5732 21.0699 19.2228C21.2144 18.8725 21.2884 18.4971 21.2878 18.1181V10.7839C21.2884 10.4049 21.2144 10.0295 21.07 9.6791C20.9255 9.32872 20.7134 9.01023 20.4459 8.74183C20.1783 8.47342 19.8605 8.26036 19.5105 8.11481C19.1606 7.96926 18.7855 7.89408 18.4065 7.89355ZM15.0013 18.949C14.1117 18.949 13.242 18.6852 12.5023 18.191C11.7626 17.6967 11.1861 16.9942 10.8456 16.1723C10.5052 15.3504 10.4161 14.446 10.5897 13.5734C10.7632 12.7009 11.1916 11.8994 11.8207 11.2704C12.4498 10.6413 13.2512 10.2129 14.1238 10.0393C14.9963 9.86578 15.9007 9.95486 16.7226 10.2953C17.5445 10.6358 18.2471 11.2123 18.7413 11.952C19.2356 12.6917 19.4994 13.5613 19.4994 14.451C19.4962 15.643 19.0213 16.7852 18.1784 17.6281C17.3355 18.4709 16.1933 18.9459 15.0013 18.949ZM19.4542 10.6845C19.364 10.6846 19.2748 10.6668 19.1915 10.6324C19.1082 10.5979 19.0325 10.5473 18.9687 10.4836C18.905 10.4198 18.8544 10.3441 18.8199 10.2608C18.7854 10.1775 18.7677 10.0883 18.7678 9.99812C18.7679 9.90843 18.7858 9.81967 18.8205 9.73695C18.8551 9.65424 18.9058 9.57921 18.9697 9.51622C19.0335 9.45322 19.1092 9.40351 19.1924 9.36995C19.2755 9.33639 19.3645 9.31965 19.4542 9.3207C19.5434 9.31982 19.6319 9.33674 19.7145 9.37047C19.7971 9.40421 19.8721 9.45407 19.9352 9.51715C19.9982 9.58023 20.0481 9.65526 20.0818 9.73784C20.1156 9.82043 20.1325 9.90891 20.1316 9.99812C20.1327 10.0878 20.1159 10.1768 20.0824 10.2599C20.0488 10.3431 19.9991 10.4188 19.9361 10.4826C19.8731 10.5465 19.7981 10.5972 19.7154 10.6318C19.6326 10.6665 19.5439 10.6844 19.4542 10.6845Z" fill="white"/>
<path id="Vector_3" d="M15.0015 0.90332C12.3219 0.90332 9.70246 1.69792 7.47444 3.18664C5.24642 4.67535 3.50989 6.79132 2.48444 9.26696C1.459 11.7426 1.19069 14.4667 1.71346 17.0949C2.23623 19.723 3.52659 22.1371 5.42136 24.0319C7.31614 25.9266 9.73023 27.217 12.3584 27.7398C14.9865 28.2625 17.7106 27.9942 20.1863 26.9688C22.6619 25.9433 24.7779 24.2068 26.2666 21.9788C27.7553 19.7508 28.5499 17.1313 28.5499 14.4517C28.5486 10.8588 27.1208 7.41352 24.5802 4.87299C22.0397 2.33245 18.5944 0.90462 15.0015 0.90332ZM22.8596 18.1188C22.8606 19.3009 22.3921 20.4351 21.557 21.2718C20.722 22.1086 19.5888 22.5794 18.4067 22.5807H11.5964C10.4142 22.5794 9.28104 22.1086 8.44599 21.2718C7.61095 20.4351 7.14242 19.3009 7.14345 18.1188V10.7846C7.14242 9.60248 7.61095 8.46834 8.44599 7.6316C9.28104 6.79486 10.4142 6.32404 11.5964 6.32267H18.4067C19.5888 6.32404 20.722 6.79486 21.557 7.6316C22.3921 8.46834 22.8606 9.60248 22.8596 10.7846V18.1188Z" fill="white"/>
</g>
</svg>
