<svg width="43" height="43" viewBox="0 0 43 43" fill="none" xmlns="http://www.w3.org/2000/svg">
<g id="location 2" clip-path="url(#clip0_226_12301)">
<g id="Group">
<path id="Vector" d="M21.5 27C26.1944 27 30 23.1944 30 18.5C30 13.8056 26.1944 10 21.5 10C16.8056 10 13 13.8056 13 18.5C13 23.1944 16.8056 27 21.5 27Z" fill="#ED222A"/>
<path id="Vector_2" d="M34.9455 5.57006C31.3537 1.97817 26.5779 0 21.4981 0C16.4183 0 11.6425 1.97817 8.05061 5.57006C4.45864 9.16211 2.48047 13.9378 2.48047 19.0176C2.48047 27.9794 8.74568 35.7163 17.4494 37.6018L21.4981 43L25.5468 37.6017C34.2505 35.7163 40.5157 27.9794 40.5157 19.0176C40.5157 13.9378 38.5375 9.16211 34.9455 5.57006ZM21.4981 4.96478C29.2005 4.96478 35.4668 11.2312 35.4668 18.9335C35.4668 26.6358 29.2005 32.9022 21.4981 32.9022C13.7957 32.9022 7.52939 26.6358 7.52939 18.9335C7.52939 11.2312 13.7957 4.96478 21.4981 4.96478Z" fill="white"/>
</g>
</g>
<defs>
<clipPath id="clip0_226_12301">
<rect width="43" height="43" fill="white"/>
</clipPath>
</defs>
</svg>
