<svg width="20" height="20" viewBox="0 0 20 20" fill="none" xmlns="http://www.w3.org/2000/svg">
<path d="M10.1161 1.25113C6.78172 1.18676 4.05859 3.87051 4.05859 7.18988C4.05859 11.3768 8.42297 14.5186 9.66984 15.3299C9.87172 15.4611 10.1261 15.4611 10.328 15.3293C11.6117 14.493 16.198 11.1893 15.9273 6.81738C15.7392 3.77863 13.1611 1.30988 10.1161 1.25113ZM9.99859 9.65114C8.63922 9.65114 7.53734 8.54926 7.53734 7.18988C7.53734 5.83051 8.63922 4.72863 9.99859 4.72863C11.358 4.72863 12.4598 5.83051 12.4598 7.18988C12.4598 8.54926 11.358 9.65114 9.99859 9.65114Z" fill="white"/>
<path d="M14.0188 13.7236C12.8194 14.9736 11.5788 15.8574 10.9412 16.273C10.6581 16.4574 10.3319 16.5543 9.9975 16.5543C9.6625 16.5543 9.33563 16.4568 9.05375 16.273C8.42688 15.8649 7.18062 14.9824 5.975 13.7249C5.11875 14.2586 4.59375 14.9611 4.59375 15.7343C4.59438 17.3993 7.01375 18.7499 9.99812 18.7499C12.9825 18.7499 15.4019 17.3993 15.4019 15.7336C15.4019 14.9605 14.8763 14.2574 14.0188 13.7236Z" fill="white"/>
</svg>
