<svg width="18" height="18" viewBox="0 0 18 18" fill="none" xmlns="http://www.w3.org/2000/svg">
<path d="M12.0325 1.125H5.96875C4.41569 1.125 3.15625 2.38444 3.15625 3.9375V14.0625C3.15625 15.6156 4.41569 16.875 5.96875 16.875H12.0325C13.5856 16.875 14.845 15.6156 14.845 14.0625V3.9375C14.845 2.38444 13.5861 1.125 12.0325 1.125ZM9.50181 15.1312H8.5C8.22044 15.1312 7.99375 14.9046 7.99375 14.625C7.99375 14.3454 8.22044 14.1188 8.5 14.1188H9.50181C9.78137 14.1188 10.0081 14.3454 10.0081 14.625C10.0081 14.9046 9.78137 15.1312 9.50181 15.1312ZM12.5956 12.1877C12.5956 12.4982 12.3436 12.7502 12.0331 12.7502H5.96819C5.65769 12.7502 5.40569 12.4982 5.40569 12.1877V3.9375C5.40569 3.627 5.65769 3.375 5.96819 3.375H12.0325C12.343 3.375 12.595 3.627 12.595 3.9375V12.1877H12.5956Z" fill="white"/>
</svg>
