<svg width="30" height="29" viewBox="0 0 30 29" fill="none" xmlns="http://www.w3.org/2000/svg">
<g id="telegram (2) 1">
<path id="Vector" d="M14.9039 0.90332C12.2242 0.90332 9.6048 1.69792 7.37678 3.18664C5.14876 4.67535 3.41223 6.79132 2.38678 9.26696C1.36134 11.7426 1.09304 14.4667 1.6158 17.0949C2.13857 19.723 3.42893 22.1371 5.32371 24.0319C7.21848 25.9266 9.63257 27.217 12.2607 27.7398C14.8888 28.2625 17.613 27.9942 20.0886 26.9688C22.5642 25.9433 24.6802 24.2068 26.1689 21.9788C27.6576 19.7508 28.4522 17.1313 28.4522 14.4517C28.4509 10.8588 27.0231 7.41352 24.4826 4.87299C21.942 2.33245 18.4967 0.90462 14.9039 0.90332ZM23.0148 8.72526L20.3774 20.693C20.3513 20.8076 20.2968 20.9139 20.2191 21.0021C20.1414 21.0904 20.0428 21.1578 19.9324 21.1982C19.822 21.2386 19.7032 21.2507 19.5869 21.2335C19.4706 21.2162 19.3604 21.1701 19.2664 21.0994L15.4819 18.2362L13.4135 20.2685C13.372 20.3096 13.3188 20.337 13.2612 20.347C13.2037 20.3571 13.1444 20.3493 13.0914 20.3247C13.0383 20.3002 12.994 20.26 12.9644 20.2096C12.9349 20.1592 12.9214 20.101 12.9258 20.0427L13.1787 16.5833L19.8987 10.3962C19.9223 10.3761 19.9373 10.3478 19.941 10.317C19.9446 10.2862 19.9365 10.2552 19.9182 10.2301C19.9 10.205 19.873 10.1878 19.8426 10.1817C19.8122 10.1757 19.7806 10.1813 19.7542 10.1975L10.8755 15.6259L7.13612 14.3524C7.0325 14.3181 6.94207 14.2526 6.87733 14.1647C6.8126 14.0769 6.77676 13.9711 6.77478 13.862C6.7728 13.7529 6.80476 13.6459 6.86626 13.5557C6.92776 13.4656 7.01575 13.3968 7.11806 13.3588L21.8406 7.72268C21.9882 7.66614 22.1483 7.65044 22.3041 7.67725C22.4598 7.70406 22.6055 7.77238 22.7257 7.87501C22.8459 7.97763 22.9362 8.11078 22.9871 8.26041C23.038 8.41004 23.0475 8.57063 23.0148 8.72526Z" fill="white"/>
</g>
</svg>
