<svg width="19" height="19" viewBox="0 0 19 19" fill="none" xmlns="http://www.w3.org/2000/svg">
<path d="M6.14522 2.86298C5.74384 2.62904 5.28369 2.48535 4.78553 2.48535C3.28572 2.48535 2.07031 3.70076 2.07031 5.20057C2.07031 5.77888 2.25437 6.31266 2.56253 6.75323C3.24534 5.06163 4.52725 3.67938 6.14522 2.86298Z" fill="white"/>
<path d="M16.4382 6.75323C16.7463 6.31266 16.9304 5.77888 16.9304 5.20057C16.9304 3.70076 15.715 2.48535 14.2152 2.48535C13.717 2.48535 13.2568 2.62904 12.8555 2.86298C14.474 3.67938 15.7559 5.06163 16.4382 6.75323Z" fill="white"/>
<path d="M9.49872 2.05912C9.80272 2.05912 10.1014 2.08288 10.3965 2.1185V1.8335C10.3965 1.47666 10.1073 1.1875 9.75047 1.1875H9.24697C8.89012 1.1875 8.60156 1.47666 8.60156 1.83291V2.11791C8.89606 2.08287 9.19472 2.05912 9.49872 2.05912Z" fill="white"/>
<path d="M4.94805 15.4644L4.32165 17.2385C4.22308 17.5187 4.4309 17.8126 4.72836 17.8126H6.46686C6.64974 17.8126 6.81243 17.6974 6.87299 17.5253L7.18174 16.6501C6.36593 16.3835 5.61424 15.9774 4.94805 15.4644Z" fill="white"/>
<path d="M14.054 15.4644C13.3878 15.9774 12.6361 16.3835 11.8203 16.6501L12.1291 17.5253C12.1896 17.6974 12.3523 17.8126 12.5352 17.8126H14.2737C14.5712 17.8126 14.779 17.5187 14.6798 17.2385L14.054 15.4644Z" fill="white"/>
<path d="M9.5 2.56396C5.64716 2.56396 2.52344 5.68768 2.52344 9.54053C2.52344 13.3934 5.64716 16.5177 9.5 16.5177C13.3528 16.5177 16.4766 13.394 16.4766 9.54112C16.4766 5.68828 13.3528 2.56396 9.5 2.56396ZM9.5 14.7827C6.60488 14.7827 4.25837 12.4357 4.25837 9.54053C4.25837 6.6454 6.60488 4.2989 9.5 4.2989C12.3951 4.2989 14.7416 6.646 14.7416 9.54053C14.7416 12.4351 12.3951 14.7827 9.5 14.7827Z" fill="white"/>
<path d="M11.5101 10.623L10.9905 10.1035C10.8284 10.531 10.4906 10.8695 10.0625 11.0315L10.582 11.5511C10.8326 11.8016 11.2387 11.8016 11.4893 11.5511L11.5101 11.5303C11.7606 11.2797 11.7606 10.8736 11.5101 10.623Z" fill="white"/>
<path d="M9.49925 7.94228C9.73378 7.94228 9.95466 7.99572 10.1553 8.08716V6.75063C10.1553 6.39616 9.86797 6.10938 9.51409 6.10938H9.485C9.13053 6.10938 8.84375 6.39675 8.84375 6.75063V8.08716C9.04384 7.99631 9.26472 7.94228 9.49925 7.94228Z" fill="white"/>
<path d="M9.49994 10.6342C10.104 10.6342 10.5936 10.1445 10.5936 9.54047C10.5936 8.93644 10.104 8.44678 9.49994 8.44678C8.89591 8.44678 8.40625 8.93644 8.40625 9.54047C8.40625 10.1445 8.89591 10.6342 9.49994 10.6342Z" fill="white"/>
</svg>
