<svg width="18" height="18" viewBox="0 0 18 18" fill="none" xmlns="http://www.w3.org/2000/svg">
<g id="traffic-sign 1" clip-path="url(#clip0_226_12666)">
<g id="Group">
<path id="Vector" d="M17.4371 7.64256L10.3579 0.563375C9.60741 -0.18707 8.39271 -0.187211 7.64209 0.563375L0.5629 7.64256C-0.187616 8.39304 -0.187651 9.60792 0.5629 10.3584L7.64209 17.4376C8.3926 18.1881 9.6073 18.1882 10.3579 17.4376L17.4371 10.3584C18.1876 9.60795 18.1877 8.39308 17.4371 7.64256ZM16.6417 9.56295L9.56248 16.6421C9.25157 16.953 8.74847 16.9531 8.43753 16.6421L1.35834 9.56295C1.04751 9.25212 1.04747 8.74895 1.35834 8.43801L8.43753 1.35885C8.74844 1.04798 9.25154 1.04795 9.56248 1.35885L16.6417 8.43804C16.6417 8.44796 16.8746 8.63041 16.8746 9.00052C16.8746 9.21299 16.7919 9.4127 16.6417 9.56295Z" fill="white"/>
<path id="Vector_2" d="M13.1256 7.25402C13.0815 7.1873 13.2174 7.33193 11.1486 5.23084C10.9307 5.00947 10.5745 5.0067 10.3532 5.22469C10.1318 5.44265 10.1291 5.79877 10.347 6.0201L11.343 7.03164H5.90622C5.59556 7.03164 5.34375 7.28348 5.34375 7.59411V11.2502C5.34375 11.5608 5.59556 11.8127 5.90622 11.8127C6.21688 11.8127 6.4687 11.5608 6.4687 11.2502V8.15658H11.2824L10.2864 9.16812C9.9354 9.52463 10.1927 10.1252 10.6872 10.1252C10.8326 10.1252 10.9779 10.0692 11.088 9.95741L12.9339 8.08265C13.2472 7.90396 13.2884 7.50046 13.1256 7.25402Z" fill="white"/>
</g>
</g>
<defs>
<clipPath id="clip0_226_12666">
<rect width="18" height="18" fill="white"/>
</clipPath>
</defs>
</svg>
