<svg width="25" height="24" viewBox="0 0 25 24" fill="none" xmlns="http://www.w3.org/2000/svg">
<path d="M24.146 2.41767V21.9719C24.146 21.9719 24.2125 22.9366 23.8158 23.3333C23.1892 23.9596 22.2741 23.2617 21.0801 22.6584C17.8381 21.0203 10.7386 17.4343 10.7386 17.4343L8.84083 22.0546C8.84083 22.0546 8.62351 22.9293 8.14974 23.1958C7.3787 23.6299 6.20049 23.5395 6.20049 23.5395H4.63291C4.63291 23.5395 4.09096 23.5308 3.70469 23.3323C3.45284 23.2027 3.11299 22.8763 3.09665 22.5141C3.06856 21.8849 3.5188 21.1469 3.5188 21.1469L5.25148 16.5677L1.53885 16.0313C1.53885 16.0313 0.778209 15.9623 0.39306 15.608C0.0152139 15.2611 0.0124912 14.6283 0.0124912 14.6283V9.63685C0.0124912 9.63685 -0.0820633 8.77311 0.249125 8.24279C0.532788 7.78933 1.25012 7.65653 1.25012 7.65653C1.25012 7.65653 3.51695 7.39774 5.77982 7.09836C8.03415 6.79948 10.2845 6.46037 10.2845 6.46037L22.0006 0.519772C22.0006 0.519772 22.5058 0.265564 22.9015 0.216307C23.4957 0.141926 23.9104 0.346381 24.0871 0.825589C24.2558 1.28314 24.1463 1.88091 24.1463 1.88091V2.41779L24.146 2.41767ZM4.71534 22.0132H7.31435L9.21212 17.1041L6.86063 16.7325L4.71534 22.0132ZM3.35408 8.93574C3.35408 8.93574 2.64096 9.01631 2.10903 9.07695C1.7917 9.11346 1.53885 9.2246 1.53885 9.2246V14.4224C1.53885 14.4224 1.77289 14.5474 2.07227 14.6017C2.60779 14.6991 3.35408 14.7523 3.35408 14.7523V8.93574ZM22.3928 2.1699L12.347 7.07905C12.347 7.07905 11.7584 7.43834 11.1809 7.66952C10.6247 7.89242 10.0786 7.98697 10.0786 7.98697L5.00432 8.68821V14.9174L8.88192 15.4949C8.88192 15.4949 9.96707 15.6425 10.7458 15.8375C11.1819 15.9463 11.5223 16.155 11.5223 16.155L22.3928 21.4563V2.1699Z" fill="white"/>
</svg>
