<svg width="10" height="6" viewBox="0 0 10 6" fill="none" xmlns="http://www.w3.org/2000/svg">
<path d="M4.66939 5.33606C4.58166 5.33657 4.49468 5.31975 4.41346 5.28658C4.33223 5.2534 4.25835 5.20452 4.19606 5.14273L0.196061 1.14273C0.0705253 1.01719 0 0.846929 0 0.669394C0 0.49186 0.0705253 0.321597 0.196061 0.196061C0.321597 0.0705253 0.49186 0 0.669394 0C0.846929 0 1.01719 0.0705253 1.14273 0.196061L4.66939 3.72939L8.19606 0.202728C8.3236 0.0935104 8.48765 0.0364393 8.65543 0.0429201C8.82321 0.0494009 8.98237 0.118956 9.1011 0.237686C9.21983 0.356416 9.28939 0.515575 9.29587 0.683359C9.30235 0.851143 9.24528 1.01519 9.13606 1.14273L5.13606 5.14273C5.01189 5.26589 4.84429 5.33532 4.66939 5.33606Z" fill="white"/>
</svg>
