<svg width="38" height="37" viewBox="0 0 38 37" fill="none" xmlns="http://www.w3.org/2000/svg">
<path d="M17.5 37C15.8455 37 14.5 35.6545 14.5 34C14.5 32.3455 15.8455 31 17.5 31C19.1545 31 20.5 32.3455 20.5 34C20.5 35.6545 19.1545 37 17.5 37ZM17.5 32.5C16.672 32.5 16 33.1735 16 34C16 34.8265 16.672 35.5 17.5 35.5C18.328 35.5 19 34.8265 19 34C19 33.1735 18.328 32.5 17.5 32.5Z" fill="white"/>
<path d="M28 37C26.3455 37 25 35.6545 25 34C25 32.3455 26.3455 31 28 31C29.6545 31 31 32.3455 31 34C31 35.6545 29.6545 37 28 37ZM28 32.5C27.172 32.5 26.5 33.1735 26.5 34C26.5 34.8265 27.172 35.5 28 35.5C28.828 35.5 29.5 34.8265 29.5 34C29.5 33.1735 28.828 32.5 28 32.5Z" fill="white"/>
<mask id="path-3-outside-1_909_39229" maskUnits="userSpaceOnUse" x="0" y="5" width="38" height="24" fill="black">
<rect fill="white" y="5" width="38" height="24"/>
<path d="M30.1195 28.5H16.015C14.3425 28.5 12.8605 27.3795 12.4135 25.776L7.645 9.132C7.375 8.169 6.4885 7.5 5.485 7.5H1.75C1.336 7.5 1 7.164 1 6.75C1 6.336 1.336 6 1.75 6H5.485C7.1575 6 8.6395 7.1205 9.0865 8.724L10.027 12H34.7485C35.467 12 36.1255 12.33 36.553 12.906C36.982 13.482 37.1095 14.208 36.9025 14.895L33.676 25.92C33.157 27.474 31.7305 28.5 30.1195 28.5ZM10.456 13.5L13.8565 25.368C14.125 26.331 15.0115 27 16.015 27H30.1195C31.0705 27 31.9435 26.3715 32.2435 25.473L35.467 14.466C35.536 14.2365 35.4925 13.995 35.35 13.803C35.2075 13.6095 34.9885 13.5 34.7485 13.5H10.456Z"/>
</mask>
<path d="M30.1195 28.5H16.015C14.3425 28.5 12.8605 27.3795 12.4135 25.776L7.645 9.132C7.375 8.169 6.4885 7.5 5.485 7.5H1.75C1.336 7.5 1 7.164 1 6.75C1 6.336 1.336 6 1.75 6H5.485C7.1575 6 8.6395 7.1205 9.0865 8.724L10.027 12H34.7485C35.467 12 36.1255 12.33 36.553 12.906C36.982 13.482 37.1095 14.208 36.9025 14.895L33.676 25.92C33.157 27.474 31.7305 28.5 30.1195 28.5ZM10.456 13.5L13.8565 25.368C14.125 26.331 15.0115 27 16.015 27H30.1195C31.0705 27 31.9435 26.3715 32.2435 25.473L35.467 14.466C35.536 14.2365 35.4925 13.995 35.35 13.803C35.2075 13.6095 34.9885 13.5 34.7485 13.5H10.456Z" fill="white"/>
<path d="M12.4135 25.776L12.6447 25.7116L12.6442 25.7099L12.4135 25.776ZM7.645 9.132L7.41391 9.19679L7.41428 9.1981L7.645 9.132ZM9.0865 8.724L8.85531 8.78845L8.85582 8.79023L9.0865 8.724ZM10.027 12L9.79632 12.0662L9.84621 12.24H10.027V12ZM36.553 12.906L36.3603 13.049L36.3605 13.0494L36.553 12.906ZM36.9025 14.895L36.6727 14.8258L36.6722 14.8276L36.9025 14.895ZM33.676 25.92L33.9038 25.9961L33.9063 25.9874L33.676 25.92ZM10.456 13.5V13.26H10.1376L10.2253 13.5661L10.456 13.5ZM13.8565 25.368L14.0877 25.3035L14.0872 25.3019L13.8565 25.368ZM32.2435 25.473L32.4713 25.5491L32.4738 25.5405L32.2435 25.473ZM35.467 14.466L35.2372 14.3969L35.2367 14.3985L35.467 14.466ZM35.35 13.803L35.1567 13.9453L35.1573 13.946L35.35 13.803ZM30.1195 28.26H16.015V28.74H30.1195V28.26ZM16.015 28.26C14.4494 28.26 13.0625 27.2105 12.6447 25.7116L12.1823 25.8404C12.6585 27.5485 14.2356 28.74 16.015 28.74V28.26ZM12.6442 25.7099L7.87572 9.0659L7.41428 9.1981L12.1828 25.8421L12.6442 25.7099ZM7.87609 9.06721C7.57684 7.9999 6.59536 7.26 5.485 7.26V7.74C6.38165 7.74 7.17316 8.3381 7.41391 9.19679L7.87609 9.06721ZM5.485 7.26H1.75V7.74H5.485V7.26ZM1.75 7.26C1.46855 7.26 1.24 7.03145 1.24 6.75H0.76C0.76 7.29655 1.20345 7.74 1.75 7.74V7.26ZM1.24 6.75C1.24 6.46855 1.46855 6.24 1.75 6.24V5.76C1.20345 5.76 0.76 6.20345 0.76 6.75H1.24ZM1.75 6.24H5.485V5.76H1.75V6.24ZM5.485 6.24C7.05056 6.24 8.43745 7.28948 8.85532 8.78845L9.31769 8.65955C8.84155 6.95152 7.26444 5.76 5.485 5.76V6.24ZM8.85582 8.79023L9.79632 12.0662L10.2577 11.9338L9.31718 8.65777L8.85582 8.79023ZM10.027 12.24H34.7485V11.76H10.027V12.24ZM34.7485 12.24C35.3914 12.24 35.9783 12.5343 36.3603 13.049L36.7457 12.763C36.2727 12.1257 35.5426 11.76 34.7485 11.76V12.24ZM36.3605 13.0494C36.7442 13.5644 36.8578 14.2116 36.6727 14.8258L37.1323 14.9642C37.3612 14.2044 37.2198 13.3996 36.7455 12.7626L36.3605 13.0494ZM36.6722 14.8276L33.4457 25.8526L33.9063 25.9874L37.1328 14.9624L36.6722 14.8276ZM33.4484 25.844C32.9618 27.3009 31.6264 28.26 30.1195 28.26V28.74C31.8346 28.74 33.3522 27.6471 33.9036 25.996L33.4484 25.844ZM10.2253 13.5661L13.6258 25.4341L14.0872 25.3019L10.6867 13.4339L10.2253 13.5661ZM13.6253 25.4325C13.923 26.5001 14.9047 27.24 16.015 27.24V26.76C15.1183 26.76 14.327 26.1619 14.0877 25.3035L13.6253 25.4325ZM16.015 27.24H30.1195V26.76H16.015V27.24ZM30.1195 27.24C31.1735 27.24 32.1384 26.5457 32.4711 25.549L32.0159 25.397C31.7487 26.1973 30.9675 26.76 30.1195 26.76V27.24ZM32.4738 25.5405L35.6973 14.5335L35.2367 14.3985L32.0132 25.4055L32.4738 25.5405ZM35.6968 14.5351C35.7879 14.2322 35.7299 13.9122 35.5427 13.66L35.1573 13.946C35.2551 14.0778 35.2841 14.2408 35.2372 14.3969L35.6968 14.5351ZM35.5433 13.6607C35.3551 13.4051 35.064 13.26 34.7485 13.26V13.74C34.913 13.74 35.0599 13.8139 35.1568 13.9453L35.5433 13.6607ZM34.7485 13.26H10.456V13.74H34.7485V13.26Z" fill="white" mask="url(#path-3-outside-1_909_39229)"/>
</svg>
