<svg width="173" height="94" viewBox="0 0 173 94" fill="none" xmlns="http://www.w3.org/2000/svg">
<g clip-path="url(#clip0_147_1367)">
<path d="M42.2885 64.7777C43.2377 62.9284 44.3698 61.1489 45.4583 59.4304C46.66 57.5375 47.9053 55.5748 48.8894 53.5424C52.1724 46.782 52.7733 38.8003 50.544 31.63C50.4395 31.3072 50.6223 30.9583 50.9533 30.8536C51.2755 30.7489 51.6238 30.9321 51.7283 31.2636C54.0534 38.7306 53.4264 47.0524 50.0128 54.0919C48.9939 56.1854 47.7312 58.183 46.512 60.1021C45.4322 61.8031 44.3262 63.5565 43.3944 65.3534C42.7761 66.5659 42.1491 67.9965 41.6963 69.5492C45.5628 68.9735 49.3771 68.0837 53.1042 66.7927C53.8096 65.4232 54.5585 64.0711 55.3074 62.7365C56.8314 60.0236 58.4076 57.2235 59.4787 54.3187C60.9853 50.2363 61.5426 45.7788 61.1072 41.4347C60.7066 39.9692 60.2625 38.5212 59.7835 37.0732C59.5484 36.3666 59.3742 36.2532 59.9054 35.8345C60.3234 35.5117 61.1333 35.3896 61.621 35.1366C62.6834 34.5784 63.6413 33.8369 64.4947 32.9995C65.3307 32.1882 66.071 31.281 66.7502 30.3389C68.5528 27.818 69.9462 25.0004 71.8968 22.5841C72.3322 22.0433 72.8199 21.5112 73.4643 21.2844C73.891 21.1361 74.3787 21.1274 74.7096 20.8221C75.4847 20.1329 74.431 19.7666 73.8997 19.8189C72.9854 19.9148 72.0449 20.3074 71.2263 20.6912C69.5369 21.4937 68.039 22.6626 66.7067 23.9624C64.4338 26.1693 62.5615 28.7601 60.2364 30.9234C59.8096 31.3159 59.2871 31.7259 58.7124 31.6561C57.4758 31.5078 57.5194 29.737 57.1971 28.5333C56.5092 25.9338 53.1739 25.2795 50.4917 25.2359C38.6658 25.044 24.9327 26.3438 14.683 32.7291C11.9834 34.4126 11.5219 35.8868 11.905 38.905C12.2621 41.6702 12.6453 44.4354 13.0458 47.1919C14.6743 45.9445 16.146 44.4965 17.4087 42.8653C18.9588 40.8677 19.6032 39.1493 19.3681 37.614C19.3158 37.2738 19.551 36.9598 19.8819 36.9074C20.2215 36.8638 20.535 37.0906 20.5873 37.4221C20.8746 39.315 20.1518 41.3388 18.3753 43.6155C16.9036 45.5084 15.162 47.1658 13.2374 48.5615C13.2548 48.6487 13.2635 48.7359 13.2723 48.8232C13.6206 51.1697 14.0038 53.5075 14.3956 55.8452C14.9617 55.2259 15.5364 54.6066 16.1112 54.0047C18.9414 50.9952 21.8587 47.8898 23.6004 44.1301C24.4276 42.3419 25.6033 38.8788 24.2012 35.8258C24.1316 35.6687 24.2012 35.4856 24.3493 35.4158C24.506 35.346 24.6889 35.4158 24.7586 35.5641C26.2738 38.844 25.0372 42.4989 24.1577 44.3831C22.3812 48.23 19.4203 51.379 16.5553 54.4234C15.876 55.1474 15.1881 55.8714 14.5175 56.6129C14.8833 58.7762 15.2578 60.9395 15.6583 63.1029C17.2171 61.0268 18.9762 59.0466 20.7179 57.1014C21.1794 56.5867 21.6323 56.072 22.0851 55.5574C26.0213 51.0912 31.1418 44.3133 30.0881 37.1168C30.0619 36.951 30.1751 36.794 30.3493 36.7679C30.5235 36.7417 30.6715 36.8551 30.6977 37.0295C31.7949 44.4791 26.5699 51.4052 22.5466 55.9674C22.0938 56.482 21.6323 56.9967 21.1707 57.5114C19.3158 59.5962 17.4261 61.7072 15.8064 63.9403C16.1199 65.6064 16.4334 67.2725 16.7643 68.9386C17.2346 71.32 15.162 73.7363 13.2113 75.1843C10.2243 77.4 5.59149 76.4928 2.82224 78.8568C2.08203 79.4848 1.56824 80.3397 1.12411 81.212C0.697402 82.0494 0.357777 82.9217 -0.0253906 83.7679C1.07186 83.5498 2.14299 82.817 2.94416 82.0407C4.92966 80.1042 7.08062 80.3571 9.71925 80.331C17.0255 80.2437 24.1925 76.3968 28.3029 70.3517C28.8341 70.3605 29.374 70.3517 29.9052 70.3517C30.9415 68.8427 32.1694 67.4644 33.3711 66.1123L34.1723 65.2051C38.8661 59.8753 42.1491 54.8421 44.1869 49.835C45.9373 45.5433 47.6876 38.9312 46.1027 31.8568C46.0679 31.691 46.1724 31.5253 46.3378 31.4904C46.5033 31.4555 46.6688 31.5602 46.7036 31.7259C47.9924 37.4483 47.3219 43.7899 44.7616 50.0706C42.689 55.1474 39.3799 60.2417 34.6338 65.6238L33.8327 66.531C32.7354 67.761 31.6207 69.0171 30.6541 70.3605C33.9023 70.3517 37.1331 70.1511 40.3291 69.7411C40.8167 67.9006 41.5308 66.1996 42.2623 64.7951L42.2885 64.7777Z" fill="#E2DAD1"/>
<path d="M78.1667 73.2129C78.0361 73.178 77.9142 73.2652 77.8097 73.3437C76.965 73.9979 76.1551 74.6958 75.3714 75.4285C75.0404 75.7426 74.5876 76.0915 74.1696 75.9083C73.8648 75.7774 73.7342 75.4285 73.6384 75.1058C72.9243 72.8552 72.0099 70.8227 70.7124 68.8426C69.7632 67.4033 68.6834 66.0425 67.4903 64.8038C67.0549 64.3589 64.0331 62.1956 64.0331 61.7769C64.0331 56.6913 63.4322 51.6145 62.3785 46.6423C62.1695 49.4076 61.5948 52.1379 60.6368 54.7286C59.5309 57.7294 57.9285 60.5731 56.3785 63.3209C55.8211 64.3153 55.2725 65.2923 54.75 66.2693C55.1332 66.1821 55.5163 66.1297 55.8995 66.1472C56.6484 66.1733 57.3712 66.435 58.0679 66.7229C61.4728 68.1186 64.6079 70.1859 67.2552 72.7331C68.2131 73.649 69.1101 74.6347 69.9374 75.6728C70.7734 76.7283 71.3046 77.8797 72.0709 78.9701C72.306 79.2929 72.6021 79.633 72.994 79.6767C73.3859 79.7203 73.7516 79.4586 74.0564 79.2056C75.6413 77.8884 77.9577 75.856 78.3409 73.7101C78.3757 73.5182 78.3496 73.2652 78.1667 73.2041V73.2129Z" fill="#E2DAD1"/>
<path d="M103.856 20.2724C110.893 14.8292 119.235 11.0783 127.97 9.42092C130.095 9.01965 132.402 8.70562 134.536 9.23773C137.401 9.95302 138.524 13.512 140.536 15.6666C140.728 15.876 140.945 16.0854 141.224 16.1464C141.668 16.2424 142.095 15.9109 142.4 15.5794C143.715 14.1663 144.411 12.2646 144.681 10.3543C144.881 8.97604 145.151 7.60651 145.273 6.21954C145.387 4.88491 145.047 3.4456 145.465 2.15458C145.491 2.06735 145.543 1.9714 145.63 1.9714C145.744 2.21565 145.761 2.49478 145.787 2.7652C145.822 3.11412 145.874 3.45432 145.944 3.79452C146.022 4.16962 146.205 4.06494 146.327 3.82942C146.51 3.46305 146.606 3.04434 146.693 2.6518C146.876 1.83183 146.963 0.98569 147.259 0.191889C147.294 0.0959346 147.363 -0.0174656 147.459 0.00870371C147.616 0.0435961 147.407 1.98884 147.416 2.20692C147.416 2.46861 147.389 2.73903 147.407 3.00072C147.442 3.52411 147.625 3.46305 147.868 3.03562C148.365 2.18075 148.591 1.20377 149.044 0.322735C149.331 -0.22682 149.567 0.104658 149.401 0.584428C149.166 1.27355 148.931 1.96268 148.704 2.64308C148.652 2.79137 148.504 3.36709 148.739 3.42815C149.131 3.52411 149.915 1.70971 150.089 1.88417C150.141 1.92778 150.115 2.01501 150.089 2.07608C149.593 3.28858 148.87 4.36152 148.461 5.62637C148.382 5.87062 148.321 6.11487 148.269 6.36783C148.164 6.86505 148.095 7.37099 147.99 7.86821C147.381 10.7207 146.945 13.5818 145.587 16.1988C144.899 17.5247 143.175 18.6587 143.654 20.1678C144.333 22.2962 146.214 24.538 147.729 26.1431C149.244 27.7568 150.655 28.2279 152.78 27.3992C155.096 26.492 157.526 25.7331 160.043 25.7767C162.403 25.8116 164.71 26.5443 166.887 27.4603C170.118 28.8123 170.371 26.2565 172.017 24.1455C172.191 23.9187 172.435 23.6744 172.713 23.7442C173.105 23.8489 173.053 24.4159 172.905 24.7997C172.269 26.4135 171.311 29.8504 169.805 30.7576C168.42 31.595 167.001 30.5919 165.66 30.304C164.075 29.9638 162.403 30.0772 160.8 30.1993C159.05 30.3389 157.256 30.5395 155.671 31.2984C154.739 31.7433 153.059 32.8337 152.754 33.8892C152.136 35.9827 156.916 34.6132 157.857 34.6306C161.105 34.683 164.362 35.7472 167.027 37.5965C167.332 37.8058 167.645 38.0414 168.011 38.1024C168.899 38.2594 169.761 37.3784 170.379 36.855C170.536 36.7242 172.043 35.3285 172.043 36.2444C172.043 36.3404 171.991 36.4276 171.938 36.5061C170.85 38.2333 169.613 39.8645 168.246 41.3736C168.037 41.6091 167.776 41.8534 167.462 41.8185C167.262 41.801 167.096 41.6614 166.931 41.5306C164.423 39.5505 159.869 39.3237 156.812 39.847C153.329 40.4489 150.272 42.4465 147.799 44.9152C144.803 47.9072 140.963 50.3409 137.262 52.3472C135.337 53.394 133.352 54.3186 131.323 55.1299C128.161 56.386 124.887 57.3456 121.56 57.9998C118.896 58.5232 114.646 60.0497 112.965 57.363C109.769 52.2426 106.565 47.1308 103.369 42.0191C102.176 40.1175 100.748 38.338 99.7287 36.3491C98.6314 34.2119 97.4471 32.1184 96.1844 30.0685C94.6953 27.6522 93.0233 25.4191 91.6996 22.8894C90.8462 21.2581 90.1234 19.5571 89.4702 17.83C89.1829 17.0798 88.9303 16.3209 88.6691 15.562C88.4165 14.838 88.0769 14.1924 87.7808 13.4859C87.7199 13.355 87.6676 13.2067 87.685 13.0584C87.7199 13.041 87.7634 13.0759 87.7895 13.1108C88.0856 13.5208 88.373 13.9308 88.6691 14.3407C89.061 14.899 89.0348 14.0442 89.0087 13.7825C88.9477 12.9712 88.7823 12.1687 88.7039 11.3574C88.6865 11.2266 88.6952 11.0609 88.8084 10.9911C88.9129 11.1219 88.9477 11.2964 88.9826 11.4621C89.0784 11.9506 89.1742 12.4391 89.2787 12.9276C89.3396 13.2504 89.3396 13.8959 89.627 14.1139C89.9927 14.3931 90.2105 11.9593 90.254 11.7151C90.2888 11.5319 90.4369 10.9475 90.5936 11.2702C90.672 11.4185 90.5936 11.7587 90.5936 11.9157C90.5675 12.3257 90.4978 12.727 90.463 13.1282C90.4369 13.5295 90.2888 14.7246 90.8984 14.8205C91.4993 14.9165 91.6212 13.5382 91.9608 13.2765C92.196 13.9046 91.9173 14.5675 91.8128 15.1956C91.7083 15.8586 91.8215 16.4953 91.9608 17.1496C92.135 18.0044 92.3963 18.8419 92.7272 19.6444C93.0494 20.4295 93.4935 21.1099 93.8941 21.8513C94.7388 23.4389 95.7838 24.9044 96.8636 26.3437C97.0988 26.6665 97.569 27.5824 98.0828 27.4515C98.5269 27.3381 98.5879 26.3873 98.7272 26.0122C99.6677 23.5523 101.871 21.8164 103.891 20.255L103.856 20.2724Z" fill="#F7786B"/>
<path d="M134.867 13.0149C134.327 6.02766 114.881 14.3669 111.92 15.9981C109.02 17.6032 95.7489 25.6721 100.547 30.2778C101.139 30.8448 101.967 31.0716 102.777 31.1763C105.755 31.534 108.681 30.3564 111.45 29.1962C119.497 25.8291 127.83 22.2526 133.604 15.7103C134.275 14.9427 134.945 14.0355 134.867 13.0236V13.0149Z" fill="#F8F8F8"/>
<path d="M117.624 16.7134C117.415 17.0623 117.223 17.4025 117.04 17.7427C115.882 19.9235 114.863 22.1915 113.992 24.5031C114.741 24.2414 115.481 23.9448 116.213 23.6221C117.362 20.5254 119.087 17.6293 121.255 15.1171C119.827 15.6143 118.468 16.2772 117.632 16.7134H117.624Z" fill="#F7786B"/>
<path d="M122.822 14.6722C120.488 17.106 118.616 19.9933 117.336 23.1162C118.895 22.366 120.393 21.4937 121.838 20.5428C122.866 18.4406 124.285 16.5302 125.766 14.7682C125.017 14.3843 123.963 14.428 122.822 14.6722Z" fill="#F7786B"/>
<path d="M112.676 19.531C111.719 21.389 111.031 23.3866 110.639 25.4453C111.414 25.2708 112.18 25.0702 112.946 24.8346C113.861 22.3137 114.949 19.845 116.203 17.4811C115.01 18.1353 113.835 18.8157 112.676 19.531Z" fill="#F7786B"/>
<path d="M111.31 20.3858C110.726 20.7609 110.143 21.1447 109.568 21.5372C107.417 23.0114 105.98 26.2215 109.725 25.6284C110.038 23.814 110.569 22.0519 111.31 20.3771V20.3858Z" fill="#F7786B"/>
<path d="M123.396 19.4437C123.78 19.1646 124.163 18.8941 124.529 18.6063C125.426 17.9084 126.357 17.071 126.505 15.9457C126.531 15.7277 126.523 15.5009 126.418 15.309C125.312 16.6174 124.267 17.9782 123.396 19.4437Z" fill="#F7786B"/>
<path d="M17.2953 32.6942C15.214 33.6973 11.8352 35.9915 14.8396 38.0153C15.5972 38.5212 16.5203 38.7131 17.426 38.8265C19.8295 39.1231 22.2591 38.9486 24.6713 38.6869C32.5698 37.8234 40.3637 36.0526 47.8529 33.4095C49.5162 32.825 51.1795 32.1795 52.6251 31.1676C53.9313 30.2517 55.6991 28.4722 53.5917 27.6348C51.9023 26.9544 50.0474 26.8235 48.2448 26.7538C37.8296 26.3699 27.3273 28.3501 17.7569 32.4848C17.6088 32.5459 17.4521 32.6244 17.2866 32.7029L17.2953 32.6942Z" fill="#F7786B"/>
<path d="M27.1433 35.6338C26.6905 35.6338 26.2551 35.6076 25.8458 35.407C25.3755 35.1802 24.9662 34.6393 25.0882 34.0549C25.3581 32.7203 27.3349 31.9701 28.6499 31.4816C28.824 31.4118 28.9808 31.3595 29.1201 31.2984C30.7921 30.6267 32.5512 30.1644 34.3451 29.9289C36.1303 29.6933 41.9998 29.074 42.4265 31.0541C42.4961 31.3595 42.4265 31.8305 41.7037 32.319C40.0317 33.4443 37.8546 33.9677 35.9388 34.43C35.6253 34.5085 35.3118 34.5783 35.007 34.6568C32.4554 35.2936 29.8429 35.625 27.2217 35.6425H27.1433V35.6338ZM38.2639 30.2691C37.0883 30.2691 35.7385 30.365 34.4148 30.5395C32.6644 30.775 30.9576 31.2199 29.3378 31.8741C29.1985 31.9265 29.0418 31.9875 28.8589 32.0573C27.7442 32.476 25.8893 33.1739 25.689 34.177C25.6368 34.4387 25.8632 34.7266 26.1157 34.8574C26.4292 35.0144 26.8124 35.0231 27.213 35.0144C29.782 35.0057 32.3509 34.6742 34.8502 34.0462C35.155 33.9677 35.4685 33.8979 35.782 33.8194C37.7414 33.3483 39.7704 32.8598 41.3466 31.7956C41.5034 31.6909 41.8604 31.4205 41.8082 31.1763C41.6689 30.5308 40.1971 30.2603 38.2552 30.2603L38.2639 30.2691Z" fill="white"/>
<path d="M18.5921 37.3261C18.5921 37.3261 18.5137 37.3261 18.4788 37.2999C18.1479 37.1691 17.9302 36.8551 17.878 36.4712C17.8257 36.0264 18.0086 35.5728 18.3395 35.3285C18.9665 34.8749 19.8199 35.0843 20.3337 35.5291C20.4644 35.6425 20.4731 35.8345 20.3686 35.9653C20.2553 36.0961 20.0638 36.1136 19.9331 36.0002C19.6022 35.7211 19.0536 35.5815 18.7053 35.8345C18.5572 35.9479 18.4701 36.1747 18.4963 36.3927C18.505 36.4712 18.5485 36.6631 18.714 36.7242C18.8707 36.7853 18.9491 36.9685 18.8881 37.1255C18.8446 37.2476 18.7227 37.3174 18.6008 37.3174L18.5921 37.3261Z" fill="white"/>
<path d="M49.8212 30.5047C49.7515 30.5047 49.6906 30.4872 49.6296 30.4436C49.499 30.3389 49.4729 30.147 49.5774 30.0075C49.6993 29.8504 49.6644 29.6585 49.6383 29.5539C49.5774 29.3271 49.4032 29.1352 49.2116 29.0654C48.7675 28.8996 48.2537 29.1526 47.9663 29.4579C47.8879 29.5451 47.766 29.58 47.6528 29.5451C47.5396 29.5102 47.4525 29.4143 47.4351 29.2922C47.4177 29.1526 47.3132 29.0741 47.2261 29.0218C47.0519 28.9258 46.8168 28.9084 46.6339 28.9781C46.3204 29.1177 46.0592 29.4492 45.8589 29.9813C45.7979 30.1383 45.6238 30.2168 45.4583 30.1645C45.3016 30.1034 45.2145 29.929 45.2754 29.7632C45.5367 29.0741 45.9024 28.6205 46.3814 28.4111C46.7297 28.2628 47.1651 28.289 47.5135 28.4809C47.6441 28.5507 47.7486 28.6379 47.8357 28.7426C48.2711 28.4373 48.8633 28.2716 49.4206 28.4722C49.8038 28.6118 50.1086 28.9607 50.2305 29.3707C50.335 29.737 50.274 30.0947 50.065 30.3738C50.0041 30.4523 49.917 30.496 49.8212 30.496V30.5047Z" fill="white"/>
<path d="M21.9532 33.5402C21.8574 33.5402 21.7529 33.4966 21.7007 33.4007C21.5439 33.1739 21.5352 32.8947 21.6745 32.633C21.8574 32.2928 22.258 32.0573 22.6412 32.0486C22.9547 32.0486 23.2333 32.1533 23.5033 32.2492C23.6687 32.3103 23.8342 32.3713 23.9997 32.3975C24.1651 32.4237 24.2783 32.5894 24.2522 32.7552C24.2261 32.9209 24.0606 33.0343 23.8952 33.0081C23.6774 32.9732 23.4859 32.9034 23.2943 32.8337C23.0679 32.7552 22.8502 32.6766 22.6412 32.6766C22.4844 32.6766 22.2928 32.79 22.2232 32.9296C22.1796 33.0081 22.2057 33.043 22.2232 33.0605C22.3189 33.2 22.2841 33.3919 22.1448 33.4879C22.0925 33.5228 22.0316 33.5402 21.9706 33.5402H21.9532Z" fill="white"/>
<path d="M102.602 29.6236C102.306 29.6236 102.001 29.5277 101.74 29.3532C101.426 29.1352 101.235 28.8298 101.191 28.4896C101.139 28.0709 101.365 27.6435 101.757 27.3993C101.914 27.3033 102.088 27.2422 102.253 27.2335C102.253 27.0939 102.28 26.9544 102.332 26.8148C102.48 26.431 102.793 26.1257 103.168 26.0123C103.795 25.8291 104.535 26.117 104.962 26.7189C105.058 26.8584 105.031 27.0503 104.892 27.1463C104.753 27.2422 104.561 27.2161 104.465 27.0765C104.23 26.745 103.769 26.4833 103.351 26.6055C103.168 26.6578 102.994 26.8235 102.924 27.0329C102.889 27.1288 102.846 27.312 102.941 27.469C103.02 27.5912 103.002 27.7569 102.898 27.8529C102.793 27.9575 102.637 27.9663 102.515 27.8877C102.349 27.7831 102.158 27.8877 102.097 27.9226C101.914 28.036 101.792 28.2367 101.818 28.4111C101.844 28.6379 102.01 28.7775 102.105 28.8473C102.306 28.9869 102.576 29.0392 102.793 28.9869C102.959 28.9432 103.124 29.0479 103.168 29.2137C103.211 29.3794 103.107 29.5451 102.941 29.5887C102.837 29.6149 102.724 29.6236 102.619 29.6236H102.602Z" fill="#2E6081"/>
<path d="M107.974 28.9782C107.826 28.9782 107.695 28.8735 107.669 28.7165C107.591 28.2192 107.826 27.7046 108.253 27.4342C108.679 27.1638 109.245 27.1812 109.655 27.4603C109.698 27.4952 109.742 27.5301 109.785 27.565C109.82 27.5912 109.846 27.6174 109.881 27.6348C109.881 27.565 109.925 27.4865 109.986 27.4429C110.116 27.3295 110.308 27.3469 110.421 27.4778C110.543 27.6261 110.569 27.8267 110.465 28.0012C110.351 28.2105 110.108 28.3326 109.881 28.2978C109.672 28.2629 109.524 28.1495 109.402 28.0535C109.367 28.0273 109.341 28.0012 109.306 27.975C109.097 27.8354 108.793 27.8267 108.575 27.9576C108.357 28.0971 108.235 28.3763 108.27 28.6205C108.296 28.7862 108.183 28.9433 108.009 28.9694C107.991 28.9694 107.974 28.9694 107.965 28.9694L107.974 28.9782Z" fill="#2E6081"/>
<path d="M126.358 13.3987C126.183 13.3987 126.053 13.2591 126.053 13.0934C126.053 12.7357 126.122 12.2211 126.453 11.8111C126.793 11.3924 127.342 11.2005 127.812 11.34C128.064 11.4185 128.291 11.6017 128.43 11.846C128.77 11.5668 129.214 11.3749 129.702 11.4185C130.111 11.4621 130.503 11.7238 130.72 12.1077C130.903 12.4304 130.929 12.7968 130.79 13.1108C130.72 13.2678 130.538 13.3289 130.381 13.2591C130.224 13.1893 130.163 13.0061 130.233 12.8491C130.311 12.6747 130.233 12.5002 130.189 12.413C130.076 12.2123 129.85 12.0553 129.641 12.0379C129.144 11.9943 128.691 12.3693 128.465 12.7183C128.378 12.8491 128.204 12.8927 128.064 12.8142C127.925 12.7357 127.864 12.57 127.925 12.4217C127.969 12.317 127.925 12.2123 127.908 12.1687C127.855 12.0553 127.751 11.9594 127.646 11.9332C127.42 11.8634 127.124 11.9768 126.941 12.1949C126.723 12.4653 126.68 12.8317 126.68 13.0846C126.68 13.2504 126.54 13.39 126.375 13.3987H126.358Z" fill="#2E6081"/>
<path d="M131.565 16.3557C131.565 16.3557 131.539 16.3557 131.53 16.3557C131.365 16.3383 131.243 16.1813 131.26 16.0155C131.295 15.6928 131.06 15.3526 130.755 15.2654C130.441 15.1781 130.067 15.3526 129.928 15.6405C129.858 15.7975 129.675 15.8585 129.518 15.7887C129.362 15.719 129.301 15.5358 129.37 15.3788C129.64 14.8118 130.32 14.4977 130.92 14.6722C131.521 14.8467 131.939 15.466 131.87 16.0941C131.852 16.2511 131.722 16.3732 131.565 16.3732V16.3557Z" fill="#2E6081"/>
<path d="M111.511 18.9727C111.381 18.9727 111.259 18.8855 111.215 18.7546C111.05 18.1964 111.267 17.5334 111.738 17.1932C112.208 16.8443 112.905 16.8356 113.384 17.167C113.523 17.263 113.558 17.4549 113.462 17.5945C113.366 17.734 113.175 17.7689 113.035 17.673C112.765 17.4898 112.365 17.4898 112.103 17.6904C111.842 17.8823 111.712 18.2661 111.807 18.5715C111.86 18.7372 111.764 18.9029 111.598 18.9553C111.572 18.964 111.537 18.9727 111.511 18.9727Z" fill="#2E6081"/>
<path d="M121.281 23.753C121.133 23.753 121.011 23.6483 120.976 23.5C120.88 23.0028 121.194 22.4707 121.682 22.3224C122.169 22.1741 122.727 22.4271 122.927 22.8894C122.997 23.0464 122.927 23.2296 122.77 23.2994C122.613 23.3692 122.43 23.2994 122.361 23.1424C122.282 22.9679 122.047 22.8545 121.864 22.9156C121.682 22.9767 121.551 23.1947 121.586 23.3866C121.621 23.5524 121.507 23.7181 121.342 23.753C121.325 23.753 121.307 23.753 121.281 23.753Z" fill="#2E6081"/>
<path d="M145.221 69.0694C133.238 69.0694 121.212 68.232 109.36 66.5746C106.077 66.1123 102.672 65.4668 100.294 63.1203C98.4395 61.2884 97.5774 58.75 96.8546 56.3076C94.8081 49.3901 93.1884 42.2634 92.0476 35.1453L91.9866 34.7615C91.5077 31.7869 91.02 28.7164 89.3393 26.3699C86.2391 22.0084 80.004 21.171 74.4045 20.7348C73.8907 20.6912 73.5162 20.2463 73.5511 19.7404C73.5946 19.2344 74.0387 18.8506 74.5438 18.8855C80.5613 19.3566 87.2754 20.2812 90.8458 25.2883C92.7704 27.9924 93.3016 31.281 93.8067 34.4649L93.8676 34.8488C94.9997 41.897 96.6021 48.9365 98.6224 55.7842C99.3017 58.0871 100.042 60.2853 101.583 61.8031C103.56 63.7571 106.634 64.3241 109.612 64.7428C123.79 66.7229 138.237 67.5254 152.544 67.1067C153.137 67.0893 153.694 67.0544 153.99 66.7927C154.243 66.5659 154.365 66.1123 154.486 65.5889C156.611 56.6478 158.44 47.5147 159.938 38.4427C160.025 37.9367 160.504 37.5965 161 37.675C161.505 37.7623 161.845 38.2333 161.767 38.7393C160.26 47.8549 158.423 57.0228 156.289 66.0076C156.141 66.6182 155.923 67.5429 155.218 68.171C154.399 68.895 153.32 68.9299 152.597 68.9473C150.141 69.0171 147.677 69.052 145.212 69.052L145.221 69.0694Z" fill="white"/>
<path d="M160.869 38.844C160.869 38.844 160.799 38.844 160.773 38.844C138.227 36.4975 115.315 34.7703 92.6737 33.7148C92.1599 33.6886 91.7681 33.2612 91.7942 32.7465C91.8203 32.2319 92.247 31.8393 92.7608 31.8655C115.429 32.921 138.375 34.6569 160.965 37.0034C161.47 37.0557 161.844 37.5093 161.792 38.024C161.74 38.5038 161.339 38.8527 160.878 38.8527L160.869 38.844Z" fill="white"/>
<path d="M157.108 90.4671C156.951 90.4671 156.794 90.4322 156.646 90.345L129.799 74.9225C126.037 72.7592 122.144 70.5261 118.025 69.0694C116.971 68.6943 116.109 68.4936 115.369 68.703C114.202 69.0345 113.47 70.4214 113.07 71.5293C111.171 76.7021 112.016 82.5552 112.756 87.7193C112.826 88.2253 112.478 88.6963 111.973 88.7661C111.468 88.8446 110.997 88.4869 110.928 87.981C110.153 82.5989 109.273 76.5014 111.337 70.8925C112.147 68.6943 113.331 67.3596 114.872 66.9235C116.153 66.5571 117.441 66.906 118.643 67.3247C122.928 68.8338 126.89 71.1106 130.722 73.3175L157.569 88.7399C158.014 88.9929 158.162 89.5599 157.909 90.0048C157.735 90.3013 157.43 90.4671 157.108 90.4671Z" fill="white"/>
<path d="M106.086 65.6151C106.086 65.6151 106.068 65.6151 106.051 65.6151C105.877 65.6063 105.729 65.4929 105.677 65.3272C102.124 55.2172 99.6417 44.6971 98.3094 34.0637C98.2832 33.8281 98.4487 33.6101 98.6838 33.5839C98.9189 33.5577 99.1366 33.7235 99.1628 33.959C100.443 44.1563 102.777 54.2402 106.112 63.9577C106.19 63.9839 106.26 64.0275 106.312 64.0885C106.617 64.4375 106.678 64.9696 106.46 65.3883C106.382 65.5278 106.234 65.6238 106.077 65.6238L106.086 65.6151Z" fill="white"/>
<path d="M114.306 66.2693C114.123 66.2693 113.957 66.1559 113.897 65.9727C110.378 55.505 108.018 44.6273 106.878 33.6362C106.851 33.4007 107.026 33.1826 107.261 33.1652C107.505 33.139 107.714 33.3135 107.731 33.549C108.828 44.1127 111.058 54.5717 114.367 64.6643C114.428 64.7166 114.48 64.7951 114.497 64.8823L114.715 65.7285C114.776 65.9553 114.645 66.1821 114.419 66.2519C114.375 66.2606 114.332 66.2693 114.297 66.2693H114.306Z" fill="white"/>
<path d="M122.614 66.9322C122.431 66.9322 122.266 66.8188 122.205 66.6444C118.652 56.2639 116.579 45.4473 116.057 34.4911C116.048 34.2555 116.231 34.0462 116.466 34.0375C116.684 34.0113 116.91 34.2119 116.919 34.4474C117.442 45.3251 119.488 56.0633 123.024 66.3652C123.102 66.592 122.98 66.8363 122.754 66.9148C122.71 66.9322 122.658 66.9409 122.614 66.9409V66.9322Z" fill="white"/>
<path d="M130.408 67.2812C130.408 67.2812 130.391 67.2812 130.374 67.2812C130.121 67.2637 129.781 67.1154 129.616 66.4961C126.942 56.1854 125.227 45.5607 124.513 34.936C124.495 34.7004 124.678 34.4911 124.913 34.4736C125.157 34.4736 125.358 34.6394 125.375 34.8749C126.08 45.3862 127.77 55.8801 130.4 66.0774C130.53 66.0599 130.661 66.0948 130.774 66.1821C130.992 66.3565 131.018 66.6793 130.931 66.8974C130.844 67.1242 130.635 67.2724 130.408 67.2724V67.2812Z" fill="white"/>
<path d="M138.289 67.8656C138.089 67.8656 137.915 67.7348 137.871 67.5341C135.398 56.9269 133.883 46.023 133.352 35.1366C133.343 34.9011 133.526 34.6917 133.761 34.683C133.988 34.683 134.205 34.8574 134.214 35.093C134.745 45.927 136.26 56.7698 138.716 67.3335C138.768 67.569 138.629 67.7958 138.394 67.8569C138.359 67.8569 138.324 67.8656 138.298 67.8656H138.289Z" fill="white"/>
<path d="M147.684 68.5112C147.493 68.5112 147.318 68.3803 147.266 68.1797C144.662 57.7382 143.034 46.9913 142.442 36.2358C142.433 36.0002 142.607 35.7909 142.851 35.7822C143.086 35.7647 143.295 35.9479 143.304 36.1921C143.896 46.8866 145.507 57.5811 148.102 67.9703C148.163 68.2059 148.024 68.4414 147.789 68.4937C147.754 68.4937 147.719 68.5025 147.684 68.5025V68.5112Z" fill="white"/>
<path d="M155.713 66.5048C155.504 66.5048 155.33 66.3565 155.287 66.1471C153.563 56.7262 152.718 47.0872 152.761 37.5092C152.761 37.2737 152.953 37.0818 153.197 37.0818C153.432 37.0818 153.623 37.2737 153.623 37.5179C153.58 47.0436 154.425 56.6215 156.14 65.9901C156.184 66.2256 156.027 66.4524 155.792 66.496C155.766 66.496 155.74 66.496 155.713 66.496V66.5048Z" fill="white"/>
<path d="M159.772 45.7701H159.763C137.809 45.2903 115.594 43.9644 93.7276 41.836C93.4924 41.8098 93.3183 41.6005 93.3444 41.3649C93.3705 41.1294 93.5795 40.9549 93.8146 40.9724C115.655 43.1008 137.853 44.418 159.78 44.8978C160.015 44.8978 160.207 45.0984 160.207 45.3427C160.207 45.5782 160.007 45.7701 159.772 45.7701Z" fill="white"/>
<path d="M157.595 54.8071C137.087 54.7199 116.396 53.1934 96.0969 50.2711C95.8618 50.2362 95.6964 50.0182 95.7312 49.7826C95.766 49.5471 95.9837 49.3814 96.2189 49.4163C116.474 52.3385 137.131 53.8563 157.604 53.9435C157.839 53.9435 158.039 54.1355 158.031 54.3797C158.031 54.6152 157.839 54.8071 157.595 54.8071Z" fill="white"/>
<path d="M149.365 62.1433C132.096 62.1433 114.801 60.4859 97.855 57.1973C97.6199 57.1537 97.4719 56.9269 97.5154 56.6913C97.5589 56.4558 97.7853 56.2988 98.0205 56.3511C117.179 60.0672 136.781 61.6897 156.288 61.1925C156.558 61.1837 156.723 61.3756 156.732 61.6112C156.732 61.8467 156.549 62.0473 156.314 62.0561C153.998 62.1171 151.69 62.1433 149.374 62.1433H149.365Z" fill="white"/>
<path d="M112.312 92.2554C114.597 92.2554 116.449 90.4003 116.449 88.112C116.449 85.8236 114.597 83.9685 112.312 83.9685C110.028 83.9685 108.176 85.8236 108.176 88.112C108.176 90.4003 110.028 92.2554 112.312 92.2554Z" fill="#F7786B"/>
<path d="M156.732 93.9999C159.017 93.9999 160.869 92.1449 160.869 89.8565C160.869 87.5681 159.017 85.713 156.732 85.713C154.448 85.713 152.596 87.5681 152.596 89.8565C152.596 92.1449 154.448 93.9999 156.732 93.9999Z" fill="#F7786B"/>
</g>
<defs>
<clipPath id="clip0_147_1367">
<rect width="173" height="94" fill="white"/>
</clipPath>
</defs>
</svg>
