<svg width="24" height="24" viewBox="0 0 24 24" fill="none" xmlns="http://www.w3.org/2000/svg">
<g clip-path="url(#clip0_84_1348)">
<path d="M22.1204 2.85938H3.10894C2.07586 2.85938 1.23047 3.70459 1.23047 4.73785V15.6178C1.23047 16.6508 2.07568 17.4962 3.10894 17.4962H22.1204C23.1534 17.4962 23.9988 16.6508 23.9988 15.6178C23.9988 15.4378 23.9988 4.90283 23.9988 4.73785C23.9988 3.70477 23.1536 2.85938 22.1204 2.85938Z" fill="#9AD14B"/>
<path d="M22.4832 12.7469V7.60876C22.4832 7.47546 22.3752 7.36742 22.2421 7.36742H21.523C20.4063 7.36742 19.4928 6.45391 19.4928 5.33716V4.61829C19.4928 4.48499 19.3847 4.37695 19.2514 4.37695H5.9818C5.8485 4.37695 5.74047 4.48499 5.74047 4.61829V5.33716C5.74047 6.45391 4.82678 7.36742 3.7102 7.36742H2.99115C2.85785 7.36742 2.75 7.47546 2.75 7.60876V12.7469C2.75 12.8725 2.85254 12.9882 2.99115 12.9882H3.7102C4.82678 12.9882 5.74047 13.9017 5.74047 15.0185V15.7373C5.74047 15.8706 5.8485 15.9787 5.9818 15.9787H19.2514C19.3847 15.9787 19.4928 15.8706 19.4928 15.7373V15.0185C19.4928 13.9017 20.4063 12.9882 21.523 12.9882H22.2419C22.3807 12.9882 22.4832 12.8725 22.4832 12.7469Z" fill="#76AB29"/>
<path d="M16.4236 10.178C16.4236 8.07501 14.7189 6.36938 12.615 6.36938C10.5119 6.36938 8.80664 8.07446 8.80664 10.178C8.80664 12.2725 10.5044 13.9816 12.6068 13.9862C12.6095 13.9862 12.6123 13.9864 12.615 13.9864C12.6178 13.9864 12.6205 13.9862 12.6233 13.9862C14.7052 13.9818 16.4236 12.2948 16.4236 10.178Z" fill="#9AD14B"/>
<path d="M2.19635 15.6178C2.19635 15.4387 2.19635 4.90301 2.19635 4.73785C2.19635 3.70459 3.04156 2.85938 4.07482 2.85938H3.10894C2.07586 2.85938 1.23047 3.70477 1.23047 4.73785V15.6178C1.23047 16.6508 2.07586 17.4962 3.10894 17.4962H4.07482C3.04156 17.4962 2.19635 16.6508 2.19635 15.6178Z" fill="#7FBB37"/>
<path d="M6.70635 15.7373V15.0185C6.70635 13.9017 5.79266 12.9882 4.67608 12.9882H3.95703C3.81842 12.9882 3.71588 12.8725 3.71588 12.7469V7.60876C3.71588 7.47546 3.82391 7.36742 3.95703 7.36742H4.67608C5.79266 7.36742 6.70635 6.45391 6.70635 5.33716V4.61829C6.70635 4.48499 6.81438 4.37695 6.94768 4.37695H5.9818C5.8485 4.37695 5.74047 4.48499 5.74047 4.61829V5.33716C5.74047 6.45391 4.82678 7.36742 3.7102 7.36742H2.99115C2.85785 7.36742 2.75 7.47546 2.75 7.60876V12.7469C2.75 12.8725 2.85254 12.9882 2.99115 12.9882H3.7102C4.82678 12.9882 5.74047 13.9017 5.74047 15.0185V15.7375C5.74047 15.8706 5.8485 15.9789 5.9818 15.9789H6.94768C6.81438 15.9787 6.70635 15.8706 6.70635 15.7373Z" fill="#6C9B1B"/>
<path d="M9.77234 10.178C9.77234 8.23815 11.2229 6.63837 13.0981 6.40088C12.9397 6.38092 12.7787 6.36938 12.615 6.36938C10.5119 6.36938 8.80664 8.07446 8.80664 10.178C8.80664 12.2725 10.5044 13.9816 12.6068 13.9862C12.6095 13.9862 12.6123 13.9864 12.615 13.9864C12.6178 13.9864 12.6205 13.9862 12.6233 13.9862C12.7839 13.9858 12.9419 13.9743 13.0975 13.9545C11.2203 13.7163 9.77234 12.1119 9.77234 10.178Z" fill="#7FBB37"/>
<path d="M12.1261 15.0874C12.1261 18.436 9.4116 21.1505 6.06316 21.1505C2.71453 21.1505 0 18.436 0 15.0874C0 11.7389 2.71453 9.02441 6.06316 9.02441C9.4116 9.02441 12.1261 11.7389 12.1261 15.0874Z" fill="#F3A334"/>
<path d="M10.5467 15.0872C10.5467 17.5628 8.53984 19.5694 6.06444 19.5694C3.58886 19.5694 1.58203 17.5628 1.58203 15.0872C1.58203 12.6118 3.58886 10.605 6.06444 10.605C8.53984 10.605 10.5467 12.6118 10.5467 15.0872Z" fill="#FFE183"/>
<path d="M0.965879 15.0874C0.965879 11.9014 3.42333 9.28955 6.546 9.04346C6.3867 9.03082 6.22575 9.02441 6.06316 9.02441C2.71453 9.02441 0 11.7389 0 15.0874C0 18.436 2.71453 21.1505 6.06316 21.1505C6.22557 21.1505 6.3867 21.144 6.546 21.1313C3.42333 20.8852 0.965879 18.2734 0.965879 15.0874Z" fill="#E87E04"/>
<path d="M2.54773 15.0872C2.54773 12.775 4.29876 10.8718 6.54711 10.631C6.38854 10.614 6.22741 10.605 6.06426 10.605C3.58868 10.605 1.58203 12.6118 1.58203 15.0872C1.58203 17.5628 3.58868 19.5694 6.06426 19.5694C6.22741 19.5694 6.38854 19.5606 6.54711 19.5436C4.29876 19.3027 2.54773 17.3996 2.54773 15.0872Z" fill="#FFC964"/>
<path d="M6.92522 13.0417C7.12517 13.0417 7.28741 12.8795 7.28741 12.6796C7.28741 12.4794 7.12536 12.3174 6.92522 12.3174C5.76214 12.3174 4.76495 13.0381 4.3548 14.056H3.95416C3.75403 14.056 3.5918 14.2182 3.5918 14.4183C3.5918 14.6183 3.75403 14.7805 3.95416 14.7805H4.17224C4.14917 14.9898 4.14899 15.1852 4.17224 15.3948H3.95416C3.75403 15.3948 3.5918 15.5571 3.5918 15.757C3.5918 15.9571 3.75403 16.1192 3.95416 16.1192H4.3548C4.76495 17.1373 5.76214 17.858 6.92522 17.858C7.12517 17.858 7.28741 17.6959 7.28741 17.4958C7.28741 17.2958 7.12536 17.1336 6.92522 17.1336C6.17321 17.1336 5.51495 16.7255 5.15954 16.1192H5.59552C5.79565 16.1192 5.9577 15.9571 5.9577 15.757C5.9577 15.5571 5.79565 15.3948 5.59552 15.3948H4.90228C4.87152 15.1912 4.87152 14.9843 4.90228 14.7805H5.59552C5.79565 14.7805 5.9577 14.6183 5.9577 14.4183C5.9577 14.2182 5.79565 14.056 5.59552 14.056H5.15954C5.51495 13.4499 6.17321 13.0417 6.92522 13.0417Z" fill="#F3A334"/>
<path d="M13.3148 8.50781C13.5147 8.50781 13.6769 8.34558 13.6769 8.14563C13.6769 7.94568 13.5149 7.78345 13.3148 7.78345C12.3231 7.78345 11.4703 8.38952 11.1072 9.25067H10.8075C10.6075 9.25067 10.4453 9.4129 10.4453 9.61285C10.4453 9.81298 10.6074 9.97503 10.8075 9.97503H10.9296C10.9174 10.12 10.9174 10.235 10.9296 10.3804H10.8075C10.6075 10.3804 10.4453 10.5427 10.4453 10.7428C10.4453 10.9427 10.6074 11.105 10.8075 11.105H11.1072C11.4703 11.9661 12.3231 12.5722 13.3148 12.5722C13.5147 12.5722 13.6769 12.41 13.6769 12.21C13.6769 12.0101 13.5149 11.8478 13.3148 11.8478C12.7367 11.8478 12.2264 11.5525 11.9266 11.105H12.1927C12.3926 11.105 12.5549 10.9427 12.5549 10.7428C12.5549 10.5427 12.3928 10.3804 12.1927 10.3804H11.6575C11.6406 10.2411 11.6406 10.1147 11.6575 9.97503H12.1927C12.3926 9.97503 12.5549 9.81298 12.5549 9.61285C12.5549 9.4129 12.3928 9.25067 12.1927 9.25067H11.9266C12.2264 8.80316 12.7367 8.50781 13.3148 8.50781Z" fill="#76AB29"/>
</g>
<defs>
<clipPath id="clip0_84_1348">
<rect width="23.9999" height="23.9999" fill="white"/>
</clipPath>
</defs>
</svg>
