<svg width="12" height="19" viewBox="0 0 12 19" fill="none" xmlns="http://www.w3.org/2000/svg">
<path d="M11.7087 15.6741C11.4877 15.8951 11.0826 15.8951 10.8616 15.6741L6 10.7757L1.10156 15.6741C0.88058 15.8951 0.475446 15.8951 0.254464 15.6741C0.0334817 15.4531 0.0334817 15.048 0.254464 14.827L5.1529 9.92857L0.254464 5.06696C0.0334817 4.84598 0.0334817 4.44085 0.254464 4.21987C0.475446 3.99888 0.88058 3.99888 1.10156 4.21987L6 9.1183L10.8616 4.21987C11.0826 3.99888 11.4877 3.99888 11.7087 4.21987C11.9297 4.44085 11.9297 4.84598 11.7087 5.06696L6.81027 9.92857L11.7087 14.827C11.9297 15.048 11.9297 15.4531 11.7087 15.6741Z" fill="white"/>
</svg>
