<svg width="34" height="31" viewBox="0 0 34 31" fill="none" xmlns="http://www.w3.org/2000/svg">
<path d="M31.0844 15.3203C30.6471 15.3203 30.2927 15.6747 30.2927 16.112V26.9153C30.2927 28.2249 29.2273 29.2904 27.9178 29.2904H22.3762V22.1654C22.3762 20.8558 21.3108 19.7905 20.0012 19.7905H13.6679C12.3583 19.7905 11.2928 20.8558 11.2928 22.1654V29.2904H5.75123C4.44164 29.2904 3.37635 28.2249 3.37635 26.9153V16.112C3.37635 15.6749 3.02196 15.3203 2.58466 15.3203C2.14736 15.3203 1.79297 15.6747 1.79297 16.112V26.9153C1.79297 29.0979 3.5686 30.8736 5.75121 30.8736H12.0845C12.5218 30.8736 12.8762 30.5192 12.8762 30.0819V22.1652C12.8762 21.7288 13.2313 21.3735 13.6679 21.3735H20.0012C20.4378 21.3735 20.7929 21.7286 20.7929 22.1652V30.0819C20.7929 30.519 21.1473 30.8736 21.5846 30.8736H27.9179C30.1005 30.8736 31.8763 29.0979 31.8763 26.9153V16.112C31.8761 15.6747 31.5215 15.3203 31.0844 15.3203Z" fill="white"/>
<path d="M33.4588 6.32858C33.4578 6.12738 33.3808 5.92636 33.2273 5.77283L28.477 1.02272C28.3285 0.874283 28.1272 0.791016 27.9172 0.791016H5.75095C5.54098 0.791016 5.3396 0.874454 5.19115 1.02272L0.44105 5.77283C0.275066 5.93898 0.201109 6.15999 0.213373 6.37732C0.211796 6.37715 0.208984 8.70766 0.208984 8.70766C0.208984 11.3267 2.33989 13.4576 4.95908 13.4576C6.60975 13.4576 8.06587 12.6109 8.91732 11.3295C9.76895 12.6109 11.2251 13.4576 12.8756 13.4576C14.5261 13.4576 15.9822 12.6109 16.8338 11.3295C17.6854 12.6109 19.1416 13.4576 20.792 13.4576C22.4425 13.4576 23.8988 12.6109 24.7503 11.3295C25.6019 12.6109 27.058 13.4576 28.7085 13.4576C31.3277 13.4576 33.4586 11.3269 33.4586 8.70766C33.4592 8.70749 33.459 6.32982 33.4588 6.32858ZM6.07887 2.37424H27.5893L30.7562 5.54099H2.91214L6.07887 2.37424ZM4.95926 11.8742C3.21325 11.8742 1.7927 10.4537 1.7927 8.7077V7.12434H8.12599V8.7077C8.126 10.4535 6.70546 11.8742 4.95926 11.8742ZM12.8759 11.8742C11.1299 11.8742 9.70936 10.4537 9.70936 8.7077V7.12434H16.0425V8.7077C16.0425 10.4535 14.6221 11.8742 12.8759 11.8742ZM20.7926 11.8742C19.0466 11.8742 17.626 10.4537 17.626 8.7077V7.12434H23.9593V8.7077C23.9591 10.4535 22.5386 11.8742 20.7926 11.8742ZM31.8758 8.70749C31.8758 10.4535 30.4552 11.874 28.7092 11.874C26.9632 11.874 25.5427 10.4535 25.5427 8.70749V7.12413H31.876V8.70749H31.8758Z" fill="white"/>
</svg>
