<svg width="29" height="29" viewBox="0 0 29 29" fill="none" xmlns="http://www.w3.org/2000/svg">
<path d="M0.800781 14.5C0.800781 6.78906 7.03516 0.5 14.8008 0.5C22.5117 0.5 28.8008 6.78906 28.8008 14.5C28.8008 22.2656 22.5117 28.5 14.8008 28.5C7.03516 28.5 0.800781 22.2656 0.800781 14.5ZM10.3711 11.9297L12.9414 14.5L10.3711 17.0703C9.82422 17.6172 9.82422 18.4375 10.3711 18.9297C10.8633 19.4766 11.6836 19.4766 12.1758 18.9297L14.7461 16.3594L17.3711 18.9297C17.8633 19.4766 18.6836 19.4766 19.1758 18.9297C19.7227 18.4375 19.7227 17.6172 19.1758 17.0703L16.6055 14.5L19.1758 11.9297C19.7227 11.4375 19.7227 10.6172 19.1758 10.0703C18.6836 9.57812 17.8633 9.57812 17.3711 10.0703L14.7461 12.6953L12.1758 10.0703C11.6836 9.57812 10.8633 9.57812 10.3711 10.0703C9.82422 10.6172 9.82422 11.4375 10.3711 11.9297Z" fill="white"/>
</svg>
