<svg width="16" height="17" viewBox="0 0 16 17" fill="none" xmlns="http://www.w3.org/2000/svg">
<path d="M11.8869 16.6763C10.9592 16.6763 10.1973 16.3414 9.60126 15.6713C9.00471 15.0018 8.70697 14.0558 8.70697 12.8337C8.70697 11.5968 9.00496 10.6439 9.60126 9.97375C10.1973 9.30388 10.9592 8.96903 11.8869 8.96903C12.8143 8.96903 13.5761 9.30396 14.1727 9.97375C14.7688 10.6439 15.0671 11.5968 15.0671 12.8337C15.0671 14.0558 14.7722 15.0016 14.1835 15.6713C13.5943 16.3416 12.8288 16.6763 11.8869 16.6763ZM12.9814 10.91C12.7846 10.4993 12.4206 10.2938 11.8901 10.2938C11.3595 10.2938 10.9872 10.5037 10.7733 10.9227C10.5589 11.3422 10.4522 11.9798 10.4522 12.8356C10.4522 13.6746 10.5589 14.3035 10.7733 14.7227C10.9872 15.1426 11.3595 15.3518 11.8901 15.3518C12.4205 15.3518 12.7844 15.1463 12.9814 14.7356C13.1781 14.3249 13.2769 13.6918 13.2769 12.8356C13.2769 11.9624 13.1782 11.3207 12.9814 10.91ZM2.87646 16.1685L11.2904 0.554932L12.7237 1.25953L4.28754 16.873L2.87646 16.1685ZM1.62867 2.23344C2.22514 1.55654 2.98704 1.21744 3.91436 1.21744C4.84208 1.21744 5.60381 1.55254 6.20004 2.2224C6.79659 2.89227 7.09442 3.8383 7.09442 5.0601C7.09442 6.2823 6.79643 7.23184 6.20004 7.90898C5.60381 8.58621 4.84208 8.92498 3.91436 8.92498C2.98704 8.92498 2.22514 8.59021 1.62867 7.92002C1.03253 7.25056 0.734375 6.30445 0.734375 5.08224C0.734375 3.86053 1.03253 2.91066 1.62867 2.23344ZM2.76865 7.05825C2.98222 7.50335 3.3648 7.72574 3.91681 7.72574C4.45084 7.72574 4.82459 7.50793 5.03848 7.07141C5.25204 6.63554 5.35903 5.96347 5.35903 5.05536C5.35903 4.18353 5.25204 3.5292 5.03848 3.09259C4.82476 2.65672 4.451 2.43858 3.91681 2.43858C3.3648 2.43858 2.98222 2.65664 2.76865 3.09259C2.55509 3.5292 2.44819 4.19195 2.44819 5.08216C2.44811 5.95456 2.55509 6.61322 2.76865 7.05825Z" fill="white"/>
</svg>
