<svg width="24" height="21" viewBox="0 0 24 21" fill="none" xmlns="http://www.w3.org/2000/svg">
<path d="M22.1939 11.188C20.8549 13.1992 18.2655 15.4717 16.047 17.1638C13.7652 18.9037 11.9196 20.0358 11.9196 20.0358C11.9196 20.0358 10.1054 18.8415 7.82374 17.101C5.60512 15.4095 3.01518 13.1994 1.67673 11.188C-2.36317 5.11642 2.21512 0.64652 5.91679 0.140236C9.83439 -0.39517 11.9354 2.23114 11.9354 2.23114C11.9354 2.23114 14.0287 -0.338348 17.9538 0.140236C21.8429 0.614842 26.2338 5.11657 22.1939 11.188ZM17.8623 2.12176C14.389 1.52698 11.956 4.71668 11.956 4.71668H11.8935C11.8935 4.71668 9.5757 1.52712 6.10175 2.12176C3.53268 2.56128 0.294395 5.98154 3.45356 10.73C4.50022 12.3037 6.87282 14.2132 8.60788 15.5362C10.3925 16.8969 11.8848 17.7335 11.8848 17.7335H11.923C11.923 17.7335 13.4152 16.8969 15.1994 15.5362C16.9343 14.2132 19.37 12.178 20.4169 10.6051C23.5764 5.85667 20.4317 2.56128 17.8623 2.12176Z" fill="white"/>
</svg>
