<svg width="74" height="40" viewBox="0 0 74 40" fill="none" xmlns="http://www.w3.org/2000/svg">
<g clip-path="url(#clip0_790_31161)">
<path d="M73.143 0H0V40.0001H73.143V0Z" fill="#F7F2CF"/>
<path d="M2.02023 31.908H4.83123V32.6594H2.89731V33.9728C3.00885 33.952 3.10354 33.9376 3.18299 33.9296C3.26243 33.9216 3.33786 33.9176 3.40928 33.9176C3.92847 33.9176 4.33852 34.0735 4.64025 34.386C4.94197 34.6986 5.09283 35.1223 5.09283 35.6578C5.09283 36.2454 4.91388 36.7178 4.55679 37.0735C4.1997 37.43 3.72384 37.6075 3.13083 37.6075C2.92139 37.6075 2.71435 37.5891 2.50973 37.5523C2.3043 37.5156 2.1085 37.4612 1.91992 37.3901L1.97529 36.5315C2.12054 36.6211 2.27942 36.6898 2.45195 36.737C2.62368 36.7841 2.80423 36.8081 2.992 36.8081C3.33866 36.8081 3.60749 36.7162 3.79767 36.5315C3.98865 36.3469 4.08334 36.0847 4.08334 35.7442C4.08334 35.3829 3.98705 35.1079 3.79365 34.9192C3.60026 34.7306 3.3194 34.6362 2.95188 34.6362C2.7954 34.6362 2.63892 34.6506 2.48164 34.6802C2.32436 34.709 2.16949 34.7514 2.01862 34.8065V31.9072L2.02023 31.908Z" fill="#C76F28"/>
<path d="M7.47533 31.8172C8.04748 31.8172 8.48321 32.065 8.78333 32.5606C9.08425 33.0562 9.23431 33.7748 9.23431 34.7165C9.23431 35.6581 9.08264 36.3688 8.77932 36.8644C8.47599 37.36 8.04106 37.6078 7.47452 37.6078C6.90799 37.6078 6.47065 37.3608 6.16973 36.866C5.86961 36.3712 5.71875 35.6549 5.71875 34.7157C5.71875 33.7764 5.86881 33.0562 6.16973 32.5598C6.47065 32.0642 6.90478 31.8164 7.47452 31.8164L7.47533 31.8172ZM7.47533 32.5966C7.21052 32.5966 7.01632 32.7692 6.89194 33.1146C6.76756 33.4599 6.70497 33.9939 6.70497 34.7165C6.70497 35.4391 6.76756 35.9723 6.89355 36.3168C7.01953 36.6613 7.21292 36.8332 7.47533 36.8332C7.73773 36.8332 7.93513 36.6613 8.06112 36.3168C8.1871 35.9731 8.24969 35.4391 8.24969 34.7165C8.24969 33.9939 8.1863 33.4599 8.05871 33.1146C7.93192 32.7692 7.73693 32.5966 7.47452 32.5966H7.47533Z" fill="#C76F28"/>
<path d="M16.3475 1.27734H7.86719V6.99039H16.3475V1.27734Z" fill="#395888"/>
<path d="M62.4343 0H16.3477V40.0001H62.4343V0Z" fill="#EAC6A8"/>
<path d="M33.5978 1.99512L34.231 3.2717L35.6457 3.47634L34.6218 4.47074L34.8633 5.87442L33.5978 5.21175L32.3332 5.87442L32.5747 4.47074L31.5508 3.47634L32.9655 3.2717L33.5978 1.99512Z" fill="#F7F2CF"/>
<path d="M33.5978 29.6035L34.231 30.8801L35.6457 31.0855L34.6218 32.0791L34.8633 33.4828L33.5978 32.8202L32.3332 33.4828L32.5747 32.0791L31.5508 31.0855L32.9655 30.8801L33.5978 29.6035Z" fill="#F7F2CF"/>
<path d="M40.5303 27.3398L41.1626 28.6172L42.5774 28.8219L41.5534 29.8155L41.795 31.2191L40.5303 30.5565L39.2648 31.2191L39.5064 29.8155L38.4824 28.8219L39.8972 28.6172L40.5303 27.3398Z" fill="#F7F2CF"/>
<path d="M26.5139 27.3398L27.1462 28.6172L28.5609 28.8219L27.5378 29.8155L27.7793 31.2191L26.5139 30.5565L25.2484 31.2191L25.4899 29.8155L24.4668 28.8219L25.8807 28.6172L26.5139 27.3398Z" fill="#F7F2CF"/>
<path d="M21.4736 22.3945L22.106 23.6711L23.5207 23.8765L22.4968 24.8702L22.7391 26.2738L21.4736 25.6112L20.2082 26.2738L20.4497 24.8702L19.4258 23.8765L20.8405 23.6711L21.4736 22.3945Z" fill="#F7F2CF"/>
<path d="M45.7276 22.3945L46.3599 23.6711L47.7746 23.8765L46.7515 24.8702L46.993 26.2738L45.7276 25.6112L44.4621 26.2738L44.7036 24.8702L43.6797 23.8765L45.0944 23.6711L45.7276 22.3945Z" fill="#F7F2CF"/>
<path d="M47.2111 15.9043L47.8435 17.1817L49.2582 17.3863L48.2351 18.3799L48.4766 19.7836L47.2111 19.1209L45.9457 19.7836L46.1872 18.3799L45.1641 17.3863L46.5788 17.1817L47.2111 15.9043Z" fill="#F7F2CF"/>
<path d="M19.426 15.9043L20.0591 17.1817L21.4738 17.3863L20.4499 18.3799L20.6914 19.7836L19.426 19.1209L18.1613 19.7836L18.4028 18.3799L17.3789 17.3863L18.7936 17.1817L19.426 15.9043Z" fill="#F7F2CF"/>
<path d="M21.4736 9.1875L22.106 10.4649L23.5207 10.6695L22.4968 11.6639L22.7391 13.0668L21.4736 12.4041L20.2082 13.0668L20.4497 11.6639L19.4258 10.6695L20.8405 10.4649L21.4736 9.1875Z" fill="#F7F2CF"/>
<path d="M45.1631 9.1875L45.7954 10.4649L47.2102 10.6695L46.1862 11.6639L46.4278 13.0668L45.1631 12.4041L43.8976 13.0668L44.1392 11.6639L43.1152 10.6695L44.53 10.4649L45.1631 9.1875Z" fill="#F7F2CF"/>
<path d="M40.5303 4.13867L41.1626 5.41605L42.5774 5.62069L41.5534 6.6143L41.795 8.01798L40.5303 7.3553L39.2648 8.01798L39.5064 6.6143L38.4824 5.62069L39.8972 5.41605L40.5303 4.13867Z" fill="#F7F2CF"/>
<path d="M26.5139 4.13867L27.1462 5.41605L28.5609 5.62069L27.5378 6.6143L27.7793 8.01798L26.5139 7.3553L25.2484 8.01798L25.4899 6.6143L24.4668 5.62069L25.8807 5.41605L26.5139 4.13867Z" fill="#F7F2CF"/>
<path d="M62.4335 0H43.1152V40.0001H62.4335V0Z" fill="#EAB88F"/>
<path d="M47.457 36.633V12.9671L46.4395 11.5602L53.9488 7.36035L60.8323 11.6393L60.346 12.9671L60.2337 36.633H47.457Z" fill="#E09B63"/>
<path d="M40.8739 36.6335V15.5759L39.9688 14.3241L46.6508 10.5879L52.7743 14.3945L52.3418 15.5759L52.2423 36.6335H40.8739Z" fill="#EAAA75"/>
<path d="M57.3242 15.9033H52.7734V29.9385H57.3242V15.9033Z" fill="#EAC6A8"/>
<path d="M43.6777 29.9385V18.4085C43.6777 18.4085 44.3582 15.9033 46.65 15.9033C48.9418 15.9033 49.8021 18.2766 49.8021 18.2766V29.9377H43.6777V29.9385Z" fill="#EAC6A8"/>
<path d="M70.5329 27.1209C70.8544 25.1481 69.5096 23.2893 67.5292 22.9691C65.5488 22.6489 63.6828 23.9885 63.3614 25.9612C63.0399 27.934 64.3847 29.7928 66.3651 30.113C68.3455 30.4332 70.2115 29.0936 70.5329 27.1209Z" fill="#395888"/>
<path d="M47.7393 2.73828H53.8588V4.37458H49.6491V7.2331C49.8915 7.18673 50.0985 7.15556 50.2718 7.13797C50.4444 7.12039 50.6089 7.11239 50.7646 7.11239C51.8936 7.11239 52.7875 7.45212 53.444 8.13238C54.1012 8.81263 54.4294 9.7351 54.4294 10.9006C54.4294 12.1803 54.0402 13.2083 53.2626 13.9829C52.4842 14.7575 51.4507 15.1452 50.1595 15.1452C49.7045 15.1452 49.2535 15.1052 48.8066 15.0245C48.3596 14.9445 47.9319 14.8262 47.5234 14.6712L47.6446 12.8023C47.9616 12.9973 48.3074 13.1468 48.6822 13.2499C49.0569 13.353 49.4485 13.405 49.8578 13.405C50.6129 13.405 51.1979 13.2043 51.6127 12.8023C52.0276 12.4002 52.2355 11.8294 52.2355 11.0892C52.2355 10.3026 52.0252 9.70472 51.6047 9.29385C51.1842 8.88378 50.5736 8.67834 49.7719 8.67834C49.4317 8.67834 49.0906 8.71032 48.748 8.77267C48.4053 8.83582 48.0691 8.92774 47.7409 9.04845V2.73828H47.7393Z" fill="#C76F28"/>
<path d="M59.4834 2.54004C60.728 2.54004 61.6773 3.07961 62.3313 4.15875C62.9853 5.23789 63.3127 6.80224 63.3127 8.8518C63.3127 10.9014 62.9829 12.4481 62.3233 13.5273C61.6637 14.6064 60.7168 15.146 59.4834 15.146C58.25 15.146 57.2975 14.608 56.6435 13.5313C55.9895 12.4545 55.6621 10.895 55.6621 8.8518C55.6621 6.80863 55.9887 5.23789 56.6435 4.15875C57.2975 3.07961 58.2444 2.54004 59.4834 2.54004ZM59.4834 4.23629C58.9072 4.23629 58.4835 4.61199 58.2131 5.36419C57.9419 6.11638 57.8071 7.27866 57.8071 8.8518C57.8071 10.4249 57.9435 11.5856 58.2179 12.3346C58.4916 13.0836 58.9137 13.4585 59.4842 13.4585C60.0548 13.4585 60.4857 13.0836 60.7593 12.3346C61.0329 11.5856 61.1702 10.4249 61.1702 8.8518C61.1702 7.27866 61.0321 6.11638 60.7553 5.36419C60.4784 4.61199 60.0556 4.23629 59.485 4.23629H59.4834Z" fill="#C76F28"/>
<path d="M12.6233 33.2031H11.7005V33.7003H12.6121V34.1567H11.7005V34.6859H12.6088V35.1655H11.1211V32.7402H12.6233V33.2023V33.2031Z" fill="#C76F28"/>
<path d="M15.585 32.7409V34.2509C15.585 34.4947 15.5569 34.6761 15.5015 34.7952C15.4453 34.9143 15.3426 35.0118 15.1918 35.0886C15.0409 35.1653 14.8491 35.2029 14.6148 35.2029C14.3805 35.2029 14.1943 35.1685 14.0555 35.0998C13.9167 35.031 13.8132 34.9335 13.7441 34.8064C13.6751 34.6793 13.6406 34.4947 13.6406 34.2501V32.7401H14.2593V34.2501C14.2593 34.3803 14.2706 34.4763 14.2922 34.5378C14.3139 34.5994 14.358 34.6481 14.4238 34.6841C14.4896 34.7201 14.5707 34.7385 14.667 34.7385C14.7737 34.7385 14.8612 34.7209 14.9286 34.6849C14.996 34.6489 15.0401 34.6026 15.0626 34.5434C15.085 34.4843 15.0955 34.3867 15.0955 34.2493V32.7393H15.5842L15.585 32.7409Z" fill="#C76F28"/>
<path d="M16.764 34.2047V35.1655H16.1895V32.7402H17.2591C17.4565 32.7402 17.6146 32.7634 17.7342 32.809C17.8537 32.8545 17.9524 32.9385 18.0311 33.06C18.1097 33.1815 18.149 33.3174 18.149 33.4669C18.149 33.7578 18.0078 33.9673 17.7262 34.0936L18.1755 35.1655H17.5456L17.1717 34.2047H16.7632H16.764ZM16.764 33.1727V33.7906H17.1139C17.2278 33.7906 17.3113 33.7826 17.3626 33.7666C17.414 33.7506 17.4605 33.7155 17.5007 33.6603C17.5408 33.6051 17.5617 33.542 17.5617 33.4709C17.5617 33.3997 17.5416 33.343 17.5007 33.2894C17.4605 33.2358 17.4164 33.2031 17.3691 33.1911C17.3217 33.1783 17.2326 33.1727 17.1018 33.1727H16.7648H16.764Z" fill="#C76F28"/>
<path d="M19.76 35.2029C19.4318 35.2029 19.1782 35.0806 18.9993 34.8352C18.8195 34.5898 18.7305 34.2932 18.7305 33.9455C18.7305 33.5978 18.8211 33.2956 19.0033 33.059C19.1847 32.8224 19.4439 32.7041 19.7801 32.7041C20.1163 32.7041 20.3763 32.8304 20.5488 33.083C20.7214 33.3356 20.808 33.625 20.808 33.9511C20.808 34.3028 20.719 34.5994 20.5408 34.8408C20.3627 35.0822 20.1027 35.2029 19.76 35.2029ZM19.7761 33.1669C19.4768 33.1669 19.3275 33.4283 19.3275 33.9519C19.3275 34.4755 19.4768 34.7393 19.7761 34.7393C20.0754 34.7393 20.2102 34.4779 20.2102 33.9543C20.2102 33.4307 20.0658 33.1669 19.7761 33.1669Z" fill="#C76F28"/>
<path d="M60.2352 35.3936H11.0977V37.6078H60.2352V35.3936Z" fill="#E09B63"/>
</g>
<defs>
<clipPath id="clip0_790_31161">
<rect width="73.143" height="40.0001" fill="white"/>
</clipPath>
</defs>
</svg>
