<svg width="16" height="14" viewBox="0 0 16 14" fill="none" xmlns="http://www.w3.org/2000/svg">
<path d="M0 1.34375C0 0.886719 0.351562 0.5 0.84375 0.5H14.9062C15.3633 0.5 15.75 0.886719 15.75 1.34375C15.75 1.83594 15.3633 2.1875 14.9062 2.1875H0.84375C0.351562 2.1875 0 1.83594 0 1.34375ZM2.25 6.96875C2.25 6.51172 2.60156 6.125 3.09375 6.125H12.6562C13.1133 6.125 13.5 6.51172 13.5 6.96875C13.5 7.46094 13.1133 7.8125 12.6562 7.8125H3.09375C2.60156 7.8125 2.25 7.46094 2.25 6.96875ZM9.28125 13.4375H6.46875C5.97656 13.4375 5.625 13.0859 5.625 12.5938C5.625 12.1367 5.97656 11.75 6.46875 11.75H9.28125C9.73828 11.75 10.125 12.1367 10.125 12.5938C10.125 13.0859 9.73828 13.4375 9.28125 13.4375Z" fill="white"/>
</svg>
