<svg width="82" height="40" viewBox="0 0 82 40" fill="none" xmlns="http://www.w3.org/2000/svg">
<g clip-path="url(#clip0_790_31054)">
<path d="M81.143 0H0V40.0001H81.143V0Z" fill="#E8D3DD"/>
<path d="M1.92946 32.5361H4.62682V33.2414H2.77177V34.4737C2.87884 34.4537 2.96986 34.4406 3.0457 34.4328C3.12154 34.425 3.19471 34.4215 3.26252 34.4215C3.76042 34.4215 4.15391 34.5684 4.44301 34.8615C4.73211 35.1546 4.87755 35.5529 4.87755 36.0555C4.87755 36.6077 4.70623 37.0503 4.3636 37.3843C4.02096 37.7182 3.56501 37.8852 2.99573 37.8852C2.79497 37.8852 2.59599 37.8678 2.39969 37.833C2.2025 37.7982 2.01422 37.7478 1.83398 37.6808L1.88752 36.8756C2.02761 36.9599 2.1793 37.0243 2.34437 37.0686C2.50944 37.113 2.68254 37.1356 2.86278 37.1356C3.1956 37.1356 3.45347 37.0486 3.63639 36.8756C3.81931 36.7025 3.91032 36.4564 3.91032 36.1364C3.91032 35.7972 3.81752 35.5389 3.63193 35.3624C3.44633 35.1859 3.17776 35.0972 2.82441 35.0972C2.67451 35.0972 2.52372 35.1111 2.37292 35.138C2.22213 35.165 2.07401 35.205 1.92946 35.2572V32.5361Z" fill="#7E455F"/>
<path d="M6.96018 32.4512C7.50893 32.4512 7.92741 32.6842 8.21562 33.1495C8.50383 33.6147 8.64838 34.2896 8.64838 35.1731C8.64838 36.0566 8.50293 36.7236 8.21205 37.1889C7.92117 37.6541 7.50447 37.8872 6.96107 37.8872C6.41768 37.8872 5.99831 37.655 5.7101 37.1915C5.42189 36.7271 5.27734 36.0549 5.27734 35.174C5.27734 34.293 5.421 33.6156 5.7101 33.1503C5.99831 32.6851 6.415 32.452 6.96107 32.452L6.96018 32.4512ZM6.96018 33.1825C6.70588 33.1825 6.5194 33.3443 6.39983 33.6686C6.28027 33.993 6.22048 34.4939 6.22048 35.1722C6.22048 35.8505 6.28116 36.3506 6.40162 36.6741C6.52207 36.9967 6.70856 37.1584 6.95929 37.1584C7.21002 37.1584 7.40008 36.9967 7.52143 36.6741C7.64188 36.3514 7.70256 35.8505 7.70256 35.1722C7.70256 34.4939 7.64188 33.993 7.51964 33.6686C7.3974 33.3443 7.21091 33.1825 6.95929 33.1825H6.96018Z" fill="#7E455F"/>
<path d="M10.9367 32.4512C11.4855 32.4512 11.904 32.6842 12.1922 33.1495C12.4804 33.6147 12.6249 34.2896 12.6249 35.1731C12.6249 36.0566 12.4795 36.7236 12.1886 37.1889C11.8977 37.6541 11.481 37.8872 10.9376 37.8872C10.3942 37.8872 9.97487 37.655 9.68666 37.1915C9.39846 36.7271 9.25391 36.0549 9.25391 35.174C9.25391 34.293 9.39756 33.6156 9.68666 33.1503C9.97487 32.6851 10.3916 32.452 10.9376 32.452L10.9367 32.4512ZM10.9367 33.1825C10.6824 33.1825 10.496 33.3443 10.3764 33.6686C10.2568 33.993 10.197 34.4939 10.197 35.1722C10.197 35.8505 10.2577 36.3506 10.3782 36.6741C10.4986 36.9967 10.6851 37.1584 10.9359 37.1584C11.1866 37.1584 11.3766 36.9967 11.498 36.6741C11.6184 36.3514 11.6791 35.8505 11.6791 35.1722C11.6791 34.4939 11.6184 33.993 11.4962 33.6686C11.374 33.3443 11.1875 33.1825 10.9359 33.1825H10.9367Z" fill="#7E455F"/>
<path d="M78.502 0H18.7246V40.0001H78.502V0Z" fill="#DBBCCC"/>
<path d="M18.7264 1.35254H10.0508V6.74421H18.7264V1.35254Z" fill="#395888"/>
<path d="M16.0651 33.1647H14.9899V33.7317H16.0517V34.2517H14.9899V34.8552H16.0482V35.4022H14.3145V32.6377H16.0642V33.1638L16.0651 33.1647Z" fill="#7E455F"/>
<path d="M19.3301 32.6377V34.3587C19.3301 34.637 19.298 34.8439 19.2329 34.9796C19.1677 35.1153 19.0473 35.2266 18.8724 35.3135C18.6975 35.4005 18.4735 35.444 18.2005 35.444C17.9275 35.444 17.7106 35.4048 17.5491 35.3266C17.3876 35.2483 17.2672 35.137 17.1869 34.9926C17.1066 34.8483 17.0664 34.637 17.0664 34.3587V32.6377H17.7874V34.3587C17.7874 34.5074 17.7999 34.617 17.8257 34.6865C17.8516 34.757 17.9025 34.8126 17.9792 34.8535C18.0559 34.8944 18.1505 34.9152 18.263 34.9152C18.3879 34.9152 18.4887 34.8952 18.5672 34.8544C18.6457 34.8135 18.6975 34.7604 18.7234 34.6935C18.7492 34.6265 18.7617 34.5152 18.7617 34.3587V32.6377H19.331H19.3301Z" fill="#7E455F"/>
<path d="M20.7044 34.3065V35.4022H20.0352V32.6377H21.2817C21.5119 32.6377 21.6966 32.6638 21.8358 32.716C21.975 32.7681 22.0901 32.8629 22.182 33.0021C22.273 33.1412 22.3194 33.2951 22.3194 33.4656C22.3194 33.7978 22.1552 34.0361 21.8269 34.1795L22.3506 35.4014H21.6163L21.1808 34.3056H20.7053L20.7044 34.3065ZM20.7044 33.1299V33.8343H21.1112C21.2442 33.8343 21.3406 33.8256 21.4012 33.8073C21.4619 33.7891 21.5154 33.7482 21.5618 33.6856C21.6091 33.623 21.6323 33.5508 21.6323 33.4699C21.6323 33.3891 21.6091 33.3238 21.5618 33.263C21.5146 33.2021 21.4637 33.1647 21.4084 33.1508C21.3531 33.1369 21.2487 33.1299 21.097 33.1299H20.7044Z" fill="#7E455F"/>
<path d="M24.1953 35.4445C23.8134 35.4445 23.5181 35.3045 23.3093 35.0253C23.1005 34.7462 22.9961 34.4079 22.9961 34.0105C22.9961 33.6131 23.1023 33.2696 23.3137 33C23.5252 32.7304 23.8268 32.5947 24.2185 32.5947C24.6102 32.5947 24.9127 32.7391 25.1144 33.0269C25.316 33.3148 25.4168 33.6452 25.4168 34.0166C25.4168 34.4175 25.3133 34.7557 25.1054 35.0314C24.8975 35.3071 24.5951 35.4445 24.1962 35.4445H24.1953ZM24.2141 33.1235C23.8661 33.1235 23.6912 33.4217 23.6912 34.0183C23.6912 34.6149 23.8652 34.9158 24.2141 34.9158C24.5629 34.9158 24.72 34.6175 24.72 34.0209C24.72 33.4243 24.5513 33.1235 24.2141 33.1235Z" fill="#7E455F"/>
<path d="M27.0862 35.5732H14.3203V38.2682H27.0862V35.5732Z" fill="#B8839D"/>
<path d="M40.5701 3.79883L41.2732 5.18849L42.8463 5.41111L41.7077 6.49292L41.9763 8.01911L40.5701 7.29819L39.1629 8.01911L39.4315 6.49292L38.293 5.41111L39.8661 5.18849L40.5701 3.79883Z" fill="#EBDEF1"/>
<path d="M40.5701 33.835L41.2732 35.2237L42.8463 35.4464L41.7077 36.5282L41.9763 38.0552L40.5701 37.3343L39.1629 38.0552L39.4315 36.5282L38.293 35.4464L39.8661 35.2237L40.5701 33.835Z" fill="#EBDEF1"/>
<path d="M48.2751 31.3721L48.9783 32.7617L50.5513 32.9844L49.4128 34.0653L49.6823 35.5924L48.2751 34.8714L46.868 35.5924L47.1366 34.0653L45.998 32.9844L47.5711 32.7617L48.2751 31.3721Z" fill="#EBDEF1"/>
<path d="M32.6903 31.3721L33.3943 32.7617L34.9665 32.9844L33.8288 34.0653L34.0974 35.5924L32.6903 34.8714L31.2831 35.5924L31.5517 34.0653L30.4141 32.9844L31.9872 32.7617L32.6903 31.3721Z" fill="#EBDEF1"/>
<path d="M27.0848 25.9932L27.7879 27.382L29.361 27.6046L28.2233 28.6864L28.4919 30.2134L27.0848 29.4925L25.6777 30.2134L25.9463 28.6864L24.8086 27.6046L26.3817 27.382L27.0848 25.9932Z" fill="#EBDEF1"/>
<path d="M54.0535 25.9932L54.7567 27.382L56.3298 27.6046L55.1921 28.6864L55.4607 30.2134L54.0535 29.4925L52.6464 30.2134L52.915 28.6864L51.7773 27.6046L53.3504 27.382L54.0535 25.9932Z" fill="#EBDEF1"/>
<path d="M55.7039 18.9316L56.408 20.3213L57.981 20.5439L56.8425 21.6249L57.1111 23.1519L55.7039 22.431L54.2968 23.1519L54.5663 21.6249L53.4277 20.5439L55.0008 20.3213L55.7039 18.9316Z" fill="#EBDEF1"/>
<path d="M24.8103 18.9316L25.5134 20.3213L27.0865 20.5439L25.948 21.6249L26.2165 23.1519L24.8103 22.431L23.4032 23.1519L23.6718 21.6249L22.5332 20.5439L24.1063 20.3213L24.8103 18.9316Z" fill="#EBDEF1"/>
<path d="M27.0848 11.624L27.7879 13.0137L29.361 13.2363L28.2233 14.3172L28.4919 15.8443L27.0848 15.1234L25.6777 15.8443L25.9463 14.3172L24.8086 13.2363L26.3817 13.0137L27.0848 11.624Z" fill="#EBDEF1"/>
<path d="M53.4275 11.624L54.1306 13.0137L55.7037 13.2363L54.566 14.3172L54.8346 15.8443L53.4275 15.1234L52.0204 15.8443L52.2889 14.3172L51.1504 13.2363L52.7235 13.0137L53.4275 11.624Z" fill="#EBDEF1"/>
<path d="M48.2751 6.13184L48.9783 7.52149L50.5513 7.74412L49.4128 8.82506L49.6823 10.3521L48.2751 9.6312L46.868 10.3521L47.1366 8.82506L45.998 7.74412L47.5711 7.52149L48.2751 6.13184Z" fill="#EBDEF1"/>
<path d="M32.6903 6.13184L33.3943 7.52149L34.9665 7.74412L33.8288 8.82506L34.0974 10.3521L32.6903 9.6312L31.2831 10.3521L31.5517 8.82506L30.4141 7.74412L31.9872 7.52149L32.6903 6.13184Z" fill="#EBDEF1"/>
<path d="M67.9786 0H44.377V40.0001H67.9786V0Z" fill="#C39BAF"/>
<path d="M37.3926 38.2695L37.7861 10.352H40.5727V8.8623H43.2959L67.4026 13.4261V22.1919L65.238 22.2876L65.3361 31.3716H63.167V35.4441L67.0091 35.5919V37.1581L53.4304 37.5347V38.2695H37.3926Z" fill="#B8839D"/>
<path d="M77.5922 27.3912C77.9497 25.2451 76.4543 23.2229 74.2523 22.8745C72.0502 22.5262 69.9754 23.9836 69.6179 26.1297C69.2605 28.2758 70.7558 30.298 72.9579 30.6464C75.1599 30.9948 77.2348 29.5374 77.5922 27.3912Z" fill="#395888"/>
<path d="M53.43 38.2695H40.5723V8.8623L53.43 16.3976V38.2695Z" fill="#AD7490"/>
<path d="M48.2191 2.30469H53.9805V3.81175H50.017V6.44497C50.2445 6.40235 50.4399 6.37366 50.6032 6.358C50.7665 6.34235 50.9209 6.33452 51.0672 6.33452C52.1308 6.33452 52.9713 6.64759 53.5897 7.27459C54.208 7.90159 54.5177 8.75121 54.5177 9.82432C54.5177 11.0035 54.1518 11.9497 53.4193 12.6636C52.6867 13.3776 51.7132 13.7342 50.4979 13.7342C50.0697 13.7342 49.6449 13.6968 49.2247 13.6228C48.8044 13.5489 48.4011 13.4402 48.0156 13.2976L48.1298 11.5766C48.4279 11.7566 48.7535 11.894 49.106 11.9888C49.4584 12.0836 49.8278 12.1314 50.2124 12.1314C50.9236 12.1314 51.4741 11.9462 51.864 11.5766C52.2548 11.2062 52.4503 10.68 52.4503 9.99825C52.4503 9.27385 52.2522 8.72251 51.856 8.34422C51.4598 7.96594 50.8852 7.77723 50.1303 7.77723C49.81 7.77723 49.4888 7.80593 49.1658 7.86419C48.8428 7.92246 48.5269 8.00681 48.2173 8.11812V2.30469H48.2191Z" fill="#7E455F"/>
<path d="M59.5616 2.12207C60.7332 2.12207 61.6272 2.61949 62.2429 3.61347C62.8586 4.60745 63.1664 6.04842 63.1664 7.93637C63.1664 9.82433 62.8559 11.2488 62.2349 12.2436C61.6139 13.2376 60.7225 13.735 59.5616 13.735C58.4008 13.735 57.504 13.2393 56.8884 12.248C56.2727 11.2566 55.9648 9.81998 55.9648 7.93724C55.9648 6.05451 56.2727 4.60832 56.8884 3.61434C57.504 2.62036 58.3954 2.12294 59.5616 2.12294V2.12207ZM59.5616 3.68478C59.0191 3.68478 58.6203 4.03089 58.3651 4.72398C58.1099 5.41707 57.9823 6.48758 57.9823 7.93637C57.9823 9.38517 58.1108 10.4548 58.3686 11.1444C58.6265 11.8349 59.0236 12.1793 59.5607 12.1793C60.0979 12.1793 60.503 11.834 60.7608 11.1444C61.0187 10.4548 61.1472 9.38517 61.1472 7.93637C61.1472 6.48758 61.0169 5.41707 60.7564 4.72398C60.4958 4.03089 60.097 3.68478 59.5598 3.68478H59.5616Z" fill="#7E455F"/>
<path d="M67.9757 2.12207C69.1472 2.12207 70.0413 2.61949 70.657 3.61347C71.2727 4.60745 71.5805 6.04842 71.5805 7.93637C71.5805 9.82433 71.27 11.2488 70.649 12.2436C70.0279 13.2376 69.1365 13.735 67.9757 13.735C66.8148 13.735 65.9181 13.2393 65.3024 12.248C64.6867 11.2566 64.3789 9.81998 64.3789 7.93724C64.3789 6.05451 64.6867 4.60832 65.3024 3.61434C65.9181 2.62036 66.8095 2.12294 67.9757 2.12294V2.12207ZM67.9757 3.68478C67.4332 3.68478 67.0343 4.03089 66.7791 4.72398C66.5239 5.41707 66.3963 6.48758 66.3963 7.93637C66.3963 9.38517 66.5248 10.4548 66.7827 11.1444C67.0406 11.8349 67.4376 12.1793 67.9748 12.1793C68.5119 12.1793 68.917 11.834 69.1749 11.1444C69.4328 10.4548 69.5613 9.38517 69.5613 7.93637C69.5613 6.48758 69.431 5.41707 69.1704 4.72398C68.9099 4.03089 68.5111 3.68478 67.9739 3.68478H67.9757Z" fill="#7E455F"/>
</g>
<defs>
<clipPath id="clip0_790_31054">
<rect width="81.143" height="40.0001" fill="white"/>
</clipPath>
</defs>
</svg>
