<svg width="20" height="20" viewBox="0 0 20 20" fill="none" xmlns="http://www.w3.org/2000/svg">
<g clip-path="url(#clip0_722_35608)">
<path opacity="0.4" fill-rule="evenodd" clip-rule="evenodd" d="M13 6V3C13 2.735 13.1054 2.48 13.2929 2.293C13.4804 2.105 13.7348 2 14 2C14.2652 2 14.5196 2.105 14.7071 2.293C14.8946 2.48 15 2.735 15 3V6H13ZM10 6V1C10 0.735 10.1054 0.479999 10.2929 0.292999C10.4804 0.104999 10.7348 0 11 0C11.2652 0 11.5196 0.104999 11.7071 0.292999C11.8946 0.479999 12 0.735 12 1V6H10ZM7 6V3C7 2.735 7.10536 2.48 7.29289 2.293C7.48043 2.105 7.73478 2 8 2C8.26522 2 8.51957 2.105 8.70711 2.293C8.89464 2.48 9 2.735 9 3V6H7ZM4 6V5C4 4.735 4.10536 4.48 4.29289 4.293C4.48043 4.105 4.73478 4 5 4C5.26522 4 5.51957 4.105 5.70711 4.293C5.89464 4.48 6 4.735 6 5V6H4Z" fill="#999999"/>
<path fill-rule="evenodd" clip-rule="evenodd" d="M17 16V9C17 8.735 16.8946 8.48 16.7071 8.293C16.5196 8.105 16.2652 8 16 8C15.7348 8 15.4804 8.105 15.2929 8.293C15.1054 8.48 15 8.735 15 9V12.051C14.8348 12.022 14.6677 12.005 14.5 12C13.5717 12 12.6815 12.369 12.0251 13.025C11.3688 13.681 11 14.572 11 15.5C11.0059 15.668 11.0246 15.835 11.056 16H0V6H20V16H17ZM5 9C4.60444 9 4.21775 9.11701 3.88885 9.33701C3.55996 9.55701 3.30361 9.86899 3.15224 10.235C3.00086 10.6 2.96127 11.002 3.03844 11.39C3.11561 11.778 3.30608 12.135 3.58578 12.414C3.86549 12.694 4.22186 12.884 4.60982 12.962C4.99778 13.039 5.39991 12.999 5.76537 12.848C6.13082 12.696 6.44317 12.44 6.66293 12.111C6.8827 11.782 7 11.396 7 11C7 10.47 6.78929 9.961 6.41422 9.586C6.03914 9.211 5.53043 9 5 9Z" fill="#999999"/>
<path opacity="0.5" d="M5 13C6.10457 13 7 12.105 7 11C7 9.895 6.10457 9 5 9C3.89543 9 3 9.895 3 11C3 12.105 3.89543 13 5 13Z" fill="#999999"/>
<path opacity="0.4" fill-rule="evenodd" clip-rule="evenodd" d="M17 16.937C16.4192 17.873 15.6094 18.645 14.647 19.181C13.6847 19.717 12.6015 19.999 11.5 20H10.5C9.21674 20 7.96219 19.62 6.89445 18.908C5.82672 18.196 4.99356 17.185 4.5 16H11.056C11.0246 15.835 11.0059 15.668 11 15.5C11 14.572 11.3688 13.681 12.0251 13.025C12.6815 12.369 13.5717 12 14.5 12C14.6677 12.005 14.8348 12.022 15 12.051V9C15 8.735 15.1054 8.48 15.2929 8.293C15.4804 8.105 15.7348 8 16 8C16.2652 8 16.5196 8.105 16.7071 8.293C16.8946 8.48 17 8.735 17 9V16.937Z" fill="#999999"/>
</g>
<defs>
<clipPath id="clip0_722_35608">
<rect width="20" height="20" fill="white"/>
</clipPath>
</defs>
</svg>
