<svg width="32" height="10" viewBox="0 0 32 10" fill="none" xmlns="http://www.w3.org/2000/svg">
<g clip-path="url(#clip0_722_35832)">
<path fill-rule="evenodd" clip-rule="evenodd" d="M29.1075 9.99995C29.1075 9.99995 28.8775 8.59993 28.8005 8.24793H25.4825C25.3905 8.52293 24.9315 9.99995 24.9315 9.99995H22.2245L26.0635 0.84394C26.1589 0.57194 26.3442 0.33995 26.5889 0.18795C26.8336 0.0349498 27.1231 -0.030056 27.4095 0.00394404H29.4095L31.5095 10.0039H29.1095L29.1075 9.99995ZM27.7765 3.55894L27.5925 2.70493C27.4705 3.08593 27.2405 3.68093 27.2565 3.66593C27.2565 3.66593 26.4305 5.87795 26.2315 6.45795H28.3725C28.2655 5.95495 27.7765 3.55894 27.7765 3.55894ZM22.2085 2.30894C21.6038 2.03594 20.9446 1.90495 20.2815 1.92695C19.2565 1.92695 18.7975 2.35395 18.7815 2.78095C18.7815 3.25495 19.3325 3.55894 20.2495 4.01694C21.7335 4.71694 22.4215 5.58895 22.4065 6.73295C22.3915 8.79195 20.6325 10.1329 17.9065 10.1329C16.9233 10.1359 15.9483 9.95495 15.0315 9.59995L15.3825 7.35694L15.7345 7.52494C16.4856 7.89494 17.3146 8.07794 18.1515 8.05894C18.4869 8.12394 18.8347 8.05994 19.1244 7.87894C19.4141 7.69694 19.6239 7.41195 19.7115 7.08195C19.7115 6.63995 19.3755 6.31894 18.3655 5.83094C17.3865 5.35894 16.0865 4.56496 16.1015 3.13096C16.1175 1.19396 17.9065 -0.16906 20.4615 -0.16906C21.255 -0.17406 22.0427 -0.0340494 22.7865 0.241951L22.4345 2.40894L22.2085 2.30894ZM10.8285 9.99995L12.4505 -5.37634e-05H15.0355L13.4145 9.99995H10.8285ZM4.60345 9.99995L2.59645 2.47193L2.43945 1.86094C2.79315 2.03794 3.12815 2.24993 3.43945 2.49393C4.38085 3.26193 5.18575 4.18395 5.82045 5.21995L5.81245 5.17695L5.86245 5.43595L6.13845 6.80894L8.67245 -5.37634e-05H11.4105L7.34145 9.99995H4.59945H4.60345Z" fill="#999999"/>
<path opacity="0.35" fill-rule="evenodd" clip-rule="evenodd" d="M3.43484 2.49402C3.12354 2.25002 2.78854 2.03802 2.43484 1.86102L2.28784 1.30704C1.55754 0.877037 0.777444 0.538035 -0.0351562 0.298035V-0.0119629H3.93584C4.17394 -0.0109629 4.40454 0.0710236 4.58924 0.221024C4.77404 0.371024 4.90164 0.580034 4.95084 0.813034L5.81084 5.22003C5.17764 4.18403 4.37444 3.26302 3.43484 2.49402Z" fill="#999999"/>
</g>
<defs>
<clipPath id="clip0_722_35832">
<rect width="32" height="10" fill="white"/>
</clipPath>
</defs>
</svg>
