<svg width="24" height="16" viewBox="0 0 24 16" fill="none" xmlns="http://www.w3.org/2000/svg">
<g clip-path="url(#clip0_722_35720)">
<path opacity="0.3" fill-rule="evenodd" clip-rule="evenodd" d="M16 16.0001C14.595 16.0001 13.215 15.6281 12 14.9211C13.216 14.2201 14.226 13.2121 14.928 11.9971C15.63 10.7821 16 9.4031 16 8.0001C16 6.5971 15.63 5.21811 14.928 4.00311C14.226 2.78811 13.216 1.7801 12 1.0791C13.063 0.463099 14.253 0.10011 15.478 0.01811C16.704 -0.06389 17.932 0.137107 19.067 0.606107C20.202 1.07511 21.214 1.7991 22.024 2.7221C22.835 3.6451 23.422 4.74211 23.74 5.92911C24.058 7.11511 24.098 8.35909 23.858 9.56309C23.618 10.7681 23.104 11.9011 22.356 12.8751C21.607 13.8491 20.645 14.6371 19.543 15.1791C18.44 15.7211 17.228 16.0021 16 16.0001Z" fill="#999999"/>
<path fill-rule="evenodd" clip-rule="evenodd" d="M8.00027 8.00001C8.00027 9.40301 8.37027 10.782 9.07227 11.997C9.77527 13.212 10.7843 14.22 12.0003 14.921C10.7843 15.626 9.40426 15.998 7.99826 16C6.59326 16.002 5.21226 15.633 3.99426 14.932C2.77626 14.23 1.76428 13.22 1.06128 12.003C0.358279 10.786 -0.0117188 9.40601 -0.0117188 8.00001C-0.0117188 6.59401 0.358279 5.214 1.06128 3.997C1.76428 2.78 2.77626 1.77 3.99426 1.068C5.21226 0.367001 6.59326 -0.00199191 7.99826 8.08717e-06C9.40426 0.00200809 10.7843 0.374003 12.0003 1.079C10.7843 1.78 9.77527 2.78801 9.07227 4.00301C8.37027 5.21801 8.00027 6.59701 8.00027 8.00001Z" fill="#999999"/>
<path opacity="0.65" fill-rule="evenodd" clip-rule="evenodd" d="M12 14.9211C10.784 14.2201 9.77399 13.2121 9.07199 11.9971C8.36999 10.7821 8 9.40311 8 8.00011C8 6.59711 8.36999 5.21811 9.07199 4.00311C9.77399 2.78811 10.784 1.7801 12 1.0791C13.216 1.7801 14.226 2.78811 14.928 4.00311C15.63 5.21811 16 6.59711 16 8.00011C16 9.40311 15.63 10.7821 14.928 11.9971C14.226 13.2121 13.216 14.2201 12 14.9211Z" fill="#999999"/>
</g>
<defs>
<clipPath id="clip0_722_35720">
<rect width="24" height="16" fill="white"/>
</clipPath>
</defs>
</svg>
