<svg width="45" height="24" viewBox="0 0 45 24" fill="none" xmlns="http://www.w3.org/2000/svg">
<path d="M3.89523 10.1053C3.39756 10.1053 2.93498 10.0191 2.50749 9.84687C2.08001 9.66822 1.70356 9.42257 1.37816 9.10994C1.05276 8.79092 0.797549 8.42404 0.612517 8.00932C0.433866 7.58821 0.344541 7.13521 0.344541 6.6503C0.344541 6.16539 0.433866 5.71557 0.612517 5.30084C0.797549 4.87974 1.04957 4.51287 1.36859 4.20023C1.68761 3.88121 2.06087 3.63556 2.48835 3.46329C2.92222 3.28464 3.3848 3.19532 3.87609 3.19532C4.43118 3.19532 4.95437 3.30697 5.44566 3.53029C5.93695 3.74722 6.34211 4.05348 6.66113 4.44906L5.6945 5.33913C5.4648 5.05201 5.19364 4.83508 4.881 4.68833C4.56836 4.54158 4.23339 4.4682 3.87609 4.4682C3.57621 4.4682 3.29866 4.52563 3.04345 4.64047C2.78823 4.74894 2.56492 4.90207 2.3735 5.09986C2.18209 5.29127 2.03215 5.52097 1.92369 5.78894C1.8216 6.05054 1.77056 6.33766 1.77056 6.6503C1.77056 6.96293 1.82479 7.25324 1.93326 7.52122C2.04172 7.7892 2.19166 8.02208 2.38308 8.21987C2.58087 8.41128 2.80737 8.56441 3.06259 8.67926C3.32418 8.78773 3.60811 8.84196 3.91437 8.84196C4.23339 8.84196 4.52051 8.78454 4.77572 8.66969C5.03094 8.54846 5.24468 8.38257 5.41695 8.17202C5.5956 7.95509 5.71364 7.71263 5.77106 7.44465H3.78995V6.23876H7.2545V6.65987C7.2545 7.15754 7.16837 7.61692 6.9961 8.03803C6.83021 8.45276 6.59732 8.81644 6.29744 9.12908C5.99757 9.43534 5.64345 9.6746 5.23511 9.84687C4.82676 10.0191 4.38014 10.1053 3.89523 10.1053ZM11.6756 10.1053C11.1779 10.1053 10.7153 10.0191 10.2879 9.84687C9.86037 9.66822 9.48392 9.42257 9.15852 9.10994C8.8395 8.79092 8.58748 8.42404 8.40245 8.00932C8.2238 7.58821 8.13447 7.13521 8.13447 6.6503C8.13447 6.16539 8.2238 5.71557 8.40245 5.30084C8.58748 4.87974 8.8395 4.51287 9.15852 4.20023C9.48392 3.88121 9.86037 3.63556 10.2879 3.46329C10.7153 3.28464 11.1779 3.19532 11.6756 3.19532C12.1733 3.19532 12.6358 3.28464 13.0633 3.46329C13.4972 3.63556 13.8736 3.88121 14.1927 4.20023C14.5181 4.51287 14.7701 4.87974 14.9487 5.30084C15.1274 5.71557 15.2167 6.16539 15.2167 6.6503C15.2167 7.13521 15.1274 7.58821 14.9487 8.00932C14.7701 8.42404 14.5181 8.79092 14.1927 9.10994C13.8736 9.42257 13.4972 9.66822 13.0633 9.84687C12.6358 10.0191 12.1733 10.1053 11.6756 10.1053ZM11.6756 8.83239C11.9818 8.83239 12.2626 8.77816 12.5178 8.66969C12.773 8.55484 12.9963 8.40171 13.1877 8.2103C13.3792 8.01251 13.5291 7.77962 13.6376 7.51165C13.746 7.24367 13.8003 6.95655 13.8003 6.6503C13.8003 6.33766 13.746 6.05054 13.6376 5.78894C13.5291 5.52097 13.3792 5.29127 13.1877 5.09986C12.9963 4.90207 12.773 4.74894 12.5178 4.64047C12.2626 4.52563 11.9818 4.4682 11.6756 4.4682C11.3757 4.4682 11.0982 4.52563 10.8429 4.64047C10.5877 4.74894 10.3644 4.90207 10.173 5.09986C9.98159 5.29127 9.83165 5.52097 9.72319 5.78894C9.61472 6.05054 9.56049 6.33447 9.56049 6.64073C9.56049 6.95336 9.61472 7.24367 9.72319 7.51165C9.83165 7.77962 9.98159 8.01251 10.173 8.2103C10.3644 8.40171 10.5877 8.55484 10.8429 8.66969C11.0982 8.77816 11.3757 8.83239 11.6756 8.83239ZM19.6524 10.1053C19.1548 10.1053 18.6922 10.0191 18.2647 9.84687C17.8372 9.66822 17.4608 9.42257 17.1354 9.10994C16.8164 8.79092 16.5643 8.42404 16.3793 8.00932C16.2007 7.58821 16.1113 7.13521 16.1113 6.6503C16.1113 6.16539 16.2007 5.71557 16.3793 5.30084C16.5643 4.87974 16.8164 4.51287 17.1354 4.20023C17.4608 3.88121 17.8372 3.63556 18.2647 3.46329C18.6922 3.28464 19.1548 3.19532 19.6524 3.19532C20.1501 3.19532 20.6127 3.28464 21.0402 3.46329C21.474 3.63556 21.8505 3.88121 22.1695 4.20023C22.4949 4.51287 22.7469 4.87974 22.9256 5.30084C23.1042 5.71557 23.1936 6.16539 23.1936 6.6503C23.1936 7.13521 23.1042 7.58821 22.9256 8.00932C22.7469 8.42404 22.4949 8.79092 22.1695 9.10994C21.8505 9.42257 21.474 9.66822 21.0402 9.84687C20.6127 10.0191 20.1501 10.1053 19.6524 10.1053ZM19.6524 8.83239C19.9587 8.83239 20.2394 8.77816 20.4947 8.66969C20.7499 8.55484 20.9732 8.40171 21.1646 8.2103C21.356 8.01251 21.5059 7.77962 21.6144 7.51165C21.7229 7.24367 21.7771 6.95655 21.7771 6.6503C21.7771 6.33766 21.7229 6.05054 21.6144 5.78894C21.5059 5.52097 21.356 5.29127 21.1646 5.09986C20.9732 4.90207 20.7499 4.74894 20.4947 4.64047C20.2394 4.52563 19.9587 4.4682 19.6524 4.4682C19.3526 4.4682 19.075 4.52563 18.8198 4.64047C18.5646 4.74894 18.3413 4.90207 18.1499 5.09986C17.9585 5.29127 17.8085 5.52097 17.7 5.78894C17.5916 6.05054 17.5373 6.33447 17.5373 6.64073C17.5373 6.95336 17.5916 7.24367 17.7 7.51165C17.8085 7.77962 17.9585 8.01251 18.1499 8.2103C18.3413 8.40171 18.5646 8.55484 18.8198 8.66969C19.075 8.77816 19.3526 8.83239 19.6524 8.83239ZM27.6389 10.1053C27.1412 10.1053 26.6786 10.0191 26.2511 9.84687C25.8236 9.66822 25.4472 9.42257 25.1218 9.10994C24.7964 8.79092 24.5412 8.42404 24.3562 8.00932C24.1775 7.58821 24.0882 7.13521 24.0882 6.6503C24.0882 6.16539 24.1775 5.71557 24.3562 5.30084C24.5412 4.87974 24.7932 4.51287 25.1122 4.20023C25.4313 3.88121 25.8045 3.63556 26.232 3.46329C26.6659 3.28464 27.1284 3.19532 27.6197 3.19532C28.1748 3.19532 28.698 3.30697 29.1893 3.53029C29.6806 3.74722 30.0857 4.05348 30.4048 4.44906L29.4381 5.33913C29.2084 5.05201 28.9373 4.83508 28.6246 4.68833C28.312 4.54158 27.977 4.4682 27.6197 4.4682C27.3199 4.4682 27.0423 4.52563 26.7871 4.64047C26.5319 4.74894 26.3086 4.90207 26.1171 5.09986C25.9257 5.29127 25.7758 5.52097 25.6673 5.78894C25.5652 6.05054 25.5142 6.33766 25.5142 6.6503C25.5142 6.96293 25.5684 7.25324 25.6769 7.52122C25.7854 7.7892 25.9353 8.02208 26.1267 8.21987C26.3245 8.41128 26.551 8.56441 26.8062 8.67926C27.0678 8.78773 27.3518 8.84196 27.658 8.84196C27.977 8.84196 28.2641 8.78454 28.5194 8.66969C28.7746 8.54846 28.9883 8.38257 29.1606 8.17202C29.3392 7.95509 29.4573 7.71263 29.5147 7.44465H27.5336V6.23876H30.9981V6.65987C30.9981 7.15754 30.912 7.61692 30.7397 8.03803C30.5738 8.45276 30.341 8.81644 30.0411 9.12908C29.7412 9.43534 29.3871 9.6746 28.9788 9.84687C28.5704 10.0191 28.1238 10.1053 27.6389 10.1053ZM32.1365 10V3.30059H33.5243V8.77497H37.1898V10H32.1365ZM38.3376 10V3.30059H43.4866V4.50649H39.7253V6.03778H42.2041V7.20539H39.7253V8.79411H43.5248V10H38.3376Z" fill="white"/>
<path d="M0.602947 20.3846V13.6852H3.87609C4.32909 13.6852 4.72787 13.7746 5.07241 13.9532C5.42333 14.1255 5.6945 14.3679 5.88591 14.6806C6.0837 14.9932 6.1826 15.3537 6.1826 15.7621C6.1826 16.1895 6.06456 16.566 5.82848 16.8914C5.59241 17.2168 5.27658 17.4592 4.881 17.6187L6.36444 20.3846H4.814L3.50283 17.8197H1.99068V20.3846H0.602947ZM1.99068 16.6808H3.75167C4.06431 16.6808 4.31314 16.5979 4.49817 16.432C4.68959 16.2661 4.78529 16.0492 4.78529 15.7812C4.78529 15.5132 4.68959 15.2963 4.49817 15.1304C4.31314 14.9645 4.06431 14.8816 3.75167 14.8816H1.99068V16.6808ZM7.29002 20.3846V13.6852H12.439V14.8911H8.67775V16.4224H11.1565V17.59H8.67775V19.1788H12.4773V20.3846H7.29002ZM15.7455 20.3846L13.0274 13.6852H14.53L16.5781 18.9586L18.6741 13.6852H20.1097L17.3533 20.3846H15.7455ZM20.8698 20.3846V13.6852H22.2575V20.3846H20.8698ZM23.6688 20.3846V13.6852H28.8178V14.8911H25.0565V16.4224H27.5353V17.59H25.0565V19.1788H28.8561V20.3846H23.6688ZM31.0927 20.3846L29.6092 13.6852H31.0352L31.9444 18.2217L33.246 13.6852H34.5572L35.8588 18.2121L36.768 13.6852H38.1462L36.6723 20.3846H35.208L33.8873 15.7142L32.5474 20.3846H31.0927ZM41.4918 20.4803C40.9494 20.4803 40.4199 20.3815 39.903 20.1837C39.3862 19.9795 38.9268 19.6924 38.5249 19.3223L39.3192 18.327C39.7084 18.6715 40.0817 18.9203 40.439 19.0735C40.8027 19.2266 41.1855 19.3032 41.5875 19.3032C41.8682 19.3032 42.1107 19.2713 42.3148 19.2075C42.519 19.1373 42.6753 19.0384 42.7838 18.9108C42.8986 18.7832 42.9561 18.6332 42.9561 18.461C42.9561 18.2313 42.8731 18.0558 42.7072 17.9346C42.5413 17.807 42.2574 17.7081 41.8554 17.6379L40.5251 17.4082C39.9573 17.3125 39.5234 17.1115 39.2235 16.8052C38.93 16.499 38.7833 16.1034 38.7833 15.6185C38.7833 15.2038 38.8886 14.8433 39.0991 14.537C39.316 14.2308 39.6191 13.9979 40.0083 13.8384C40.4039 13.6725 40.8729 13.5895 41.4152 13.5895C41.9065 13.5895 42.3946 13.6725 42.8795 13.8384C43.3708 14.0043 43.8047 14.2339 44.1811 14.5274L43.4346 15.5611C42.7327 15.0251 42.0277 14.7571 41.3195 14.7571C41.0707 14.7571 40.8537 14.789 40.6687 14.8528C40.4837 14.9167 40.3401 15.006 40.238 15.1208C40.1423 15.2293 40.0945 15.3601 40.0945 15.5132C40.0945 15.7174 40.1678 15.8769 40.3146 15.9917C40.4613 16.1002 40.707 16.1832 41.0515 16.2406L42.3148 16.4511C42.9848 16.5596 43.4856 16.7733 43.8174 17.0924C44.1492 17.405 44.3151 17.8197 44.3151 18.3365C44.3151 18.7704 44.2002 19.15 43.9705 19.4754C43.7408 19.7945 43.4123 20.0433 42.9848 20.2219C42.5637 20.3942 42.066 20.4803 41.4918 20.4803Z" fill="white"/>
</svg>
