<svg width="25" height="20" viewBox="0 0 25 20" fill="none" xmlns="http://www.w3.org/2000/svg">
<path d="M22.4515 14.3842L7.50797 19.7436C6.05826 20.2582 4.46588 19.5004 3.95112 18.0509L0.831213 9.2789C0.316546 7.82918 1.07436 6.2367 2.52398 5.72204L2.61598 5.6889C2.1014 4.27966 3.21874 2.81299 4.23893 2.49728C6.27264 1.86832 7.15788 3.46032 7.15788 3.46032C7.15788 3.46032 7.21436 1.64251 8.47912 0.975086C9.47283 0.4508 11.541 0.741181 12.0804 2.29432L17.4676 0.362134C18.9172 -0.152628 20.5098 0.605276 21.0244 2.05499L24.144 10.8268C24.6591 12.2768 23.9009 13.8697 22.4515 14.3842ZM3.27597 6.63899C2.21274 7.04471 1.66007 8.22185 2.03312 9.30052L5.90597 7.94337C5.31778 7.76956 4.05978 7.33832 3.27597 6.63899ZM5.83036 3.87223C5.21978 3.38728 4.38788 3.56613 3.99026 4.09547C3.60931 4.60242 3.63236 5.4369 4.40636 6.03823C5.47226 6.86632 7.69312 7.00851 7.69312 7.00851C7.69312 7.00851 6.8534 4.68509 5.83036 3.87223ZM6.63836 13.2657L5.52407 12.783L7.35997 8.75747L2.4634 10.4994L4.88721 17.2337C5.27769 18.3334 6.48569 18.908 7.58502 18.5178L11.3658 17.1743L8.53226 9.25442L6.63836 13.2657ZM10.0522 1.92985C9.41083 1.76623 8.64988 2.14851 8.47826 2.9089C8.19045 4.18328 8.99197 6.52004 8.99197 6.52004C8.99197 6.52004 10.6338 5.01785 10.9455 3.70442C11.1714 2.7509 10.6665 2.08594 10.0522 1.92985ZM20.1767 2.87299C19.7861 1.77366 18.5787 1.19851 17.479 1.58909L12.1732 3.47461C12.0347 4.51937 11.4586 5.63928 11.2102 6.08404L20.1989 2.93356L20.1767 2.87299ZM23.0259 10.789L20.5995 4.04794L10.2544 7.72804L14.2519 9.5889L13.8062 10.6659L9.75788 8.88318L12.6586 16.7151L21.7418 13.4872C22.8416 13.0968 23.4164 11.8887 23.0259 10.789Z" fill="white"/>
</svg>
