<svg width="27" height="26" viewBox="0 0 27 26" fill="none" xmlns="http://www.w3.org/2000/svg">
<path d="M4.28219 25.6851C2.36387 25.6851 0.808594 24.1301 0.808594 22.2105V3.58964C0.808594 1.67112 2.36367 0.115234 4.28219 0.115234H22.9041C24.8226 0.115234 26.3777 1.67092 26.3777 3.58964V22.2105C26.3777 24.1299 24.8228 25.6851 22.9041 25.6851H4.28219ZM13.5694 7.87141C10.7794 7.87141 8.51745 10.134 8.51745 12.9233C8.51745 15.7142 10.78 17.9757 13.5694 17.9757C16.3602 17.9757 18.6221 15.7138 18.6221 12.9233C18.6221 10.134 16.3604 7.87141 13.5694 7.87141ZM23.4168 3.73425C23.4168 3.34532 23.1007 3.02962 22.712 3.02962H19.0925C18.7028 3.02962 18.3871 3.34553 18.3871 3.73425V7.35407C18.3871 7.74299 18.7032 8.0587 19.0925 8.0587H22.712C23.1011 8.0587 23.4168 7.74278 23.4168 7.35407V3.73425ZM23.4168 22.1131V11.5843C23.4168 11.1953 23.1007 10.8794 22.712 10.8794H21.0752C21.2525 11.5315 21.349 12.2159 21.349 12.9238C21.349 17.2197 17.8661 20.7032 13.5696 20.7032C9.27345 20.7032 5.79055 17.2195 5.79055 12.9238C5.79055 12.2159 5.88722 11.5313 6.06439 10.8794H4.38028C3.99156 10.8794 3.67565 11.1955 3.67565 11.5843V22.1131C3.67565 22.503 3.99176 22.8185 4.38028 22.8185H22.7122C23.1011 22.8185 23.4168 22.5026 23.4168 22.1131Z" fill="white"/>
</svg>
