<svg width="20" height="21" viewBox="0 0 20 21" fill="none" xmlns="http://www.w3.org/2000/svg">
<path d="M10.0487 20.0473C4.65961 20.0473 0.291016 15.6787 0.291016 10.29C0.291016 4.90101 4.65961 0.532715 10.0487 0.532715C15.4372 0.532715 19.806 4.90101 19.806 10.29C19.8061 15.6788 15.4373 20.0473 10.0487 20.0473ZM7.09254 18.3533C6.52026 17.4731 6.03976 16.4897 5.66912 15.4287H3.17161C4.15943 16.7489 5.51718 17.7755 7.09254 18.3533ZM2.43414 14.2572H5.31544C5.0407 13.1968 4.86999 12.0749 4.824 10.9098H1.48579C1.57145 12.111 1.90494 13.2433 2.43414 14.2572ZM2.45252 6.2905C1.90303 7.33173 1.5606 8.49879 1.48167 9.73846H4.81867C4.85643 8.53735 5.02604 7.38114 5.30671 6.2905H2.45252ZM3.19632 5.11902H5.65978C6.02068 4.08039 6.48592 3.11507 7.03982 2.24746C5.50001 2.82386 4.17047 3.82965 3.19632 5.11902ZM9.42928 1.7288C9.42887 1.7292 9.42817 1.7292 9.42777 1.7292C8.31955 2.44518 7.43808 3.57248 6.85234 5.11912H9.42928V1.7288ZM9.42928 6.2905H6.48622C6.23206 7.2989 6.08163 8.44688 6.0502 9.73846H9.42928V6.2905ZM9.42928 10.9098H6.05542C6.09579 12.0836 6.24662 13.2086 6.51986 14.2572H9.42928V10.9098ZM9.42928 15.4287H6.88859C7.05398 15.8701 7.24488 16.2944 7.46279 16.6984C7.97592 17.6499 8.62041 18.3431 9.35888 18.8463C9.38248 18.8483 9.40618 18.8488 9.42928 18.8506V15.4287ZM16.9247 15.4287H14.3947C14.0222 16.4958 13.5384 17.484 12.9616 18.368C14.5547 17.7935 15.9283 16.7601 16.9247 15.4287ZM10.6008 18.8547C10.6341 18.8527 10.6674 18.8512 10.7004 18.8486C11.4408 18.3455 12.0868 17.6516 12.6011 16.6982C12.819 16.2945 13.0093 15.87 13.175 15.4285H10.6008V18.8547ZM10.6008 14.2572H13.5439C13.8169 13.2086 13.9681 12.0836 14.0081 10.9098H10.6008V14.2572ZM10.6008 9.73846H14.0135C13.9818 8.44688 13.8315 7.29849 13.577 6.2905H10.6005L10.6008 9.73846ZM10.6315 1.72609C10.6211 1.72538 10.6109 1.72498 10.6006 1.72418V5.11902H13.2112C12.6249 3.57027 11.7416 2.44217 10.6315 1.72609ZM13.0123 2.22988C13.5713 3.10202 14.0406 4.07316 14.4035 5.11902H16.9019C15.9182 3.81649 14.5715 2.80327 13.0123 2.22988ZM17.6452 6.2905H14.7565C15.0371 7.38114 15.2065 8.53735 15.2443 9.73846H18.615C18.5367 8.4992 18.1943 7.33183 17.6452 6.2905ZM18.6112 10.9098H15.2397C15.1933 12.0749 15.023 13.1968 14.7482 14.2572H17.6626C18.1921 13.2433 18.5255 12.111 18.6112 10.9098Z" fill="white"/>
</svg>
