<svg width="20" height="21" viewBox="0 0 20 21" fill="none" xmlns="http://www.w3.org/2000/svg">
<path d="M13.75 10.5C13.75 12.5703 12.0703 14.25 10 14.25C7.89062 14.25 6.25 12.5703 6.25 10.5C6.25 8.42969 7.89062 6.75 10 6.75C12.0703 6.75 13.75 8.42969 13.75 10.5ZM10 8C8.59375 8 7.5 9.13281 7.5 10.5C7.5 11.9062 8.59375 13 10 13C11.3672 13 12.5 11.9062 12.5 10.5C12.5 9.13281 11.3672 8 10 8ZM10 0.5C10.3125 0.5 10.625 0.8125 10.625 1.125V3.03906C14.2578 3.35156 17.1484 6.24219 17.4609 9.875H19.375C19.6875 9.875 20 10.1875 20 10.5C20 10.8516 19.6875 11.125 19.375 11.125H17.4609C17.1484 14.7969 14.2578 17.6875 10.625 18V19.875C10.625 20.2266 10.3125 20.5 10 20.5C9.64844 20.5 9.375 20.2266 9.375 19.875V18C5.70312 17.6875 2.8125 14.7969 2.5 11.125H0.625C0.273438 11.125 0 10.8516 0 10.5C0 10.1875 0.273438 9.875 0.625 9.875H2.5C2.8125 6.24219 5.70312 3.35156 9.375 3.03906V1.125C9.375 0.8125 9.64844 0.5 10 0.5ZM3.75 10.5C3.75 13.9766 6.52344 16.75 10 16.75C13.4375 16.75 16.25 13.9766 16.25 10.5C16.25 7.0625 13.4375 4.25 10 4.25C6.52344 4.25 3.75 7.0625 3.75 10.5Z" fill="white"/>
</svg>
