<svg width="11" height="14" viewBox="0 0 11 14" fill="none" xmlns="http://www.w3.org/2000/svg">
<path fill-rule="evenodd" clip-rule="evenodd" d="M10.0898 5.05371C10.0898 6.3637 9.58606 7.55602 8.76168 8.44751L4.97395 12.8777C4.67457 13.2369 4.08984 13.0252 4.08984 12.5576V9.95369C1.8076 9.49042 0.0898438 7.47267 0.0898438 5.05371C0.0898438 2.29229 2.32842 0.0537109 5.08984 0.0537109C7.85126 0.0537109 10.0898 2.29229 10.0898 5.05371ZM5.08984 2.05371C6.74669 2.05371 8.08984 3.39686 8.08984 5.05371C8.08984 6.71057 6.74669 8.05371 5.08984 8.05371C3.43299 8.05371 2.08984 6.71057 2.08984 5.05371C2.08984 3.39686 3.43299 2.05371 5.08984 2.05371Z" fill="#888888"/>
</svg>
