<svg width="22" height="24" viewBox="0 0 22 24" fill="none" xmlns="http://www.w3.org/2000/svg">
<path d="M21.5742 23.2964C21.5742 23.2964 21.5737 23.5259 21.4387 23.616C21.2649 23.7319 20.946 23.7149 20.946 23.7149H4.5282H4.34889H1.14905C1.14905 23.7149 0.772487 23.7564 0.625593 23.6101C0.459321 23.4438 0.520925 23.0868 0.520925 23.0868V20.6346C0.520925 20.6346 0.451306 19.6697 0.815071 18.5394C1.06173 17.774 1.56904 16.9323 2.27767 16.2639C2.92362 15.6538 3.81802 15.102 4.68526 14.7617C6.13996 14.1914 7.51895 14.0556 7.51895 14.0556C7.51895 14.0556 7.99826 13.9092 8.1204 13.7136C8.36825 13.315 8.35629 12.7099 8.35629 12.7099C8.35629 12.7099 6.23578 11.2586 5.65981 8.98789C4.11192 2.8887 7.27026 1.14009 6.9474 1.41761C7.36129 1.06138 7.95376 0.742589 8.51634 0.614715C10.1758 0.23839 12.3034 1.34583 12.3034 1.34583C12.3034 1.34583 13.2982 1.69536 14.1168 1.53005C14.7556 1.40074 15.2645 0.747972 15.2645 0.747972C15.2645 0.747972 15.4067 0.475119 15.5694 0.368537C15.7853 0.227505 16.2966 0.149632 16.519 0.41495C16.6811 0.608017 16.6698 0.986974 16.6698 0.986974V2.57194C16.6698 2.57194 16.7188 3.48955 16.7206 4.75489C16.7231 6.19631 16.6845 8.08942 16.2555 9.59233C15.6349 11.7689 13.7989 12.7398 13.7989 12.7398C13.7989 12.7398 13.632 13.435 13.9536 13.75C14.1792 13.9713 14.6581 14.0064 15.2321 14.1263C15.8669 14.2587 16.6177 14.474 17.2705 14.7152C17.8977 14.947 19.7786 15.837 20.7642 17.3373C21.8444 18.9816 21.5742 20.4653 21.5742 21.5016C21.5742 22.4141 21.5742 23.2964 21.5742 23.2964ZM15.3541 2.3327C15.3541 2.3327 14.5757 3.0686 13.5327 2.98272C12.6674 2.91142 11.8036 2.49467 11.0693 2.21595C10.708 2.07875 9.33251 1.46785 8.09707 2.21942C7.24215 2.73941 6.89907 3.75499 6.7663 4.64281C6.92778 4.51254 7.14657 4.3562 7.37397 4.25165C7.83319 4.04064 8.32626 4.03765 8.32626 4.03765H13.3801C13.3801 4.03765 14.0239 3.94398 14.6517 4.17366C14.903 4.26576 15.1501 4.41457 15.3538 4.55572L15.3541 2.3327ZM14.9337 9.28216C15.3538 8.23572 15.3542 7.11751 15.3542 7.11751V6.64441C15.2779 6.49955 15.1842 6.33735 15.0786 6.18567C14.8525 5.86102 14.5499 5.61029 14.4067 5.54271C13.9391 5.32081 13.3206 5.32333 13.3206 5.32333H8.6551C8.6551 5.32333 7.84276 5.30957 7.45794 5.63278C7.14322 5.89714 6.89178 6.26725 6.71378 6.58281C6.74716 7.15136 6.80099 7.59587 6.80099 7.59587C6.80099 7.59587 7.16439 9.79042 8.19612 10.9225C10.3245 13.2579 12.3804 11.9876 12.546 11.9097C13.2622 11.5718 14.2957 10.8713 14.9337 9.28216ZM8.45533 15.0205C8.66622 16.2882 9.76529 17.2557 11.0926 17.2557C12.4097 17.2557 13.5025 16.3034 13.725 15.0501C13.5337 14.9678 13.3496 14.8719 13.1854 14.7536C12.6454 14.3657 12.5131 13.3679 12.5131 13.3679C12.5131 13.3679 11.8025 13.6372 11.1072 13.6372C10.3828 13.6372 9.67211 13.3679 9.67211 13.3679C9.67211 13.3679 9.50404 14.3697 8.77017 14.8727C8.69386 14.9251 8.58644 14.9732 8.45533 15.0205ZM20.2585 19.9769C20.2585 19.9769 20.2487 19.0791 19.8376 18.3032C19.3002 17.2898 18.1251 16.5268 17.273 16.1376C16.5097 15.7895 15.5516 15.5657 14.9623 15.43C14.5726 17.2093 12.9886 18.5411 11.0926 18.5411C9.17138 18.5411 7.5699 17.1735 7.20746 15.3587C6.79764 15.4616 6.34703 15.58 5.89426 15.7314C5.01685 16.0248 4.13357 16.5018 3.53296 16.9633C3.21071 17.2112 2.88773 17.5612 2.64885 17.8988C2.02778 18.7758 1.91941 19.1293 1.87933 20.0644C1.83567 21.0897 1.89668 22.4592 1.89668 22.4592H4.3788V20.4162C4.3788 20.025 4.69579 19.7078 5.08719 19.7078C5.47858 19.7078 5.79618 20.0251 5.79618 20.4162V22.4592H16.2509V20.4162C16.2509 20.025 16.5683 19.7078 16.9594 19.7078C17.3508 19.7078 17.6682 20.0251 17.6682 20.4162V22.4592H20.2581L20.2585 19.9769Z" fill="white"/>
</svg>
