<svg width="62" height="25" viewBox="0 0 62 25" fill="none" xmlns="http://www.w3.org/2000/svg">
<path d="M14.9453 11.8104C15.7162 11.6328 16.4217 11.242 16.9811 10.6826C17.5405 10.1232 17.9313 9.41777 18.1089 8.64684H18.6863V11.9159H20.5633V5.38044C20.5633 4.76607 20.4421 4.15774 20.2067 3.59027C19.9713 3.0228 19.6262 2.50734 19.1913 2.07341C18.7564 1.63948 18.2402 1.29559 17.6722 1.06144C17.1042 0.827298 16.4956 0.707487 15.8812 0.708874H10.2817V2.57803H15.8812C16.6242 2.57873 17.3366 2.8742 17.862 3.39961C18.3874 3.92501 18.6829 4.63741 18.6836 5.38044V6.77242H18.1063C17.9377 6.04152 17.5765 5.36912 17.0601 4.82508C16.5437 4.28104 15.8911 3.88523 15.1699 3.67877C14.4488 3.47232 13.6856 3.46277 12.9595 3.6511C12.2335 3.83944 11.5711 4.21879 11.0413 4.74973C10.5115 5.28067 10.1335 5.94382 9.9467 6.67027C9.75989 7.39671 9.77105 8.15993 9.97901 8.8806C10.187 9.60127 10.5842 10.2531 11.1293 10.7683C11.6744 11.2836 12.3476 11.6434 13.0788 11.8104V13.7877H4.6742C4.06072 13.7873 3.45318 13.9078 2.88627 14.1423C2.31936 14.3767 1.80417 14.7205 1.37013 15.1541C0.936094 15.5876 0.591698 16.1024 0.35661 16.6691C0.121522 17.2357 0.000346109 17.8431 0 18.4566L0 20.3258H9.34049C9.33701 21.067 9.0403 21.7766 8.5152 22.2998C7.9901 22.8229 7.27929 23.1169 6.53808 23.1176H0V24.9868H6.53808C7.7748 24.9854 8.96063 24.4942 9.83612 23.6207C10.7116 22.7472 11.2055 21.5625 11.2096 20.3258V18.4566H1.87179C1.87249 17.7136 2.16796 17.0012 2.69337 16.4758C3.21877 15.9504 3.93117 15.6549 4.6742 15.6542H13.0788V20.3258C13.0795 21.5641 13.5715 22.7515 14.4469 23.6273C15.3223 24.5032 16.5094 24.9959 17.7477 24.9973H20.5633V23.1176H17.7477C17.0065 23.1169 16.2957 22.8229 15.7706 22.2998C15.2455 21.7766 14.9488 21.067 14.9453 20.3258V15.6542H20.5633V13.7877H14.9453V11.8104ZM11.6763 7.71622C11.6758 7.25413 11.8123 6.80228 12.0686 6.41781C12.325 6.03335 12.6896 5.73355 13.1164 5.55636C13.5431 5.37917 14.0129 5.33253 14.4661 5.42236C14.9194 5.51219 15.3358 5.73444 15.6628 6.061C15.9897 6.38756 16.2124 6.80376 16.3028 7.25692C16.3931 7.71009 16.347 8.17988 16.1703 8.60684C15.9936 9.0338 15.6942 9.39876 15.31 9.65553C14.9258 9.91231 14.4741 10.0494 14.0121 10.0494C13.3932 10.0487 12.7999 9.80272 12.3621 9.36539C11.9243 8.92807 11.6777 8.33504 11.6763 7.71622Z" fill="white"/>
<path d="M4.67156 11.9185H8.59441V10.0494H4.67156C3.92853 10.0487 3.21613 9.75318 2.69073 9.22777C2.16533 8.70237 1.86985 7.98997 1.86915 7.24694H3.92285C5.16115 7.24624 6.34858 6.7542 7.22444 5.87883C8.1003 5.00347 8.59301 3.81632 8.59441 2.57801V0.708862H4.67156C3.43302 0.710258 2.2456 1.20289 1.36981 2.07867C0.494025 2.95446 0.00139555 4.14188 0 5.38043L0 7.24694C0.00139555 8.48549 0.494025 9.67291 1.36981 10.5487C2.2456 11.4245 3.43302 11.9171 4.67156 11.9185ZM4.67156 2.57801H6.72526C6.72456 3.32105 6.42908 4.03344 5.90368 4.55885C5.37828 5.08425 4.66588 5.37973 3.92285 5.38043H1.86915C1.86985 4.63739 2.16533 3.925 2.69073 3.39959C3.21613 2.87419 3.92853 2.57871 4.67156 2.57801Z" fill="white"/>
<path d="M43.9053 0.708863C41.5029 0.708341 39.1543 1.42029 37.1566 2.75466C35.1589 4.08902 33.6018 5.98587 32.6822 8.20529C31.7626 10.4247 31.5218 12.867 31.9904 15.2232C32.4589 17.5795 33.6157 19.7439 35.3145 21.4426C37.0132 23.1413 39.1776 24.2981 41.5338 24.7667C43.8901 25.2352 46.3324 24.9945 48.5518 24.0749C50.7712 23.1553 52.6681 21.5982 54.0024 19.6005C55.3368 17.6027 56.0487 15.2542 56.0482 12.8518C56.044 9.63255 54.7633 6.54639 52.487 4.27006C50.2107 1.99373 47.1245 0.713048 43.9053 0.708863ZM43.9053 23.1176C41.8718 23.1176 39.8839 22.5146 38.1931 21.3848C36.5023 20.2551 35.1845 18.6493 34.4063 16.7706C33.6281 14.8918 33.4245 12.8245 33.8212 10.8301C34.2179 8.83565 35.1972 7.00363 36.6351 5.56572C38.073 4.1278 39.905 3.14857 41.8995 2.75185C43.8939 2.35513 45.9612 2.55874 47.8399 3.33693C49.7187 4.11513 51.3244 5.43295 52.4542 7.12376C53.584 8.81457 54.187 10.8024 54.187 12.8359C54.187 15.5628 53.1037 18.178 51.1755 20.1062C49.2474 22.0344 46.6322 23.1176 43.9053 23.1176Z" fill="white"/>
<path d="M27.0908 0.708862C26.8431 0.708861 26.6054 0.807102 26.43 0.982047C26.2546 1.15699 26.1557 1.39436 26.155 1.64212V24.9973H28.0241V1.64212C28.0234 1.39482 27.9249 1.15785 27.75 0.982976C27.5751 0.808106 27.3381 0.709558 27.0908 0.708862Z" fill="white"/>
<path d="M60.7198 0.708862C60.472 0.708861 60.2344 0.807102 60.0589 0.982047C59.8835 1.15699 59.7846 1.39436 59.7839 1.64212V24.9973H61.653V1.64212C61.6523 1.39482 61.5538 1.15785 61.3789 0.982976C61.204 0.808106 60.9671 0.709558 60.7198 0.708862Z" fill="white"/>
</svg>
