<svg width="35" height="28" viewBox="0 0 35 28" fill="none" xmlns="http://www.w3.org/2000/svg">
<path d="M10.8321 26.9683V25.2027C10.8424 25.0546 10.821 24.906 10.7694 24.7668C10.7177 24.6276 10.637 24.5011 10.5326 24.3955C10.4282 24.29 10.3024 24.2079 10.1638 24.1548C10.0252 24.1017 9.87683 24.0787 9.72863 24.0874C9.53414 24.0747 9.33978 24.1144 9.16587 24.2024C8.99195 24.2904 8.84485 24.4234 8.73991 24.5877C8.64425 24.4284 8.50737 24.2978 8.34372 24.2098C8.18006 24.1217 7.99569 24.0795 7.81003 24.0874C7.64819 24.0792 7.48702 24.1135 7.3425 24.1868C7.19797 24.2601 7.07511 24.3699 6.98609 24.5053V24.1581H6.37402V26.9683H6.99198V25.4116C6.97829 25.3153 6.98617 25.2172 7.01506 25.1243C7.04395 25.0314 7.09313 24.9462 7.15903 24.8746C7.22493 24.8031 7.30591 24.7471 7.39611 24.7107C7.4863 24.6743 7.58346 24.6584 7.68056 24.6642C8.08664 24.6642 8.29262 24.929 8.29262 25.4057V26.9683H8.91058V25.4116C8.89797 25.3155 8.90662 25.2178 8.93591 25.1254C8.9652 25.033 9.01442 24.9482 9.0801 24.8769C9.14577 24.8056 9.2263 24.7496 9.31599 24.7129C9.40568 24.6761 9.50234 24.6595 9.59915 24.6642C10.017 24.6642 10.2171 24.929 10.2171 25.4057V26.9683H10.8321ZM14.275 25.5646V24.161H13.6571V24.5023C13.5533 24.3684 13.419 24.2612 13.2655 24.1895C13.112 24.1179 12.9436 24.0839 12.7743 24.0904C12.384 24.0904 12.0098 24.2454 11.7339 24.5213C11.458 24.7972 11.3029 25.1715 11.3029 25.5617C11.3029 25.9519 11.458 26.3261 11.7339 26.6021C12.0098 26.878 12.384 27.033 12.7743 27.033C12.9436 27.0395 13.112 27.0055 13.2655 26.9339C13.419 26.8622 13.5533 26.755 13.6571 26.621V26.9624H14.2691L14.275 25.5646ZM12.0003 25.5646C12.0101 25.399 12.0681 25.2399 12.1671 25.1069C12.2662 24.9738 12.402 24.8726 12.5578 24.8158C12.7136 24.7589 12.8827 24.7489 13.0442 24.7869C13.2056 24.8249 13.3525 24.9093 13.4666 25.0297C13.5807 25.1501 13.6571 25.3012 13.6864 25.4645C13.7157 25.6278 13.6966 25.796 13.6314 25.9486C13.5663 26.1012 13.458 26.2313 13.3198 26.3231C13.1816 26.4149 13.0196 26.4642 12.8537 26.4651C12.7366 26.4678 12.6202 26.4461 12.5119 26.4013C12.4037 26.3564 12.306 26.2895 12.2251 26.2047C12.1442 26.12 12.0819 26.0192 12.0422 25.909C12.0025 25.7988 11.9862 25.6815 11.9945 25.5646H12.0003ZM27.3521 24.0933C27.5536 24.0928 27.7534 24.1307 27.9406 24.2051C28.1194 24.2767 28.2823 24.3827 28.4203 24.5171C28.5564 24.6502 28.6645 24.8093 28.7381 24.9849C28.8918 25.3622 28.8918 25.7847 28.7381 26.162C28.6646 26.3377 28.5565 26.4968 28.4203 26.6299C28.2823 26.7642 28.1194 26.8702 27.9406 26.9418C27.5526 27.0926 27.1222 27.0926 26.7341 26.9418C26.5562 26.8703 26.3942 26.7643 26.2574 26.6299C26.1226 26.4963 26.0156 26.3372 25.9426 26.162C25.7891 25.7846 25.7891 25.3623 25.9426 24.9849C26.0156 24.8097 26.1226 24.6507 26.2574 24.5171C26.3942 24.3827 26.5562 24.2766 26.7341 24.2051C26.9281 24.1247 27.1362 24.0837 27.3462 24.0845L27.3521 24.0933ZM27.3521 24.6818C27.2323 24.6802 27.1133 24.7022 27.0019 24.7466C26.8971 24.7886 26.8019 24.8517 26.7224 24.932C26.6412 25.0164 26.5781 25.1166 26.537 25.2262C26.4471 25.4612 26.4471 25.7211 26.537 25.956C26.5781 26.0657 26.6412 26.1658 26.7224 26.2503C26.8019 26.3306 26.897 26.3937 27.0019 26.4357C27.2261 26.5234 27.4751 26.5234 27.6993 26.4357C27.8093 26.395 27.9095 26.3319 27.9936 26.2503C28.0749 26.166 28.138 26.0658 28.179 25.956C28.2689 25.7211 28.2689 25.4612 28.179 25.2262C28.138 25.1165 28.0749 25.0163 27.9936 24.932C27.9095 24.8504 27.8093 24.7872 27.6993 24.7466C27.5883 24.6958 27.4682 24.6677 27.3462 24.6642L27.3521 24.6818ZM17.6002 25.5646C17.6002 24.6818 17.0529 24.0933 16.2672 24.0933C15.877 24.0988 15.5049 24.259 15.2328 24.5388C14.9608 24.8186 14.811 25.195 14.8165 25.5852C14.8219 25.9755 14.9822 26.3475 15.262 26.6196C15.5417 26.8916 15.9181 27.0414 16.3084 27.036C16.7273 27.0503 17.1369 26.9099 17.4589 26.6416L17.1647 26.1885C16.9323 26.3748 16.6444 26.4784 16.3466 26.4827C16.1443 26.5001 15.9432 26.4379 15.786 26.3093C15.6288 26.1807 15.528 25.9959 15.505 25.7942H17.5914C17.6002 25.7206 17.6002 25.647 17.6002 25.5646ZM15.508 25.3175C15.5193 25.1306 15.6026 24.9555 15.7403 24.8288C15.878 24.702 16.0595 24.6336 16.2466 24.6377C16.3382 24.6358 16.4292 24.6519 16.5146 24.6851C16.6 24.7184 16.6779 24.7681 16.7441 24.8315C16.8102 24.8949 16.8632 24.9707 16.9 25.0546C16.9368 25.1385 16.9568 25.2288 16.9587 25.3204L15.508 25.3175ZM20.175 24.8761C19.9063 24.7213 19.6023 24.6382 19.2922 24.6348C18.9567 24.6348 18.7566 24.7583 18.7566 24.9643C18.7566 25.1703 18.9685 25.2056 19.2334 25.2409L19.5276 25.2821C20.1397 25.3704 20.5105 25.6294 20.5105 26.1237C20.5105 26.6181 20.0396 27.0418 19.2304 27.0418C18.7967 27.0534 18.3707 26.9255 18.0151 26.6769L18.3094 26.2002C18.5794 26.4006 18.909 26.5042 19.2451 26.4945C19.663 26.4945 19.8866 26.3709 19.8866 26.1532C19.8866 25.9943 19.7277 25.906 19.3923 25.8589L19.098 25.8177C18.4683 25.7294 18.1269 25.4469 18.1269 24.9879C18.1269 24.4288 18.586 24.0874 19.304 24.0874C19.7058 24.074 20.1031 24.1761 20.4487 24.3817L20.175 24.8761ZM23.1176 24.7172H22.1201V25.9854C22.1201 26.2797 22.2201 26.4563 22.5262 26.4563C22.7172 26.4499 22.9035 26.3953 23.0676 26.2974L23.2442 26.8211C23.0147 26.9643 22.7495 27.0398 22.4791 27.0389C21.7552 27.0389 21.5021 26.6505 21.5021 25.9972V24.7172H20.9313V24.1581H21.5021V23.3047H22.1201V24.1581H23.1176V24.7172ZM25.2334 24.0874C25.3819 24.088 25.5291 24.1139 25.6689 24.1639L25.4806 24.7525C25.359 24.704 25.229 24.68 25.098 24.6818C24.6978 24.6818 24.5095 24.9408 24.5095 25.4057V26.98H23.8974V24.1698H24.5036V24.5112C24.5787 24.3821 24.6873 24.2758 24.8178 24.2033C24.9483 24.1308 25.0959 24.0948 25.2452 24.0992L25.2334 24.0874ZM29.4649 26.5592C29.5032 26.5588 29.5412 26.5658 29.5767 26.5798C29.6105 26.5936 29.6415 26.6136 29.668 26.6387C29.6938 26.6641 29.7148 26.694 29.7297 26.727C29.7447 26.7613 29.7523 26.7984 29.7523 26.8359C29.7523 26.8733 29.7447 26.9104 29.7297 26.9447C29.7148 26.9777 29.6938 27.0076 29.668 27.033C29.6415 27.0581 29.6105 27.0781 29.5767 27.0919C29.5415 27.1074 29.5034 27.1154 29.4649 27.1154C29.4091 27.115 29.3546 27.0987 29.3077 27.0685C29.2608 27.0383 29.2235 26.9954 29.2001 26.9447C29.1853 26.9103 29.1777 26.8733 29.1777 26.8359C29.1777 26.7984 29.1853 26.7614 29.2001 26.727C29.2151 26.694 29.236 26.6641 29.2619 26.6387C29.2884 26.6136 29.3193 26.5936 29.3531 26.5798C29.3841 26.5675 29.4169 26.5606 29.4502 26.5592H29.4649ZM29.4649 27.0566C29.4943 27.0567 29.5234 27.0507 29.5502 27.0389C29.5756 27.0276 29.5985 27.0116 29.6179 26.9918C29.6429 26.9667 29.6613 26.9358 29.6717 26.902C29.682 26.8681 29.6839 26.8322 29.6773 26.7974C29.6706 26.7626 29.6555 26.73 29.6334 26.7023C29.6113 26.6747 29.5827 26.6528 29.5502 26.6387C29.5233 26.627 29.4943 26.6209 29.4649 26.621C29.4356 26.6212 29.4066 26.6272 29.3796 26.6387C29.3531 26.6495 29.3291 26.6655 29.309 26.6858C29.2721 26.7259 29.2517 26.7784 29.2517 26.8329C29.2517 26.8874 29.2721 26.9399 29.309 26.98C29.3293 27.0007 29.3536 27.017 29.3804 27.0281C29.4072 27.0393 29.4359 27.0449 29.4649 27.0448V27.0566ZM29.4826 26.7064C29.51 26.705 29.5371 26.7134 29.5591 26.7299C29.5681 26.7374 29.5752 26.7469 29.5798 26.7576C29.5844 26.7684 29.5864 26.7801 29.5856 26.7917C29.586 26.8015 29.5844 26.8112 29.5808 26.8204C29.5773 26.8295 29.5719 26.8378 29.565 26.8447C29.5479 26.8602 29.5262 26.8695 29.5032 26.8712L29.5885 26.9683H29.5208L29.4414 26.8712H29.4149V26.9683H29.359V26.6976L29.4826 26.7064ZM29.4178 26.7564V26.827H29.4826C29.4941 26.8305 29.5064 26.8305 29.5179 26.827C29.5199 26.8229 29.521 26.8184 29.521 26.8138C29.521 26.8092 29.5199 26.8047 29.5179 26.8005C29.5199 26.7964 29.521 26.7919 29.521 26.7873C29.521 26.7827 29.5199 26.7782 29.5179 26.7741C29.5064 26.7706 29.4941 26.7706 29.4826 26.7741L29.4178 26.7564Z" fill="#221D1E"/>
<path d="M22.2351 2.71826H12.9658V19.3765H22.2351V2.71826Z" fill="#113984"/>
<path fill-rule="evenodd" clip-rule="evenodd" d="M13.5541 11.0491C13.5524 9.44454 13.9158 7.86064 14.6168 6.41733C15.3178 4.97402 16.3381 3.70914 17.6003 2.71847C16.0375 1.49028 14.1606 0.726534 12.1843 0.514535C10.208 0.302536 8.2119 0.650827 6.42416 1.51961C4.63641 2.38839 3.12916 3.74262 2.07466 5.4275C1.02015 7.11238 0.460938 9.05995 0.460938 11.0476C0.460938 13.0353 1.02015 14.9828 2.07466 16.6677C3.12916 18.3526 4.63641 19.7068 6.42416 20.5756C8.2119 21.4444 10.208 21.7927 12.1843 21.5807C14.1606 21.3687 16.0375 20.6049 17.6003 19.3767C16.3385 18.3864 15.3185 17.122 14.6175 15.6792C13.9165 14.2364 13.5529 12.6531 13.5541 11.0491Z" fill="#172C70"/>
<path d="M33.7285 17.6107V17.2811H33.8668V17.2105H33.5166V17.2811H33.6549V17.6225L33.7285 17.6107ZM34.4082 17.6107V17.1987H34.3023L34.1787 17.493L34.0551 17.1987H33.9462V17.6107H34.0227V17.3017L34.1375 17.5695H34.217L34.3317 17.3017V17.6136L34.4082 17.6107Z" fill="#F7786B"/>
<path d="M34.7385 11.0488C34.738 13.0361 34.1786 14.9832 33.124 16.6676C32.0695 18.3521 30.5624 19.7059 28.7749 20.5745C26.9875 21.443 24.9918 21.7913 23.0158 21.5794C21.0398 21.3676 19.1633 20.6042 17.6006 19.3765C18.8619 18.3853 19.8816 17.1205 20.5828 15.6777C21.2839 14.2348 21.6483 12.6516 21.6483 11.0474C21.6483 9.44317 21.2839 7.85992 20.5828 6.41708C19.8816 4.97423 18.8619 3.70948 17.6006 2.71823C19.1633 1.48965 21.0401 0.725538 23.0165 0.513235C24.993 0.300931 26.9893 0.649004 28.7772 1.51766C30.5652 2.38632 32.0727 3.74051 33.1274 5.42545C34.1821 7.11039 34.7414 9.05809 34.7415 11.0459L34.7385 11.0488Z" fill="#F7786B"/>
</svg>
