<svg width="35" height="28" viewBox="0 0 35 28" fill="none" xmlns="http://www.w3.org/2000/svg">
<path fill-rule="evenodd" clip-rule="evenodd" d="M6.30094 27.0038V25.2386C6.31123 25.0902 6.28976 24.9412 6.23797 24.8017C6.18618 24.6622 6.10526 24.5353 6.00059 24.4296C5.89592 24.3238 5.76991 24.2415 5.63096 24.1882C5.492 24.135 5.34329 24.1119 5.19474 24.1207C5.00028 24.1079 4.80597 24.1476 4.63209 24.2356C4.45821 24.3235 4.31113 24.4566 4.20621 24.6208C4.11058 24.4615 3.97373 24.331 3.81011 24.2429C3.64649 24.1549 3.46216 24.1127 3.27653 24.1207C3.11472 24.1125 2.95359 24.1467 2.8091 24.22C2.6646 24.2933 2.54177 24.403 2.45276 24.5384V24.1913H1.84082V27.0038H2.45865V25.4563C2.44551 25.3602 2.45377 25.2623 2.48286 25.1696C2.51195 25.077 2.56114 24.992 2.62691 24.9206C2.69268 24.8492 2.77342 24.7932 2.86334 24.7567C2.95326 24.7201 3.05015 24.7038 3.14708 24.7091C3.55308 24.7091 3.75902 24.9738 3.75902 25.4505V27.0156H4.37685V25.4563C4.36425 25.3603 4.37289 25.2626 4.40218 25.1702C4.43146 25.0778 4.48068 24.993 4.54634 24.9217C4.612 24.8505 4.69251 24.7945 4.78218 24.7577C4.87185 24.721 4.96849 24.7044 5.06529 24.7091C5.48306 24.7091 5.68311 24.9738 5.68311 25.4505V27.0156L6.30094 27.0038ZM15.4418 24.1913H14.4357V23.3381H13.8178V24.1913H13.2588V24.7502H13.8296V26.0447C13.8296 26.6979 14.0826 27.0862 14.8064 27.0862C15.0767 27.0871 15.3419 27.0117 15.5713 26.8685L15.3948 26.3448C15.2307 26.4427 15.0444 26.4974 14.8534 26.5037C14.5592 26.5037 14.4474 26.3154 14.4474 26.033V24.7502H15.4477L15.4418 24.1913ZM20.661 24.1207C20.5118 24.1163 20.3642 24.1522 20.2337 24.2247C20.1032 24.2972 19.9947 24.4035 19.9196 24.5325V24.1913H19.3135V27.0038H19.9255V25.4269C19.9255 24.9621 20.1255 24.7032 20.5139 24.7032C20.6448 24.7014 20.7747 24.7254 20.8964 24.7738L21.0846 24.1854C20.9449 24.1354 20.7977 24.1095 20.6492 24.1089L20.661 24.1207ZM12.7705 24.4149C12.4241 24.2089 12.0258 24.1068 11.6231 24.1207C10.9111 24.1207 10.4463 24.4619 10.4463 25.0209C10.4463 25.4799 10.7875 25.7623 11.4171 25.8506L11.7113 25.8918C12.0467 25.9388 12.2056 26.0271 12.2056 26.186C12.2056 26.4037 11.982 26.5272 11.5642 26.5272C11.2282 26.537 10.8987 26.4333 10.6287 26.233L10.3345 26.7096C10.6909 26.9585 11.1179 27.0864 11.5525 27.0745C12.3645 27.0745 12.8352 26.692 12.8352 26.1565C12.8352 25.6211 12.4645 25.4034 11.8526 25.3151L11.5583 25.2739C11.2936 25.2386 11.0817 25.1857 11.0817 24.9974C11.0817 24.8091 11.2818 24.6679 11.6172 24.6679C11.9272 24.6715 12.2311 24.7545 12.4998 24.9091L12.7705 24.4149ZM29.1605 24.1207C29.0113 24.1163 28.8637 24.1522 28.7332 24.2247C28.6027 24.2972 28.4942 24.4035 28.4191 24.5325V24.1913H27.8131V27.0038H28.425V25.4269C28.425 24.9621 28.6251 24.7032 29.0134 24.7032C29.1443 24.7014 29.2743 24.7254 29.3959 24.7738L29.5842 24.1854C29.4444 24.1354 29.2972 24.1095 29.1488 24.1089L29.1605 24.1207ZM21.2759 25.5917C21.2686 25.7893 21.3027 25.9863 21.3759 26.17C21.4491 26.3538 21.5599 26.5202 21.7011 26.6587C21.8423 26.7971 22.0109 26.9046 22.1961 26.9741C22.3812 27.0437 22.5788 27.0739 22.7763 27.0627C23.1437 27.0814 23.5048 26.9617 23.7884 26.7273L23.4942 26.233C23.2826 26.3943 23.0247 26.4831 22.7587 26.486C22.5325 26.4677 22.3214 26.365 22.1676 26.1982C22.0137 26.0313 21.9283 25.8127 21.9283 25.5858C21.9283 25.3589 22.0137 25.1402 22.1676 24.9734C22.3214 24.8066 22.5325 24.7038 22.7587 24.6855C23.0247 24.6885 23.2826 24.7772 23.4942 24.9385L23.7884 24.4443C23.5048 24.2099 23.1437 24.0902 22.7763 24.1089C22.5788 24.0977 22.3812 24.1279 22.1961 24.1974C22.0109 24.267 21.8423 24.3744 21.7011 24.5129C21.5599 24.6514 21.4491 24.8178 21.3759 25.0015C21.3027 25.1853 21.2686 25.3823 21.2759 25.5799V25.5917ZM27.007 25.5917V24.1913H26.395V24.5325C26.2911 24.3988 26.1569 24.2917 26.0034 24.2201C25.8499 24.1485 25.6816 24.1144 25.5124 24.1207C25.1223 24.1207 24.7481 24.2756 24.4722 24.5515C24.1964 24.8274 24.0414 25.2015 24.0414 25.5917C24.0414 25.9818 24.1964 26.356 24.4722 26.6318C24.7481 26.9077 25.1223 27.0627 25.5124 27.0627C25.6816 27.0689 25.8499 27.0348 26.0034 26.9632C26.1569 26.8916 26.2911 26.7845 26.395 26.6508V26.9921H27.007V25.5917ZM24.7298 25.5917C24.7396 25.4261 24.7975 25.267 24.8966 25.134C24.9956 25.001 25.1314 24.8998 25.2872 24.843C25.443 24.7861 25.612 24.7761 25.7734 24.8141C25.9349 24.8521 26.0816 24.9365 26.1957 25.0568C26.3098 25.1772 26.3862 25.3283 26.4155 25.4916C26.4448 25.6548 26.4257 25.823 26.3606 25.9756C26.2954 26.1281 26.1871 26.2582 26.049 26.35C25.9108 26.4417 25.7489 26.4911 25.583 26.4919C25.4665 26.4934 25.351 26.4708 25.2437 26.4254C25.1364 26.3801 25.0396 26.313 24.9595 26.2285C24.8793 26.1439 24.8176 26.0437 24.778 25.9341C24.7385 25.8245 24.7221 25.7079 24.7298 25.5917ZM17.3453 24.1207C16.9552 24.1261 16.5832 24.2863 16.3112 24.5661C16.0392 24.8458 15.8894 25.2221 15.8949 25.6123C15.9004 26.0024 16.0606 26.3744 16.3403 26.6464C16.62 26.9184 16.9964 27.0681 17.3865 27.0627C17.8098 27.0844 18.2261 26.9481 18.5545 26.6802L18.2603 26.2271C18.028 26.4135 17.7402 26.517 17.4424 26.5214C17.2401 26.5387 17.039 26.4766 16.8819 26.348C16.7248 26.2194 16.624 26.0346 16.601 25.8329H18.6898C18.6898 25.7564 18.6898 25.6799 18.6898 25.5976C18.6898 24.7149 18.1426 24.1265 17.3541 24.1265L17.3453 24.1207ZM17.3453 24.6679C17.4369 24.6659 17.528 24.682 17.6133 24.7153C17.6986 24.7485 17.7766 24.7983 17.8427 24.8616C17.9088 24.925 17.9618 25.0008 17.9986 25.0847C18.0355 25.1686 18.0554 25.2589 18.0573 25.3504H16.5863C16.5969 25.1616 16.6811 24.9844 16.8208 24.8568C16.9604 24.7292 17.1445 24.6614 17.3336 24.6679H17.3453ZM32.6763 25.5976V23.0615H32.0878V24.5325C31.9839 24.3988 31.8497 24.2917 31.6962 24.2201C31.5428 24.1485 31.3745 24.1144 31.2052 24.1207C30.8151 24.1207 30.4409 24.2756 30.1651 24.5515C29.8892 24.8274 29.7342 25.2015 29.7342 25.5917C29.7342 25.9818 29.8892 26.356 30.1651 26.6318C30.4409 26.9077 30.8151 27.0627 31.2052 27.0627C31.3745 27.0689 31.5428 27.0348 31.6962 26.9632C31.8497 26.8916 31.9839 26.7845 32.0878 26.6508V26.9921H32.6763V25.5976ZM33.6971 26.5949C33.7354 26.5944 33.7734 26.6014 33.8089 26.6155C33.8427 26.6293 33.8736 26.6492 33.9001 26.6743C33.926 26.6997 33.9469 26.7296 33.9619 26.7626C33.9768 26.797 33.9845 26.834 33.9845 26.8715C33.9845 26.9089 33.9768 26.946 33.9619 26.9803C33.9469 27.0133 33.926 27.0432 33.9001 27.0686C33.8736 27.0937 33.8427 27.1136 33.8089 27.1274C33.7737 27.143 33.7356 27.151 33.6971 27.1509C33.6414 27.1505 33.5869 27.1343 33.54 27.1041C33.4931 27.0738 33.4558 27.0309 33.4324 26.9803C33.4176 26.9459 33.41 26.9089 33.41 26.8715C33.41 26.834 33.4176 26.797 33.4324 26.7626C33.4473 26.7296 33.4683 26.6997 33.4941 26.6743C33.5206 26.6492 33.5515 26.6293 33.5853 26.6155C33.6237 26.6003 33.6648 26.5932 33.706 26.5949H33.6971ZM33.6971 27.0921C33.7265 27.0923 33.7556 27.0863 33.7825 27.0745C33.8078 27.0632 33.8307 27.0472 33.8501 27.0274C33.8869 26.9872 33.9073 26.9347 33.9073 26.8803C33.9073 26.8258 33.8869 26.7733 33.8501 26.7332C33.8308 26.7133 33.8078 26.6973 33.7825 26.6861C33.7555 26.6744 33.7265 26.6684 33.6971 26.6685C33.6678 26.6686 33.6388 26.6746 33.6118 26.6861C33.5854 26.6969 33.5614 26.7129 33.5412 26.7332C33.5044 26.7733 33.484 26.8258 33.484 26.8803C33.484 26.9347 33.5044 26.9872 33.5412 27.0274C33.5614 27.0476 33.5854 27.0635 33.6118 27.0745C33.6415 27.0873 33.6737 27.0933 33.706 27.0921H33.6971ZM33.7148 26.742C33.7423 26.7407 33.7693 26.749 33.7913 26.7655C33.8003 26.773 33.8074 26.7825 33.812 26.7932C33.8166 26.804 33.8186 26.8157 33.8178 26.8273C33.8182 26.8371 33.8166 26.8468 33.813 26.856C33.8095 26.8651 33.8041 26.8734 33.7972 26.8803C33.7801 26.8958 33.7584 26.9051 33.7354 26.9068L33.8207 27.0038H33.753L33.6736 26.9068H33.6471V27.0038H33.5912V26.7449L33.7148 26.742ZM33.6501 26.792V26.8626H33.7148C33.7263 26.8661 33.7386 26.8661 33.7501 26.8626C33.7522 26.8585 33.7532 26.854 33.7532 26.8494C33.7532 26.8448 33.7522 26.8403 33.7501 26.8362C33.7522 26.832 33.7532 26.8275 33.7532 26.8229C33.7532 26.8183 33.7522 26.8138 33.7501 26.8097C33.7386 26.8062 33.7263 26.8062 33.7148 26.8097L33.6501 26.792ZM30.4138 25.5976C30.4236 25.432 30.4815 25.2729 30.5806 25.1399C30.6796 25.0068 30.8154 24.9057 30.9712 24.8488C31.127 24.792 31.296 24.782 31.4574 24.82C31.6189 24.858 31.7657 24.9423 31.8797 25.0627C31.9938 25.1831 32.0702 25.3342 32.0995 25.4974C32.1288 25.6607 32.1097 25.8289 32.0446 25.9814C31.9794 26.134 31.8711 26.2641 31.733 26.3559C31.5948 26.4476 31.4329 26.497 31.267 26.4978C31.1505 26.4993 31.035 26.4766 30.9277 26.4313C30.8204 26.386 30.7236 26.3189 30.6435 26.2343C30.5633 26.1498 30.5016 26.0496 30.462 25.94C30.4225 25.8304 30.4061 25.7138 30.4138 25.5976ZM9.75194 25.5976V24.1913H9.14V24.5325C9.03608 24.3988 8.90185 24.2917 8.74838 24.2201C8.59492 24.1485 8.42663 24.1144 8.25739 24.1207C7.86725 24.1207 7.49309 24.2756 7.21723 24.5515C6.94136 24.8274 6.78638 25.2015 6.78638 25.5917C6.78638 25.9818 6.94136 26.356 7.21723 26.6318C7.49309 26.9077 7.86725 27.0627 8.25739 27.0627C8.42663 27.0689 8.59492 27.0348 8.74838 26.9632C8.90185 26.8916 9.03608 26.7845 9.14 26.6508V26.9921H9.75194V25.5976ZM7.47481 25.5976C7.48457 25.432 7.54253 25.2729 7.64156 25.1399C7.74059 25.0068 7.87636 24.9057 8.03216 24.8488C8.18796 24.792 8.35698 24.782 8.51841 24.82C8.67984 24.858 8.82664 24.9423 8.94072 25.0627C9.0548 25.1831 9.13118 25.3342 9.16047 25.4974C9.18976 25.6607 9.17066 25.8289 9.10554 25.9814C9.04042 26.134 8.93212 26.2641 8.79396 26.3559C8.65581 26.4476 8.49384 26.497 8.328 26.4978C8.21102 26.5001 8.09484 26.4781 7.98683 26.4331C7.87882 26.3881 7.78133 26.3212 7.70056 26.2365C7.61979 26.1519 7.55749 26.0514 7.51761 25.9414C7.47774 25.8314 7.46116 25.7143 7.46893 25.5976H7.47481Z" fill="#113984"/>
<path d="M21.8348 2.76172H12.5674V19.4142H21.8348V2.76172Z" fill="#172C70"/>
<path d="M13.1559 11.0898C13.1542 9.48585 13.5175 7.9025 14.2184 6.45969C14.9193 5.01688 15.9393 3.75244 17.2012 2.76211C15.6387 1.53435 13.7623 0.770873 11.7864 0.558947C9.81047 0.347022 7.81478 0.695196 6.02741 1.56368C4.24004 2.43216 2.73309 3.78591 1.67881 5.4702C0.624522 7.1545 0.0654297 9.10139 0.0654297 11.0884C0.0654297 13.0753 0.624522 15.0222 1.67881 16.7065C2.73309 18.3908 4.24004 19.7446 6.02741 20.613C7.81478 21.4815 9.81047 21.8297 11.7864 21.6178C13.7623 21.4058 15.6387 20.6424 17.2012 19.4146C15.9397 18.4246 14.9199 17.1606 14.219 15.7183C13.5182 14.2761 13.1546 12.6933 13.1559 11.0898Z" fill="#F7786B"/>
<path d="M34.3385 11.0896C34.3385 13.0767 33.7792 15.0237 32.7248 16.7081C31.6703 18.3924 30.1631 19.7462 28.3755 20.6145C26.5879 21.4829 24.592 21.8308 22.616 21.6186C20.64 21.4064 18.7635 20.6425 17.2012 19.4144C18.4622 18.4235 19.4817 17.1591 20.1827 15.7168C20.8838 14.2745 21.248 12.6918 21.248 11.0881C21.248 9.48448 20.8838 7.90178 20.1827 6.45944C19.4817 5.01709 18.4622 3.75278 17.2012 2.76187C18.7635 1.53372 20.64 0.769877 22.616 0.557648C24.592 0.345418 26.5879 0.693368 28.3755 1.56173C30.1631 2.43008 31.6703 3.78381 32.7248 5.46816C33.7792 7.15251 34.3385 9.09953 34.3385 11.0866V11.0896Z" fill="#F79E1B"/>
<path d="M33.3261 17.6497V17.3084H33.4644V17.2378H33.1143V17.3084H33.2643V17.6497H33.3261ZM34.0057 17.6497V17.2378H33.8998L33.7762 17.532L33.6527 17.2378H33.5585V17.6497H33.635V17.3408L33.7497 17.6085H33.8292L33.9439 17.3408V17.6526L34.0057 17.6497Z" fill="#F79E1B"/>
</svg>
