<svg width="32" height="33" viewBox="0 0 32 33" fill="none" xmlns="http://www.w3.org/2000/svg">
<g clip-path="url(#clip0_865_37346)">
<path d="M6.04233 12.4601C5.21493 10.9899 5.4269 9.09215 6.67829 7.84088L7.89491 6.62488L9.11091 7.84088C9.66803 8.39868 10.0188 9.08409 10.1638 9.80241" stroke="white" stroke-width="1.85933" stroke-miterlimit="10"/>
<path d="M5.70898 17.6493C4.01699 17.0575 2.80347 15.4473 2.80347 13.5532V12.3137H4.04302C5.02475 12.3001 5.84037 12.393 6.52274 12.5616C7.44869 12.7909 8.12859 13.1603 8.64486 13.5979" stroke="white" stroke-width="1.85933" stroke-miterlimit="10"/>
<path d="M5.7503 17.7808C5.63868 17.4536 5.578 17.1015 5.578 16.7346C5.578 15.0023 6.93097 13.5973 8.59941 13.5973C8.65761 13.5973 8.71655 13.5992 8.77419 13.6029C8.66139 13.2738 8.59941 12.9205 8.59941 12.5511C8.59941 10.8189 9.95239 9.41382 11.6208 9.41382C13.2893 9.41382 14.6422 10.8189 14.6422 12.5511C14.6422 12.9205 14.5803 13.2738 14.4675 13.6029C14.5251 13.5992 14.584 13.5973 14.6422 13.5973C15.3017 13.5973 15.9115 13.8167 16.4079 14.1886" stroke="white" stroke-width="1.85933" stroke-miterlimit="10"/>
<path d="M17.6093 8.62997C18.8048 9.82552 20.657 9.91173 22.4035 8.16514L18.0742 3.83582C16.3276 5.58235 16.4139 7.43449 17.6093 8.62997Z" stroke="white" stroke-width="1.85933" stroke-miterlimit="10"/>
<path d="M30.5626 7.34479C30.9599 6.39789 30.5145 5.3082 29.5676 4.91086C28.6207 4.51346 27.531 4.9589 27.1336 5.90579C26.7362 6.85262 27.1817 7.94244 28.1286 8.33978C29.0755 8.73712 30.1652 8.29168 30.5626 7.34479Z" stroke="white" stroke-width="1.85933" stroke-miterlimit="10"/>
<path d="M28.1286 8.33972L26.1168 13.1337" stroke="white" stroke-width="1.85933" stroke-miterlimit="10"/>
<path d="M30.4092 21.4995H1.19922" stroke="white" stroke-width="1.85933" stroke-miterlimit="10"/>
<path d="M30.5466 17.9314H1.09094V21.2042H30.5466V17.9314Z" fill="#ED222A"/>
<path d="M23.4554 26.659H8.72759L9.81854 29.9318H21.2735L23.4554 26.659Z" fill="#ED222A"/>
<path d="M24.1714 13.8427C24.6647 13.4014 25.3167 13.1324 26.0307 13.1324C27.5709 13.1324 28.8197 14.3813 28.8197 15.9214C28.8197 16.6354 28.5507 17.2874 28.1094 17.7808" stroke="white" stroke-width="1.85933" stroke-miterlimit="10"/>
<path d="M20.4525 13.8427C20.9459 13.4014 21.5978 13.1324 22.3118 13.1324C23.0258 13.1324 23.6778 13.4014 24.1712 13.8427C24.742 14.3534 25.1008 15.0953 25.1008 15.9214C25.1008 16.6354 24.8318 17.2874 24.3906 17.7808" stroke="white" stroke-width="1.85933" stroke-miterlimit="10"/>
<path d="M16.5145 17.7808C16.0732 17.2874 15.8042 16.6354 15.8042 15.9214C15.8042 14.3813 17.053 13.1324 18.5932 13.1324C19.3072 13.1324 19.9592 13.4014 20.4525 13.8427C21.0233 14.3534 21.3822 15.0953 21.3822 15.9214C21.3822 16.6354 21.1131 17.2874 20.6719 17.7808" stroke="white" stroke-width="1.85933" stroke-miterlimit="10"/>
<path d="M23.2416 26.1478L21.3822 29.8665H10.2263L8.36694 26.1478" stroke="white" stroke-width="1.85933" stroke-miterlimit="10"/>
<path d="M24.1713 26.148H7.43734C3.84326 26.148 0.929688 23.2344 0.929688 19.6403V17.781H30.679V19.6403C30.679 23.2344 27.7653 26.148 24.1713 26.148Z" stroke="white" stroke-width="1.85933" stroke-miterlimit="10"/>
</g>
<defs>
<clipPath id="clip0_865_37346">
<rect width="31.6375" height="31.6375" fill="white" transform="translate(0 0.839844)"/>
</clipPath>
</defs>
</svg>
