<svg width="32" height="33" viewBox="0 0 32 33" fill="none" xmlns="http://www.w3.org/2000/svg">
<g clip-path="url(#clip0_865_37226)">
<path d="M16.3642 6.57458L13.6369 7.12006L13.0914 8.21101L13.6369 10.3929L14.1823 11.4839H16.3642L18.0007 10.9384L18.5461 9.30196L18.0007 7.12006L16.3642 6.57458Z" fill="#ED222A"/>
<path d="M4.36379 21.8479L1.09094 20.7569V25.6662L4.90927 26.7572L8.72759 25.1207L11.455 26.7572L15.2733 25.1207L19.0916 26.2117L22.9099 25.1207L26.7283 26.7572L30.5466 25.1207V20.7569L27.2737 21.8479L22.9099 20.7569L20.1826 21.8479L15.2733 20.7569L12.0004 21.8479L8.18212 20.7569L4.36379 21.8479Z" fill="#ED222A"/>
<path d="M30.8589 11.6706C29.2774 7.56251 25.1778 4.95298 18.6599 6.33345C18.5674 6.35317 18.4771 6.37972 18.3884 6.41036C17.9446 5.98535 17.3964 5.66883 16.7862 5.50403C16.9275 4.2986 17.4643 3.18273 18.3356 2.31144L17.0198 0.995728C15.8008 2.21462 15.0677 3.7896 14.9163 5.48604C13.0995 5.93933 11.8481 7.7115 12.1362 9.64705C9.19424 11.1815 5.97424 12.8602 0 15.976V31.4265H31.6337V16.5501C31.6728 14.7489 31.4121 13.1073 30.8589 11.6706ZM15.8168 7.236C16.8429 7.236 17.6777 8.07076 17.6777 9.09681C17.6777 10.1229 16.8429 10.9576 15.8168 10.9576C14.7908 10.9576 13.956 10.1229 13.956 9.09681C13.956 8.07076 14.7908 7.236 15.8168 7.236ZM12.8684 11.3638C13.5495 12.2475 14.6174 12.8184 15.8168 12.8184C18.2726 12.8184 20.0715 10.4628 19.3971 8.08348C25.8189 6.86241 29.526 10.0294 29.7641 15.6096H4.72657C7.31489 14.2599 10.2839 12.7119 12.8684 11.3638ZM28.3263 20.4179C27.9071 20.6973 27.6302 20.8819 26.9814 20.8819C26.3327 20.8819 26.0557 20.6973 25.6366 20.4179C25.1176 20.0719 24.4717 19.6414 23.2596 19.6414C22.0474 19.6414 21.4016 20.0719 20.8826 20.4179C20.4635 20.6973 20.1866 20.8819 19.5379 20.8819C18.8892 20.8819 18.6123 20.6973 18.1932 20.4179C17.6742 20.072 17.0284 19.6414 15.8164 19.6414C14.6043 19.6414 13.9585 20.072 13.4395 20.4179C13.0205 20.6973 12.7436 20.8819 12.095 20.8819C11.4463 20.8819 11.1694 20.6973 10.7503 20.4179C10.2313 20.072 9.58551 19.6414 8.37344 19.6414C7.16137 19.6414 6.51549 20.0719 5.99657 20.4179C5.57746 20.6973 5.30057 20.8819 4.65183 20.8819C4.00315 20.8819 3.72633 20.6973 3.30721 20.4179C2.94051 20.1734 2.50936 19.8874 1.86081 19.7402V17.4704H29.7731L29.7731 19.7402C29.1243 19.8873 28.6931 20.1734 28.3263 20.4179ZM29.7731 21.7094L29.773 24.3922C29.1244 24.5394 28.6931 24.8254 28.3263 25.0699C27.9071 25.3493 27.6302 25.5339 26.9814 25.5339C26.3327 25.5339 26.0557 25.3493 25.6366 25.0699C25.1176 24.7239 24.4717 24.2934 23.2596 24.2934C22.0474 24.2934 21.4016 24.7239 20.8826 25.0699C20.4635 25.3493 20.1866 25.5339 19.5379 25.5339C18.8892 25.5339 18.6123 25.3493 18.1932 25.07C17.6742 24.724 17.0284 24.2934 15.8164 24.2934C14.6043 24.2934 13.9585 24.724 13.4395 25.07C13.0205 25.3493 12.7436 25.5339 12.095 25.5339C11.4463 25.5339 11.1694 25.3493 10.7503 25.07C10.2313 24.724 9.58551 24.2934 8.37344 24.2934C7.16137 24.2934 6.51549 24.7239 5.99657 25.0699C5.57746 25.3493 5.30057 25.5339 4.65183 25.5339C4.00315 25.5339 3.72633 25.3493 3.30721 25.07C2.94051 24.8255 2.50936 24.5394 1.86081 24.3922V21.7095C2.47301 22.0311 3.09365 22.7427 4.65183 22.7427C5.8639 22.7427 6.50978 22.3121 7.02876 21.9661C7.44788 21.6867 7.72476 21.5021 8.37344 21.5021C9.02212 21.5021 9.299 21.6867 9.71812 21.9661C10.2371 22.3121 10.8829 22.7427 12.095 22.7427C13.3071 22.7427 13.9529 22.3121 14.4718 21.9661C14.8909 21.6867 15.1677 21.5021 15.8164 21.5021C16.4651 21.5021 16.742 21.6867 17.1611 21.9661C17.6801 22.3121 18.3259 22.7427 19.538 22.7427C20.7501 22.7427 21.3959 22.3121 21.9149 21.9661C22.334 21.6867 22.611 21.5021 23.2596 21.5021C23.9084 21.5021 24.1853 21.6867 24.6045 21.9661C25.1235 22.3121 25.7694 22.7427 26.9815 22.7427C28.5407 22.7427 29.1622 22.0302 29.7731 21.7094ZM1.86081 29.5657V26.3616C2.47301 26.6832 3.09365 27.3947 4.65183 27.3947C5.8639 27.3947 6.50978 26.9642 7.02876 26.6182C7.44788 26.3388 7.72476 26.1542 8.37344 26.1542C9.02212 26.1542 9.299 26.3388 9.71812 26.6182C10.2371 26.9641 10.8829 27.3947 12.095 27.3947C13.3071 27.3947 13.9529 26.9641 14.4718 26.6182C14.8909 26.3388 15.1677 26.1542 15.8164 26.1542C16.4651 26.1542 16.742 26.3388 17.1611 26.6182C17.6801 26.9641 18.3259 27.3947 19.538 27.3947C20.7501 27.3947 21.3959 26.9642 21.9149 26.6182C22.334 26.3388 22.611 26.1542 23.2596 26.1542C23.9084 26.1542 24.1853 26.3388 24.6045 26.6182C25.1235 26.9642 25.7694 27.3947 26.9815 27.3947C28.5407 27.3947 29.1622 26.6822 29.773 26.3615L29.7729 29.5657H1.86081Z" fill="#221D1E"/>
</g>
<defs>
<clipPath id="clip0_865_37226">
<rect width="31.6375" height="31.6375" fill="white" transform="translate(0 0.392456)"/>
</clipPath>
</defs>
</svg>
