<svg width="32" height="32" viewBox="0 0 32 32" fill="none" xmlns="http://www.w3.org/2000/svg">
<g clip-path="url(#clip0_865_37222)">
<path d="M2.72742 18.2986V15.5712L7.09122 15.0257L9.81859 13.9348L11.455 12.8438L13.0914 10.6619L16.3643 10.1165L19.0917 11.7529L21.2736 13.9348L23.4555 15.0257H26.1828L28.9102 15.5712L28.3647 17.7531L26.7283 19.935L25.6374 21.026L21.2736 21.5714L20.1826 20.4805L20.7281 18.2986L21.819 16.6622L20.7281 15.0257H20.1826L18.5462 15.5712L14.7279 16.1167L12.0005 15.0257H10.3641V17.2076L10.9095 19.935V21.026L7.63669 21.5714L4.90932 20.4805L2.72742 18.2986Z" fill="#ED222A"/>
<path d="M27.8165 20.5876C29.0252 19.4044 29.7765 17.7559 29.7765 15.935C29.7765 12.3433 26.8545 9.42137 23.2629 9.42137C21.922 9.42137 20.6263 9.83353 19.5395 10.5918C17.3046 9.0308 14.334 9.03006 12.0979 10.5918C10.5561 9.51585 8.66013 9.18086 6.90058 9.58967L4.73856 4.90552C6.52323 3.1657 5.29315 0.116211 2.79155 0.116211C1.25229 0.116211 0 1.3685 0 2.90776C0 4.53833 1.40254 5.83839 3.04955 5.68696L5.16455 10.2691C1.39416 12.4137 0.722515 17.5543 3.82107 20.5876H0V21.5181C0 25.1097 2.92201 28.0317 6.51361 28.0317H7.44413V31.7538H24.1934V28.0317H25.1239C28.7155 28.0317 31.6375 25.1097 31.6375 21.5181V20.5876H27.8165ZM1.86103 2.90776C1.86103 2.39467 2.27846 1.97724 2.79155 1.97724C3.30463 1.97724 3.72206 2.39467 3.72206 2.90776C3.72206 3.42085 3.30463 3.83827 2.79155 3.83827C2.27846 3.83827 1.86103 3.42085 1.86103 2.90776ZM20.9346 19.9624C21.8859 18.7566 22.4138 17.2178 22.3218 15.567C23.5424 15.7893 24.1407 16.4002 26.3646 16.4002C26.9861 16.4002 27.4838 16.3508 27.9015 16.2769C27.6513 19.7038 23.884 21.6693 20.9346 19.9624ZM11.1878 15.4927C12.9422 15.6273 13.2735 16.4002 15.8182 16.4002C18.3654 16.4002 18.6928 15.6271 20.4498 15.4926C20.7114 18.2505 18.5319 20.5876 15.8188 20.5876C13.101 20.5876 10.9266 18.2457 11.1878 15.4927ZM27.6638 14.4286C27.3224 14.4955 26.9118 14.5392 26.3646 14.5392C24.1699 14.5392 24.039 13.8148 21.9148 13.6408C21.6771 13.0111 21.3447 12.4274 20.9346 11.9076C23.4575 10.4474 26.7098 11.6495 27.6638 14.4286ZM19.8868 13.6807C18.0665 13.9166 17.8796 14.5392 15.8182 14.5392C13.7585 14.5392 13.5659 13.9164 11.7506 13.6807C13.5234 10.4945 18.1042 10.4765 19.8868 13.6807ZM10.703 11.9075C10.2929 12.4273 9.96055 13.011 9.72271 13.6406C7.58551 13.8157 7.46987 14.5392 5.27292 14.5392C4.72566 14.5392 4.31511 14.4955 3.97374 14.4287C4.92783 11.6493 8.18011 10.4474 10.703 11.9075ZM3.73596 16.2769C4.1537 16.3508 4.65134 16.4002 5.27292 16.4002C7.49524 16.4002 8.09772 15.7886 9.31577 15.5668C9.22402 17.1994 9.74114 18.7433 10.703 19.9624C7.7525 21.6699 3.98627 19.7027 3.73596 16.2769ZM22.3324 29.8927H9.30516V28.0317H22.3324V29.8927ZM25.1239 26.1707C24.3203 26.1707 7.02788 26.1707 6.51361 26.1707C4.26679 26.1707 2.38684 24.5696 1.95452 22.4486H29.683C29.2506 24.5696 27.3708 26.1707 25.1239 26.1707Z" fill="#221D1E"/>
</g>
<defs>
<clipPath id="clip0_865_37222">
<rect width="31.6375" height="31.6375" fill="white" transform="translate(0 0.116211)"/>
</clipPath>
</defs>
</svg>
