<svg width="31" height="31" viewBox="0 0 31 31" fill="none" xmlns="http://www.w3.org/2000/svg">
<g clip-path="url(#clip0_865_37284)">
<mask id="mask0_865_37284" style="mask-type:luminance" maskUnits="userSpaceOnUse" x="0" y="0" width="31" height="31">
<path d="M0 0.185217H30.5466V30.7318H0V0.185217Z" fill="white"/>
</mask>
<g mask="url(#mask0_865_37284)">
<path d="M7.63671 4.00367L6.00028 7.27652V9.45842L7.09123 11.6403L11.455 10.5494L15.2734 9.45842V4.00367L14.7279 2.36725H12.0005L7.63671 4.00367Z" fill="#ED222A"/>
<path d="M23.4555 2.36725H20.1826L19.6372 10.0039L24.5464 10.5494L28.3648 11.0948L29.4557 8.91295L28.3648 5.6401L26.1829 3.4582L23.4555 2.36725Z" fill="#ED222A"/>
<path d="M4.36386 15.4586L2.18196 17.0951L1.09101 18.186L0.545532 21.4589L2.18196 23.0953H4.90933L10.3641 22.0043V16.5496L9.81861 14.9132L8.18218 14.3677L4.36386 15.4586Z" fill="#ED222A"/>
<path d="M20.1826 14.9132H15.2734V22.5498L22.91 23.6408L24.5464 22.5498L25.0919 20.3679L23.4555 17.0951L20.1826 14.9132Z" fill="#ED222A"/>
<path d="M28.2302 9.98073C27.8964 10.2407 27.4699 10.3305 27.0602 10.2271C25.5533 9.84679 23.4363 9.41538 20.9538 9.19302V3.30755H22.9837C24.6019 3.30755 26.1658 3.98369 27.2743 5.16266C28.2302 6.17923 28.7566 7.50771 28.7566 8.90325C28.7566 9.32738 28.5648 9.72013 28.2302 9.98073ZM23.3714 15.3282H22.8384C22.2605 14.8975 21.6252 14.5505 20.9538 14.2968V10.9899C23.2538 11.2058 26.231 11.7297 26.9024 12.0186C26.7836 13.8634 25.2457 15.3282 23.3714 15.3282ZM23.4888 22.2621C23.1551 22.522 22.7284 22.6118 22.3188 22.5084C20.8118 22.1281 18.6949 21.6967 16.2124 21.4744V15.5889H18.2423C19.8605 15.5889 21.4244 16.265 22.5329 17.444C23.4888 18.4606 24.0153 19.7891 24.0153 21.1846C24.0153 21.6087 23.8234 22.0015 23.4888 22.2621ZM18.63 27.6096H16.2124V23.2712C18.5122 23.4872 22.1609 24.2999 22.1609 24.2999C22.0421 26.1448 20.5043 27.6096 18.63 27.6096ZM16.1239 3.30755H19.164V13.8557C18.8594 13.8186 18.5516 13.7991 18.2423 13.7991H16.1239V3.30755ZM14.4225 27.6096H11.3824V15.5889H14.4225V27.6096ZM9.59258 21.4744C7.11013 21.6967 4.99317 22.1281 3.48631 22.5084C3.07625 22.6119 2.64985 22.522 2.31617 22.2621C1.98159 22.0015 1.78972 21.6087 1.78972 21.1846C1.78972 19.7891 2.31617 18.4606 3.27212 17.444C4.38063 16.265 5.94453 15.5889 7.56273 15.5889H9.59258V21.4744ZM9.59258 27.6096H7.17505C5.30079 27.6096 3.76302 26.1449 3.64411 24.3002C3.64411 24.3002 7.2927 23.4872 9.59258 23.2712V27.6096ZM14.334 10.9899V13.7991H9.00569C8.65089 13.2869 8.42793 12.6772 8.38551 12.0188C9.59258 11.6104 12.0341 11.2058 14.334 10.9899ZM6.53118 8.90325C6.53118 7.50771 7.05763 6.17923 8.01353 5.1626C9.12209 3.98369 10.6859 3.30755 12.3041 3.30755H14.334V9.19302C11.8515 9.41538 9.73452 9.84679 8.22771 10.2271C7.8176 10.3306 7.39132 10.2407 7.05763 9.98073C6.72305 9.72013 6.53118 9.32738 6.53118 8.90325ZM28.5782 3.93656C27.1328 2.39933 25.0938 1.51771 22.9837 1.51771H12.3041C10.194 1.51771 8.15498 2.39933 6.70963 3.93656C5.44039 5.2864 4.74134 7.05029 4.74134 8.90325C4.74134 9.88318 5.18463 10.7906 5.95772 11.3927C6.15496 11.5464 6.36634 11.674 6.58738 11.7753V11.7891C6.58738 12.5082 6.73093 13.1944 6.99028 13.8209C5.08744 13.9647 3.28238 14.8202 1.96816 16.2179C0.698929 17.5678 -0.00012207 19.3317 -0.00012207 21.1846C-0.00012207 22.1645 0.443221 23.0719 1.21625 23.6741C1.41349 23.8278 1.62493 23.9553 1.84604 24.0567C1.84604 26.9951 4.23661 29.3994 7.17505 29.3994H18.63C21.5684 29.3994 23.959 26.9948 23.959 24.0564C24.18 23.955 24.3915 23.8277 24.5888 23.6741C25.3618 23.0719 25.8051 22.1645 25.8051 21.1846C25.8051 19.6722 25.3392 18.2193 24.4778 17.0022C26.887 16.4915 28.7004 14.3482 28.7004 11.7891V11.775C28.9215 11.6737 29.1329 11.5464 29.3301 11.3927C30.1031 10.7906 30.5465 9.88318 30.5465 8.90325C30.5465 7.05029 29.8474 5.2864 28.5782 3.93656Z" fill="white"/>
</g>
</g>
<defs>
<clipPath id="clip0_865_37284">
<rect width="30.5466" height="30.5466" fill="white" transform="translate(0 0.185425)"/>
</clipPath>
</defs>
</svg>
