<svg width="26" height="32" viewBox="0 0 26 32" fill="none" xmlns="http://www.w3.org/2000/svg">
<path d="M21.8412 4V4.15882H22H25C25.4643 4.15882 25.8412 4.53572 25.8412 5V31C25.8412 31.4643 25.4643 31.8412 25 31.8412H4C1.88172 31.8412 0.158824 30.1183 0.158824 28V3C0.158824 1.43372 1.43372 0.158824 3 0.158824H21C21.4643 0.158824 21.8412 0.535716 21.8412 1V4ZM20.1588 2V1.84118H20H3C2.36228 1.84118 1.84118 2.36228 1.84118 3C1.84118 3.63772 2.36228 4.15882 3 4.15882H20H20.1588V4V2ZM24 30.1588H24.1588V30V6V5.84118H24H3C2.66991 5.84118 2.35413 5.77369 2.05336 5.66641L1.84118 5.59072V5.816V28C1.84118 29.1917 2.80828 30.1588 4 30.1588H24Z" fill="white" stroke="#221D1E" stroke-width="0.317647"/>
<path d="M8.15882 15.762V15.6602L8.06637 15.6177C6.96447 15.1109 6.15882 13.7274 6.15882 12C6.15882 10.909 6.47968 9.94347 6.99631 9.25454C7.51244 8.5663 8.21873 8.15882 9 8.15882C9.78127 8.15882 10.4876 8.5663 11.0037 9.25454C11.5203 9.94347 11.8412 10.909 11.8412 12C11.8412 13.7274 11.0355 15.1109 9.93363 15.6177L9.84118 15.6602V15.762V21C9.84118 21.4643 9.46428 21.8412 9 21.8412C8.53572 21.8412 8.15882 21.4643 8.15882 21V15.762ZM7.84118 12C7.84118 12.6349 7.9951 13.1626 8.20918 13.5364C8.31604 13.723 8.44005 13.875 8.57116 13.9821C8.70045 14.0877 8.84847 14.1588 9 14.1588C9.15153 14.1588 9.29955 14.0877 9.42884 13.9821C9.55995 13.875 9.68396 13.723 9.79082 13.5364C10.0049 13.1626 10.1588 12.6349 10.1588 12C10.1588 11.3651 10.0049 10.8374 9.79082 10.4636C9.68396 10.277 9.55995 10.125 9.42884 10.0179C9.29955 9.91233 9.15153 9.84118 9 9.84118C8.84847 9.84118 8.70045 9.91233 8.57116 10.0179C8.44005 10.125 8.31604 10.277 8.20918 10.4636C7.9951 10.8374 7.84118 11.3651 7.84118 12Z" fill="white" stroke="#221D1E" stroke-width="0.317647"/>
<path d="M16 17.8412H15.8412V18V21C15.8412 21.4643 15.4643 21.8412 15 21.8412C14.5357 21.8412 14.1588 21.4643 14.1588 21V9C14.1588 8.53572 14.5357 8.15882 15 8.15882C17.6703 8.15882 19.8412 10.3297 19.8412 13V17C19.8412 17.4643 19.4643 17.8412 19 17.8412H16ZM18 16.1588H18.1588V16V13C18.1588 11.6275 17.2754 10.4698 16.0533 10.0344L15.8412 9.95881V10.184V16V16.1588H16H18Z" fill="white" stroke="#221D1E" stroke-width="0.317647"/>
<path d="M7 24.1588H19C19.4643 24.1588 19.8412 24.5357 19.8412 25C19.8412 25.4643 19.4643 25.8412 19 25.8412H7C6.53572 25.8412 6.15882 25.4643 6.15882 25C6.15882 24.5357 6.53572 24.1588 7 24.1588Z" fill="white" stroke="#221D1E" stroke-width="0.317647"/>
</svg>
