<svg width="32" height="33" viewBox="0 0 32 33" fill="none" xmlns="http://www.w3.org/2000/svg">
<g clip-path="url(#clip0_865_37304)">
<path d="M27.7884 29.7051H3.80153C2.67836 28.5818 2.04859 27.9521 0.925415 26.8289V26.0203H30.6645V26.8289C29.5414 27.9521 28.9116 28.5818 27.7884 29.7051Z" stroke="white" stroke-width="1.85098" stroke-miterlimit="10"/>
<path d="M14.1823 7.19281L11.455 9.37471L10.364 12.1021H12.0004L13.6369 13.7385L15.8188 15.9204L18.0007 13.7385L19.0916 12.6476L21.819 12.1021L21.2735 10.4657L20.728 8.82924L19.0916 7.19281L17.4552 6.64734L14.1823 7.19281Z" fill="#ED222A"/>
<path d="M15.7865 17.8056C15.7865 14.7861 18.2344 12.3383 21.2539 12.3383C24.2734 12.3383 26.7212 14.7861 26.7212 17.8056" fill="#ED222A"/>
<path d="M15.7865 17.8056C15.7865 14.7861 18.2344 12.3383 21.2539 12.3383C24.2734 12.3383 26.7212 14.7861 26.7212 17.8056" stroke="white" stroke-width="1.85098" stroke-miterlimit="10"/>
<path d="M4.86865 17.8056C4.86865 14.7861 7.31652 12.3383 10.336 12.3383C13.3555 12.3383 15.8034 14.7861 15.8034 17.8056" fill="#ED222A"/>
<path d="M4.86865 17.8056C4.86865 14.7861 7.31652 12.3383 10.336 12.3383C13.3555 12.3383 15.8034 14.7861 15.8034 17.8056" stroke="white" stroke-width="1.85098" stroke-miterlimit="10"/>
<path d="M22.2748 26.0203H9.31532C6.07388 26.0203 3.44617 23.3925 3.44617 20.1511V17.8057H28.144V20.1511C28.144 23.3925 25.5162 26.0203 22.2748 26.0203Z" stroke="white" stroke-width="1.85098" stroke-miterlimit="10"/>
<path d="M4.86865 17.8056C4.86865 14.7861 7.31652 12.3383 10.336 12.3383C13.3555 12.3383 15.8034 14.7861 15.8034 17.8056" stroke="white" stroke-width="1.85098" stroke-miterlimit="10"/>
<path d="M10.7428 12.2613C10.7428 9.24175 13.1907 6.79395 16.2102 6.79395C19.2297 6.79395 21.6775 9.24181 21.6775 12.2613" stroke="white" stroke-width="1.85098" stroke-miterlimit="10"/>
<path d="M15.7866 17.8056C15.7866 14.7861 18.2345 12.3383 21.254 12.3383C24.2735 12.3383 26.7214 14.7861 26.7214 17.8056" stroke="white" stroke-width="1.85098" stroke-miterlimit="10"/>
<path d="M21.6774 12.2613L30.9831 2.95569" stroke="white" stroke-width="1.85098" stroke-miterlimit="10"/>
</g>
<defs>
<clipPath id="clip0_865_37304">
<rect width="31.6375" height="31.6375" fill="white" transform="translate(0 0.647095)"/>
</clipPath>
</defs>
</svg>
