<svg width="32" height="33" viewBox="0 0 32 33" fill="none" xmlns="http://www.w3.org/2000/svg">
<g clip-path="url(#clip0_865_37235)">
<path d="M13.637 18.5823H7.09125H6.54578V27.8554H14.7279V20.7642L13.637 18.5823Z" fill="#ED222A"/>
<path d="M20.7281 10.9457H16.3643L20.1826 26.7644H26.7283L27.8193 19.6733L22.3645 19.1278L20.7281 10.9457Z" fill="#ED222A"/>
<path d="M11.3904 2.80371H13.0375V0.945068H2.49183V2.80371H4.1389V10.9325L0 20.6681V32.5826H15.5678V20.6664L11.3904 10.9308V2.80371ZM9.5318 2.80371V4.38262H5.99754V2.80371H9.5318ZM13.7092 26.917H7.42932V19.5268H13.0564L13.7092 21.0483V26.917ZM12.2588 17.6682H5.57068V28.7756H13.7092V30.724H1.85864V21.0466L5.99754 11.3111V6.24127H9.53186V11.3127L12.2588 17.6682Z" fill="#221D1E"/>
<path d="M30.6563 4.20173C29.8307 3.19421 28.6102 2.61633 27.3077 2.61633H19.1668C17.8645 2.61633 16.6442 3.19403 15.8186 4.20118C14.9931 5.20839 14.6662 6.51838 14.9223 7.7976L18.7774 26.8102V32.5827H27.7398V26.8043L31.5522 7.79673C31.8083 6.51961 31.4818 5.20925 30.6563 4.20173ZM17.2522 5.37621C17.7242 4.80025 18.4221 4.46991 19.1668 4.46991H27.3077C28.0525 4.46991 28.7504 4.80031 29.2225 5.37652C29.6945 5.95261 29.8813 6.7019 29.7348 7.43216L29.5753 8.22742H19.4599L21.9068 20.4475H27.1243L26.0526 25.7903H20.462L16.7395 7.43142C16.5933 6.70122 16.7801 5.95212 17.2522 5.37621ZM29.2035 10.081L27.496 18.5939H23.4259L21.7214 10.081H29.2035ZM20.6311 30.7291V27.644H25.8862V30.7291H20.6311Z" fill="#221D1E"/>
</g>
<defs>
<clipPath id="clip0_865_37235">
<rect width="31.6375" height="31.6375" fill="white" transform="translate(0 0.945068)"/>
</clipPath>
</defs>
</svg>
