<svg width="32" height="32" viewBox="0 0 32 32" fill="none" xmlns="http://www.w3.org/2000/svg">
<g clip-path="url(#clip0_865_37381)">
<path d="M14.1823 14.0404H5.45466L4.90919 14.5859L4.36371 16.2223L3.81824 20.0406V22.768L4.90919 25.4954L7.09109 27.1318H9.81846H12.0004L14.1823 24.9499L15.2732 30.4046L23.4553 30.9501L26.7282 30.4046L27.2737 27.1318V24.4044L26.7282 23.3135H25.0918L23.4553 23.859L22.9099 25.4954L21.8189 26.0409H20.728L19.0915 25.4954V23.859L18.5461 23.3135H17.4551L15.2732 22.768V21.1316L14.7277 17.8587L14.1823 14.0404Z" fill="#ED222A"/>
<path d="M25.488 16.7915L27.606 10.1725L25.8122 9.59849L23.5105 16.7915H15.3707C15.1399 15.0438 15.1111 13.2753 15.2868 11.5052L15.2943 11.4499C17.9713 11.3445 20.117 9.13484 20.117 6.43245C20.117 3.66301 17.8638 1.40989 15.0944 1.40989C12.6469 1.40989 10.6039 3.17005 10.1617 5.49072H8.5023V1.71407L4.77129 0.22168L4.07177 1.97041L6.6189 2.9893V5.49085H2.78305L3.6026 11.234C3.88468 13.9821 3.67424 16.731 2.97679 19.4042L2.8501 19.8897C2.50373 21.2175 2.56601 22.6019 3.03016 23.8933C3.4943 25.1846 4.30896 26.3183 5.44011 27.0953C5.72194 27.2888 6.22369 27.6068 6.61884 27.7888V29.9759H4.73538V31.8594H27.6508V30.0241L29.008 16.7917H25.488V16.7915ZM26.9215 18.675L26.5352 22.4419H24.4707L24.5066 22.0127C24.5756 21.1886 23.9612 20.4621 23.137 20.3931L19.8698 20.1199C19.4701 20.0864 19.0823 20.2107 18.7764 20.4693C18.4704 20.728 18.2836 21.0905 18.2503 21.4895L18.1707 22.4419H16.1763C16.2814 21.5778 16.2191 20.6991 15.9861 19.845C15.8802 19.4566 15.7858 19.0665 15.7006 18.6749H26.9215V18.675ZM22.5977 22.2381L22.3362 25.3662L19.8338 25.1571L20.0952 22.0289L22.5977 22.2381ZM13.4183 11.2683L13.4144 11.3013C13.3569 11.876 13.3195 12.4507 13.3017 13.0246H5.59932C5.58488 12.3972 5.54715 11.7692 5.48518 11.1411H13.4356L13.4183 11.2683ZM15.0945 3.29341C16.8254 3.29341 18.2336 4.70162 18.2336 6.43252C18.2336 8.00728 17.0679 9.31452 15.5541 9.53765L16.1038 5.49079H12.0999C12.5008 4.21857 13.6915 3.29341 15.0945 3.29341ZM13.9473 7.37425L13.6914 9.25771H5.22276L4.95436 7.37425H13.9473ZM6.54287 25.5683C4.89303 24.3767 4.15885 22.3343 4.67266 20.365L4.79935 19.8795C5.22608 18.2435 5.48412 16.5815 5.57264 14.9081H13.3162C13.3985 16.7387 13.6823 18.5558 14.169 20.3405C14.7025 22.2968 13.9565 24.4089 12.3128 25.5962C10.5987 26.834 8.2955 26.834 6.58155 25.5962L6.54287 25.5683ZM8.50236 29.9758V28.3413C8.81571 28.3855 9.13131 28.4087 9.44711 28.4087C9.76083 28.4087 10.0744 28.3857 10.3858 28.3421V29.9757H8.50236V29.9758ZM12.2693 29.9758V27.7915C12.6666 27.609 13.0508 27.3864 13.4155 27.1231C13.5237 27.0449 13.6283 26.9631 13.7311 26.8794L14.0717 29.9758H12.2693ZM25.7674 29.9758H15.9666L15.404 24.8621C15.4985 24.6877 15.5854 24.5086 15.6647 24.3254H18.0132L17.9249 25.3824C17.8559 26.2065 18.4703 26.933 19.2945 27.002C19.2945 27.002 22.6468 27.2805 22.6891 27.2805C23.0429 27.2805 23.3819 27.1568 23.6551 26.9258C23.961 26.6671 24.1479 26.3047 24.1812 25.9056L24.3133 24.3254H26.3421L25.7675 29.9276V29.9758H25.7674Z" fill="white"/>
</g>
<defs>
<clipPath id="clip0_865_37381">
<rect width="31.6375" height="31.6375" fill="white" transform="translate(0 0.221436)"/>
</clipPath>
</defs>
</svg>
