<svg width="32" height="33" viewBox="0 0 32 33" fill="none" xmlns="http://www.w3.org/2000/svg">
<g clip-path="url(#clip0_865_37175)">
<path d="M30.0012 21.106H1.63647L3.2729 25.4698L7.09122 28.7426L12.0005 31.47H19.0917L24.0009 29.2881L28.3647 24.9243L30.0012 21.106Z" fill="#ED222A"/>
<path d="M14.5661 13.9646C14.8992 13.3208 15.2766 12.5912 15.2766 11.1924C15.2766 9.79378 14.8992 9.06414 14.5661 8.42039C14.285 7.87705 14.063 7.4479 14.063 6.50063C14.063 6.37952 14.0665 6.26928 14.0732 6.16813L31.3372 8.1624L31.5496 6.32081L14.819 4.38827C14.9819 4.0785 15.1309 3.69657 15.2122 3.17059L31.6375 2.77673L31.5932 0.923462L2.92518 1.61078L2.96954 3.46404L4.57206 3.42561C4.49704 3.6155 4.39539 3.76015 4.27521 3.93119C3.85101 4.53502 3.4999 5.1451 3.4999 6.501C3.4999 7.89973 3.87733 8.62943 4.21039 9.27318C4.49148 9.81658 4.7135 10.2458 4.7135 11.1932C4.7135 12.1405 4.49148 12.5697 4.21039 13.1131C3.88963 13.733 3.52777 14.4326 3.50145 15.7328H0V16.6597C0 20.9061 1.64361 24.8987 4.62817 27.9018C7.61402 30.9063 11.5843 32.561 15.8077 32.561C20.031 32.561 24.0013 30.9063 26.9872 27.9018C29.9717 24.8986 31.6154 20.906 31.6154 16.6596V15.7327H14.0651C14.0877 14.8896 14.3005 14.4781 14.5661 13.9646ZM12.9643 3.88145C12.6284 4.40458 12.2106 5.05568 12.2106 6.50069C12.2106 7.89936 12.588 8.629 12.9211 9.27268C13.2022 9.81608 13.4242 10.2452 13.4242 11.1925C13.4242 12.1398 13.2022 12.569 12.9211 13.1124C12.6003 13.7325 12.2384 14.4323 12.2122 15.7328H9.71718C9.76235 14.9884 9.96472 14.5923 10.2129 14.1064C10.5449 13.4565 10.9213 12.72 10.9213 11.3092C10.9213 9.89851 10.545 9.16201 10.2129 8.51221C9.93067 7.95979 9.70772 7.52341 9.70772 6.55908C9.70772 5.66081 9.88377 5.40611 10.1501 5.02052C10.473 4.55313 10.7534 4.08227 10.8672 3.27471L13.3069 3.2162C13.2247 3.4756 13.1048 3.66252 12.9643 3.88145ZM5.85548 8.421C5.57439 7.8776 5.35237 7.4484 5.35237 6.501C5.35237 5.6212 5.52668 5.37305 5.79066 4.99741C6.09999 4.55708 6.37045 4.11342 6.49429 3.37957L8.96968 3.32025C8.89207 3.58182 8.77293 3.75428 8.62654 3.96623C8.20463 4.57686 7.85538 5.19348 7.85538 6.55908C7.85538 7.96986 8.23169 8.70636 8.56376 9.35616C8.84603 9.90859 9.06898 10.3449 9.06898 11.3092C9.06898 12.2736 8.84603 12.7099 8.5637 13.2624C8.25839 13.8601 7.9155 14.5312 7.86249 15.7328H5.35435C5.37702 14.8901 5.5899 14.4786 5.85542 13.9652C6.18848 13.3215 6.5659 12.5918 6.5659 11.1932C6.5659 9.79446 6.18848 9.06475 5.85548 8.421ZM25.6737 26.5946C23.0381 29.2467 19.5343 30.7072 15.8077 30.7072C12.081 30.7072 8.57717 29.2467 5.94162 26.5946C4.64689 25.2918 3.63782 23.778 2.94594 22.1303H28.6694C27.9775 23.778 26.9685 25.2917 25.6737 26.5946ZM29.2985 20.2765H2.31683C2.08734 19.4034 1.94107 18.5034 1.88212 17.5865H29.7332C29.6743 18.5034 29.528 19.4034 29.2985 20.2765Z" fill="#221D1E"/>
</g>
<defs>
<clipPath id="clip0_865_37175">
<rect width="31.6375" height="31.6375" fill="white" transform="translate(0 0.923462)"/>
</clipPath>
</defs>
</svg>
