<svg width="32" height="33" viewBox="0 0 32 33" fill="none" xmlns="http://www.w3.org/2000/svg">
<g clip-path="url(#clip0_865_37320)">
<mask id="mask0_865_37320" style="mask-type:luminance" maskUnits="userSpaceOnUse" x="0" y="0" width="33" height="33">
<path d="M0 0.19976H32.0012V32.2009H0V0.19976Z" fill="white"/>
</mask>
<g mask="url(#mask0_865_37320)">
<path d="M6.54569 13.8367H2.72737L1.63642 16.0186L1.09094 20.3824L2.72737 24.2007L6.00022 26.9281L8.72759 28.5645L22.9099 29.11L25.6373 27.4735L29.4556 23.6552L31.0921 18.2005L30.0011 14.3821L28.3647 13.8367L22.9099 14.3821V15.4731L20.1826 20.3824L19.0916 22.0188L16.9097 23.6552L14.1823 24.2007L12.0004 22.5643L11.455 19.8369L12.5459 18.2005L15.2733 19.2914L18.5461 20.3824L19.6371 19.8369L22.3645 16.0186L21.819 13.8367L19.6371 13.8367L15.2733 13.8367L10.9095 13.8367H6.54569Z" fill="#ED222A"/>
<path d="M22.9053 28.7067H9.09565L7.22159 27.957C2.11284 25.9135 -0.382692 20.1245 1.63926 15.0071L3.90965 9.26095H28.0914L30.3617 15.0071C32.3837 20.1245 29.8882 25.9135 24.7794 27.957L22.9053 28.7067Z" stroke="white" stroke-width="1.87507" stroke-miterlimit="10"/>
<path d="M13.8573 23.5679L13.8533 23.566C11.9025 22.6563 11.0584 20.3374 11.9682 18.3866L12.1609 17.9734L19.2294 21.2695L19.0367 21.6827C18.127 23.6336 15.8081 24.4775 13.8573 23.5679Z" stroke="white" stroke-width="1.87507" stroke-miterlimit="10"/>
<path d="M19.2292 21.2697L26.5614 5.54589C27.0882 4.41622 28.2217 3.69407 29.4681 3.69407H30.5211" stroke="white" stroke-width="1.87507" stroke-miterlimit="10"/>
<path d="M30.0525 14.2245L28.6591 13.6632C27.7567 13.2997 26.7485 13.2997 25.8461 13.6632C24.9436 14.0267 23.9355 14.0267 23.0331 13.6632C22.1306 13.2997 21.1225 13.2997 20.22 13.6632C19.3176 14.0267 18.3095 14.0267 17.4071 13.6632C16.5046 13.2997 15.4964 13.2997 14.594 13.6632C13.6915 14.0267 12.6834 14.0267 11.781 13.6632C10.8785 13.2997 9.8704 13.2997 8.96793 13.6632C8.06552 14.0267 7.05736 14.0267 6.15495 13.6632C5.25248 13.2997 4.24432 13.2997 3.34191 13.6632L1.94849 14.2245" stroke="white" stroke-width="1.87507" stroke-miterlimit="10"/>
<path d="M5.14587 17.6609V19.5361" stroke="white" stroke-width="1.87507" stroke-miterlimit="10"/>
<path d="M7.64612 20.7863V22.6615" stroke="white" stroke-width="1.87507" stroke-miterlimit="10"/>
<path d="M21.9799 23.934V25.8092" stroke="white" stroke-width="1.87507" stroke-miterlimit="10"/>
<path d="M26.23 20.9183V22.7935" stroke="white" stroke-width="1.87507" stroke-miterlimit="10"/>
<path d="M24.98 16.5429V18.4181" stroke="white" stroke-width="1.87507" stroke-miterlimit="10"/>
</g>
</g>
<defs>
<clipPath id="clip0_865_37320">
<rect width="32.0012" height="32.0012" fill="white" transform="translate(0 0.199829)"/>
</clipPath>
</defs>
</svg>
