<svg width="32" height="32" viewBox="0 0 32 32" fill="none" xmlns="http://www.w3.org/2000/svg">
<g clip-path="url(#clip0_865_37294)">
<mask id="mask0_865_37294" style="mask-type:luminance" maskUnits="userSpaceOnUse" x="0" y="0" width="32" height="33">
<path d="M0 0.370758H31.6375V32.0083H0V0.370758Z" fill="white"/>
</mask>
<g mask="url(#mask0_865_37294)">
<path d="M9.81854 4.73474L7.09117 5.82569L5.45474 8.55307L6.00022 11.2804L7.09117 12.3714L7.63664 14.0078V14.5533L7.09117 15.0988H3.27284L1.09094 16.1897V19.4626L2.18189 23.2809L5.45474 26.0083L8.18212 27.0992L22.3645 27.6447L25.0918 26.5537L25.6373 23.8264L25.0918 20.008L24.0009 17.8261H26.1828L30.0011 16.7352L30.5466 14.5533V12.3714L28.9102 8.55307L26.7283 6.37117L22.9099 5.28022L9.81854 4.73474Z" fill="#ED222A"/>
<path d="M27.3204 16.5745H24.5233C24.7187 15.7339 25.2367 14.8441 26.0722 13.9177C26.4499 13.499 26.8528 13.105 27.2793 12.6879C27.8918 12.0891 28.5208 11.472 29.077 10.7708C29.5309 11.7926 29.7838 12.9228 29.7838 14.1111C29.7838 15.4694 28.6787 16.5745 27.3204 16.5745ZM22.5895 26.5232H19.7924C19.9878 25.6827 20.5058 24.7928 21.3413 23.8664C21.7189 23.4477 22.1218 23.0538 22.5483 22.6367C23.1608 22.0379 23.7898 21.4208 24.3461 20.7195C24.8001 21.7413 25.0529 22.8715 25.0529 24.0598C25.0529 25.4182 23.9478 26.5232 22.5895 26.5232ZM13.6571 26.5232C13.8524 25.6827 14.3704 24.7928 15.2059 23.8664C15.5836 23.4477 15.9865 23.0538 16.413 22.6368C17.1438 21.9223 17.8994 21.1835 18.525 20.3045C19.3288 19.1753 19.8707 17.8638 20.1105 16.4993C21.3736 17.0549 22.4721 17.9178 23.3105 18.9931C22.7808 19.7374 21.9559 20.6234 21.2524 21.3113C20.8241 21.73 20.3813 22.163 19.9646 22.6249C18.7878 23.9298 18.0987 25.2368 17.906 26.5232H13.6571ZM10.1089 26.5232C9.24626 26.5232 8.41417 26.39 7.63188 26.1434C7.88102 25.4143 8.36263 24.6514 9.07058 23.8664C9.44825 23.4477 9.85108 23.0538 10.2776 22.6368C11.0084 21.9223 11.764 21.1835 12.3897 20.3045C13.3291 18.9847 13.9108 17.4158 14.0704 15.8046H16.7977C17.3182 15.8046 17.8274 15.8536 18.3215 15.9462C18.153 17.1232 17.7047 18.2602 17.0148 19.2295C16.4851 19.9737 15.8206 20.6234 15.1171 21.3113C14.6888 21.73 14.246 22.163 13.8293 22.6249C12.6524 23.9298 11.9633 25.2368 11.7707 26.5232H10.1089ZM3.52691 23.2446C3.72619 23.0437 3.93134 22.8431 4.14236 22.6367C4.87311 21.9223 5.6287 21.1835 6.25441 20.3045C7.19383 18.9847 7.77548 17.4158 7.93509 15.8046H12.2048C12.053 17.0319 11.597 18.2215 10.8794 19.2295C10.3497 19.9737 9.68523 20.6234 8.98166 21.3113C8.55344 21.73 8.11064 22.163 7.69398 22.6249C6.86541 23.5436 6.27709 24.4686 5.93457 25.3874C4.99861 24.8365 4.18023 24.1064 3.52691 23.2446ZM2.55535 21.5966C2.1047 20.5778 1.85376 19.4518 1.85376 18.268C1.85376 16.9097 2.95885 15.8046 4.3171 15.8046H6.06946C5.9177 17.0319 5.46168 18.2215 4.74415 19.2295C4.21441 19.9737 3.33554 20.9361 2.55535 21.5966ZM9.04797 5.8559H10.8003C10.6486 7.08321 10.1925 8.27278 9.47501 9.28079C8.94533 10.025 7.79606 11.1381 7.28621 11.6479C6.83556 10.6291 6.58463 9.50299 6.58463 8.31924C6.58463 6.96093 7.68965 5.8559 9.04797 5.8559ZM12.666 5.8559H16.9357C16.7839 7.08315 16.3279 8.27271 15.6103 9.28079C15.0807 10.025 14.4162 10.6746 13.7127 11.3624C13.2844 11.7812 12.8416 12.2142 12.4248 12.6762C12.0425 13.1002 11.7118 13.5255 11.4322 13.9508H8.80982C8.61487 13.7423 8.43054 13.5237 8.25783 13.2958C8.45711 13.095 8.66232 12.8943 8.8734 12.6879C9.6041 11.9735 10.3596 11.2347 10.9852 10.3558C11.9247 9.03597 12.5063 7.46713 12.666 5.8559ZM18.8013 5.8559H21.5285C22.0491 5.8559 22.5583 5.90484 23.0524 5.99741C22.884 7.17448 22.4356 8.31152 21.7457 9.28079C21.216 10.025 20.5515 10.6746 19.848 11.3624C19.4198 11.7812 18.9769 12.2142 18.5602 12.6762C18.1686 13.1104 17.8315 13.5449 17.5481 13.9787C17.3003 13.9604 17.0501 13.9508 16.7977 13.9508H13.7723C13.7822 13.9398 13.7915 13.9288 13.8015 13.9177C14.1791 13.499 14.5821 13.105 15.0086 12.688C15.7394 11.9736 16.495 11.2348 17.1206 10.3558C18.06 9.03591 18.6417 7.46713 18.8013 5.8559ZM24.8413 6.55057C26.1045 7.1062 27.203 7.96907 28.0414 9.04443C27.5118 9.78853 26.6868 10.6746 25.9834 11.3624C25.5551 11.7811 25.1122 12.2142 24.6956 12.6762C23.7193 13.7587 23.0784 14.8426 22.7783 15.9152C21.8244 15.2128 20.7436 14.6735 19.5768 14.3394C19.6896 14.1997 19.8092 14.0592 19.9368 13.9177C20.3145 13.499 20.7174 13.105 21.144 12.6879C21.8747 11.9736 22.6303 11.2348 23.2559 10.3558C24.0597 9.22654 24.6016 7.915 24.8413 6.55057ZM21.5285 4.00214H9.04797C6.66749 4.00214 4.73086 5.93876 4.73086 8.31931C4.73086 10.4025 5.36442 12.3404 6.44874 13.9508H4.3171C1.93669 13.9508 0 15.8875 0 18.268C0 23.8421 4.53486 28.377 10.1089 28.377H22.5895C24.9699 28.377 26.9066 26.4403 26.9066 24.0598C26.9066 21.9766 26.2731 20.0387 25.1887 18.4282H27.3204C29.7009 18.4282 31.6375 16.4916 31.6375 14.1111C31.6375 8.537 27.1027 4.00214 21.5285 4.00214Z" fill="white"/>
</g>
</g>
<defs>
<clipPath id="clip0_865_37294">
<rect width="31.6375" height="31.6375" fill="white" transform="translate(0 0.37085)"/>
</clipPath>
</defs>
</svg>
