<svg width="32" height="33" viewBox="0 0 32 33" fill="none" xmlns="http://www.w3.org/2000/svg">
<g clip-path="url(#clip0_865_37230)">
<path d="M12.546 13.3966H2.72742L3.27289 17.2149H12.0005L12.546 13.3966Z" fill="#ED222A"/>
<path d="M12.0005 25.9425H2.72742L3.27289 30.3063L12.0005 30.8518V25.9425Z" fill="#ED222A"/>
<path d="M20.1826 30.3063V26.488H28.3647L27.8193 30.3063H20.1826Z" fill="#ED222A"/>
<path d="M19.0917 17.2149L18.5462 11.7601L19.0917 10.6692H30.0012L29.4557 17.2149H19.0917Z" fill="#ED222A"/>
<path d="M31.6375 11.7913V6.23005H29.7838V1.44116H24.2225V3.88485L19.3189 6.23005H16.7457V11.7913H17.8567L18.2243 16.4566H12.9763V13.8614H14.8301V8.30008H12.9917C12.9331 5.29174 10.4681 2.86238 7.44595 2.86238C4.42382 2.86238 1.95875 5.29174 1.90017 8.30008H0V13.8614H1.85376V16.4566H0V27.0849H1.85376V31.5339H12.9763V27.0849H19.0617L19.4123 31.5339H28.9739L29.3245 27.0849H31.6375V16.4566H30.1619L30.5295 11.7913H31.6375ZM26.0763 5.05309V3.29492H27.93V6.23005H23.6154L26.0763 5.05309ZM18.5994 8.08381H29.7838V9.93757H18.5994V8.08381ZM7.44595 4.71614C9.44578 4.71614 11.0783 6.31409 11.1366 8.30008H3.75529C3.81356 6.31409 5.44611 4.71614 7.44595 4.71614ZM1.85376 10.1538H12.9763V12.0076H1.85376V10.1538ZM3.70752 13.8614H11.1226V16.4566H3.70752V13.8614ZM11.1226 29.6801H3.70752V27.0849H11.1226V29.6801ZM27.2605 29.6801H21.1257L20.9213 27.0849H27.465L27.2605 29.6801ZM29.7838 25.2311H1.85376V18.3104H29.7838V25.2311ZM28.3023 16.4566H20.0838L19.7163 11.7913H28.6699L28.3023 16.4566Z" fill="#221D1E"/>
<path d="M14.5043 21.7446L15.8149 20.434L17.1255 21.7446L15.8149 23.0552L14.5043 21.7446Z" fill="#221D1E"/>
</g>
<defs>
<clipPath id="clip0_865_37230">
<rect width="31.6375" height="31.6375" fill="white" transform="translate(0 0.668701)"/>
</clipPath>
</defs>
</svg>
