<svg width="31" height="31" viewBox="0 0 31 31" fill="none" xmlns="http://www.w3.org/2000/svg">
<g clip-path="url(#clip0_865_37135)">
<path d="M15.2733 29.6517C23.2142 29.6517 29.6517 23.2142 29.6517 15.2733C29.6517 7.33232 23.2142 0.894897 15.2733 0.894897C7.33232 0.894897 0.894897 7.33232 0.894897 15.2733C0.894897 23.2142 7.33232 29.6517 15.2733 29.6517Z" stroke="#221D1E" stroke-width="1.78984" stroke-miterlimit="10"/>
<circle cx="15.2733" cy="15.2733" r="9.81855" fill="#ED222A"/>
<path d="M15.2733 24.3617C20.2927 24.3617 24.3617 20.2927 24.3617 15.2733C24.3617 10.2539 20.2927 6.18494 15.2733 6.18494C10.2539 6.18494 6.18494 10.2539 6.18494 15.2733C6.18494 20.2927 10.2539 24.3617 15.2733 24.3617Z" stroke="#221D1E" stroke-width="1.78984" stroke-miterlimit="10"/>
<path d="M6.39294 17.3464C9.06786 16.0163 12.0833 15.2684 15.2734 15.2684C18.4634 15.2684 21.4788 16.0163 24.1538 17.3464" stroke="#221D1E" stroke-width="1.78984" stroke-miterlimit="10"/>
<path d="M8.42395 21.2468C10.5602 20.4668 12.867 20.0413 15.2733 20.0413C17.6659 20.0413 19.9602 20.4621 22.0863 21.2335" stroke="#221D1E" stroke-width="1.78984" stroke-miterlimit="10"/>
<path d="M6.39294 12.5736C9.06786 11.2435 12.0833 10.4955 15.2734 10.4955C18.4634 10.4955 21.4788 11.2435 24.1538 12.5736" stroke="#221D1E" stroke-width="1.78984" stroke-miterlimit="10"/>
</g>
<defs>
<clipPath id="clip0_865_37135">
<rect width="30.5466" height="30.5466" fill="white"/>
</clipPath>
</defs>
</svg>
