<svg width="32" height="33" viewBox="0 0 32 33" fill="none" xmlns="http://www.w3.org/2000/svg">
<g clip-path="url(#clip0_865_37385)">
<path d="M27.0029 31.2085H4.63467C2.58693 31.2085 0.92688 29.5485 0.92688 27.5007H30.7107C30.7107 29.5485 29.0507 31.2085 27.0029 31.2085Z" stroke="white" stroke-width="1.85377" stroke-miterlimit="10"/>
<path d="M8.72764 13.7712H3.27289L2.72742 17.0441L4.36384 19.7715L6.54574 20.3169L8.72764 18.6805V13.7712Z" fill="#ED222A"/>
<path d="M18.5462 13.7712H13.0914V18.6805L14.7279 20.3169H16.9098L18.5462 17.5896V13.7712Z" fill="#ED222A"/>
<path d="M28.3647 13.7712H22.91V18.6805L24.5464 19.7715L26.1828 20.3169L28.3647 19.226V13.7712Z" fill="#ED222A"/>
<path d="M15.8187 20.3276C14.2921 20.3276 13.0546 19.09 13.0546 17.5634V7.38745H18.5829V17.5634C18.5829 19.09 17.3453 20.3276 15.8187 20.3276Z" stroke="white" stroke-width="1.85377" stroke-miterlimit="10"/>
<path d="M15.8188 20.3276V27.5006" stroke="white" stroke-width="1.85377" stroke-miterlimit="10"/>
<path d="M13.0546 13.8577H18.5829" stroke="white" stroke-width="1.85377" stroke-miterlimit="10"/>
<path d="M5.96471 20.3276C4.43813 20.3276 3.20056 19.09 3.20056 17.5634V7.38745H8.72885V17.5634C8.72885 19.09 7.49128 20.3276 5.96471 20.3276Z" stroke="white" stroke-width="1.85377" stroke-miterlimit="10"/>
<path d="M5.96472 20.3276V27.5006" stroke="white" stroke-width="1.85377" stroke-miterlimit="10"/>
<path d="M3.20056 13.8577H8.72885" stroke="white" stroke-width="1.85377" stroke-miterlimit="10"/>
<path d="M25.6728 20.3276C24.1463 20.3276 22.9087 19.09 22.9087 17.5634V7.38745H28.437V17.5634C28.437 19.09 27.1994 20.3276 25.6728 20.3276Z" stroke="white" stroke-width="1.85377" stroke-miterlimit="10"/>
<path d="M25.6729 20.3276V27.5006" stroke="white" stroke-width="1.85377" stroke-miterlimit="10"/>
<path d="M22.9087 13.8577H28.437" stroke="white" stroke-width="1.85377" stroke-miterlimit="10"/>
<path d="M9.96484 1.4248H11.8187" stroke="white" stroke-width="1.85377" stroke-miterlimit="10"/>
<path d="M19.8188 3.71118H21.6727" stroke="white" stroke-width="1.85377" stroke-miterlimit="10"/>
</g>
<defs>
<clipPath id="clip0_865_37385">
<rect width="31.6375" height="31.6375" fill="white" transform="translate(0 0.497803)"/>
</clipPath>
</defs>
</svg>
