<svg width="25" height="22" viewBox="0 0 25 22" fill="none" xmlns="http://www.w3.org/2000/svg">
<path d="M24.8177 9.03997C24.7584 10.9337 20.9592 11.7898 20.9592 11.7898C20.9592 11.7898 20.4404 16.3833 18.2216 19.231C15.628 22.5586 10.4336 22.9557 7.52257 19.3513C5.21659 16.4955 4.70573 11.7544 4.70573 11.7544C4.70573 11.7544 0.921834 10.9698 0.951344 9.18043C0.983286 7.21555 4.63497 6.36009 4.63497 6.36009C4.63497 6.36009 4.52264 4.18325 5.05011 2.62009C5.67743 0.762044 7.21457 0.401159 8.30347 0.490428C9.44387 0.583822 10.8051 1.17761 10.8051 1.17761C10.8051 1.17761 11.8246 1.49502 12.8499 1.49502C13.8869 1.49502 14.9298 1.17761 14.9298 1.17761C14.9298 1.17761 16.1045 0.653313 17.1726 0.529351C17.9156 0.443149 19.8723 0.560976 20.4917 2.21193C21.0827 3.78768 20.9941 6.36009 20.9941 6.36009C20.9941 6.36009 24.8694 7.38616 24.8177 9.03997ZM8.57286 18.4687C10.7628 21.2323 14.9331 21.2941 17.1376 18.498C18.9809 16.16 19.549 12.0714 19.549 12.0714C19.549 12.0714 18.6245 12.2493 17.2611 12.4164C17.3257 12.5588 17.3629 12.7161 17.3629 12.8825C17.3629 13.5053 16.8579 14.0106 16.2347 14.0106C15.6113 14.0106 15.1064 13.5053 15.1064 12.8825C15.1064 12.7928 15.1178 12.7066 15.1375 12.623C14.4252 12.6737 13.6737 12.7062 12.9208 12.7062C12.1077 12.7062 11.2934 12.669 10.5252 12.6139C10.546 12.6999 10.5586 12.7897 10.5586 12.8825C10.5586 13.5053 10.0533 14.0106 9.43033 14.0106C8.80693 14.0106 8.30209 13.5053 8.30209 12.8825C8.30209 12.7128 8.34059 12.5525 8.40776 12.4082C7.04249 12.2433 6.11595 12.0714 6.11595 12.0714C6.11595 12.0714 6.70551 16.1124 8.57286 18.4687ZM19.039 2.32584C18.3412 1.43093 16.7903 1.94306 16.1261 2.15672C15.2677 2.4333 14.1457 2.86992 13.0611 2.86992C11.2855 2.86992 9.46492 2.12901 9.46492 2.12901C9.46492 2.12901 7.42654 1.3864 6.76368 2.26323C6.38323 2.76658 6.1609 3.54356 6.07385 4.30256C5.93942 5.47702 6.08052 6.60696 6.08052 6.60696C6.08052 6.60696 6.76379 6.88788 7.82349 7.12089C9.13905 7.4107 11.034 7.66465 12.9203 7.66465C14.7332 7.66465 16.537 7.42487 17.8099 7.14035C18.8869 6.89952 19.5835 6.60706 19.5835 6.60706C19.5835 6.60706 19.9853 3.53965 19.039 2.32584ZM18.1564 8.42968C16.7046 8.73874 14.7992 8.93388 12.8852 8.93388C11.3508 8.93388 9.8111 8.85265 8.49533 8.62302C6.38111 8.25283 4.84672 7.69998 4.84672 7.69998C4.84672 7.69998 2.37489 8.35511 2.33787 9.07635C2.30434 9.73233 5.22833 11.3312 12.709 11.3312C20.3537 11.3312 23.5645 9.75401 23.4892 9.01247C23.4212 8.344 20.7121 7.66454 20.7121 7.66454C20.7121 7.66454 19.6864 8.10454 18.1564 8.42968Z" fill="white"/>
</svg>
