<svg width="40" height="40" viewBox="0 0 40 40" fill="none" xmlns="http://www.w3.org/2000/svg">
<path d="M37.727 17.0417C37.1113 16.5878 36.3426 16.0209 36.2417 15.6452C36.1322 15.233 36.5235 14.3304 36.84 13.6052C37.3826 12.36 37.9426 11.0696 37.32 9.99652C36.6922 8.90956 35.2817 8.74957 33.92 8.59652C33.1426 8.50956 32.1756 8.40174 31.887 8.1113C31.5965 7.82087 31.4887 6.85391 31.4017 6.07826C31.2487 4.71652 31.0904 3.30783 30.0017 2.67826C29.0557 2.1287 27.6539 2.6087 26.393 3.15826C25.6974 3.46087 24.9704 3.74957 24.3513 3.75652C23.9757 3.65565 23.4104 2.88696 22.9548 2.2713C22.1722 1.20696 21.2835 0 20 0C18.7183 0 17.8278 1.20696 17.0435 2.2713C16.5878 2.8887 16.0226 3.65739 15.4904 3.77391C15.0209 3.77391 14.3009 3.46087 13.6052 3.15826C12.3409 2.6087 10.9374 2.13391 9.99826 2.67826C8.90783 3.30783 8.74957 4.71652 8.59652 6.08C8.50956 6.85739 8.40174 7.82261 8.11304 8.11304C7.82261 8.40174 6.85565 8.5113 6.08 8.59652C4.71652 8.74957 3.30609 8.90956 2.67826 9.99652C2.05739 11.0696 2.61739 12.3583 3.15826 13.6052C3.47478 14.3304 3.86783 15.2348 3.75652 15.647C3.65565 16.0226 2.8887 16.5896 2.2713 17.0435C1.20696 17.8261 0 18.7165 0 20C0 21.2835 1.20696 22.1739 2.27304 22.9583C2.8887 23.4122 3.65739 23.9791 3.75826 24.3548C3.86783 24.767 3.47652 25.6696 3.16 26.3948C2.61739 27.64 2.05739 28.9304 2.68 30.0035C3.30783 31.0904 4.71826 31.2504 6.08 31.4035C6.85739 31.4904 7.82435 31.5983 8.11304 31.8887C8.40348 32.1791 8.5113 33.1461 8.59826 33.9217C8.7513 35.2835 8.90956 36.6922 9.99826 37.3217C10.9391 37.8696 12.3409 37.3913 13.6052 36.8417C14.3009 36.5391 15.0157 36.2313 15.647 36.2435C16.0226 36.3443 16.5878 37.113 17.0435 37.7287C17.8278 38.793 18.7165 40 20 40C21.2817 40 22.1722 38.793 22.9565 37.7287C23.4122 37.1113 23.9774 36.3426 24.5096 36.2243C24.9791 36.2243 25.6991 36.5374 26.3948 36.84C27.6626 37.3896 29.0626 37.8661 30.0017 37.3217C31.0922 36.6922 31.2504 35.2835 31.4035 33.92C31.4904 33.1426 31.5983 32.1774 31.887 31.887C32.1774 31.5965 33.1443 31.4887 33.92 31.4017C35.2835 31.2487 36.6939 31.0904 37.3217 30.0017C37.9426 28.9287 37.3826 27.64 36.8417 26.393C36.5252 25.6678 36.1339 24.7635 36.2435 24.353C36.3443 23.9774 37.1113 23.4104 37.7287 22.9565C38.793 22.1739 40 21.2835 40 20C40 18.7165 38.793 17.8261 37.727 17.0417ZM15.6522 23.4783C15.6522 23.8522 15.4122 24.1843 15.0574 24.3026C14.967 24.3339 14.8748 24.3478 14.7826 24.3478C14.5148 24.3478 14.2539 24.2226 14.087 24L10.4348 19.1304V23.4783C10.4348 23.9583 10.0452 24.3478 9.56522 24.3478C9.08522 24.3478 8.69565 23.9583 8.69565 23.4783V16.5217C8.69565 16.1478 8.93565 15.8157 9.29043 15.6974C9.64348 15.5774 10.0365 15.7009 10.2609 16L13.913 20.8696V16.5217C13.913 16.0417 14.3026 15.6522 14.7826 15.6522C15.2626 15.6522 15.6522 16.0417 15.6522 16.5217V23.4783ZM21.7391 19.1304C22.2191 19.1304 22.6087 19.52 22.6087 20C22.6087 20.48 22.2191 20.8696 21.7391 20.8696H19.1304V22.6087H21.7391C22.2191 22.6087 22.6087 22.9983 22.6087 23.4783C22.6087 23.9583 22.2191 24.3478 21.7391 24.3478H18.2609C17.7809 24.3478 17.3913 23.9583 17.3913 23.4783V16.5217C17.3913 16.0417 17.7809 15.6522 18.2609 15.6522H21.7391C22.2191 15.6522 22.6087 16.0417 22.6087 16.5217C22.6087 17.0017 22.2191 17.3913 21.7391 17.3913H19.1304V19.1304H21.7391ZM33.0174 16.7322L31.2783 23.6887C31.1843 24.0643 30.8539 24.3322 30.4678 24.3461C30.4557 24.3461 30.4435 24.3461 30.433 24.3461C30.0591 24.3461 29.727 24.1078 29.607 23.7513L28.6957 21.0104L27.7826 23.753C27.6609 24.1183 27.36 24.3635 26.9235 24.3461C26.5374 24.3322 26.207 24.0626 26.113 23.6887L24.3739 16.7322C24.2591 16.2661 24.5409 15.7948 25.007 15.6783C25.4643 15.56 25.9443 15.8435 26.0609 16.3113L27.0748 20.3704L27.8696 17.9861C28.1078 17.2765 29.2835 17.2765 29.52 17.9861L30.3148 20.3704L31.3287 16.3113C31.4435 15.8435 31.913 15.5617 32.3826 15.6783C32.8522 15.7948 33.1339 16.2678 33.0174 16.7322Z" fill="#FFB904"/>
</svg>
