<svg width="74" height="40" viewBox="0 0 74 40" fill="none" xmlns="http://www.w3.org/2000/svg">
<g clip-path="url(#clip0_790_31126)">
<path d="M73.143 0H0V40.0001H73.143V0Z" fill="#E6FFD1"/>
<path d="M70.5772 0H17.5742V40.0001H70.5772V0Z" fill="#BFEB9A"/>
<path d="M3.14442 32.959H3.88429V38.3087H2.99677V34.0622L2.29864 34.7552L1.84766 34.0925L3.14442 32.959Z" fill="#425E41"/>
<path d="M6.1283 32.8729C6.67478 32.8729 7.09125 33.1086 7.37773 33.581C7.6642 34.0526 7.80784 34.7368 7.80784 35.6329C7.80784 36.5291 7.6634 37.2054 7.37371 37.6769C7.08403 38.1485 6.66916 38.3843 6.1275 38.3843C5.58584 38.3843 5.16857 38.1493 4.88209 37.6785C4.59481 37.2077 4.45117 36.5259 4.45117 35.6322C4.45117 34.7384 4.59481 34.0526 4.88209 33.5802C5.16857 33.1086 5.58424 32.8721 6.1275 32.8721L6.1283 32.8729ZM6.1283 33.6145C5.87553 33.6145 5.68936 33.7786 5.5706 34.1075C5.45183 34.4365 5.39245 34.9447 5.39245 35.6322C5.39245 36.3196 5.45264 36.8278 5.573 37.1552C5.69337 37.4826 5.87794 37.6467 6.1283 37.6467C6.37867 37.6467 6.56725 37.4826 6.68761 37.1552C6.80798 36.8278 6.86736 36.3204 6.86736 35.6322C6.86736 34.9439 6.80638 34.4365 6.68521 34.1075C6.56404 33.7786 6.37787 33.6145 6.1275 33.6145H6.1283Z" fill="#425E41"/>
<path d="M10.0865 32.8729C10.633 32.8729 11.0494 33.1086 11.3359 33.581C11.6224 34.0526 11.766 34.7368 11.766 35.6329C11.766 36.5291 11.6216 37.2054 11.3319 37.6769C11.0422 38.1485 10.6273 38.3843 10.0857 38.3843C9.54403 38.3843 9.12675 38.1493 8.84027 37.6785C8.55299 37.2077 8.41016 36.5259 8.41016 35.6322C8.41016 34.7384 8.5538 34.0526 8.84027 33.5802C9.12675 33.1086 9.54242 32.8721 10.0857 32.8721L10.0865 32.8729ZM10.0865 33.6145C9.83371 33.6145 9.64754 33.7786 9.52878 34.1075C9.41002 34.4365 9.35063 34.9447 9.35063 35.6322C9.35063 36.3196 9.41082 36.8278 9.53119 37.1552C9.65155 37.4826 9.83612 37.6467 10.0865 37.6467C10.3369 37.6467 10.5254 37.4826 10.6458 37.1552C10.7662 36.8278 10.8255 36.3204 10.8255 35.6322C10.8255 34.9439 10.7646 34.4365 10.6434 34.1075C10.5222 33.7786 10.336 33.6145 10.0857 33.6145H10.0865Z" fill="#425E41"/>
<path d="M17.5746 1.7002H9.23633V7.22594H17.5746V1.7002Z" fill="#395888"/>
<path d="M13.8752 33.9524H12.9524V34.4479H13.864V34.9027H12.9524V35.43H13.8608V35.908H12.373V33.4912H13.8752V33.9516V33.9524Z" fill="#425E41"/>
<path d="M16.8369 33.4918V34.9965C16.8369 35.2395 16.8088 35.4203 16.7535 35.539C16.6973 35.6577 16.5946 35.7549 16.4437 35.8313C16.2937 35.9078 16.1011 35.9452 15.8668 35.9452C15.6324 35.9452 15.4463 35.911 15.3074 35.8425C15.1686 35.774 15.0651 35.6768 14.9961 35.5501C14.9271 35.4235 14.8926 35.2395 14.8926 34.9957V33.491H15.5113V34.9957C15.5113 35.1256 15.5225 35.2212 15.5442 35.2825C15.5658 35.3438 15.61 35.3924 15.6758 35.4283C15.7416 35.4641 15.8226 35.4824 15.9189 35.4824C16.0256 35.4824 16.1131 35.4649 16.1805 35.4291C16.2479 35.394 16.2921 35.347 16.3145 35.2881C16.3362 35.2299 16.3474 35.1319 16.3474 34.9949V33.4902H16.8361L16.8369 33.4918Z" fill="#425E41"/>
<path d="M18.3343 34.9515V35.909H17.7598V33.4922H18.8294C19.0268 33.4922 19.1849 33.5153 19.3045 33.5607C19.4241 33.6061 19.5228 33.6897 19.6014 33.8108C19.68 33.9319 19.7194 34.0673 19.7194 34.2163C19.7194 34.5062 19.5781 34.7149 19.2965 34.8408L19.7458 35.909H19.1159L18.742 34.9515H18.3335H18.3343ZM18.3343 33.9231V34.5389H18.6842C18.7981 34.5389 18.8816 34.5309 18.933 34.515C18.9843 34.499 19.0309 34.464 19.071 34.409C19.1111 34.3541 19.132 34.2911 19.132 34.2202C19.132 34.1494 19.1119 34.0928 19.071 34.0394C19.0309 33.9861 18.9867 33.9534 18.9394 33.9414C18.892 33.9287 18.803 33.9231 18.6722 33.9231H18.3351H18.3343Z" fill="#425E41"/>
<path d="M21.3303 35.9461C21.0021 35.9461 20.7486 35.8242 20.5696 35.5797C20.3899 35.3351 20.3008 35.0396 20.3008 34.6931C20.3008 34.3466 20.3915 34.0455 20.5736 33.8097C20.755 33.5739 21.0142 33.4561 21.3504 33.4561C21.6866 33.4561 21.9466 33.5819 22.1191 33.8336C22.2917 34.0853 22.3783 34.3737 22.3783 34.6987C22.3783 35.0492 22.2893 35.3447 22.1111 35.5853C21.933 35.8258 21.673 35.9461 21.3303 35.9461ZM21.3464 33.9173C21.0471 33.9173 20.8978 34.1777 20.8978 34.6995C20.8978 35.2212 21.0471 35.4841 21.3464 35.4841C21.6457 35.4841 21.7805 35.2236 21.7805 34.7019C21.7805 34.1801 21.6361 33.9173 21.3464 33.9173Z" fill="#425E41"/>
<path d="M23.8538 36.1768H12.373V38.6453H23.8538V36.1768Z" fill="#8EC760"/>
<path d="M35.0842 4.7041L35.7173 5.97621L37.132 6.18013L36.1081 7.17105L36.3496 8.56981L35.0842 7.90946L33.8187 8.56981L34.061 7.17105L33.0371 6.18013L34.4518 5.97621L35.0842 4.7041Z" fill="#E6FFD1"/>
<path d="M35.0842 32.2148L35.7173 33.4877L37.132 33.6917L36.1081 34.6818L36.3496 36.0806L35.0842 35.4202L33.8187 36.0806L34.061 34.6818L33.0371 33.6917L34.4518 33.4877L35.0842 32.2148Z" fill="#E6FFD1"/>
<path d="M42.0158 29.96L42.649 31.2329L44.0637 31.4368L43.0397 32.4277L43.2813 33.8257L42.0158 33.1653L40.7511 33.8257L40.9927 32.4277L39.9688 31.4368L41.3835 31.2329L42.0158 29.96Z" fill="#E6FFD1"/>
<path d="M28.001 29.96L28.6333 31.2329L30.0481 31.4368L29.0241 32.4277L29.2665 33.8257L28.001 33.1653L26.7355 33.8257L26.9771 32.4277L25.9531 31.4368L27.3679 31.2329L28.001 29.96Z" fill="#E6FFD1"/>
<path d="M22.96 25.0322L23.5923 26.3051L25.007 26.5091L23.9831 27.4992L24.2246 28.8979L22.96 28.2376L21.6945 28.8979L21.936 27.4992L20.9121 26.5091L22.3268 26.3051L22.96 25.0322Z" fill="#E6FFD1"/>
<path d="M47.2139 25.0322L47.8462 26.3051L49.2609 26.5091L48.237 27.4992L48.4794 28.8979L47.2139 28.2376L45.9484 28.8979L46.1899 27.4992L45.166 26.5091L46.5807 26.3051L47.2139 25.0322Z" fill="#E6FFD1"/>
<path d="M48.6975 18.5635L49.3298 19.8364L50.7445 20.0403L49.7214 21.0312L49.9629 22.4292L48.6975 21.7688L47.432 22.4292L47.6735 21.0312L46.6504 20.0403L48.0643 19.8364L48.6975 18.5635Z" fill="#E6FFD1"/>
<path d="M20.9123 18.5635L21.5454 19.8364L22.9602 20.0403L21.9362 21.0312L22.1778 22.4292L20.9123 21.7688L19.6468 22.4292L19.8892 21.0312L18.8652 20.0403L20.28 19.8364L20.9123 18.5635Z" fill="#E6FFD1"/>
<path d="M22.96 11.8711L23.5923 13.1432L25.007 13.3471L23.9831 14.338L24.2246 15.7368L22.96 15.0765L21.6945 15.7368L21.936 14.338L20.9121 13.3471L22.3268 13.1432L22.96 11.8711Z" fill="#E6FFD1"/>
<path d="M46.6494 11.8711L47.2818 13.1432L48.6965 13.3471L47.6726 14.338L47.9141 15.7368L46.6494 15.0765L45.384 15.7368L45.6255 14.338L44.6016 13.3471L46.0163 13.1432L46.6494 11.8711Z" fill="#E6FFD1"/>
<path d="M42.0158 6.84082L42.649 8.11372L44.0637 8.31764L43.0397 9.30777L43.2813 10.7065L42.0158 10.0462L40.7511 10.7065L40.9927 9.30777L39.9688 8.31764L41.3835 8.11372L42.0158 6.84082Z" fill="#E6FFD1"/>
<path d="M28.001 6.84082L28.6333 8.11372L30.0481 8.31764L29.0241 9.30777L29.2665 10.7065L28.001 10.0462L26.7355 10.7065L26.9771 9.30777L25.9531 8.31764L27.3679 8.11372L28.001 6.84082Z" fill="#E6FFD1"/>
<path d="M64.0682 0H43.1152V40.0001H64.0682V0Z" fill="#A3D678"/>
<path d="M34.8062 34.2304H36.111L36.1062 15.0619L33.9998 15.0157C33.9998 15.0157 39.7879 9.84845 41.7354 9.61586C43.683 9.38326 45.726 12.0071 45.726 12.0071L45.8304 7.22538L58.5236 6.83984L59.3148 12.0063L62.4348 14.9934L59.9311 15.0611V34.1475H60.8748C60.8748 34.1475 61.3354 36.2871 63.4443 36.5978C65.5531 36.9084 68.2871 36.7531 68.2871 36.7531V38.6457H23.8535V36.1772C23.8535 36.1772 24.4618 37.6643 29.0759 36.9092C32.0297 36.4257 33.0392 36.1772 33.0392 36.1772C34.1594 35.9055 34.8054 34.2312 34.8054 34.2312L34.8062 34.2304Z" fill="#8EC760"/>
<path d="M46.3711 33.8249V28.3789C46.3711 28.3789 46.6568 26.3389 48.0867 26.3389C49.6226 26.3389 49.8024 28.3016 49.8024 28.3016V33.8249H46.3719H46.3711Z" fill="#BFEB9A"/>
<path d="M66.9452 30.5714C68.9515 30.5714 70.5779 28.957 70.5779 26.9654C70.5779 24.9738 68.9515 23.3594 66.9452 23.3594C64.9389 23.3594 63.3125 24.9738 63.3125 26.9654C63.3125 28.957 64.9389 30.5714 66.9452 30.5714Z" fill="#395888"/>
<path d="M45.4244 2.0957H46.9884V13.4085H45.1115V4.42883L43.6358 5.8937L42.6816 4.49255L45.4244 2.0965V2.0957Z" fill="#425E41"/>
<path d="M52.3394 1.91406C53.4941 1.91406 54.3752 2.41271 54.9819 3.4108C55.5885 4.40889 55.8918 5.85465 55.8918 7.74966C55.8918 9.64468 55.5853 11.0745 54.9738 12.0726C54.3616 13.0707 53.4837 13.5693 52.3394 13.5693C51.1951 13.5693 50.3116 13.0715 49.7049 12.0766C49.0983 11.0817 48.7949 9.6391 48.7949 7.74966C48.7949 5.86022 49.0983 4.40889 49.7049 3.4108C50.3116 2.41351 51.1902 1.91406 52.3394 1.91406ZM52.3394 3.48249C51.8049 3.48249 51.4117 3.82979 51.1606 4.52519C50.9094 5.22058 50.7834 6.29514 50.7834 7.74966C50.7834 9.20418 50.9102 10.2772 51.1646 10.9694C51.419 11.6624 51.8105 12.0081 52.3394 12.0081C52.8682 12.0081 53.2686 11.6616 53.5222 10.9694C53.7766 10.2772 53.9034 9.20339 53.9034 7.74966C53.9034 6.29594 53.775 5.22058 53.5182 4.52519C53.2614 3.82979 52.8682 3.48249 52.3394 3.48249Z" fill="#425E41"/>
<path d="M60.8726 1.91406C62.0273 1.91406 62.9084 2.41271 63.5151 3.4108C64.1217 4.40889 64.425 5.85465 64.425 7.74966C64.425 9.64468 64.1185 11.0745 63.507 12.0726C62.8948 13.0707 62.0169 13.5693 60.8726 13.5693C59.7283 13.5693 58.8448 13.0715 58.2381 12.0766C57.6315 11.0817 57.3281 9.6391 57.3281 7.74966C57.3281 5.86022 57.6315 4.40889 58.2381 3.4108C58.8448 2.41351 59.7235 1.91406 60.8726 1.91406ZM60.8726 3.48249C60.3381 3.48249 59.9449 3.82979 59.6938 4.52519C59.4426 5.22058 59.3166 6.29514 59.3166 7.74966C59.3166 9.20418 59.4434 10.2772 59.6978 10.9694C59.9522 11.6624 60.3438 12.0081 60.8726 12.0081C61.4014 12.0081 61.8018 11.6616 62.0554 10.9694C62.3098 10.2772 62.4366 9.20339 62.4366 7.74966C62.4366 6.29594 62.3082 5.22058 62.0514 4.52519C61.7946 3.82979 61.4014 3.48249 60.8726 3.48249Z" fill="#425E41"/>
</g>
<defs>
<clipPath id="clip0_790_31126">
<rect width="73.143" height="40.0001" fill="white"/>
</clipPath>
</defs>
</svg>
