<svg width="25" height="19" viewBox="0 0 25 19" fill="none" xmlns="http://www.w3.org/2000/svg">
<path d="M21.5462 13.7144L5.62271 18.1355C4.65192 18.4045 3.6475 17.8371 3.37853 16.8705L2.96248 15.3702L0.785552 7.52821C0.516581 6.55742 1.08392 5.55303 2.05471 5.28405L3.27347 4.94365L6.76159 3.97706L17.9783 0.862942C18.949 0.593972 19.9535 1.16133 20.2224 2.13213L20.7351 3.97706L22.8154 11.4702C23.0844 12.441 22.517 13.4454 21.5462 13.7144Z" fill="#F7CC6D"/>
<path d="M21.5466 13.7144L5.62312 18.1355C4.65233 18.4045 3.64791 17.8371 3.37894 16.8705L2.96289 15.3702V6.03209C2.96289 5.63286 3.07637 5.25883 3.27388 4.94364L6.762 3.97705H20.7355L22.8158 11.4702C23.0848 12.441 22.5174 13.4454 21.5466 13.7144Z" fill="#F4BC5F"/>
<path d="M22.6015 12.9327C22.5216 13.0546 22.4292 13.1681 22.3241 13.2731C22.114 13.4791 21.8534 13.6303 21.5509 13.7144H21.5466L5.62312 18.1355C5.4298 18.1901 5.23229 18.2112 5.04317 18.1985C4.57629 18.2653 3.61881 17.7583 3.37894 16.8705L2.96289 15.3702V6.03209C2.96289 5.63286 3.07637 5.25883 3.27388 4.94364L6.762 3.97705H20.7356L22.8158 11.4702C22.9587 11.9871 22.8663 12.5125 22.6015 12.9327Z" fill="#F4BC5F"/>
<path d="M20.2234 2.13194L22.817 11.4721C23.0861 12.4412 22.5221 13.4469 21.553 13.716L5.62658 18.1385C4.65644 18.4079 3.65105 17.841 3.38115 16.8691C3.11207 15.9001 3.6815 14.8928 4.65056 14.6237L9.28781 13.336C12.4249 12.4649 14.5332 9.71519 14.7294 6.64144C14.7866 5.87074 14.7137 5.0772 14.5072 4.29125C14.5006 4.24592 14.4884 4.20211 14.4762 4.15834L14.4747 4.15286C14.1448 2.96482 14.8408 1.73366 16.0344 1.40224L17.9834 0.861019C18.9524 0.591935 19.9543 1.16291 20.2234 2.13194Z" fill="#F4BC5F"/>
<path d="M22.6016 12.9327C22.5217 13.0546 22.4293 13.1681 22.3242 13.2731C22.1141 13.4791 21.8535 13.6303 21.5509 13.7144H21.5467L5.62319 18.1397C5.42986 18.1943 5.23235 18.2154 5.04323 18.1985C4.57636 18.2653 3.61887 17.7583 3.379 16.8705C3.11003 15.8997 3.6816 14.8911 4.64819 14.6221L9.28782 13.3362C12.4229 12.4662 14.5326 9.71354 14.7259 6.64147C14.7848 5.87239 14.7133 5.07812 14.5074 4.29224C14.499 4.246 14.4864 4.20398 14.4738 4.15776V4.15355C14.457 4.09471 14.4444 4.03587 14.4318 3.97705H20.7356L22.8159 11.4702C22.9588 11.9871 22.8663 12.5125 22.6016 12.9327Z" fill="#E0A958"/>
<path d="M19.6362 9.73704L17.8111 10.2438C17.5686 10.3112 17.3174 10.1692 17.2501 9.92671L16.7433 8.1016C16.676 7.85911 16.8179 7.60795 17.0604 7.54062L18.8855 7.03382C19.128 6.96648 19.3792 7.10847 19.4465 7.35096L19.9533 9.17606C20.0206 9.41855 19.8787 9.66971 19.6362 9.73704Z" fill="#F7CC6D"/>
<path d="M18.8841 7.03333C18.5817 7.1173 18.4046 7.43053 18.4886 7.73293L18.5123 7.81843C18.7222 8.57434 18.2796 9.35729 17.5237 9.5672L17.1758 9.6638L17.2487 9.92622C17.316 10.1687 17.5671 10.3107 17.8096 10.2434L19.6347 9.73655C19.8772 9.66921 20.0192 9.41806 19.9519 9.17557L19.4451 7.35049C19.3777 7.10799 19.1266 6.96599 18.8841 7.03333Z" fill="#F7CC6D"/>
<path d="M9.32932 10.9882L4.52328 12.3227C4.11181 12.437 3.68562 12.1961 3.57136 11.7846C3.4571 11.3731 3.69804 10.9469 4.10951 10.8327L8.91555 9.49811C9.32702 9.38385 9.75321 9.62479 9.86747 10.0363C9.98173 10.4477 9.74079 10.8739 9.32932 10.9882Z" fill="#F7CC6D"/>
<path d="M8.24415 15.7376L6.08952 16.3359C5.82472 16.4095 5.55045 16.2544 5.47692 15.9896L5.47335 15.9767C5.39982 15.7119 5.55487 15.4377 5.81967 15.3641L7.9743 14.7658C8.2391 14.6923 8.51337 14.8474 8.5869 15.1121L8.59047 15.125C8.664 15.3898 8.50895 15.6641 8.24415 15.7376Z" fill="#F7CC6D"/>
<path d="M12.2715 14.619L10.1169 15.2173C9.85206 15.2908 9.57779 15.1357 9.50426 14.8709L9.50069 14.8581C9.42716 14.5933 9.58221 14.319 9.84701 14.2455L12.0016 13.6472C12.2664 13.5736 12.5407 13.7287 12.6142 13.9935L12.6178 14.0064C12.6913 14.2712 12.5363 14.5454 12.2715 14.619Z" fill="#F7CC6D"/>
<path d="M16.2988 13.5003L14.1442 14.0986C13.8794 14.1721 13.6051 14.0171 13.5316 13.7523L13.528 13.7394C13.4545 13.4746 13.6096 13.2004 13.8744 13.1268L16.029 12.5285C16.2938 12.455 16.5681 12.61 16.6416 12.8748L16.6452 12.8877C16.7187 13.1525 16.5636 13.4268 16.2988 13.5003Z" fill="#F7CC6D"/>
<path d="M20.3281 12.3819L18.1735 12.9802C17.9087 13.0537 17.6344 12.8987 17.5609 12.6339L17.5573 12.621C17.4838 12.3562 17.6389 12.0819 17.9037 12.0084L20.0583 11.4101C20.3231 11.3366 20.5974 11.4916 20.6709 11.7564L20.6745 11.7693C20.748 12.0341 20.5929 12.3084 20.3281 12.3819Z" fill="#F7CC6D"/>
<path d="M22.4587 18.163H5.93129C4.92508 18.163 4.10938 17.3473 4.10938 16.3411V6.64589C4.10938 5.63968 4.92508 4.82397 5.93129 4.82397H22.4587C23.4649 4.82397 24.2806 5.63968 24.2806 6.64589V16.3411C24.2806 17.3473 23.4649 18.163 22.4587 18.163Z" fill="#63AFFA"/>
<path d="M24.2787 6.64764V16.3412C24.2787 17.3469 23.4661 18.1652 22.4604 18.1652H5.93134C5.42563 18.1652 4.97107 17.9606 4.6415 17.631C4.31197 17.3015 4.10742 16.8469 4.10742 16.3412C4.10742 15.3355 4.9256 14.5173 5.93134 14.5173H10.744C13.9998 14.5173 16.767 12.432 17.7784 9.52276C18.0398 8.79547 18.1818 8.01135 18.1932 7.19882C18.1989 7.15335 18.1989 7.10789 18.1989 7.06246V7.05677C18.1989 5.82378 19.1989 4.82373 20.4376 4.82373H22.4604C23.4661 4.82373 24.2787 5.64195 24.2787 6.64764Z" fill="#529FFB"/>
<path d="M4.10938 7.20117H24.2808V9.52121H4.10938V7.20117Z" fill="#626681"/>
<path d="M24.2796 7.19897V9.52291H17.7793C18.0406 8.79563 18.1827 8.0115 18.1941 7.19897H24.2796Z" fill="#4D5471"/>
<path d="M11.4135 12.2667H6.42557C5.99853 12.2667 5.65234 11.9205 5.65234 11.4934C5.65234 11.0664 5.99853 10.7202 6.42557 10.7202H11.4135C11.8405 10.7202 12.1867 11.0664 12.1867 11.4934C12.1867 11.9205 11.8405 12.2667 11.4135 12.2667Z" fill="#82C8FB"/>
<path d="M9.099 16.5523H6.86284C6.58802 16.5523 6.36523 16.3295 6.36523 16.0547V16.0413C6.36523 15.7665 6.58802 15.5437 6.86284 15.5437H9.099C9.37381 15.5437 9.5966 15.7665 9.5966 16.0413V16.0547C9.5966 16.3295 9.37381 16.5523 9.099 16.5523Z" fill="#82C8FB"/>
<path d="M13.2787 16.5523H11.0425C10.7677 16.5523 10.5449 16.3295 10.5449 16.0547V16.0413C10.5449 15.7665 10.7677 15.5437 11.0425 15.5437H13.2787C13.5535 15.5437 13.7763 15.7665 13.7763 16.0413V16.0547C13.7763 16.3295 13.5535 16.5523 13.2787 16.5523Z" fill="#82C8FB"/>
<path d="M17.4584 16.5523H15.2222C14.9474 16.5523 14.7246 16.3295 14.7246 16.0547V16.0413C14.7246 15.7665 14.9474 15.5437 15.2222 15.5437H17.4584C17.7332 15.5437 17.956 15.7665 17.956 16.0413V16.0547C17.956 16.3295 17.7332 16.5523 17.4584 16.5523Z" fill="#82C8FB"/>
<path d="M21.64 16.5523H19.4039C19.129 16.5523 18.9062 16.3295 18.9062 16.0547V16.0413C18.9062 15.7665 19.129 15.5437 19.4039 15.5437H21.64C21.9148 15.5437 22.1376 15.7665 22.1376 16.0413V16.0547C22.1376 16.3295 21.9148 16.5523 21.64 16.5523Z" fill="#82C8FB"/>
<path d="M18.7148 11.0859L20.4401 12.8111L18.7148 14.5364L16.9896 12.8111L18.7148 11.0859Z" fill="#F7CC6D"/>
<path d="M18.8263 12.0132V12.0284C18.8263 12.5735 18.3844 13.0153 17.8393 13.0153C17.6001 13.0153 17.4803 13.3046 17.6495 13.4737L18.7156 14.5398L20.4407 12.8147L19.4011 11.7751C19.189 11.563 18.8263 11.7132 18.8263 12.0132Z" fill="#F4BC5F"/>
<path d="M20.8887 11.0854L22.6139 12.8107L20.8887 14.5359L19.1635 12.8107L20.8887 11.0854Z" fill="#FC4A32"/>
<path d="M21.4881 12.0335C21.4881 12.6718 20.9707 13.1892 20.3325 13.1892C20.0403 13.1892 19.894 13.5424 20.1006 13.749L20.8914 14.5397L22.6165 12.8146L21.7337 11.9318C21.6431 11.8412 21.4881 11.9054 21.4881 12.0335Z" fill="#E23E2D"/>
</svg>
