<svg width="27" height="28" viewBox="0 0 27 28" fill="none" xmlns="http://www.w3.org/2000/svg">
<path d="M0 13.9238C0 6.48828 6.01172 0.423828 13.5 0.423828C20.9355 0.423828 27 6.48828 27 13.9238C27 21.4121 20.9355 27.4238 13.5 27.4238C6.01172 27.4238 0 21.4121 0 13.9238ZM13.5 19.8301C14.1855 19.8301 14.7656 19.3027 14.7656 18.5645V15.1895H18.1406C18.8262 15.1895 19.4062 14.6621 19.4062 13.9238C19.4062 13.2383 18.8262 12.6582 18.1406 12.6582H14.7656V9.2832C14.7656 8.59766 14.1855 8.01758 13.5 8.01758C12.7617 8.01758 12.2344 8.59766 12.2344 9.2832V12.6582H8.85938C8.12109 12.6582 7.59375 13.2383 7.59375 13.9238C7.59375 14.6621 8.12109 15.1895 8.85938 15.1895H12.2344V18.5645C12.2344 19.3027 12.7617 19.8301 13.5 19.8301Z" fill="white"/>
</svg>
