<svg width="57" height="15" viewBox="0 0 57 15" fill="none" xmlns="http://www.w3.org/2000/svg">
<g clip-path="url(#clip0_37_1821)">
<path fill-rule="evenodd" clip-rule="evenodd" d="M5.63314 3.90869H9.45848C11.5124 3.90869 12.2855 4.94061 12.166 6.45663C11.9686 8.9595 10.4439 10.3442 8.42167 10.3442H7.40066C7.12319 10.3442 6.93656 10.5265 6.86151 11.0204L6.42803 13.8917C6.39939 14.0779 6.30065 14.1857 6.15253 14.2004H3.7491C3.52298 14.2004 3.44299 14.0289 3.50224 13.6575L4.9676 4.45258C5.02488 4.08411 5.22829 3.90869 5.63314 3.90869Z" fill="#009EE3"/>
<path fill-rule="evenodd" clip-rule="evenodd" d="M22.24 3.73779C23.5306 3.73779 24.7215 4.4326 24.5585 6.16422C24.361 8.22217 23.2502 9.36091 21.4975 9.36581H19.9659C19.7457 9.36581 19.6391 9.54416 19.5818 9.90969L19.2856 11.7785C19.2412 12.0607 19.095 12.1999 18.8798 12.1999H17.4549C17.2278 12.1999 17.1488 12.0558 17.1991 11.7334L18.3752 4.24346C18.4334 3.87499 18.5727 3.73779 18.8264 3.73779H22.2371H22.24ZM19.9195 7.74786H21.0798C21.8056 7.72042 22.2874 7.22161 22.3358 6.32199C22.3654 5.76635 21.9872 5.36847 21.3859 5.37141L20.2938 5.37632L19.9195 7.74786ZM28.4323 11.6266C28.5626 11.509 28.6949 11.4483 28.6762 11.5933L28.6298 11.9402C28.6061 12.1215 28.6781 12.2175 28.848 12.2175H30.1139C30.3272 12.2175 30.4308 12.1323 30.4832 11.805L31.2633 6.94624C31.3028 6.70223 31.2425 6.58267 31.0559 6.58267H29.6636C29.5382 6.58267 29.477 6.65225 29.4444 6.84236L29.393 7.14126C29.3664 7.29707 29.2943 7.32451 29.2272 7.16772C28.9912 6.61305 28.3888 6.36413 27.5485 6.38373C25.5963 6.42391 24.2801 7.89486 24.1389 9.78034C24.0303 11.2385 25.0829 12.3841 26.4712 12.3841C27.4784 12.3841 27.9287 12.0901 28.4362 11.6296L28.4323 11.6266ZM27.3718 10.8789C26.5314 10.8789 25.9459 10.2135 26.0673 9.39815C26.1888 8.58281 26.9748 7.9174 27.8151 7.9174C28.6554 7.9174 29.241 8.58281 29.1195 9.39815C28.9981 10.2135 28.2131 10.8789 27.3718 10.8789ZM33.7407 6.56699H32.4571C32.1924 6.56699 32.0848 6.76298 32.1687 7.00406L33.7625 11.6354L32.1994 13.8394C32.068 14.0236 32.1697 14.1912 32.3544 14.1912H33.797C33.8811 14.2009 33.9662 14.1863 34.0422 14.1493C34.1182 14.1123 34.1818 14.0544 34.2256 13.9825L39.1272 7.00504C39.2783 6.79042 39.2072 6.56503 38.9594 6.56503H37.5937C37.3597 6.56503 37.2659 6.65715 37.1316 6.8502L35.0876 9.79014L34.1742 6.84334C34.1209 6.66499 33.9876 6.56699 33.7417 6.56699H33.7407Z" fill="#113984"/>
<path fill-rule="evenodd" clip-rule="evenodd" d="M44.2263 3.7378C45.5169 3.7378 46.7078 4.43261 46.5449 6.16423C46.3474 8.22218 45.2365 9.36092 43.4838 9.36582H41.9533C41.7331 9.36582 41.6264 9.54417 41.5691 9.9097L41.2729 11.7785C41.2285 12.0608 41.0823 12.1999 40.8671 12.1999H39.4422C39.2151 12.1999 39.1361 12.0559 39.1864 11.7334L40.3645 4.24151C40.4227 3.87304 40.5619 3.73584 40.8157 3.73584H44.2263V3.7378ZM41.9059 7.74787H43.0661C43.7919 7.72043 44.2737 7.22162 44.3221 6.322C44.3517 5.76636 43.9736 5.36848 43.3722 5.37142L42.2801 5.37633L41.9059 7.74787ZM50.4186 11.6266C50.5489 11.509 50.6812 11.4483 50.6625 11.5933L50.6161 11.9402C50.5924 12.1215 50.6645 12.2176 50.8343 12.2176H52.1002C52.3135 12.2176 52.4172 12.1323 52.4695 11.805L53.2496 6.94625C53.2891 6.70223 53.2288 6.58268 53.0422 6.58268H51.6519C51.5265 6.58268 51.4653 6.65226 51.4327 6.84237L51.3813 7.14126C51.3547 7.29708 51.2826 7.32452 51.2154 7.16773C50.9795 6.61306 50.3771 6.36414 49.5368 6.38374C47.5846 6.42392 46.2684 7.89487 46.1272 9.78035C46.0185 11.2386 47.0712 12.3841 48.4595 12.3841C49.4667 12.3841 49.917 12.0902 50.4245 11.6296L50.4186 11.6266ZM49.3591 10.8789C48.5187 10.8789 47.9332 10.2135 48.0546 9.39816C48.1761 8.58281 48.9621 7.91741 49.8024 7.91741C50.6427 7.91741 51.2283 8.58281 51.1068 9.39816C50.9854 10.2135 50.1994 10.8789 49.3591 10.8789ZM55.1978 12.2254H53.7364C53.711 12.2265 53.6856 12.2221 53.6621 12.2123C53.6386 12.2026 53.6176 12.1879 53.6005 12.1691C53.5835 12.1504 53.5708 12.1282 53.5634 12.104C53.5559 12.0799 53.554 12.0544 53.5577 12.0294L54.8413 3.9583C54.8536 3.90321 54.8843 3.85387 54.9284 3.81828C54.9725 3.78269 55.0274 3.76297 55.0842 3.7623H56.5457C56.5711 3.76117 56.5964 3.76563 56.6199 3.77535C56.6434 3.78508 56.6644 3.79983 56.6815 3.81855C56.6986 3.83727 56.7113 3.85951 56.7187 3.88366C56.7261 3.90782 56.728 3.93331 56.7244 3.9583L55.4407 12.0294C55.4288 12.0848 55.3983 12.1346 55.3542 12.1706C55.3101 12.2066 55.2549 12.2266 55.1978 12.2274V12.2254Z" fill="#009EE3"/>
<path fill-rule="evenodd" clip-rule="evenodd" d="M3.24018 0.740234H7.06948C8.14776 0.740234 9.42748 0.774534 10.2826 1.52422C10.8543 2.02499 11.1545 2.82171 11.0854 3.68017C10.8504 6.58188 9.10163 8.20767 6.75547 8.20767H4.86748C4.54558 8.20767 4.33328 8.41934 4.24243 8.99165L3.71514 12.3236C3.68058 12.5392 3.58677 12.6666 3.41891 12.6822H1.05596C0.794291 12.6822 0.70147 12.4863 0.769604 12.0531L2.468 1.3733C2.53614 0.944069 2.77411 0.740234 3.24018 0.740234Z" fill="#113984"/>
<path fill-rule="evenodd" clip-rule="evenodd" d="M4.29785 8.65489L4.96635 4.45272C5.02461 4.08416 5.22802 3.90771 5.63287 3.90771H9.45822C10.0912 3.90771 10.6036 4.00574 11.0046 4.18708C10.6204 6.77092 8.93685 8.20595 6.73288 8.20595H4.84786C4.59507 8.20693 4.40943 8.3324 4.29785 8.65489Z" fill="#172C70"/>
</g>
<defs>
<clipPath id="clip0_37_1821">
<rect width="56" height="13.46" fill="white" transform="translate(0.738281 0.740234)"/>
</clipPath>
</defs>
</svg>
