<svg width="23" height="23" viewBox="0 0 23 23" fill="none" xmlns="http://www.w3.org/2000/svg">
<path d="M22.8327 8.77494C22.4601 9.26943 21.7765 8.9702 21.6267 8.64956C21.4454 8.26238 21.5062 7.65034 21.5062 7.65034C21.5062 7.65034 21.4652 6.51586 20.9387 5.45612C20.0296 3.62741 18.6644 2.58563 17.6194 2.06537C16.5613 1.53794 15.4288 1.49666 15.4288 1.49666C15.4288 1.49666 14.8178 1.55743 14.4313 1.3764C14.111 1.22589 13.8126 0.540897 14.3062 0.167694C14.5323 -0.00333014 15.1941 0.000900523 15.1941 0.000900523C15.1941 0.000900523 16.6513 -0.0464068 17.9397 0.544743C19.6071 1.30974 21.4326 2.89627 22.4563 5.13497C23.0462 6.42547 22.9991 7.88546 22.9991 7.88546C22.9991 7.88546 23.0035 8.54828 22.8327 8.77494ZM16.2304 4.5292C15.5358 4.27895 14.8091 4.31562 14.8091 4.31562C14.8091 4.31562 14.5348 4.30459 14.3336 4.10882C14.0653 3.84857 13.9567 3.37998 14.2691 3.09229C14.4719 2.9055 14.8731 2.88396 14.8731 2.88396C14.8731 2.88396 15.8011 2.80421 16.7291 3.17267C18.1511 3.73741 19.2209 4.73343 19.8344 6.28317C20.2024 7.21252 20.122 8.142 20.122 8.142C20.122 8.142 20.1008 8.54392 19.9148 8.74712C19.6276 9.05994 19.1601 8.95123 18.8998 8.68251C18.7044 8.48097 18.6934 8.2061 18.6934 8.2061C18.6934 8.2061 18.73 7.47816 18.4802 6.78227C18.0152 5.49009 17.0163 4.81254 16.2304 4.5292ZM15.781 13.7603C16.1692 13.5495 16.6574 13.3499 17.1374 13.3299C18.6703 13.2649 19.819 14.9203 19.8389 14.9422C20.3541 15.4927 20.9329 16.1119 20.9329 16.1119C20.9329 16.1119 22.0571 17.1033 22.1609 18.0789C22.2138 18.5769 21.9067 19.4847 21.2879 20.2683C21.3565 20.1812 19.0402 23.2979 15.4266 22.9768C5.23039 22.0717 0.383302 11.6574 0.0231198 7.59124C-0.296999 3.97164 2.81446 1.65204 2.72768 1.72076C3.51012 1.10051 4.41647 0.792947 4.9136 0.845767C5.88715 0.949612 6.8772 2.0764 6.8772 2.0764C6.8772 2.0764 7.31226 2.4846 7.77752 2.92075C8.19492 3.31229 9.65907 4.30626 9.71872 5.87804C9.78271 7.55803 7.21831 9.49071 7.21831 9.49071L7.0665 9.57353C7.0665 9.57353 8.21245 11.5645 9.82918 13.1731C11.3674 14.7036 13.3806 15.8553 13.3806 15.8553C13.3806 15.8553 13.7436 15.5016 14.1258 15.1289C14.6379 14.6296 15.4098 13.9621 15.781 13.7603ZM13.4236 17.4933C13.4193 17.4933 12.2818 17.1103 10.3756 15.6263C9.03406 14.5818 8.32496 13.8725 7.35437 12.6212C5.87255 10.7116 5.48997 9.57225 5.48997 9.56763C5.47525 9.22597 5.80254 8.90584 5.80254 8.90584C5.80254 8.90584 6.53711 8.19162 7.10401 7.6238C7.49644 7.2306 7.78661 6.91842 7.78661 6.91842C7.78661 6.91842 8.23921 6.43035 8.24394 5.95689C8.2497 5.41997 7.80735 4.88843 7.80735 4.88843L5.93015 3.07216C5.93015 3.07216 5.46399 2.49011 4.94791 2.35063C4.52424 2.23627 4.03197 2.55947 4.03197 2.55947C4.03197 2.55947 3.50628 2.94088 3.01183 3.46165C2.52622 3.97369 1.35159 5.04702 1.39601 7.04598C1.44183 9.12417 2.35918 11.6742 4.26607 14.4545C5.55461 16.3334 8.09406 18.4083 8.54512 18.719C11.3211 20.6288 13.867 21.5477 15.9418 21.5942C17.9374 21.6382 19.0088 20.4618 19.5199 19.9751C20.0401 19.4803 20.4204 18.9535 20.4204 18.9535C20.4204 18.9535 20.7433 18.4603 20.6291 18.036C20.4896 17.5191 19.9088 17.0522 19.9088 17.0522L18.0952 15.1718C18.0952 15.1718 17.5651 14.7288 17.0285 14.7345C16.5564 14.7398 16.0689 15.1927 16.0689 15.1927C16.0689 15.1927 15.7575 15.4834 15.3651 15.8766C14.7983 16.4444 14.0852 17.18 14.0852 17.18C14.0852 17.18 13.7653 17.5082 13.4236 17.4933Z" fill="white"/>
</svg>
