<svg width="9" height="15" viewBox="0 0 9 15" fill="none" xmlns="http://www.w3.org/2000/svg">
<path fill-rule="evenodd" clip-rule="evenodd" d="M4.43528 9.24992C4.46504 9.24497 4.49481 9.23975 4.52427 9.23459C4.66265 9.21036 4.79403 9.18735 4.88408 9.19881C5.07815 9.2235 5.36598 9.60477 5.61918 10.0607C5.89426 10.5559 6.09705 11.0031 6.08799 11.2935C6.07894 11.5839 5.61918 12.0567 5.36573 12.0584C5.11228 12.0601 4.93741 12.0584 4.47093 12.0107C4.00444 11.963 3.33459 11.5135 3.14271 11.2096C3.10126 11.1439 3.06234 11.0818 3.0246 11.0185C2.88761 10.7888 2.76623 10.5439 2.59667 10.0607C2.47161 9.70421 2.36977 9.33946 2.29114 8.96947C2.235 8.70531 2.1907 8.43847 2.15823 8.17009C2.11368 7.8018 2.09141 7.4306 2.09142 7.0594C2.09143 6.6882 2.11373 6.317 2.1583 5.94871C2.18947 5.69123 2.23152 5.43516 2.28446 5.18151C2.36399 4.8005 2.46808 4.42493 2.59675 4.05816C2.7607 3.59081 2.87958 3.33844 3.01111 3.11731C3.05307 3.04677 3.09631 2.97941 3.14271 2.90927C3.33459 2.61922 3.97708 2.15578 4.47093 2.10809C4.91234 2.06547 5.10015 2.0634 5.29539 2.06125C5.31859 2.06099 5.34189 2.06073 5.36573 2.06041C5.59027 2.05734 6.08532 2.52341 6.08799 2.82533C6.09066 3.12725 5.89426 3.56292 5.61918 4.05816C5.36598 4.51402 5.12396 4.89165 4.88408 4.91998C4.76285 4.9343 4.59303 4.90544 4.43527 4.87863L4.43237 4.87814C4.27911 4.85209 4.13759 4.82825 4.06357 4.84819C3.91296 4.88875 3.63951 4.9952 3.58561 5.369C3.58304 5.38683 3.58057 5.40393 3.5782 5.42036C3.53088 5.74826 3.52232 5.80756 3.50167 6.05898C3.47417 6.39373 3.46042 6.72659 3.46042 7.05944C3.46042 7.39227 3.47417 7.7251 3.50167 8.05981L3.50294 8.07537C3.52371 8.32823 3.53278 8.43871 3.58561 8.7498C3.63951 9.06719 3.83529 9.23506 4.0697 9.27227C4.17216 9.28853 4.30358 9.27182 4.43528 9.24992ZM5.46441 6.83886C6.23965 6.6224 6.68885 6.05257 6.81748 5.8894L6.81873 5.88782C7.04945 5.59515 7.23991 5.26203 7.36912 5.02941C7.5236 4.75129 7.68809 4.43357 7.8171 4.11C7.93293 3.81946 8.09427 3.34735 8.08949 2.80764C8.08443 2.23556 7.86629 1.79545 7.73408 1.56912C7.58247 1.30956 7.40172 1.09196 7.23354 0.921892C7.0655 0.751962 6.85894 0.577875 6.62164 0.431958C6.45856 0.331682 5.98039 0.0509864 5.33833 0.059772C5.31585 0.0600796 5.29332 0.0603374 5.27048 0.0605987C5.05122 0.0631067 4.80237 0.0659535 4.27848 0.116539C3.57648 0.184323 2.97743 0.499739 2.61229 0.734047C2.2551 0.963262 1.78698 1.33124 1.47315 1.80565C1.18428 2.24233 0.975071 2.63458 0.707941 3.39605C0.294043 4.5759 0.0898865 5.82081 0.0898438 7.05933C0.089801 8.29795 0.293905 9.54295 0.707901 10.7229C0.983037 11.507 1.19359 11.8711 1.44994 12.2773C1.78293 12.8048 2.29635 13.186 2.64156 13.402C3.00339 13.6285 3.59327 13.9323 4.26731 14.0012C4.80974 14.0566 5.05716 14.0613 5.37908 14.0592C5.98862 14.0551 6.44454 13.8005 6.64228 13.6775C6.89021 13.5231 7.09993 13.34 7.26633 13.1658C7.43376 12.9904 7.60535 12.7738 7.74801 12.5224C7.87218 12.3035 8.07196 11.8895 8.0886 11.3558C8.10633 10.7875 7.92999 10.2896 7.81881 10.0114C7.68922 9.68724 7.52344 9.36721 7.36912 9.08938C7.20959 8.80218 7.00787 8.47965 6.77525 8.19697C6.66053 8.05755 6.49868 7.87902 6.29184 7.71441C6.15371 7.60449 5.86978 7.39778 5.46444 7.28149C5.46119 7.1339 5.46118 6.98645 5.46441 6.83886Z" fill="#888888"/>
</svg>
