<svg width="21" height="21" viewBox="0 0 21 21" fill="none" xmlns="http://www.w3.org/2000/svg">
<path d="M9.02096 0.521606C13.7564 0.521606 17.5948 4.3606 17.5948 9.09509C17.5948 10.75 17.1249 12.2933 16.3142 13.6027L19.838 17.2028C19.838 17.2028 20.4339 17.802 20.5126 18.3914C20.5886 18.9626 20.1477 19.5228 20.1477 19.5228C20.1477 19.5228 19.9745 19.7602 19.7717 19.9389C19.5384 20.1454 19.2714 20.2967 19.2714 20.2967C19.2714 20.2967 18.681 20.7123 18.1206 20.608C17.5101 20.4931 16.925 19.8587 16.925 19.8587L13.542 16.3804C12.2293 17.1973 10.6805 17.6697 9.02107 17.6697C4.28573 17.6697 0.447266 13.8321 0.447266 9.0952C0.447055 4.36038 4.28562 0.521606 9.02096 0.521606ZM18.369 18.7779L18.7592 18.3878L15.3384 14.9397L14.929 15.3285L18.369 18.7779ZM9.01263 15.3116C12.4432 15.3116 15.2244 12.5296 15.2244 9.09931C15.2244 5.66903 12.4432 2.88754 9.01263 2.88754C5.58203 2.88754 2.80074 5.66903 2.80074 9.09931C2.80074 12.5297 5.58203 15.3116 9.01263 15.3116Z" fill="white"/>
</svg>
