<svg width="28" height="28" viewBox="0 0 28 28" fill="none" xmlns="http://www.w3.org/2000/svg">
<path d="M21.5652 9.63258C21.2673 9.63258 20.9773 9.47971 20.814 9.20542C20.1614 8.10824 19.246 7.16743 18.1663 6.48432C17.7583 6.22663 17.6369 5.68677 17.8955 5.27883C18.1531 4.87088 18.693 4.74946 19.1009 5.00803C20.4113 5.83703 21.5233 6.97962 22.3156 8.31178C22.5619 8.72671 22.4265 9.2622 22.0116 9.50941C21.871 9.5924 21.7163 9.63258 21.5652 9.63258Z" fill="white"/>
<path d="M13.3487 1.74709C16.448 1.74709 19.3613 2.95346 21.5521 5.14518C23.743 7.33604 24.9502 10.2502 24.9502 13.3487C24.9502 16.4471 23.7438 19.3613 21.5521 21.5521C19.3613 23.743 16.4471 24.9502 13.3487 24.9502C10.2493 24.9502 7.33604 23.7438 5.14518 21.5521C2.95433 19.3613 1.74709 16.4471 1.74709 13.3487C1.74709 10.2502 2.95346 7.33604 5.14518 5.14518C7.33604 2.95346 10.2493 1.74709 13.3487 1.74709ZM13.3487 0C5.97593 0 0 5.9768 0 13.3487C0 20.7205 5.97593 26.6973 13.3487 26.6973C20.7214 26.6973 26.6973 20.7205 26.6973 13.3487C26.6973 5.9768 20.7214 0 13.3487 0Z" fill="white"/>
<path d="M26.9594 27.8661C26.7357 27.8661 26.5121 27.7805 26.3418 27.6102L21.7557 23.024C21.4141 22.6825 21.4141 22.1295 21.7557 21.7889C22.0972 21.4482 22.6502 21.4482 22.9908 21.7889L27.577 26.375C27.9185 26.7165 27.9185 27.2695 27.577 27.6102C27.4066 27.7805 27.183 27.8661 26.9594 27.8661Z" fill="white"/>
</svg>
