<svg width="20" height="20" viewBox="0 0 20 20" fill="none" xmlns="http://www.w3.org/2000/svg">
<mask id="mask0_509_43" style="mask-type:luminance" maskUnits="userSpaceOnUse" x="0" y="0" width="20" height="20">
<path d="M0 1.90735e-06H20V20H0V1.90735e-06Z" fill="white"/>
</mask>
<g mask="url(#mask0_509_43)">
<path d="M1.01527 18.5524L0.998047 18.6015C2.21543 19.0218 3.3957 19.2166 4.5309 19.2187C12.4408 19.2336 18.1605 10.2166 18.9886 7.85893C19.9375 5.15772 17.7146 3.95178 16.5559 3.3985C15.3972 2.84522 13.1328 2.57037 12.1455 5.38088C7.76777 17.8435 1.01527 18.5524 1.01527 18.5524Z" stroke="white" stroke-width="1.5625" stroke-miterlimit="10"/>
<path d="M16.9531 4.47266C16.9531 4.47266 18.4375 3.32031 18.4375 4.26546e-07" stroke="white" stroke-width="1.5625" stroke-miterlimit="10"/>
<path d="M14.7265 3.08594C13.75 3.51563 13.2812 5.85938 16.7187 7.5" stroke="white" stroke-width="1.5625" stroke-miterlimit="10"/>
<path d="M17.6953 4.57031C17.6953 5.0018 17.3455 5.35156 16.9141 5.35156C16.4826 5.35156 16.1328 5.0018 16.1328 4.57031C16.1328 4.13883 16.4826 3.78906 16.9141 3.78906C17.3455 3.78906 17.6953 4.13883 17.6953 4.57031Z" fill="white"/>
<path d="M0.705684 15.2344C-0.0200193 14.7493 -0.218418 13.7626 0.262598 13.0306L1.63807 10.9375C2.36377 11.4226 2.56217 12.4093 2.08115 13.1413L0.705684 15.2344Z" fill="white"/>
<path d="M0.705684 12.3828C-0.0200193 11.8977 -0.218418 10.911 0.262598 10.1791L1.63807 8.08594C2.36377 8.57105 2.56217 9.5577 2.08115 10.2897L0.705684 12.3828Z" fill="white"/>
<path d="M0.705684 9.53125C-0.0200193 9.04613 -0.218418 8.05945 0.262598 7.3275L1.63807 5.23438C2.36377 5.71949 2.56217 6.70613 2.08115 7.43813L0.705684 9.53125Z" fill="white"/>
<path d="M4.26037 11.2109C3.53467 10.7258 3.33627 9.73914 3.81729 9.00719L5.19275 6.91406C5.91846 7.39918 6.11686 8.38582 5.63584 9.11781L4.26037 11.2109Z" fill="white"/>
<path d="M4.26037 8.35938C3.53467 7.87426 3.33627 6.88758 3.81729 6.15563L5.19275 4.0625C5.91846 4.54762 6.11686 5.53426 5.63584 6.26625L4.26037 8.35938Z" fill="white"/>
<path d="M0.705684 6.67969C-0.0200193 6.19457 -0.218418 5.20789 0.262598 4.47594L1.63807 2.38281C2.36377 2.86793 2.56217 3.85457 2.08115 4.58656L0.705684 6.67969Z" fill="white"/>
<path d="M4.26037 5.50781C3.53467 5.0227 3.33627 4.03602 3.81729 3.30406L5.19275 1.21094C5.91846 1.69605 6.11686 2.6827 5.63584 3.41469L4.26037 5.50781Z" fill="white"/>
<path d="M7.776 7.53906C7.05029 7.05395 6.85189 6.06727 7.33291 5.33531L8.70838 3.24219C9.43408 3.7273 9.63248 4.71398 9.15147 5.44594L7.776 7.53906Z" fill="white"/>
<path d="M7.776 4.6875C7.05029 4.20238 6.85189 3.2157 7.33291 2.48375L8.70838 0.390625C9.43408 0.875742 9.63248 1.86242 9.15147 2.59438L7.776 4.6875Z" fill="white"/>
</g>
</svg>
