<svg width="9" height="8" viewBox="0 0 9 8" fill="none" xmlns="http://www.w3.org/2000/svg">
<path d="M8.32624 3.02275C8.27127 2.85371 8.12134 2.73403 7.94466 2.71804L5.53482 2.49926L4.58244 0.269543C4.51212 0.105728 4.35213 0 4.17404 0C3.99596 0 3.8359 0.105728 3.76603 0.269543L2.81365 2.49926L0.403429 2.71804C0.226748 2.73435 0.0771358 2.85403 0.0218513 3.02275C-0.0331147 3.19178 0.0176477 3.37719 0.151273 3.49438L1.97292 5.09171L1.43581 7.45735C1.39651 7.63129 1.46402 7.81115 1.60835 7.91548C1.68593 7.97185 1.77707 8 1.86853 8C1.94713 8 2.02578 7.97911 2.09604 7.93707L4.17404 6.69457L6.25167 7.93707C6.40408 8.02815 6.59573 8.01981 6.73974 7.91548C6.88406 7.81115 6.95158 7.63129 6.91228 7.45735L6.37517 5.09171L8.19681 3.49438C8.33038 3.37719 8.3812 3.19217 8.32624 3.02275Z" fill="white"/>
</svg>
