<svg width="23" height="23" viewBox="0 0 23 23" fill="none" xmlns="http://www.w3.org/2000/svg">
<g clip-path="url(#clip0_81_1428)">
<path d="M16.8906 0H6.10938C5.11862 0 4.3125 0.806123 4.3125 1.79688V9.5238C4.3125 9.65295 4.31776 9.78246 4.32863 9.91161L5.22742 20.6932C5.33483 21.9868 6.43609 23 7.73393 23H15.5697C16.9043 23 18.0077 21.9563 18.0811 20.624L18.6801 9.84351C18.685 9.75681 18.6875 9.66979 18.6875 9.58345V1.79688C18.6875 0.806123 17.8814 0 16.8906 0Z" fill="#8A8895"/>
<path d="M16.8906 0H16.1719V22.9243C17.2217 22.6655 18.0191 21.749 18.0811 20.624L18.6801 9.84351C18.685 9.75681 18.6875 9.66979 18.6875 9.58345V1.79688C18.6875 0.806123 17.8814 0 16.8906 0Z" fill="#5C546A"/>
<path d="M6.82812 0H6.10938C5.11862 0 4.3125 0.806123 4.3125 1.79688V9.5238C4.3125 9.65295 4.31776 9.78246 4.32863 9.91161L5.22742 20.6932C5.30851 21.6701 5.95678 22.4864 6.82812 22.8279V0Z" fill="#5C546A"/>
<path d="M15.0938 21.9219H7.90625C7.70761 21.9219 7.54688 21.7611 7.54688 21.5625C7.54688 21.3639 7.70761 21.2031 7.90625 21.2031H15.0938C15.2924 21.2031 15.4531 21.3639 15.4531 21.5625C15.4531 21.7611 15.2924 21.9219 15.0938 21.9219Z" fill="#5C546A"/>
<path d="M15.8125 2.51562H7.1875C6.59206 2.51562 6.10938 2.99831 6.10938 3.59375V10.0625C6.10938 10.4595 6.43115 10.7812 6.82812 10.7812H16.1719C16.5688 10.7812 16.8906 10.4595 16.8906 10.0625V3.59375C16.8906 2.99831 16.4079 2.51562 15.8125 2.51562Z" fill="#D7DBE0"/>
<path d="M15.8125 3.23438H7.1875C6.98904 3.23438 6.82812 3.39529 6.82812 3.59375V7.1875C6.82812 7.38596 6.98904 7.54688 7.1875 7.54688H15.8125C16.011 7.54688 16.1719 7.38596 16.1719 7.1875V3.59375C16.1719 3.39529 16.011 3.23438 15.8125 3.23438Z" fill="white"/>
<path d="M10.7812 6.10938C10.5826 6.10938 10.4219 5.94864 10.4219 5.75V5.03125C10.4219 4.83261 10.5826 4.67188 10.7812 4.67188C10.9799 4.67188 11.1406 4.83261 11.1406 5.03125V5.75C11.1406 5.94864 10.9799 6.10938 10.7812 6.10938Z" fill="#5C546A"/>
<path d="M9.34375 6.10938C9.14511 6.10938 8.98438 5.94864 8.98438 5.75V5.03125C8.98438 4.83261 9.14511 4.67188 9.34375 4.67188C9.54239 4.67188 9.70312 4.83261 9.70312 5.03125V5.75C9.70312 5.94864 9.54239 6.10938 9.34375 6.10938Z" fill="#5C546A"/>
<path d="M12.2188 6.10938C12.0201 6.10938 11.8594 5.94864 11.8594 5.75V5.03125C11.8594 4.83261 12.0201 4.67188 12.2188 4.67188C12.4174 4.67188 12.5781 4.83261 12.5781 5.03125V5.75C12.5781 5.94864 12.4174 6.10938 12.2188 6.10938Z" fill="#5C546A"/>
<path d="M13.6562 6.10938C13.4576 6.10938 13.2969 5.94864 13.2969 5.75V5.03125C13.2969 4.83261 13.4576 4.67188 13.6562 4.67188C13.8549 4.67188 14.0156 4.83261 14.0156 5.03125V5.75C14.0156 5.94864 13.8549 6.10938 13.6562 6.10938Z" fill="#5C546A"/>
<path d="M9.34375 13.6562H7.90625C7.70779 13.6562 7.54688 13.4953 7.54688 13.2969V12.5781C7.54688 12.3797 7.70779 12.2188 7.90625 12.2188H9.34375C9.54221 12.2188 9.70312 12.3797 9.70312 12.5781V13.2969C9.70312 13.4953 9.54221 13.6562 9.34375 13.6562Z" fill="#5C546A"/>
<path d="M12.2188 13.6562H10.7812C10.5828 13.6562 10.4219 13.4953 10.4219 13.2969V12.5781C10.4219 12.3797 10.5828 12.2188 10.7812 12.2188H12.2188C12.4172 12.2188 12.5781 12.3797 12.5781 12.5781V13.2969C12.5781 13.4953 12.4172 13.6562 12.2188 13.6562Z" fill="#5C546A"/>
<path d="M15.0938 13.6562H13.6562C13.4578 13.6562 13.2969 13.4953 13.2969 13.2969V12.5781C13.2969 12.3797 13.4578 12.2188 13.6562 12.2188H15.0938C15.2922 12.2188 15.4531 12.3797 15.4531 12.5781V13.2969C15.4531 13.4953 15.2922 13.6562 15.0938 13.6562Z" fill="#5C546A"/>
<path d="M9.34375 15.8125H7.90625C7.70779 15.8125 7.54688 15.6516 7.54688 15.4531V14.7344C7.54688 14.5359 7.70779 14.375 7.90625 14.375H9.34375C9.54221 14.375 9.70312 14.5359 9.70312 14.7344V15.4531C9.70312 15.6516 9.54221 15.8125 9.34375 15.8125Z" fill="#5C546A"/>
<path d="M12.2188 15.8125H10.7812C10.5828 15.8125 10.4219 15.6516 10.4219 15.4531V14.7344C10.4219 14.5359 10.5828 14.375 10.7812 14.375H12.2188C12.4172 14.375 12.5781 14.5359 12.5781 14.7344V15.4531C12.5781 15.6516 12.4172 15.8125 12.2188 15.8125Z" fill="#5C546A"/>
<path d="M15.0938 15.8125H13.6562C13.4578 15.8125 13.2969 15.6516 13.2969 15.4531V14.7344C13.2969 14.5359 13.4578 14.375 13.6562 14.375H15.0938C15.2922 14.375 15.4531 14.5359 15.4531 14.7344V15.4531C15.4531 15.6516 15.2922 15.8125 15.0938 15.8125Z" fill="#5C546A"/>
<path d="M9.34375 17.9688H7.90625C7.70779 17.9688 7.54688 17.8078 7.54688 17.6094V16.8906C7.54688 16.6922 7.70779 16.5312 7.90625 16.5312H9.34375C9.54221 16.5312 9.70312 16.6922 9.70312 16.8906V17.6094C9.70312 17.8078 9.54221 17.9688 9.34375 17.9688Z" fill="#5C546A"/>
<path d="M12.2188 17.9688H10.7812C10.5828 17.9688 10.4219 17.8078 10.4219 17.6094V16.8906C10.4219 16.6922 10.5828 16.5312 10.7812 16.5312H12.2188C12.4172 16.5312 12.5781 16.6922 12.5781 16.8906V17.6094C12.5781 17.8078 12.4172 17.9688 12.2188 17.9688Z" fill="#5C546A"/>
<path d="M15.0938 17.9688H13.6562C13.4578 17.9688 13.2969 17.8078 13.2969 17.6094V16.8906C13.2969 16.6922 13.4578 16.5312 13.6562 16.5312H15.0938C15.2922 16.5312 15.4531 16.6922 15.4531 16.8906V17.6094C15.4531 17.8078 15.2922 17.9688 15.0938 17.9688Z" fill="#5C546A"/>
<path d="M9.34375 20.125H7.90625C7.70779 20.125 7.54688 19.9641 7.54688 19.7656V19.0469C7.54688 18.8484 7.70779 18.6875 7.90625 18.6875H9.34375C9.54221 18.6875 9.70312 18.8484 9.70312 19.0469V19.7656C9.70312 19.9641 9.54221 20.125 9.34375 20.125Z" fill="#FF4F19"/>
<path d="M12.2188 20.125H10.7812C10.5828 20.125 10.4219 19.9641 10.4219 19.7656V19.0469C10.4219 18.8484 10.5828 18.6875 10.7812 18.6875H12.2188C12.4172 18.6875 12.5781 18.8484 12.5781 19.0469V19.7656C12.5781 19.9641 12.4172 20.125 12.2188 20.125Z" fill="#FFD100"/>
<path d="M15.0938 20.125H13.6562C13.4578 20.125 13.2969 19.9641 13.2969 19.7656V19.0469C13.2969 18.8484 13.4578 18.6875 13.6562 18.6875H15.0938C15.2922 18.6875 15.4531 18.8484 15.4531 19.0469V19.7656C15.4531 19.9641 15.2922 20.125 15.0938 20.125Z" fill="#73D14F"/>
<path d="M12.9375 8.26562H10.0625C9.86404 8.26562 9.70312 8.42654 9.70312 8.625V9.70312C9.70312 9.90159 9.86404 10.0625 10.0625 10.0625H12.9375C13.136 10.0625 13.2969 9.90159 13.2969 9.70312V8.625C13.2969 8.42654 13.136 8.26562 12.9375 8.26562Z" fill="#B8BAC0"/>
<path d="M15.8125 8.26562H14.375C14.1765 8.26562 14.0156 8.42654 14.0156 8.625V9.70312C14.0156 9.90159 14.1765 10.0625 14.375 10.0625H15.8125C16.011 10.0625 16.1719 9.90159 16.1719 9.70312V8.625C16.1719 8.42654 16.011 8.26562 15.8125 8.26562Z" fill="#B8BAC0"/>
<path d="M8.625 8.26562H7.1875C6.98904 8.26562 6.82812 8.42654 6.82812 8.625V9.70312C6.82812 9.90159 6.98904 10.0625 7.1875 10.0625H8.625C8.82346 10.0625 8.98438 9.90159 8.98438 9.70312V8.625C8.98438 8.42654 8.82346 8.26562 8.625 8.26562Z" fill="#B8BAC0"/>
</g>
<defs>
<clipPath id="clip0_81_1428">
<rect width="23" height="23" fill="white"/>
</clipPath>
</defs>
</svg>
