<svg width="31" height="26" viewBox="0 0 31 26" fill="none" xmlns="http://www.w3.org/2000/svg">
<path d="M29.0139 3.84538C29.8288 3.66745 30.6995 3.23649 30.6995 3.23649C30.6995 3.23649 30.2277 4.10793 29.4392 4.90842C28.7701 5.58849 27.7667 6.21766 27.7667 6.21766C27.7667 6.21766 28.3737 16.0183 20.5063 21.8611C10.4577 29.3249 0.311523 22.7104 0.311523 22.7104C0.311523 22.7104 2.97821 22.7586 5.20773 22.0581C7.6338 21.295 9.63945 19.777 9.63945 19.777C9.63945 19.777 7.16663 19.6647 5.87311 18.7626C4.1327 17.5481 3.43628 15.4502 3.43628 15.4502C3.43628 15.4502 4.1627 15.5688 4.87442 15.5441C5.55697 15.5214 6.22545 15.3538 6.22545 15.3538C6.22545 15.3538 3.51449 14.3644 2.29483 12.8334C0.970903 11.1716 1.12856 8.95842 1.12856 8.95842C1.12856 8.95842 1.84359 9.42269 2.54394 9.59462C3.21387 9.7589 3.86932 9.63166 3.86932 9.63166C3.86932 9.63166 1.73497 7.81862 1.37932 6.10904C0.89042 3.76242 2.13821 1.31318 2.13821 1.31318C2.13821 1.31318 4.64766 4.46028 7.81587 6.06207C11.1581 7.7518 15.1684 7.90056 15.1684 7.90056C15.1684 7.90056 14.2307 3.22428 18.2178 1.01173C22.6172 -1.42903 25.6994 2.03421 25.6994 2.03421C25.6994 2.03421 26.4802 2.10745 27.3032 1.84842C28.5347 1.46152 29.9786 0.687934 29.9786 0.687934C29.9786 0.687934 29.6532 1.67193 29.0519 2.49331C28.4753 3.2818 27.6223 3.91014 27.6223 3.91014C27.6223 3.91014 28.2968 4.00283 29.0139 3.84538Z" fill="white"/>
</svg>
