<svg width="77" height="40" viewBox="0 0 77 40" fill="none" xmlns="http://www.w3.org/2000/svg">
<g clip-path="url(#clip0_790_31089)">
<path d="M76.5716 0H0V40.0001H76.5716V0Z" fill="#FFF2BA"/>
<path d="M3.04669 37.0685H5.19055V37.8792H1.93359V37.0277C2.70226 36.2262 3.25082 35.5726 3.57845 35.0671C3.90608 34.5615 4.06905 34.125 4.06905 33.7558C4.06905 33.4947 3.99345 33.2868 3.84307 33.1305C3.6927 32.975 3.49024 32.8969 3.23738 32.8969C3.05845 32.8969 2.87615 32.9309 2.69134 32.9975C2.50652 33.0648 2.32087 33.1629 2.13269 33.2918L2.0428 32.4088C2.24106 32.2957 2.45948 32.2084 2.6989 32.1468C2.93832 32.0853 3.17606 32.0537 3.41212 32.0537C3.90944 32.0537 4.31015 32.1976 4.61426 32.4853C4.91836 32.773 5.07042 33.1496 5.07042 33.6144C5.07042 34.0792 4.90828 34.5931 4.5857 35.1477C4.26227 35.7015 3.74899 36.3417 3.04501 37.0676L3.04669 37.0685Z" fill="#8C7618"/>
<path d="M7.43197 32.0545C8.01918 32.0545 8.4661 32.3073 8.77524 32.8129C9.08355 33.3184 9.23812 34.051 9.23812 35.0114C9.23812 35.9717 9.08271 36.696 8.77188 37.2015C8.46106 37.7071 8.01414 37.9598 7.43281 37.9598C6.85148 37.9598 6.40204 37.7079 6.09374 37.2032C5.78543 36.6993 5.63086 35.9684 5.63086 35.0105C5.63086 34.0526 5.78543 33.3176 6.09374 32.812C6.40204 32.3065 6.84812 32.0537 7.43281 32.0537L7.43197 32.0545ZM7.43197 32.8495C7.16063 32.8495 6.96069 33.0257 6.833 33.3783C6.70531 33.7308 6.64146 34.2755 6.64146 35.0122C6.64146 35.7489 6.70615 36.2927 6.83552 36.6436C6.96405 36.9945 7.16315 37.1699 7.43281 37.1699C7.70247 37.1699 7.90493 36.9945 8.0343 36.6436C8.16283 36.2927 8.22752 35.7489 8.22752 35.0122C8.22752 34.2755 8.16199 33.7308 8.03178 33.3783C7.90157 33.0257 7.70163 32.8495 7.43281 32.8495H7.43197Z" fill="#8C7618"/>
<path d="M11.5199 32.0545C12.1071 32.0545 12.554 32.3073 12.8631 32.8129C13.1714 33.3184 13.326 34.051 13.326 35.0114C13.326 35.9717 13.1706 36.696 12.8598 37.2015C12.5489 37.7071 12.102 37.9598 11.5207 37.9598C10.9394 37.9598 10.4899 37.7079 10.1816 37.2032C9.87332 36.6993 9.71875 35.9684 9.71875 35.0105C9.71875 34.0526 9.87332 33.3176 10.1816 32.812C10.4899 32.3065 10.936 32.0537 11.5207 32.0537L11.5199 32.0545ZM11.5199 32.8495C11.2477 32.8495 11.0486 33.0257 10.9209 33.3783C10.7932 33.7308 10.7294 34.2755 10.7294 35.0122C10.7294 35.7489 10.794 36.2927 10.9234 36.6436C11.0519 36.9945 11.251 37.1699 11.5207 37.1699C11.7904 37.1699 11.9928 36.9945 12.1222 36.6436C12.2507 36.2927 12.3154 35.7489 12.3154 35.0122C12.3154 34.2755 12.2499 33.7308 12.1197 33.3783C11.9895 33.0257 11.7895 32.8495 11.5207 32.8495H11.5199Z" fill="#8C7618"/>
<path d="M18.6226 1.01953H10.2109V6.57727H18.6226V1.01953Z" fill="#395888"/>
<path d="M68.8265 0H18.623V40.0001H68.8265V0Z" fill="#FFEA8C"/>
<path d="M38.5805 5.20703L39.2425 6.53577L40.7235 6.74863L39.6525 7.78218L39.9053 9.24229L38.5805 8.55298L37.2557 9.24229L37.5086 7.78218L36.4375 6.74863L37.9185 6.53577L38.5805 5.20703Z" fill="#FFF2BA"/>
<path d="M38.5805 33.9258L39.2425 35.2545L40.7235 35.4674L39.6525 36.5018L39.9053 37.961L38.5805 37.2717L37.2557 37.961L37.5086 36.5018L36.4375 35.4674L37.9185 35.2545L38.5805 33.9258Z" fill="#FFF2BA"/>
<path d="M45.8344 31.5713L46.4972 32.8992L47.9783 33.1121L46.9064 34.1464L47.1592 35.6066L45.8344 34.9172L44.5096 35.6066L44.7625 34.1464L43.6914 33.1121L45.1724 32.8992L45.8344 31.5713Z" fill="#FFF2BA"/>
<path d="M31.1606 31.5713L31.8234 32.8992L33.3045 33.1121L32.2325 34.1464L32.4854 35.6066L31.1606 34.9172L29.8366 35.6066L30.0895 34.1464L29.0176 33.1121L30.4986 32.8992L31.1606 31.5713Z" fill="#FFF2BA"/>
<path d="M25.8852 26.4268L26.548 27.7555L28.0291 27.9684L26.9571 29.0027L27.21 30.462L25.8852 29.7727L24.5613 30.462L24.8141 29.0027L23.7422 27.9684L25.2232 27.7555L25.8852 26.4268Z" fill="#FFF2BA"/>
<path d="M51.2758 26.4268L51.9386 27.7555L53.4197 27.9684L52.3478 29.0027L52.6006 30.462L51.2758 29.7727L49.9519 30.462L50.2047 29.0027L49.1328 27.9684L50.6139 27.7555L51.2758 26.4268Z" fill="#FFF2BA"/>
<path d="M52.8294 19.6758L53.4914 21.0037L54.9724 21.2165L53.9005 22.2509L54.1534 23.711L52.8294 23.0217L51.5046 23.711L51.7575 22.2509L50.6855 21.2165L52.1666 21.0037L52.8294 19.6758Z" fill="#FFF2BA"/>
<path d="M23.7426 19.6758L24.4046 21.0037L25.8857 21.2165L24.8146 22.2509L25.0674 23.711L23.7426 23.0217L22.4178 23.711L22.6707 22.2509L21.5996 21.2165L23.0807 21.0037L23.7426 19.6758Z" fill="#FFF2BA"/>
<path d="M25.8852 12.6895L26.548 14.0174L28.0291 14.2311L26.9571 15.2646L27.21 16.7247L25.8852 16.0354L24.5613 16.7247L24.8141 15.2646L23.7422 14.2311L25.2232 14.0174L25.8852 12.6895Z" fill="#FFF2BA"/>
<path d="M50.686 12.6895L51.3488 14.0174L52.8298 14.2311L51.7579 15.2646L52.0108 16.7247L50.686 16.0354L49.3612 16.7247L49.6149 15.2646L48.543 14.2311L50.024 14.0174L50.686 12.6895Z" fill="#FFF2BA"/>
<path d="M45.8344 7.43848L46.4972 8.76638L47.9783 8.97924L46.9064 10.0136L47.1592 11.4737L45.8344 10.7844L44.5096 11.4737L44.7625 10.0136L43.6914 8.97924L45.1724 8.76638L45.8344 7.43848Z" fill="#FFF2BA"/>
<path d="M31.1606 7.43848L31.8234 8.76638L33.3045 8.97924L32.2325 10.0136L32.4854 11.4737L31.1606 10.7844L29.8366 11.4737L30.0895 10.0136L29.0176 8.97924L30.4986 8.76638L31.1606 7.43848Z" fill="#FFF2BA"/>
<path d="M68.8244 0H43.9844V40.0001H68.8244V0Z" fill="#F2D96A"/>
<path d="M63.7415 11.0537H43.0371V38.3036H63.7415V11.0537Z" fill="#D9BE4A"/>
<path d="M53.5605 38.3036V21.4724C53.5605 21.4724 55.0063 18.3252 58.6514 18.3252C62.2964 18.3252 63.7422 21.4724 63.7422 21.4724V38.3036H53.5605Z" fill="#E6C94F"/>
<path d="M58.1016 23.7109H59.8086V35.9431L63.7418 38.3037H58.1016V23.7109Z" fill="#FFF2BA"/>
<path d="M43.0371 38.3036V21.6928C43.0371 21.6928 44.6064 18.3252 48.112 18.3252C51.6176 18.3252 52.829 21.6928 52.829 21.6928V38.3036H43.038H43.0371Z" fill="#E6C94F"/>
<path d="M70.0823 29.7315C72.1826 29.7315 73.8853 28.0462 73.8853 25.9673C73.8853 23.8884 72.1826 22.2031 70.0823 22.2031C67.982 22.2031 66.2793 23.8884 66.2793 25.9673C66.2793 28.0462 67.982 29.7315 70.0823 29.7315Z" fill="#395888"/>
<path d="M46.0398 11.7231H50.456V13.3936H43.748V11.64C45.3316 9.98944 46.4615 8.64325 47.1352 7.60138C47.8098 6.56034 48.1467 5.65983 48.1467 4.90067C48.1467 4.36352 47.9912 3.93364 47.6804 3.61268C47.3696 3.29172 46.9538 3.13041 46.4337 3.13041C46.0641 3.13041 45.6895 3.19942 45.3089 3.33829C44.9283 3.47715 44.5453 3.6792 44.1588 3.94445L43.974 2.1243C44.3823 1.89148 44.8334 1.71187 45.3257 1.58382C45.818 1.4566 46.3077 1.39258 46.795 1.39258C47.819 1.39258 48.6448 1.68859 49.2715 2.28145C49.8982 2.87431 50.2115 3.6501 50.2115 4.60798C50.2115 5.56587 49.8789 6.62437 49.2127 7.76602C48.5465 8.90766 47.4889 10.2256 46.0389 11.7215L46.0398 11.7231Z" fill="#8C7618"/>
<path d="M55.4372 1.39355C56.646 1.39355 57.5684 1.91407 58.2035 2.95594C58.8386 3.99781 59.1561 5.50698 59.1561 7.48511C59.1561 9.46325 58.8352 10.9558 58.1951 11.9977C57.5541 13.0395 56.6351 13.56 55.4372 13.56C54.2392 13.56 53.3143 13.0404 52.6792 12.0018C52.0441 10.9633 51.7266 9.45743 51.7266 7.48511C51.7266 5.5128 52.0441 3.99781 52.6792 2.95594C53.3143 1.91407 54.2342 1.39355 55.4372 1.39355ZM55.4372 3.03078C54.8777 3.03078 54.466 3.39331 54.2031 4.11921C53.9402 4.84511 53.8083 5.9668 53.8083 7.48428C53.8083 9.00177 53.941 10.1226 54.2073 10.846C54.4736 11.5694 54.8836 11.9303 55.4372 11.9303C55.9908 11.9303 56.41 11.5686 56.6754 10.846C56.9417 10.1235 57.0745 9.0026 57.0745 7.48428C57.0745 5.96597 56.94 4.84427 56.6712 4.11921C56.4024 3.39331 55.9908 3.03078 55.4372 3.03078Z" fill="#8C7618"/>
<path d="M64.3688 1.39355C65.5777 1.39355 66.5001 1.91407 67.1351 2.95594C67.7702 3.99781 68.0878 5.50698 68.0878 7.48511C68.0878 9.46325 67.7669 10.9558 67.1267 11.9977C66.4858 13.0395 65.5667 13.56 64.3688 13.56C63.1709 13.56 62.2459 13.0404 61.6108 12.0018C60.9758 10.9633 60.6582 9.45743 60.6582 7.48511C60.6582 5.5128 60.9758 3.99781 61.6108 2.95594C62.2459 1.91407 63.1658 1.39355 64.3688 1.39355ZM64.3688 3.03078C63.8093 3.03078 63.3977 3.39331 63.1347 4.11921C62.8718 4.84511 62.7399 5.9668 62.7399 7.48428C62.7399 9.00177 62.8726 10.1226 63.1389 10.846C63.4052 11.5694 63.8152 11.9303 64.3688 11.9303C64.9224 11.9303 65.3416 11.5686 65.6071 10.846C65.8725 10.1235 66.0061 9.0026 66.0061 7.48428C66.0061 5.96597 65.8717 4.84427 65.6029 4.11921C65.334 3.39331 64.9224 3.03078 64.3688 3.03078Z" fill="#8C7618"/>
<path d="M16.2738 32.8555H15.3077V33.3727H16.262V33.8474H15.3077V34.3979H16.2587V34.8968H14.7012V32.374H16.2738V32.8546V32.8555Z" fill="#8C7618"/>
<path d="M19.3734 32.3747V33.9454C19.3734 34.199 19.344 34.3878 19.286 34.5117C19.2272 34.6356 19.1197 34.737 18.9617 34.8168C18.8038 34.8966 18.603 34.9357 18.3577 34.9357C18.1124 34.9357 17.9175 34.9 17.7722 34.8285C17.6269 34.757 17.5185 34.6555 17.4463 34.5233C17.374 34.3911 17.3379 34.199 17.3379 33.9446V32.3739H17.9856V33.9446C17.9856 34.0801 17.9973 34.1799 18.02 34.2439C18.0427 34.3079 18.0889 34.3587 18.1578 34.3961C18.2267 34.4335 18.3115 34.4526 18.4123 34.4526C18.5241 34.4526 18.6156 34.4343 18.6862 34.3969C18.7568 34.3595 18.803 34.3113 18.8265 34.2497C18.85 34.1882 18.8609 34.0868 18.8609 33.9437V32.373H19.3725L19.3734 32.3747Z" fill="#8C7618"/>
<path d="M20.9433 33.8973V34.8968H20.3418V32.374H21.4616C21.6683 32.374 21.8338 32.3981 21.9589 32.4455C22.0841 32.4929 22.1874 32.5802 22.2698 32.7066C22.3521 32.833 22.3932 32.9744 22.3932 33.1299C22.3932 33.4325 22.2454 33.6504 21.9505 33.7818L22.421 34.8968H21.7615L21.37 33.8973H20.9424H20.9433ZM20.9433 32.8239V33.4666H21.3096C21.4288 33.4666 21.5162 33.4583 21.57 33.4417C21.6237 33.425 21.6725 33.3885 21.7145 33.3311C21.7565 33.2737 21.7783 33.208 21.7783 33.134C21.7783 33.06 21.7573 33.001 21.7145 32.9453C21.6725 32.8896 21.6263 32.8555 21.5767 32.843C21.5271 32.8297 21.4339 32.8239 21.297 32.8239H20.9441H20.9433Z" fill="#8C7618"/>
<path d="M24.0798 34.9352C23.7362 34.9352 23.4707 34.808 23.2834 34.5527C23.0952 34.2974 23.002 33.989 23.002 33.6273C23.002 33.2656 23.0969 32.9512 23.2876 32.7051C23.4774 32.459 23.7488 32.3359 24.1008 32.3359C24.4528 32.3359 24.7249 32.4673 24.9056 32.7301C25.0862 32.9928 25.1769 33.2938 25.1769 33.6331C25.1769 33.9989 25.0836 34.3074 24.8972 34.5585C24.7107 34.8096 24.4385 34.9352 24.0798 34.9352ZM24.0966 32.8174C23.7832 32.8174 23.627 33.0893 23.627 33.6339C23.627 34.1785 23.7832 34.4529 24.0966 34.4529C24.4099 34.4529 24.551 34.181 24.551 33.6364C24.551 33.0918 24.3998 32.8174 24.0966 32.8174Z" fill="#8C7618"/>
<path d="M26.6829 35.0098H14.6641V37.5866H26.6829V35.0098Z" fill="#E6C94F"/>
</g>
<defs>
<clipPath id="clip0_790_31089">
<rect width="76.5716" height="40.0001" fill="white"/>
</clipPath>
</defs>
</svg>
