<svg width="20" height="20" viewBox="0 0 20 20" fill="none" xmlns="http://www.w3.org/2000/svg">
<path d="M19.3931 5.19669C19.397 4.90087 19.1347 4.6002 18.805 4.61087L13.7563 4.61852L11.7818 0.34278C11.6629 0.102155 11.3603 -0.102728 11.0024 0.0560222L5.90541 2.41676C3.68838 3.44364 2.00389 5.27243 1.16229 7.56622C0.320684 9.86005 0.422715 12.3443 1.44959 14.5613C1.45357 14.5699 1.45775 14.5784 1.46217 14.5868L4.12986 19.6827C4.2369 19.8847 4.4942 20.0551 4.78275 19.9832L10.2683 19.9749C12.7116 19.9712 15.0072 19.0163 16.7323 17.286C18.4574 15.5557 19.4054 13.2572 19.4017 10.8138L19.3931 5.19669ZM5.23483 17.9934C5.26693 13.6232 4.7326 11.068 7.55803 8.1395C10.6245 5.12633 13.6729 5.89106 17.392 5.78645L5.23483 17.9934ZM11.3097 2.11923L12.4774 4.64782C11.6942 4.70883 10.9312 4.8688 10.2024 5.12098L11.3097 2.11923ZM2.26389 7.9704C2.99752 5.97083 4.46592 4.37669 6.39857 3.48153L10.2072 1.71751L8.70182 5.79856C7.98611 6.20426 7.32107 6.70981 6.72439 7.30833C4.99936 9.03864 4.05135 11.3372 4.05506 13.7805L4.05998 17.0191L2.5085 14.0554C1.61881 12.126 1.53186 9.96555 2.26389 7.9704ZM10.2665 18.8015L6.07971 18.8079L18.2219 6.61594L18.2283 10.8156C18.2349 15.2124 14.6633 18.7949 10.2665 18.8015Z" fill="white"/>
</svg>
