<svg width="44" height="28" viewBox="0 0 44 28" fill="none" xmlns="http://www.w3.org/2000/svg">
<path d="M43.8621 0.108398H0.662109V27.5504H43.8621V0.108398Z" fill="white"/>
<path d="M43.1423 23.0913H1.38184V26.8353H43.1423V23.0913Z" fill="#FCB315"/>
<path d="M43.1423 0.828125H1.38184V4.57213H43.1423V0.828125Z" fill="#0D357F"/>
<path d="M21.9015 8.69728L19.7003 18.9883H17.0379L19.2393 8.69728H21.9015ZM33.1023 15.3423L34.5039 11.4777L35.3101 15.3423H33.1023ZM36.0743 18.9883H38.5359L36.3851 8.69728H34.1143C33.6023 8.69728 33.1711 8.99408 32.9801 9.45168L28.9851 18.9883H31.7813L32.3363 17.4513H35.7515L36.0743 18.9883ZM29.1239 15.6285C29.1355 12.9127 25.3695 12.7621 25.3945 11.5487C25.4027 11.1799 25.7543 10.7871 26.5235 10.6867C26.9047 10.6375 27.9567 10.5979 29.1493 11.1473L29.6157 8.96408C28.9749 8.73248 28.1507 8.50928 27.1253 8.50928C24.4933 8.50928 22.6417 9.90728 22.6269 11.9109C22.6101 13.3925 23.9497 14.2185 24.9567 14.7119C25.9949 15.2163 26.3429 15.5399 26.3379 15.9905C26.3307 16.6809 25.5097 16.9865 24.7457 16.9981C23.4063 17.0189 22.6301 16.6361 22.0113 16.3477L21.5281 18.6037C22.1511 18.8889 23.2993 19.1371 24.4879 19.1499C27.2859 19.1499 29.1157 17.7681 29.1239 15.6285ZM18.0973 8.69728L13.7835 18.9883H10.9695L8.84649 10.7753C8.71789 10.2703 8.60569 10.0847 8.21429 9.87128C7.57409 9.52348 6.51709 9.19828 5.58789 8.99588L5.65069 8.69728H10.1811C10.7581 8.69728 11.2773 9.08128 11.4093 9.74588L12.5307 15.7013L15.3003 8.69728H18.0973Z" fill="#0D357F"/>
</svg>
