<svg width="29" height="29" viewBox="0 0 29 29" fill="none" xmlns="http://www.w3.org/2000/svg">
<path d="M14.9504 28.0985C12.5359 28.0985 10.2651 27.4826 8.28551 26.3997L0.926758 28.3273L2.85305 21.05C1.70164 19.0248 1.04125 16.6846 1.04125 14.1884C1.04125 6.50602 7.26846 0.278809 14.9508 0.278809C22.634 0.278809 28.861 6.50602 28.861 14.1884C28.8606 21.8711 22.6332 28.0985 14.9504 28.0985ZM14.9512 2.47304C8.48027 2.47304 3.23568 7.71842 3.23568 14.1886C3.23568 16.609 3.96945 18.8576 5.22689 20.7252L4.12643 25.1269L8.5741 24.0156C10.4093 25.2083 12.598 25.9047 14.951 25.9047C21.421 25.9047 26.6668 20.6597 26.6668 14.1892C26.6668 7.71822 21.421 2.47304 14.9512 2.47304ZM17.387 19.9978C12.0102 19.5211 9.45404 14.0381 9.26499 11.8978C9.09561 9.99192 10.7365 8.77127 10.6904 8.80727C11.1032 8.48091 11.5812 8.3192 11.8428 8.34694C12.3567 8.40104 12.879 8.99435 12.879 8.99435C12.879 8.99435 13.1087 9.20917 13.3534 9.43874C13.5734 9.64569 14.3455 10.1682 14.377 10.9962C14.4108 11.8804 13.0588 12.8981 13.0588 12.8981L12.9789 12.9416C12.9789 12.9416 13.5828 13.9901 14.4358 14.8372C15.2469 15.6429 16.3086 16.2492 16.3086 16.2492C16.3086 16.2492 16.5002 16.0631 16.7016 15.8666C16.9713 15.6034 17.3782 15.2523 17.5745 15.1458C17.7791 15.0351 18.0366 14.9302 18.2894 14.9196C19.0981 14.8862 19.7036 15.7568 19.714 15.7686C19.9861 16.0584 20.2912 16.3846 20.2912 16.3846C20.2912 16.3846 20.8849 16.9063 20.9386 17.4201C20.967 17.6818 20.8045 18.1598 20.4783 18.5723C20.5133 18.5257 19.2925 20.1663 17.387 19.9978Z" fill="white"/>
</svg>
