<svg width="30" height="21" viewBox="0 0 30 21" fill="none" xmlns="http://www.w3.org/2000/svg">
<path d="M29.4197 10.0309C29.4197 12.8846 29.1289 15.89 29.1289 15.89C29.1289 18.2965 27.1784 20.2475 24.772 20.2475C24.772 20.2475 20.2368 20.5861 15.5232 20.5861C10.4235 20.5861 5.11408 20.2475 5.11408 20.2475C2.70678 20.2475 0.756367 18.2961 0.756367 15.89C0.756367 15.89 0.416992 12.7821 0.416992 9.88606C0.416992 7.36106 0.756367 4.99627 0.756367 4.99627C0.756367 2.58898 2.70699 0.638561 5.11408 0.638561C5.11408 0.638561 9.99637 0.348145 14.8943 0.348145C19.8245 0.348145 24.7716 0.638561 24.7716 0.638561C27.178 0.638561 29.1282 2.58919 29.1282 4.99627C29.1282 4.99627 29.4197 7.45148 29.4197 10.0309ZM11.9897 6.20585V14.9213L19.6878 10.4186L11.9897 6.20585Z" fill="white"/>
</svg>
