<svg width="21" height="16" viewBox="0 0 21 16" fill="none" xmlns="http://www.w3.org/2000/svg">
<path d="M7.5 5.5C7.5 8.5625 10.4375 11 14 11C14.6562 11 15.25 10.9375 15.8438 10.7812C16.7188 11.375 18.0938 12 19.7812 12C20.0625 12 20.3438 11.8438 20.4688 11.5625C20.5625 11.2812 20.5312 10.9688 20.3125 10.75C20.3125 10.75 19.5625 9.9375 19.0938 8.9375C19.9688 8 20.5 6.8125 20.5 5.5C20.5 2.46875 17.5938 0 14 0C10.4375 0 7.5 2.46875 7.5 5.5ZM14 10C10.9688 10 8.5 8 8.5 5.5C8.5 3.03125 10.9688 1 14 1C17.0625 1 19.5 3.03125 19.5 5.5C19.5 6.5 19.125 7.46875 18.375 8.25L17.9062 8.75L18.1875 9.375C18.5 10.0312 18.9062 10.5938 19.1875 11C18 10.875 17.0312 10.375 16.375 9.96875L16.0312 9.71875L15.5938 9.8125C15.0938 9.9375 14.5312 10 14 10ZM1.5625 13.625C1.15625 14.2812 0.71875 14.75 0.71875 14.7812C0.53125 14.9688 0.46875 15.2812 0.5625 15.5625C0.6875 15.8438 0.96875 16 1.25 16C2.28125 16 3.15625 15.7812 3.90625 15.4688C4.71875 15.8125 5.59375 16 6.5 16C9.34375 16 11.6875 14.25 12.3438 11.8438C12 11.7812 11.6562 11.6875 11.3438 11.5938C10.8125 13.5625 8.875 15 6.5 15C5.75 15 5.03125 14.8438 4.3125 14.5625L3.9375 14.375L3.53125 14.5312C2.96875 14.7812 2.40625 14.9375 1.84375 15C2 14.7812 2.21875 14.4688 2.40625 14.1562L2.78125 13.5625L2.375 13.0312C1.8125 12.2812 1.5 11.4062 1.5 10.5C1.5 8.03125 3.75 6 6.5 6C6.53125 6 6.53125 6.03125 6.53125 6.03125C6.53125 5.84375 6.5 5.6875 6.5 5.5C6.5 5.34375 6.53125 5.1875 6.53125 5.03125C6.53125 5.03125 6.53125 5 6.5 5C3.1875 5 0.5 7.46875 0.5 10.5C0.5 11.6562 0.90625 12.75 1.5625 13.625Z" fill="#020202"/>
</svg>
