<svg width="17" height="17" viewBox="0 0 17 17" fill="none" xmlns="http://www.w3.org/2000/svg">
<path d="M10.0312 8V12C10.0312 12.5625 10.4688 13 11.0312 13H12.0312C13.125 13 14.0312 12.0938 14.0312 11V9C14.0312 7.90625 13.1562 7 12.0312 7H11.0312C10.5 7 10.0312 7.46875 10.0312 8ZM11.0312 12V8H12.0312C12.5938 8 13.0312 8.46875 13.0312 9V11C13.0312 11.5625 12.5938 12 12.0312 12H11.0312ZM4.03125 13V13.0312H5C5.5625 13.0312 6 12.5938 6 12.0312V8.03125C6 7.5 5.5625 7.03125 5 7.03125H4.03125C2.9375 7.03125 2.03125 7.90625 2.03125 9V11C2.03125 12.0938 2.9375 13 4.03125 13ZM5.03125 8L5.0625 12H4.0625C3.53125 12 3.0625 11.5625 3.0625 11V9C3.0625 8.46875 3.53125 8 4.0625 8H5.03125ZM7.25 1.0625C3.125 1.4375 0 5.0625 0.0625 9.21875V14.5312C0.0625 15.9062 1.1875 17 2.5625 17H8.53125C9.4375 17 10.1562 16.1875 10 15.2188C9.84375 14.5 9.1875 14 8.46875 14H6.65625C6.0625 14 5.46875 14.3125 5.1875 14.8438C4.96875 15.25 4.96875 15.6562 5.125 16H2.5C1.6875 16 1 15.3125 1 14.5V9.21875C1 5.5625 3.71875 2.375 7.375 2.03125C11.5625 1.65625 14.9062 5.03125 15 9V9.53125C15.0312 9.78125 15.25 10 15.5 10C15.7812 10 16.0312 9.78125 16.0312 9.5L16 9.03125C15.875 4.4375 12.0625 0.59375 7.25 1.0625ZM6.53125 16C6.25 16 6.03125 15.7812 6.03125 15.5C6.03125 15.25 6.28125 15 6.53125 15H8.53125C8.8125 15 9.03125 15.25 9.03125 15.5C9.03125 15.7812 8.8125 16 8.53125 16H6.53125Z" fill="white"/>
</svg>
