<svg width="16" height="17" viewBox="0 0 16 17" fill="none" xmlns="http://www.w3.org/2000/svg">
<path d="M4.875 7.125L3.71875 7C3.34375 8.3125 3.34375 9.71875 3.71875 11.0312L4.875 10.9062C5.40625 10.8438 5.90625 11.1562 6.09375 11.6562L7.09375 14.125C7.3125 14.6562 7.09375 15.2812 6.625 15.5938L4.625 16.8438C4.4375 16.9688 4.21875 17 4 17C3.6875 17 3.375 16.9062 3.15625 16.625C1.09375 14.5938 0 11.875 0 9C0 6.125 1.09375 3.40625 3.15625 1.375C3.5625 0.96875 4.15625 0.90625 4.625 1.1875L6.625 2.4375C7.09375 2.75 7.3125 3.34375 7.09375 3.90625L6.09375 6.375C5.90625 6.875 5.40625 7.1875 4.875 7.125ZM2.875 11.7188C2.28125 9.96875 2.28125 8.0625 2.875 6.3125C2.96875 6.09375 3.15625 5.96875 3.40625 5.96875L4.96875 6.125C4.96875 6.125 4.96875 6.125 5 6.125C5.0625 6.125 5.15625 6.09375 5.1875 6L6.125 3.5C6.1875 3.40625 6.125 3.3125 6.0625 3.25L4.0625 2.03125C4.03125 2 4 2 3.96875 2C3.90625 2 3.875 2 3.8125 2.0625C1.96875 3.90625 0.96875 6.375 0.96875 9C0.96875 11.625 2 14.0938 3.84375 15.9375C3.9375 16.0312 4.03125 16.0312 4.09375 15.9688L6.09375 14.75C6.15625 14.6875 6.1875 14.5938 6.15625 14.5L5.1875 12.0312C5.15625 11.9375 5.03125 11.875 4.96875 11.9062L3.40625 12.0625C3.1875 12.0938 2.96875 11.9375 2.875 11.7188ZM12.5312 2.125C14.7188 3.75 16 6.28125 16 9C16 11.75 14.7188 14.2812 12.5312 15.9062C12.4375 15.9688 12.3438 16 12.25 16C12.0938 16 11.9375 15.9375 11.8438 15.8125C11.6562 15.5938 11.7188 15.2812 11.9375 15.125C13.875 13.6562 15 11.4375 15 9C15 6.59375 13.875 4.375 11.9375 2.90625C11.7188 2.75 11.6562 2.4375 11.8438 2.21875C12 2 12.3125 1.9375 12.5312 2.125ZM10.4062 4.09375C12.0312 5.21875 13 7.0625 13 9C13 10.9688 12.0312 12.8125 10.4062 13.9375C10.3125 14 10.2188 14 10.125 14C9.96875 14 9.8125 13.9375 9.6875 13.8125C9.53125 13.5625 9.59375 13.25 9.84375 13.0938C11.1875 12.1875 12 10.6562 12 9C12 7.375 11.1875 5.84375 9.84375 4.9375C9.59375 4.78125 9.53125 4.46875 9.6875 4.21875C9.84375 4 10.1562 3.9375 10.4062 4.09375ZM8.5 6.5625C9.40625 7.03125 9.96875 7.96875 9.96875 9C9.96875 10.0625 9.40625 11 8.5 11.4688C8.40625 11.5 8.34375 11.5 8.25 11.5C8.09375 11.5 7.90625 11.4062 7.8125 11.25C7.6875 11 7.78125 10.6875 8.03125 10.5625C8.625 10.2812 9 9.6875 9 9C9 8.34375 8.625 7.75 8.03125 7.46875C7.78125 7.34375 7.6875 7.03125 7.8125 6.78125C7.9375 6.53125 8.25 6.4375 8.5 6.5625Z" fill="#020202"/>
</svg>
