<svg width="21" height="22" viewBox="0 0 21 22" fill="none" xmlns="http://www.w3.org/2000/svg">
<path d="M6 7.625C5.34375 7.625 4.875 7.15625 4.875 6.5C4.875 5.89062 5.34375 5.375 6 5.375C6.60938 5.375 7.125 5.89062 7.125 6.5C7.125 7.15625 6.60938 7.625 6 7.625ZM9 6.5C9 6.125 9.32812 5.75 9.75 5.75H15.75C16.125 5.75 16.5 6.125 16.5 6.5C16.5 6.92188 16.125 7.25 15.75 7.25H9.75C9.32812 7.25 9 6.92188 9 6.5ZM9 11C9 10.625 9.32812 10.25 9.75 10.25H15.75C16.125 10.25 16.5 10.625 16.5 11C16.5 11.4219 16.125 11.75 15.75 11.75H9.75C9.32812 11.75 9 11.4219 9 11ZM9 15.5C9 15.125 9.32812 14.75 9.75 14.75H15.75C16.125 14.75 16.5 15.125 16.5 15.5C16.5 15.9219 16.125 16.25 15.75 16.25H9.75C9.32812 16.25 9 15.9219 9 15.5ZM6 9.875C6.60938 9.875 7.125 10.3906 7.125 11C7.125 11.6562 6.60938 12.125 6 12.125C5.34375 12.125 4.875 11.6562 4.875 11C4.875 10.3906 5.34375 9.875 6 9.875ZM6 16.625C5.34375 16.625 4.875 16.1562 4.875 15.5C4.875 14.8906 5.34375 14.375 6 14.375C6.60938 14.375 7.125 14.8906 7.125 15.5C7.125 16.1562 6.60938 16.625 6 16.625ZM0 3.5C0 1.85938 1.3125 0.5 3 0.5H18C19.6406 0.5 21 1.85938 21 3.5V18.5C21 20.1875 19.6406 21.5 18 21.5H3C1.3125 21.5 0 20.1875 0 18.5V3.5ZM1.5 3.5V18.5C1.5 19.3438 2.15625 20 3 20H18C18.7969 20 19.5 19.3438 19.5 18.5V3.5C19.5 2.70312 18.7969 2 18 2H3C2.15625 2 1.5 2.70312 1.5 3.5Z" fill="white"/>
</svg>
