<svg width="19" height="21" viewBox="0 0 19 21" fill="none" xmlns="http://www.w3.org/2000/svg">
<path d="M9.63281 6.32031C9.75 6.82812 9.75 7.33594 9.67188 7.84375C9.55469 8.3125 9.32031 8.78125 9.00781 9.21094C8.46094 9.83594 7.75781 10.2656 6.89844 10.4609V18.9375C6.89844 19.3672 6.74219 19.7578 6.46875 20.0703C6.15625 20.3438 5.76562 20.5 5.33594 20.5C4.94531 20.5 4.55469 20.3438 4.24219 20.0703C3.96875 19.7578 3.77344 19.3672 3.77344 18.9375V10.4609C2.95312 10.3047 2.21094 9.83594 1.70312 9.21094C1.39062 8.82031 1.15625 8.35156 1.03906 7.84375C0.921875 7.33594 0.960938 6.82812 1.07812 6.32031L2.25 1.00781C2.28906 0.851562 2.36719 0.734375 2.48438 0.617188C2.64062 0.539062 2.75781 0.5 2.91406 0.539062C3.07031 0.539062 3.22656 0.617188 3.34375 0.734375C3.42188 0.851562 3.5 1.00781 3.5 1.125V6.75H4.16406L4.82812 0.96875C4.86719 0.851562 4.90625 0.734375 5.02344 0.65625C5.10156 0.578125 5.21875 0.539062 5.33594 0.539062C5.49219 0.539062 5.60938 0.578125 5.6875 0.65625C5.80469 0.734375 5.84375 0.851562 5.88281 0.96875L6.54688 6.75H7.21094V1.125C7.21094 1.00781 7.28906 0.851562 7.36719 0.734375C7.48438 0.617188 7.64062 0.539062 7.79688 0.539062C7.95312 0.5 8.07031 0.539062 8.22656 0.617188C8.34375 0.734375 8.42188 0.851562 8.46094 1.00781L9.63281 6.32031ZM18.5 18.9375C18.5 19.3672 18.3047 19.7578 18.0312 20.0703C17.7188 20.3438 17.3281 20.5 16.9375 20.5C16.5078 20.5 16.1172 20.3438 15.8047 20.0703C15.5312 19.7578 15.375 19.3672 15.375 18.9375V14.25H14.7109C14.3594 14.25 14.0469 14.2109 13.7344 14.0938C13.4219 13.9375 13.1484 13.7812 12.9141 13.5469C12.6797 13.3125 12.5234 13 12.3672 12.7266C12.25 12.4141 12.2109 12.0625 12.2109 11.75V7.29688C12.25 5.85156 12.6797 4.44531 13.4609 3.27344C14.2812 2.0625 15.4141 1.16406 16.7812 0.617188C16.9375 0.539062 17.1719 0.5 17.3672 0.539062C17.5625 0.539062 17.7578 0.617188 17.9141 0.734375C18.1094 0.851562 18.2266 1.00781 18.3438 1.20312C18.4219 1.35938 18.4609 1.55469 18.5 1.75V18.9375Z" fill="#ED222A"/>
</svg>
