<svg width="21" height="24" viewBox="0 0 21 24" fill="none" xmlns="http://www.w3.org/2000/svg">
<path d="M6.375 1.5C6.375 0.890625 6.84375 0.375 7.5 0.375C8.10938 0.375 8.625 0.890625 8.625 1.5C8.625 2.15625 8.10938 2.625 7.5 2.625C6.84375 2.625 6.375 2.15625 6.375 1.5ZM15 3.75C15 5.01562 13.9688 6 12.75 6C11.4844 6 10.5 5.01562 10.5 3.75C10.5 2.53125 11.4844 1.5 12.75 1.5C13.9688 1.5 15 2.53125 15 3.75ZM12.75 3C12.3281 3 12 3.375 12 3.75C12 4.17188 12.3281 4.5 12.75 4.5C13.125 4.5 13.5 4.17188 13.5 3.75C13.5 3.375 13.125 3 12.75 3ZM0.75 9C0.328125 9 0 8.67188 0 8.25C0 7.875 0.328125 7.5 0.75 7.5H20.25C20.625 7.5 21 7.875 21 8.25C21 8.67188 20.625 9 20.25 9H18.375C19.5469 10.7344 21 13.3125 21 15.7031C21 17.4375 20.4375 18.9375 19.5 20.1562V23.25C19.5 23.6719 19.125 24 18.75 24C18.3281 24 18 23.6719 18 23.25V21.6562C15.9844 23.2031 13.2656 24 10.5 24C7.6875 24 4.96875 23.2031 3 21.6562V23.25C3 23.6719 2.625 24 2.25 24C1.82812 24 1.5 23.6719 1.5 23.25V20.1562C0.515625 18.9375 0 17.4375 0 15.7031C0 13.3125 1.40625 10.7344 2.57812 9H0.75ZM2.8125 11.4844C2.01562 12.8906 1.5 14.4375 1.5 15.7031C1.5 17.8125 2.48438 19.4531 4.125 20.625C5.76562 21.8438 8.0625 22.5 10.5 22.5C12.8906 22.5 15.1875 21.8438 16.8281 20.625C18.4688 19.4531 19.5 17.8125 19.5 15.7031C19.5 14.4375 18.9375 12.8906 18.1406 11.4844C17.625 10.4531 16.9688 9.60938 16.5469 9H4.40625C3.98438 9.60938 3.32812 10.4531 2.8125 11.4844Z" fill="white"/>
</svg>
