<svg width="26" height="31" viewBox="0 0 26 31" fill="none" xmlns="http://www.w3.org/2000/svg">
<path d="M19.0497 14.5626C20.0034 14.343 20.876 13.8595 21.568 13.1676C22.26 12.4756 22.7434 11.6029 22.9631 10.6493H23.6773V14.6931H25.9992V6.60879C25.9992 5.84882 25.8493 5.09631 25.5581 4.39436C25.2668 3.6924 24.84 3.05479 24.302 2.51801C23.764 1.98124 23.1255 1.55586 22.4229 1.26622C21.7203 0.976582 20.9674 0.828377 20.2074 0.830093H13.2808V3.14222H20.2074C21.1266 3.14309 22.0078 3.50859 22.6577 4.15851C23.3076 4.80843 23.6731 5.68966 23.674 6.60879V8.33065H22.9598C22.7513 7.42655 22.3045 6.59478 21.6657 5.92181C21.027 5.24884 20.2196 4.75922 19.3276 4.50384C18.4356 4.24846 17.4915 4.23664 16.5934 4.46961C15.6953 4.70258 14.8759 5.17183 14.2205 5.8286C13.5651 6.48537 13.0976 7.30569 12.8665 8.20429C12.6354 9.1029 12.6492 10.047 12.9065 10.9385C13.1637 11.8299 13.655 12.6362 14.3293 13.2736C15.0036 13.9109 15.8363 14.356 16.7409 14.5626V17.0085H6.34445C5.58558 17.008 4.83406 17.1571 4.1328 17.4471C3.43153 17.7371 2.79425 18.1624 2.25735 18.6987C1.72044 19.235 1.29443 19.8718 1.00362 20.5727C0.712822 21.2737 0.562928 22.025 0.5625 22.7839L0.5625 25.096H12.1166C12.1123 26.0129 11.7453 26.8908 11.0957 27.5379C10.4462 28.185 9.56693 28.5487 8.65006 28.5496H0.5625V30.8617H8.65006C10.1799 30.86 11.6467 30.2524 12.7297 29.1719C13.8127 28.0913 14.4236 26.6259 14.4288 25.096V22.7839H2.87789C2.87875 21.8648 3.24426 20.9836 3.89418 20.3336C4.5441 19.6837 5.42533 19.3182 6.34445 19.3173H16.7409V25.096C16.7417 26.6278 17.3504 28.0967 18.4332 29.1801C19.516 30.2635 20.9845 30.873 22.5163 30.8747H25.9992V28.5496H22.5163C21.5994 28.5487 20.7202 28.185 20.0706 27.5379C19.4211 26.8908 19.0541 26.0129 19.0497 25.096V19.3173H25.9992V17.0085H19.0497V14.5626ZM15.006 9.49813C15.0053 8.92654 15.1742 8.36759 15.4913 7.89201C15.8084 7.41643 16.2594 7.04559 16.7873 6.8264C17.3153 6.60721 17.8963 6.54953 18.457 6.66065C19.0177 6.77176 19.5328 7.04669 19.9372 7.45064C20.3416 7.85459 20.6172 8.36942 20.7289 8.92999C20.8407 9.49055 20.7836 10.0717 20.565 10.5998C20.3464 11.128 19.9761 11.5794 19.5009 11.897C19.0257 12.2147 18.4669 12.3842 17.8953 12.3842C17.1298 12.3834 16.3959 12.0791 15.8543 11.5381C15.3128 10.9972 15.0077 10.2636 15.006 9.49813Z" fill="white"/>
<path d="M6.34119 14.6963H11.1937V12.3842H6.34119C5.42207 12.3833 4.54084 12.0178 3.89092 11.3679C3.241 10.718 2.87549 9.83676 2.87463 8.91764H5.41504C6.94681 8.91678 8.41565 8.30812 9.49908 7.2253C10.5825 6.14248 11.192 4.67398 11.1937 3.14221V0.830078H6.34119C4.80912 0.831804 3.34029 1.44118 2.25695 2.52452C1.17361 3.60787 0.564226 5.0767 0.5625 6.60877L0.5625 8.91764C0.564226 10.4497 1.17361 11.9185 2.25695 13.0019C3.34029 14.0852 4.80912 14.6946 6.34119 14.6963ZM6.34119 3.14221H8.8816C8.88074 4.06133 8.51523 4.94256 7.86531 5.59248C7.21539 6.2424 6.33416 6.60791 5.41504 6.60877H2.87463C2.87549 5.68965 3.241 4.80841 3.89092 4.15849C4.54084 3.50857 5.42207 3.14307 6.34119 3.14221Z" fill="white"/>
</svg>
