<svg width="30" height="22" viewBox="0 0 30 22" fill="none" xmlns="http://www.w3.org/2000/svg">
<path d="M15.75 1.25C15.75 0.875 16.0781 0.5 16.5 0.5H18.375C19.3594 0.5 20.2031 1.15625 20.5312 2.04688L20.7656 2.79688L23.4375 1.4375C23.6719 1.34375 23.9531 1.25 24.2344 1.25C24.8906 1.25 25.5 1.85938 25.5 2.51562V6.03125C25.5 6.6875 24.8906 7.25 24.2344 7.25C23.9531 7.25 23.6719 7.20312 23.4375 7.0625L21.9375 6.35938L23.1562 9.92188C23.4375 9.92188 23.7188 9.875 24 9.875C25.9219 9.875 27.7031 10.6719 28.9688 11.9375C29.25 12.2188 29.25 12.6875 28.9688 13.0156C28.6875 13.2969 28.2188 13.2969 27.9375 13.0156C26.9062 12.0312 25.5 11.375 24 11.375C21.3281 11.375 19.125 13.25 18.5156 15.6875C18.4219 16.1094 18.375 16.5781 18.375 17H12C12 19.4844 9.98438 21.5 7.5 21.5C4.96875 21.5 3 19.4844 3 17H1.5C0.65625 17 0 16.3438 0 15.5V14C0 10.7188 2.67188 8 6 8H10.5C11.2969 8 12 8.70312 12 9.5V14C12 14.8438 12.6562 15.5 13.5 15.5H17.0156C17.0156 15.4531 17.0156 15.4062 17.0625 15.3594C17.625 12.9688 19.4062 11.0469 21.7031 10.25L19.125 2.51562C18.9844 2.23438 18.7031 2 18.375 2H16.5C16.0781 2 15.75 1.67188 15.75 1.25ZM21.2812 4.34375C21.2812 4.34375 21.2812 4.34375 21.3281 4.34375L24 5.70312V2.84375L21.3281 4.20312C21.2812 4.20312 21.2812 4.20312 21.2344 4.20312L21.2812 4.34375ZM10.5 9.5H6C3.46875 9.5 1.5 11.5156 1.5 14V15.5H10.875C10.6406 15.0781 10.5 14.5625 10.5 14V9.5ZM10.5 17H4.5C4.5 18.6875 5.8125 20 7.5 20C9.14062 20 10.5 18.6875 10.5 17ZM11.25 5C11.625 5 12 5.375 12 5.75C12 6.17188 11.625 6.5 11.25 6.5H5.25C4.82812 6.5 4.5 6.17188 4.5 5.75C4.5 5.375 4.82812 5 5.25 5H11.25ZM19.5 17C19.5 14.5156 21.4688 12.5 24 12.5C26.4844 12.5 28.5 14.5156 28.5 17C28.5 19.4844 26.4844 21.5 24 21.5C21.4688 21.5 19.5 19.4844 19.5 17ZM24 20C25.6406 20 27 18.6875 27 17C27 15.3594 25.6406 14 24 14C22.3125 14 21 15.3594 21 17C21 18.6875 22.3125 20 24 20Z" fill="white"/>
</svg>
