<svg width="39" height="40" viewBox="0 0 39 40" fill="none" xmlns="http://www.w3.org/2000/svg">
<path d="M27.56 22.1225L24.2694 20.335L20.3125 36.8612H29.25V24.9743C29.2501 24.3911 29.0933 23.8185 28.7959 23.3167C28.4986 22.8149 28.0717 22.4024 27.56 22.1225Z" fill="white"/>
<path d="M14.625 7.61133C14.625 6.80784 14.3867 6.0224 13.9403 5.35433C13.494 4.68625 12.8595 4.16555 12.1172 3.85807C11.3748 3.55059 10.558 3.47014 9.76995 3.62689C8.9819 3.78364 8.25803 4.17056 7.68988 4.73871C7.12173 5.30686 6.73481 6.03073 6.57806 6.81878C6.42131 7.60682 6.50176 8.42366 6.80924 9.16598C7.11672 9.90831 7.63742 10.5428 8.3055 10.9892C8.97357 11.4356 9.75902 11.6738 10.5625 11.6738C11.4226 11.6651 12.2571 11.3802 12.9431 10.8613C13.3127 10.1046 13.8102 9.41743 14.4138 8.83008C14.5499 8.43801 14.6213 8.02636 14.625 7.61133Z" fill="white"/>
<path d="M19.5 19.7988C22.6411 19.7988 25.1875 17.2524 25.1875 14.1113C25.1875 10.9702 22.6411 8.42383 19.5 8.42383C16.3589 8.42383 13.8125 10.9702 13.8125 14.1113C13.8125 17.2524 16.3589 19.7988 19.5 19.7988Z" fill="white"/>
<path d="M32.5 7.61133C32.5 6.53389 32.072 5.50057 31.3101 4.73871C30.5483 3.97684 29.5149 3.54883 28.4375 3.54883C27.3601 3.54883 26.3267 3.97684 25.5649 4.73871C24.803 5.50057 24.375 6.53389 24.375 7.61133C24.3751 8.03727 24.4465 8.4602 24.5863 8.86258C25.1867 9.44018 25.6841 10.1162 26.0569 10.8613C26.7429 11.3802 27.5774 11.6651 28.4375 11.6738C28.971 11.6738 29.4993 11.5687 29.9922 11.3646C30.485 11.1604 30.9329 10.8612 31.3101 10.4839C31.6874 10.1067 31.9866 9.65886 32.1908 9.16598C32.3949 8.67309 32.5 8.14482 32.5 7.61133Z" fill="white"/>
<path d="M12.1876 14.1113C12.1884 13.7493 12.2183 13.3879 12.2769 13.0307C11.7223 13.206 11.1443 13.2964 10.5626 13.2988C9.40092 13.3001 8.26675 12.9457 7.31255 12.2832L4.55005 13.2988C3.9267 13.5317 3.38985 13.9504 3.01206 14.4982C2.63426 15.046 2.43373 15.6965 2.43755 16.362V27.9238H8.12505V24.9745C8.12638 24.0994 8.3632 23.2409 8.81066 22.4889C9.25813 21.7369 9.89974 21.1193 10.6682 20.7007L13.9751 18.8888C12.8251 17.5625 12.1906 15.8668 12.1876 14.1113Z" fill="white"/>
<path d="M34.4504 13.2988L31.6879 12.2832C30.7337 12.9457 29.5995 13.3001 28.4379 13.2988C27.8562 13.2964 27.2782 13.206 26.7235 13.0307C26.7822 13.3879 26.812 13.7493 26.8129 14.1113C26.8098 15.8668 26.1754 17.5625 25.0254 18.8888L28.3323 20.7007C29.1007 21.1193 29.7423 21.7369 30.1898 22.4889C30.6372 23.2409 30.8741 24.0994 30.8754 24.9745V27.9238H36.5629V16.362C36.5667 15.6965 36.3662 15.046 35.9884 14.4982C35.6106 13.9504 35.0738 13.5317 34.4504 13.2988Z" fill="white"/>
<path d="M20.3125 23.0488V29.9388L19.5 33.3513L18.6875 29.9388V23.0488C18.6875 22.8333 18.7731 22.6267 18.9255 22.4743C19.0778 22.3219 19.2845 22.2363 19.5 22.2363C19.7155 22.2363 19.9222 22.3219 20.0745 22.4743C20.2269 22.6267 20.3125 22.8333 20.3125 23.0488Z" fill="white"/>
<path d="M20.3125 23.0488V29.9388L19.5 33.3513L18.6875 29.9388V23.0488C18.6875 22.8333 18.7731 22.6267 18.9255 22.4743C19.0778 22.3219 19.2845 22.2363 19.5 22.2363C19.7155 22.2363 19.9222 22.3219 20.0745 22.4743C20.2269 22.6267 20.3125 22.8333 20.3125 23.0488Z" fill="white"/>
<path d="M11.44 22.1225C10.9283 22.4024 10.5014 22.8149 10.2041 23.3167C9.9067 23.8185 9.74987 24.3911 9.75 24.9743V36.8612H18.6875L14.7306 20.335L11.44 22.1225Z" fill="white"/>
</svg>
