<svg width="37" height="38" viewBox="0 0 37 38" fill="none" xmlns="http://www.w3.org/2000/svg">
<g clip-path="url(#clip0_1_75962)">
<path d="M11.9133 26.0352L9.61284 26.4725C7.43989 26.8857 5.80784 28.4494 5.4494 30.4591L4.28687 35.9918C4.21966 36.3114 4.30024 36.6443 4.50605 36.8978C4.71186 37.1514 5.02101 37.2987 5.34758 37.2987H12.7186V31.6612C12.7186 31.2748 12.9243 30.9176 13.2585 30.7236L16.7717 28.6848C14.8812 28.321 13.1961 27.3726 11.9133 26.0352Z" fill="white"/>
<path d="M32.7131 35.9914L31.5486 30.4579C31.1897 28.4488 29.5576 26.8857 27.3848 26.4729L25.0856 26.0361C24.2278 26.9302 23.19 27.65 22.0315 28.1379C22.026 28.1412 14.8867 32.2854 14.8867 32.2854V37.2987H31.6523C31.979 37.2987 32.2882 37.1514 32.494 36.8977C32.6999 36.644 32.7804 36.3111 32.7131 35.9914ZM18.8614 34.6972H18.1387C17.5401 34.6972 17.0548 34.2118 17.0548 33.6132C17.0548 33.0145 17.5401 32.5292 18.1387 32.5292H18.8614C19.46 32.5292 19.9454 33.0145 19.9454 33.6132C19.9454 34.2118 19.46 34.6972 18.8614 34.6972Z" fill="white"/>
<path d="M11.5254 12.7568H25.4727V14.9379H11.5254V12.7568Z" fill="white"/>
<path d="M11.5255 9.36137V10.589H25.4728V9.36137C26.8763 8.69624 27.7952 7.26711 27.7952 5.69237C27.7952 3.45467 25.9747 1.63415 23.7369 1.63415C23.2117 1.63415 22.6903 1.73663 22.2068 1.93304C21.2562 0.889383 19.9278 0.298828 18.4992 0.298828C17.0705 0.298828 15.7422 0.889311 14.7915 1.93297C14.308 1.73655 13.7866 1.63408 13.2613 1.63408C11.0236 1.63408 9.20312 3.4546 9.20312 5.6923C9.20312 7.26711 10.1221 8.69624 11.5255 9.36137Z" fill="white"/>
<path d="M18.5002 26.6821C22.3386 26.6821 25.4614 23.5594 25.4614 19.721V17.1064H11.5391V19.721C11.5391 23.5594 14.6618 26.6821 18.5002 26.6821Z" fill="white"/>
</g>
<defs>
<clipPath id="clip0_1_75962">
<rect width="37" height="37" fill="white" transform="translate(0 0.298828)"/>
</clipPath>
</defs>
</svg>
