<svg width="41" height="42" viewBox="0 0 41 42" fill="none" xmlns="http://www.w3.org/2000/svg">
<path d="M30.427 9.6779V10.9421L24.3795 7.43999C22.0903 6.12457 18.8957 6.12457 16.6237 7.43999L10.5762 10.9592V9.6779C10.5762 5.83415 12.6774 3.71582 16.5212 3.71582H24.482C28.3257 3.71582 30.427 5.83415 30.427 9.6779Z" fill="white"/>
<path d="M30.476 13.9115L30.2369 13.7919L27.9135 12.4594L23.096 9.6748C21.6269 8.82064 19.3718 8.82064 17.9027 9.6748L13.0852 12.4423L10.7618 13.809L10.4543 13.9627C7.46477 15.9786 7.25977 16.3544 7.25977 19.5832V27.3048C7.25977 30.5336 7.46477 30.9094 10.5227 32.9765L17.9027 37.2303C18.6373 37.6744 19.5598 37.8623 20.4993 37.8623C21.4218 37.8623 22.3614 37.6573 23.096 37.2303L30.5443 32.9253C33.551 30.9094 33.7389 30.5507 33.7389 27.3048V19.5832C33.7389 16.3544 33.5339 15.9786 30.476 13.9115ZM25.2656 23.3586L24.2235 24.6398C24.0527 24.8278 23.9331 25.1865 23.9502 25.4428L24.0527 27.0828C24.121 28.0907 23.4035 28.6032 22.4639 28.2444L20.9435 27.6294C20.7043 27.544 20.3114 27.544 20.0723 27.6294L18.5518 28.2273C17.6123 28.6032 16.8948 28.0736 16.9631 27.0657L17.0656 25.4257C17.0827 25.1694 16.9631 24.8107 16.7923 24.6228L15.7331 23.3586C15.0839 22.5898 15.3743 21.7357 16.3481 21.4794L17.9368 21.0694C18.1931 21.0011 18.4835 20.7619 18.6202 20.5569L19.5085 19.1903C20.0552 18.3361 20.9264 18.3361 21.4902 19.1903L22.3785 20.5569C22.5152 20.779 22.8227 21.0011 23.0618 21.0694L24.6506 21.4794C25.6243 21.7357 25.9148 22.5898 25.2656 23.3586Z" fill="white"/>
</svg>
