<svg width="39" height="40" viewBox="0 0 39 40" fill="none" xmlns="http://www.w3.org/2000/svg">
<g clip-path="url(#clip0_1_76000)">
<path fill-rule="evenodd" clip-rule="evenodd" d="M13.6659 15.9844C13.7944 15.0916 14.1834 14.2495 14.8327 13.4581C15.2906 12.7745 15.8997 12.2054 16.6127 11.7948C17.3257 11.3842 18.1236 11.143 18.9447 11.09C19.7658 11.037 20.5881 11.1735 21.3481 11.4891C22.108 11.8046 22.7851 12.2906 23.3272 12.9097C24.2314 13.0886 24.8158 13.7075 25.0806 14.7666C25.2968 15.6314 25.2794 16.8171 25.0286 18.3238C25.542 18.5686 25.75 19.0453 25.6524 19.7539C25.5683 20.3646 25.1773 21.1838 24.4794 22.2114C24.3657 23.4698 23.7847 24.6399 22.851 25.4911C21.9172 26.3423 20.6985 26.8129 19.435 26.81C18.1715 26.8071 16.9549 26.331 16.0251 25.4756C15.0952 24.6202 14.5196 23.4474 14.4116 22.1885C13.785 21.118 13.4307 20.2656 13.3488 19.6312C13.3055 19.3549 13.3275 19.0723 13.4131 18.8061C13.4952 18.5606 13.6539 18.3478 13.8657 18.1991C13.6335 17.4853 13.5651 16.7282 13.6659 15.9843V15.9844ZM23.5709 9.32654H15.4288C15.2745 9.32655 15.1259 9.26803 15.0131 9.16279C14.9003 9.05756 14.8316 8.91344 14.8209 8.75952L14.0911 3.47784C14.0756 3.3662 14.0915 3.25246 14.137 3.14933C14.1824 3.04621 14.2557 2.95774 14.3485 2.89382C14.4413 2.8299 14.5501 2.79304 14.6626 2.78735C14.7752 2.78166 14.8871 2.80737 14.9859 2.86161L17.0201 3.98659L18.9736 0.603035C19.0274 0.510224 19.1047 0.433288 19.1978 0.380035C19.2909 0.326782 19.3965 0.299106 19.5037 0.299818C19.611 0.30053 19.7161 0.329603 19.8085 0.384087C19.9009 0.438571 19.9773 0.516527 20.0298 0.610043L21.9793 3.98659L24.0135 2.86161C24.1138 2.80652 24.2276 2.78085 24.3418 2.78754C24.4561 2.79423 24.5661 2.833 24.6593 2.89941C24.7525 2.96582 24.825 3.05717 24.8686 3.16296C24.9122 3.26876 24.9251 3.38471 24.9058 3.49749L24.173 8.8008C24.1529 8.94621 24.0808 9.07943 23.9701 9.17586C23.8594 9.27229 23.7176 9.32543 23.5708 9.32548V9.32685L23.5709 9.32654ZM14.9435 26.5821C14.8652 26.4414 14.7342 26.3374 14.5793 26.2932C14.4244 26.249 14.2583 26.2682 14.1175 26.3465C14.1038 26.3541 14.0904 26.3622 14.0774 26.3708V26.3703C12.9483 27.132 11.7551 27.7939 10.5111 28.3485C9.40699 28.8276 8.36488 29.1404 7.3848 29.2868C7.30932 29.2978 7.23657 29.3228 7.17038 29.3607C6.32179 29.7524 5.64279 30.4368 5.25785 31.2884C4.87303 32.1272 4.72813 33.1599 4.82314 34.3865L4.82467 34.4033C4.83632 34.7144 4.91554 36.757 5.05882 38.7315C5.06967 38.8851 5.13833 39.0288 5.25098 39.1338C5.36362 39.2388 5.51186 39.2971 5.66583 39.2971V39.298H33.3343C33.4938 39.2981 33.6471 39.2355 33.761 39.1238C33.8749 39.0121 33.9405 38.8602 33.9436 38.7006C34.0884 36.6947 34.1673 34.628 34.1763 34.3864H34.1771C34.2722 33.1598 34.1273 32.1271 33.7424 31.2883C33.3501 30.4211 32.6537 29.7276 31.7848 29.3391C31.7312 29.314 31.6742 29.2969 31.6156 29.2883V29.2868C29.6469 28.9927 27.416 28.0205 24.923 26.3702C24.7885 26.2812 24.6242 26.2493 24.4662 26.2814C24.3081 26.3135 24.1693 26.4071 24.0803 26.5416C24.0738 26.5515 24.0676 26.5616 24.0616 26.5717L19.2914 34.3668L14.9435 26.5821Z" fill="white"/>
</g>
<defs>
<clipPath id="clip0_1_76000">
<rect width="39" height="39" fill="white" transform="translate(0 0.298828)"/>
</clipPath>
</defs>
</svg>
