<svg width="41" height="42" viewBox="0 0 41 42" fill="none" xmlns="http://www.w3.org/2000/svg">
<path d="M38.2629 24.2158C38.0859 24.2156 37.9105 24.2494 37.7463 24.3156L30.6007 27.2464C30.2664 27.3852 30.0004 27.6504 29.8606 27.9842C29.7207 28.3181 29.7183 28.6936 29.8538 29.0292C29.9188 29.1991 30.0177 29.3539 30.1446 29.4841C30.2714 29.6144 30.4235 29.7174 30.5916 29.7869C30.7596 29.8564 30.9401 29.8908 31.1219 29.8881C31.3037 29.8855 31.483 29.8457 31.649 29.7713L38.7836 26.8494C39.0783 26.7302 39.3222 26.512 39.4734 26.2324C39.6245 25.9528 39.6735 25.6292 39.6118 25.3174C39.5502 25.0056 39.3818 24.725 39.1356 24.5239C38.8894 24.3229 38.5808 24.2139 38.2629 24.2158Z" fill="white"/>
<path d="M28.8905 30.0812C28.7703 29.9148 28.669 29.7356 28.5885 29.5468C28.4961 29.3088 28.4379 29.059 28.4156 28.8047L26.6294 29.4744C26.642 29.5429 26.6491 29.6124 26.6506 29.6821C26.6496 30.1049 26.6254 30.5274 26.5781 30.9476L28.8905 30.0812Z" fill="white"/>
<path d="M5.59728 28.3154H8.61078C8.01791 27.6803 7.55646 26.9342 7.25296 26.1201C6.94946 25.306 6.8099 24.4399 6.84232 23.5717C6.85797 22.7572 7.01663 21.9519 7.31108 21.1923C7.38723 21.0104 7.50921 20.8514 7.66514 20.7307C7.82106 20.6099 8.00561 20.5317 8.20078 20.5035C8.39246 20.4736 8.58863 20.4936 8.77034 20.5616C8.95204 20.6295 9.11314 20.7432 9.23808 20.8917C9.38429 21.0688 9.5572 21.2221 9.75058 21.3461C9.96608 21.4984 10.2083 21.6087 10.4647 21.6714C11.6817 19.4321 11.9454 16.5149 11.9454 14.4096C11.9454 13.9183 11.9318 13.4727 11.9126 13.1071C11.8984 12.8774 11.9558 12.6489 12.0768 12.4531C12.1978 12.2573 12.3766 12.1038 12.5885 12.0138C12.8015 11.9179 13.0391 11.8906 13.2683 11.9358C13.4975 11.981 13.707 12.0963 13.8677 12.266C17.8139 16.301 19.8174 20.2575 19.8174 24.0172C19.8291 25.6115 19.2295 27.1496 18.1419 28.3154H22.2481C24.1832 26.0201 25.2569 23.1216 25.2841 20.1195C25.2841 15.7742 24.1279 13.1714 23.4391 12.0063C23.4323 11.994 23.4056 11.9598 23.3708 11.9694C23.3541 11.9691 23.3376 11.9735 23.3232 11.9821C23.3089 11.9907 23.2972 12.0031 23.2895 12.0179C21.8019 14.6262 19.896 14.6563 19.8154 14.6563C19.6342 14.6563 19.4604 14.5843 19.3322 14.4561C19.2041 14.328 19.1321 14.1541 19.1321 13.9729C19.0977 11.6542 18.5868 9.36737 17.6312 7.25446C16.6756 5.14155 15.2957 3.24773 13.5772 1.69068C13.5652 1.67826 13.5498 1.66968 13.5329 1.66603C13.516 1.66238 13.4984 1.66383 13.4823 1.67018C13.4647 1.6748 13.4488 1.68411 13.4361 1.69712C13.4235 1.71012 13.4146 1.72632 13.4105 1.74398C12.9057 3.51725 12.0105 5.15511 10.7906 6.53757C9.61938 8.0409 8.51375 9.46292 8.19395 12.0083C8.17406 12.1664 8.09955 12.3126 7.9833 12.4216C7.86705 12.5306 7.71638 12.5955 7.55733 12.6051C7.39828 12.6148 7.24086 12.5685 7.1123 12.4744C6.98373 12.3803 6.8921 12.2442 6.85325 12.0897C6.5432 11.0021 5.91177 10.0336 5.04173 9.31122C5.02787 9.29787 5.01004 9.28939 4.99094 9.28705C4.97184 9.28471 4.95249 9.28863 4.93581 9.29823C4.91619 9.30541 4.8994 9.31873 4.88795 9.33621C4.87649 9.35369 4.871 9.37441 4.87226 9.39527C4.87987 11.8885 4.30889 14.3495 3.20425 16.5846C2.52264 17.8921 2.12931 19.3305 2.05078 20.8028C2.05078 26.5428 5.03421 28.0769 5.59728 28.3154Z" fill="white"/>
<path d="M11.6172 39.9316H15.0339C17.7514 39.9286 20.3567 38.8477 22.2783 36.9261C24.1999 35.0045 25.2808 32.3992 25.2839 29.6816H1.36719C1.37026 32.3992 2.45116 35.0045 4.37274 36.9261C6.29432 38.8477 8.89966 39.9286 11.6172 39.9316Z" fill="white"/>
<path d="M10.8319 23.0809C10.1704 23.0734 9.5268 22.8646 8.98689 22.4823C8.7946 22.3572 8.61475 22.2139 8.44979 22.0545C8.30176 22.5659 8.21956 23.094 8.20516 23.6262C8.16838 24.5659 8.38675 25.498 8.83708 26.3236C9.28741 27.1492 9.95289 27.8374 10.7629 28.3152H15.9637C16.7265 27.8886 17.3601 27.2642 17.7978 26.5078C18.2356 25.7514 18.4612 24.8909 18.4511 24.017C18.4511 20.7569 16.7195 17.2705 13.3021 13.6475C13.309 13.8859 13.3124 14.1408 13.3124 14.4094C13.3124 16.8092 12.983 20.2047 11.4141 22.7556C11.3529 22.855 11.2673 22.9372 11.1654 22.9941C11.0634 23.051 10.9486 23.0809 10.8319 23.0809Z" fill="white"/>
</svg>
