<svg width="34" height="35" viewBox="0 0 34 35" fill="none" xmlns="http://www.w3.org/2000/svg">
<path d="M7.79102 32.1742C7.79102 32.362 7.86564 32.5422 7.99848 32.675C8.13132 32.8079 8.31149 32.8825 8.49935 32.8825H25.4993C25.6872 32.8825 25.8674 32.8079 26.0002 32.675C26.1331 32.5422 26.2077 32.362 26.2077 32.1742V27.2158H7.79102V32.1742Z" fill="white"/>
<path d="M6.14142 17.788L7.65017 25.7993H12.6793L12.0418 18.7797C12.0335 18.6867 12.0435 18.5929 12.0714 18.5038C12.0992 18.4146 12.1444 18.3319 12.2042 18.2602C12.2641 18.1885 12.3375 18.1293 12.4202 18.0859C12.5029 18.0426 12.5934 18.016 12.6864 18.0076C12.7794 17.9992 12.8732 18.0093 12.9623 18.0371C13.0515 18.065 13.1343 18.1102 13.206 18.17C13.2777 18.2299 13.3369 18.3033 13.3802 18.386C13.4235 18.4687 13.4501 18.5592 13.4585 18.6522L14.1031 25.7993H19.8973L20.5418 18.6522C20.5502 18.5592 20.5768 18.4687 20.6201 18.386C20.6635 18.3033 20.7227 18.2299 20.7944 18.17C20.8661 18.1102 20.9489 18.065 21.038 18.0371C21.1271 18.0093 21.2209 17.9992 21.3139 18.0076C21.4069 18.016 21.4974 18.0426 21.5801 18.0859C21.6629 18.1293 21.7363 18.1885 21.7961 18.2602C21.856 18.3319 21.9011 18.4146 21.929 18.5038C21.9568 18.5929 21.9669 18.6867 21.9585 18.7797L21.321 25.7993H26.3502L27.8589 17.788C28.7342 17.5536 29.5494 17.1352 30.2502 16.5608C30.9511 15.9865 31.5214 15.2693 31.9232 14.4571C32.3251 13.645 32.5491 12.7565 32.5805 11.8509C32.6119 10.9453 32.4498 10.0434 32.1052 9.20539C31.7605 8.36737 31.2412 7.61244 30.5818 6.99095C29.9224 6.36946 29.138 5.89568 28.2811 5.6012C27.4242 5.30672 26.5143 5.19831 25.6121 5.28319C24.71 5.36807 23.8363 5.6443 23.0493 6.09345C22.6268 4.82317 21.8151 3.71812 20.7294 2.93501C19.6436 2.1519 18.3389 1.73047 17.0002 1.73047C15.6615 1.73047 14.3567 2.1519 13.271 2.93501C12.1852 3.71812 11.3735 4.82317 10.951 6.09345C10.164 5.6443 9.29034 5.36807 8.3882 5.28319C7.48605 5.19831 6.57618 5.30672 5.71923 5.6012C4.86229 5.89568 4.07797 6.36946 3.41856 6.99095C2.75915 7.61244 2.23981 8.36737 1.89516 9.20539C1.55051 10.0434 1.38847 10.9453 1.41984 11.8509C1.45121 12.7565 1.67527 13.645 2.07709 14.4571C2.47891 15.2693 3.04925 15.9865 3.75009 16.5608C4.45092 17.1352 5.26615 17.5536 6.14142 17.788Z" fill="white"/>
</svg>
