<svg width="27" height="29" viewBox="0 0 27 29" fill="none" xmlns="http://www.w3.org/2000/svg">
<path fill-rule="evenodd" clip-rule="evenodd" d="M18.9694 0.0390625H20.7923C23.8125 0.0390625 26.2611 2.4876 26.2611 5.50781V23.0078C26.2611 26.028 23.8125 28.4766 20.7923 28.4766H6.20898C3.18878 28.4766 0.740234 26.028 0.740234 23.0078V5.50781C0.740234 2.4876 3.18878 0.0390625 6.20898 0.0390625H8.0319V4.04948C8.0319 6.26469 9.82711 8.0599 12.0423 8.0599H14.959C17.1742 8.0599 18.9694 6.26469 18.9694 4.04948V0.0390625ZM15.5525 19.2599C17.1421 18.4943 18.2402 16.8682 18.2402 14.987C18.2402 12.3707 16.1169 10.2474 13.5007 10.2474C10.8844 10.2474 8.76107 12.3707 8.76107 14.987C8.76107 16.8682 9.85919 18.4943 11.4488 19.2599C8.96669 19.9103 6.9469 21.7099 5.99607 24.0549C5.77003 24.6149 6.03982 25.2536 6.59982 25.4797C7.15836 25.7072 7.79711 25.4359 8.02461 24.8774C8.90107 22.7132 11.0244 21.1849 13.5007 21.1849C15.9769 21.1849 18.1002 22.7132 18.9767 24.8774C19.2042 25.4359 19.8429 25.7072 20.4015 25.4797C20.9615 25.2536 21.2313 24.6149 21.0052 24.0549C20.0544 21.7099 18.0346 19.9103 15.5525 19.2599ZM13.5007 12.4349C14.9094 12.4349 16.0527 13.5782 16.0527 14.987C16.0527 16.3957 14.9094 17.5391 13.5007 17.5391C12.0919 17.5391 10.9486 16.3957 10.9486 14.987C10.9486 13.5782 12.0919 12.4349 13.5007 12.4349Z" fill="white"/>
</svg>
