<svg width="33" height="32" viewBox="0 0 33 32" fill="none" xmlns="http://www.w3.org/2000/svg">
<path d="M2.46456 20.6519H30.5354C28.8365 26.8077 23.1962 31.3283 16.5 31.3283C9.80384 31.3283 4.16354 26.8077 2.46456 20.6519ZM1.45587 12.8872H31.5441C32.3482 12.8872 33 13.4459 33 14.1351V17.4628C33 18.152 32.3482 18.7107 31.5441 18.7107H1.45587C0.651815 18.7107 0 18.152 0 17.4628V14.1351C0 13.4459 0.651815 12.8872 1.45587 12.8872ZM25.4989 5.99574C26.124 5.59278 26.8179 5.39459 27.549 5.45852C29.6844 5.64537 31.1276 7.98463 31.3263 10.946H28.0432L28.1065 10.2223C28.2193 8.93306 26.2855 8.76387 26.1727 10.0531L26.0946 10.946H20.5506L21.2548 9.20319C21.7396 8.00333 19.9397 7.2761 19.455 8.47603L18.4571 10.9461H14.0736V7.54893C14.0736 7.01288 13.6391 6.57833 13.103 6.57833C12.5669 6.57833 12.1324 7.01288 12.1324 7.54893V10.946H7.35571L6.7893 9.54414C6.30448 8.34428 4.50469 9.07144 4.98944 10.2713L5.26202 10.946H1.74346C1.08932 8.08151 1.78522 5.44596 3.76368 4.64661C5.26041 4.04191 6.95043 4.70217 8.3394 6.13303C8.76182 2.83361 10.6406 0.269531 13.1029 0.269531C15.1017 0.269531 16.7249 1.9642 17.4866 4.38377C19.1337 2.38314 21.2454 1.378 23.0714 2.11573C24.4817 2.68549 25.3067 4.13517 25.4989 5.99574Z" fill="white"/>
</svg>
