<svg width="12" height="12" viewBox="0 0 12 12" fill="none" xmlns="http://www.w3.org/2000/svg">
<g clip-path="url(#clip0_783_51760)">
<g opacity="0.7">
<path d="M1 3.15039C1 2.04582 1.89543 1.15039 3 1.15039H9C10.1046 1.15039 11 2.04582 11 3.15039V8.15039C11 9.25496 10.1046 10.1504 9 10.1504H3C1.89543 10.1504 1 9.25496 1 8.15039V3.15039Z" stroke="white" stroke-width="2"/>
<mask id="mask0_783_51760" style="mask-type:luminance" maskUnits="userSpaceOnUse" x="0" y="0" width="12" height="11">
<g opacity="0.5">
<path d="M1 3.15039C1 2.04582 1.89543 1.15039 3 1.15039H9C10.1046 1.15039 11 2.04582 11 3.15039V8.15039C11 9.25496 10.1046 10.1504 9 10.1504H3C1.89543 10.1504 1 9.25496 1 8.15039V3.15039Z" fill="#C4C4C4" stroke="#DDDDDD"/>
</g>
</mask>
<g mask="url(#mask0_783_51760)">
<path d="M6.66509 6.25653L25.0382 -10.1027C25.7246 -10.7139 25.2923 -11.8496 24.3732 -11.8496H-12.373C-13.2921 -11.8496 -13.7244 -10.7139 -13.038 -10.1027L5.33511 6.25653C5.71419 6.59406 6.28601 6.59406 6.66509 6.25653Z" stroke="white" stroke-width="2"/>
</g>
</g>
</g>
<defs>
<clipPath id="clip0_783_51760">
<rect width="12" height="12" fill="white"/>
</clipPath>
</defs>
</svg>
