<svg width="24" height="24" viewBox="0 0 24 24" fill="none" xmlns="http://www.w3.org/2000/svg">
<path d="M20.7736 10.1998C20.4852 10.5826 19.9559 10.3509 19.84 10.1027C19.6995 9.80293 19.7466 9.32909 19.7466 9.32909C19.7466 9.32909 19.7149 8.45078 19.3073 7.63034C18.6035 6.21457 17.5465 5.40803 16.7375 5.00525C15.9183 4.59691 15.0415 4.56495 15.0415 4.56495C15.0415 4.56495 14.5686 4.612 14.2693 4.47185C14.0214 4.35533 13.7903 3.82501 14.1725 3.53608C14.3475 3.40367 14.8599 3.40695 14.8599 3.40695C14.8599 3.40695 15.988 3.37032 16.9855 3.82799C18.2764 4.42024 19.6896 5.64852 20.4822 7.38171C20.9389 8.38081 20.9024 9.51113 20.9024 9.51113C20.9024 9.51113 20.9058 10.0243 20.7736 10.1998ZM15.6622 6.91273C15.1244 6.71898 14.5618 6.74737 14.5618 6.74737C14.5618 6.74737 14.3495 6.73884 14.1937 6.58727C13.986 6.38579 13.9018 6.02301 14.1437 5.80028C14.3007 5.65567 14.6114 5.63899 14.6114 5.63899C14.6114 5.63899 15.3298 5.57726 16.0482 5.86251C17.1492 6.29973 17.9774 7.07084 18.4523 8.27064C18.7372 8.99014 18.675 9.70973 18.675 9.70973C18.675 9.70973 18.6586 10.0209 18.5146 10.1782C18.2922 10.4204 17.9303 10.3362 17.7288 10.1282C17.5775 9.97216 17.569 9.75936 17.569 9.75936C17.569 9.75936 17.5974 9.19579 17.4039 8.65704C17.0439 7.65665 16.2706 7.13208 15.6622 6.91273ZM15.3142 14.0594C15.6148 13.8962 15.9927 13.7417 16.3643 13.7262C17.5511 13.6759 18.4404 14.9574 18.4558 14.9744C18.8547 15.4006 19.3028 15.88 19.3028 15.88C19.3028 15.88 20.1731 16.6476 20.2535 17.4028C20.2945 17.7884 20.0567 18.4912 19.5777 19.0979C19.6308 19.0304 17.8375 21.4434 15.0398 21.1947C7.14602 20.494 3.39343 12.4313 3.11458 9.28334C2.86674 6.48107 5.27562 4.68525 5.20843 4.73845C5.8142 4.25826 6.51588 4.02014 6.90076 4.06104C7.65447 4.14143 8.42096 5.01379 8.42096 5.01379C8.42096 5.01379 8.75778 5.32981 9.11799 5.66748C9.44113 5.9706 10.5747 6.74013 10.6208 7.95699C10.6704 9.25763 8.68505 10.7539 8.68505 10.7539L8.56752 10.818C8.56752 10.818 9.45471 12.3594 10.7064 13.6048C11.8973 14.7897 13.4558 15.6813 13.4558 15.6813C13.4558 15.6813 13.7369 15.4075 14.0328 15.1189C14.4292 14.7324 15.0269 14.2156 15.3142 14.0594ZM13.4891 16.9495C13.4859 16.9495 12.6052 16.6529 11.1294 15.504C10.0908 14.6954 9.54181 14.1462 8.79038 13.1775C7.64317 11.6991 7.34698 10.817 7.34698 10.8134C7.33559 10.5489 7.58897 10.3011 7.58897 10.3011C7.58897 10.3011 8.15767 9.74815 8.59656 9.30855C8.90038 9.00413 9.12502 8.76245 9.12502 8.76245C9.12502 8.76245 9.47542 8.38458 9.47909 8.01803C9.48355 7.60235 9.14108 7.19084 9.14108 7.19084L7.68777 5.7847C7.68777 5.7847 7.32686 5.33408 6.92732 5.22609C6.59932 5.13756 6.2182 5.38778 6.2182 5.38778C6.2182 5.38778 5.81122 5.68306 5.42842 6.08623C5.05246 6.48266 4.14308 7.31362 4.17746 8.8612C4.21294 10.4701 4.92314 12.4443 6.39944 14.5968C7.39702 16.0514 9.36305 17.6579 9.71226 17.8984C11.8614 19.377 13.8324 20.0883 15.4387 20.1244C16.9837 20.1584 17.8132 19.2476 18.2089 18.8709C18.6116 18.4877 18.906 18.0799 18.906 18.0799C18.906 18.0799 19.156 17.6981 19.0676 17.3696C18.9596 16.9694 18.5099 16.608 18.5099 16.608L17.1059 15.1522C17.1059 15.1522 16.6955 14.8092 16.28 14.8136C15.9145 14.8177 15.5371 15.1684 15.5371 15.1684C15.5371 15.1684 15.296 15.3934 14.9923 15.6978C14.5534 16.1374 14.0013 16.7069 14.0013 16.7069C14.0013 16.7069 13.7537 16.961 13.4891 16.9495Z" fill="white"/>
</svg>
