<svg width="73" height="73" viewBox="0 0 73 73" fill="none" xmlns="http://www.w3.org/2000/svg">
<g clip-path="url(#clip0_783_51778)">
<path d="M71.1877 19.252H1.56836" stroke="#FE5B21" stroke-width="3.4375" stroke-miterlimit="10" stroke-linecap="round" stroke-linejoin="round"/>
<path d="M1.56836 19.2509V10.2644C1.56836 7.86278 3.51512 5.91602 5.91671 5.91602H67.0833C69.4849 5.91602 71.4316 7.86278 71.4316 10.2644V22.8946V67.0827C71.4316 69.4842 69.4849 71.4309 67.0833 71.4309H5.91671C3.51512 71.4309 1.56836 69.4842 1.56836 67.0826V19.2509Z" stroke="white" stroke-width="3.4375" stroke-miterlimit="10" stroke-linecap="round" stroke-linejoin="round"/>
<path d="M11.7148 10.2651V1.56836" stroke="white" stroke-width="3.4375" stroke-miterlimit="10" stroke-linecap="round" stroke-linejoin="round"/>
<path d="M23.3096 10.2651V1.56836" stroke="white" stroke-width="3.4375" stroke-miterlimit="10" stroke-linecap="round" stroke-linejoin="round"/>
<path d="M61.2852 10.2651V1.56836" stroke="white" stroke-width="3.4375" stroke-miterlimit="10" stroke-linecap="round" stroke-linejoin="round"/>
<path d="M49.6904 10.2651V1.56836" stroke="white" stroke-width="3.4375" stroke-miterlimit="10" stroke-linecap="round" stroke-linejoin="round"/>
<path d="M30.9318 51.1387H17.6572V59.8354H30.9752" stroke="white" stroke-width="3.4375" stroke-miterlimit="10" stroke-linecap="round" stroke-linejoin="round"/>
<path d="M41.835 59.8354H55.3424V51.1387H41.9218" stroke="white" stroke-width="3.4375" stroke-miterlimit="10" stroke-linecap="round" stroke-linejoin="round"/>
<path d="M55.3428 51.1383L61.1406 32.2956L46.6462 38.0934L36.5 27.9473L26.3539 38.0934L11.8594 32.2956L17.6572 51.1383" stroke="white" stroke-width="3.4375" stroke-miterlimit="10" stroke-linecap="round" stroke-linejoin="round"/>
<path d="M36.4999 62.7347C39.702 62.7347 42.2977 59.49 42.2977 55.4875C42.2977 51.4849 39.702 48.2402 36.4999 48.2402C33.2979 48.2402 30.7021 51.4849 30.7021 55.4875C30.7021 59.49 33.2979 62.7347 36.4999 62.7347Z" stroke="#FE5B21" stroke-width="3.4375" stroke-miterlimit="10" stroke-linecap="round" stroke-linejoin="round"/>
</g>
<defs>
<clipPath id="clip0_783_51778">
<rect width="73" height="73" fill="white"/>
</clipPath>
</defs>
</svg>
