<svg width="80" height="80" viewBox="0 0 80 80" fill="none" xmlns="http://www.w3.org/2000/svg">
<path d="M24.391 52.8277V48.1951H24.7054C30.7022 48.1951 35.5635 43.3302 35.5635 37.3291V35.2502H36.7941C38.3707 35.2502 39.6488 33.9716 39.6488 32.3945C39.6488 30.8173 38.3707 29.5388 36.7941 29.5388H35.5635V23.5082L23.4266 23.2885C20.4596 23.2348 18.0371 20.8995 17.8735 17.9355L14.5102 20.4943C12.1954 22.2554 9.41738 23.3027 6.51645 23.5082V29.5388H5.46895C3.89238 29.5388 2.61426 30.8174 2.61426 32.3945C2.61426 33.9716 3.89223 35.2502 5.46895 35.2502H6.51645V37.3291C6.51645 43.3302 11.3779 48.1951 17.3746 48.1951H17.6889V52.7696" stroke="white" stroke-width="3.4375" stroke-miterlimit="10" stroke-linecap="round" stroke-linejoin="round"/>
<path d="M23.2717 40.6328C22.1212 41.7841 20.2559 41.7841 19.1055 40.6328" stroke="white" stroke-width="3.4375" stroke-miterlimit="10" stroke-linecap="round" stroke-linejoin="round"/>
<path d="M37.46 63.6068H1.71875V63.6049C1.71875 57.9929 6.26828 53.4434 11.8803 53.4434H30.2273C31.7695 53.4434 33.3575 53.8305 34.6669 54.4452" stroke="white" stroke-width="3.4375" stroke-miterlimit="10" stroke-linecap="round" stroke-linejoin="round"/>
<path d="M36.7322 29.5447C38.2388 26.1066 39.0933 23.0997 39.0936 19.0189C39.0939 13.2995 35.8227 8.03859 30.5229 5.74969C30.4963 5.73828 30.4697 5.72687 30.4432 5.71547L23.7644 2.87891C23.7644 5.95297 24.5838 8.445 21.511 8.445H13.3864C7.60973 8.445 2.92676 13.1297 2.92676 18.9087C2.92676 23.0623 3.78035 26.0441 5.3391 29.543" stroke="white" stroke-width="3.4375" stroke-miterlimit="10" stroke-linecap="round" stroke-linejoin="round"/>
<path d="M46.9434 44.7978V38.5391H61.8043V44.9134" stroke="white" stroke-width="3.4375" stroke-miterlimit="10" stroke-linecap="round" stroke-linejoin="round"/>
<path d="M71.285 63.543V73.6806C71.285 75.5819 69.7436 77.1233 67.8423 77.1233H40.9036C39.0022 77.1233 37.4609 75.5819 37.4609 73.6806V64.0753" stroke="white" stroke-width="3.4375" stroke-miterlimit="10" stroke-linecap="round" stroke-linejoin="round"/>
<path d="M70.4858 63.5427H38.2605C35.5564 63.5427 34.6689 61.3477 34.6689 58.6398V48.6245C34.6689 46.8494 36.1061 45.4102 37.8789 45.4102H70.8675C72.6403 45.4102 74.0775 46.8492 74.0775 48.6245V58.6398C74.0774 61.3475 73.1899 63.5427 70.4858 63.5427Z" stroke="white" stroke-width="3.4375" stroke-miterlimit="10" stroke-linecap="round" stroke-linejoin="round"/>
<path d="M62.0703 60.0176V66.4212" stroke="white" stroke-width="3.4375" stroke-miterlimit="10" stroke-linecap="round" stroke-linejoin="round"/>
<path d="M46.6758 60.0176V66.4212" stroke="white" stroke-width="3.4375" stroke-miterlimit="10" stroke-linecap="round" stroke-linejoin="round"/>
<path d="M62.1553 18.0243L64.972 20.1638L68.5065 15.8848" stroke="white" stroke-width="3.4375" stroke-miterlimit="10" stroke-linecap="round" stroke-linejoin="round"/>
<path d="M65.237 31.4563C72.4407 31.4563 78.2805 25.6143 78.2805 18.4078C78.2805 11.2014 72.4407 5.35938 65.237 5.35938C58.0332 5.35938 52.1934 11.2014 52.1934 18.4078C52.1934 25.6143 58.0332 31.4563 65.237 31.4563Z" stroke="#FE5B21" stroke-width="3.4375" stroke-miterlimit="10" stroke-linecap="round" stroke-linejoin="round"/>
</svg>
