<svg width="73" height="73" viewBox="0 0 73 73" fill="none" xmlns="http://www.w3.org/2000/svg">
<g clip-path="url(#clip0_783_51826)">
<path d="M71.3405 11.5127L1.66797 10.2988" stroke="white" stroke-width="3.13672" stroke-miterlimit="10" stroke-linecap="round" stroke-linejoin="round"/>
<path d="M33.5479 24.187V2.2207" stroke="#FE5B21" stroke-width="3.13672" stroke-miterlimit="10" stroke-linejoin="round"/>
<path d="M16.5859 2.51758V24.2944" stroke="#FE5B21" stroke-width="3.13672" stroke-miterlimit="10" stroke-linejoin="round"/>
<path d="M25.0674 2.36914V25.1001" stroke="#FE5B21" stroke-width="3.13672" stroke-miterlimit="10" stroke-linejoin="round"/>
<path d="M67.2658 42.7025C67.6821 41.3542 67.9065 39.9217 67.9065 38.4366C67.9065 30.4602 61.4405 23.9941 53.4641 23.9941C50.165 23.9941 47.1242 25.1004 44.6924 26.962" stroke="white" stroke-width="3.13672" stroke-miterlimit="10" stroke-linejoin="round"/>
<path d="M57.0863 42.7035C58.2942 41.6768 59.0616 40.1471 59.0616 38.4376C59.0616 35.3461 56.5555 32.8398 53.4639 32.8398C52.0374 32.8398 50.7357 33.3734 49.7471 34.2518" stroke="white" stroke-width="3.13672" stroke-miterlimit="10" stroke-linejoin="round"/>
<path d="M49.725 42.7025C50.1413 41.3542 50.3657 39.9217 50.3657 38.4366C50.3657 30.4602 43.8996 23.9941 35.9232 23.9941C32.8818 23.9941 30.0599 24.9343 27.7324 26.5399" stroke="white" stroke-width="3.13672" stroke-miterlimit="10" stroke-linejoin="round"/>
<path d="M39.8598 42.7029C41.0086 41.6421 41.7287 40.1238 41.7287 38.4369C41.7287 35.2303 39.1293 32.6309 35.9227 32.6309C34.9084 32.6309 33.9547 32.8909 33.125 33.3482" stroke="white" stroke-width="3.13672" stroke-miterlimit="10" stroke-linejoin="round"/>
<path d="M33.341 42.7025C33.7573 41.3542 33.9817 39.9217 33.9817 38.4366C33.9817 30.4602 27.5157 23.9941 19.5393 23.9941C11.5629 23.9941 5.09668 30.4601 5.09668 38.4366C5.09668 39.9217 5.3211 41.3542 5.73743 42.7025" stroke="white" stroke-width="3.13672" stroke-miterlimit="10" stroke-linejoin="round"/>
<path d="M23.051 42.7032C24.2807 41.6899 25.0649 40.1552 25.0649 38.4373C25.0649 35.3858 22.5911 32.9121 19.5397 32.9121C16.4882 32.9121 14.0146 35.3858 14.0146 38.4373C14.0146 40.1552 14.7987 41.6899 16.0286 42.7032" stroke="white" stroke-width="3.13672" stroke-miterlimit="10" stroke-linejoin="round"/>
<path d="M12.9932 62.4004L14.0484 71.4319H58.9605L60.0157 62.4004H12.9932Z" stroke="white" stroke-width="3.13672" stroke-miterlimit="10" stroke-linecap="round" stroke-linejoin="round"/>
<path d="M13.4103 62.3851H59.5961C64.585 62.3851 68.8306 58.7513 69.6008 53.8223L71.3394 42.6953H1.66699L3.40559 53.8223C4.1758 58.7515 8.42149 62.3851 13.4103 62.3851Z" stroke="white" stroke-width="3.13672" stroke-miterlimit="10" stroke-linecap="round" stroke-linejoin="round"/>
<path d="M71.3395 1.56836L29.5142 2.29123L21.0345 2.44065L12.5534 2.59022L1.66699 2.78184" stroke="white" stroke-width="3.13672" stroke-miterlimit="10" stroke-linecap="round" stroke-linejoin="round"/>
</g>
<defs>
<clipPath id="clip0_783_51826">
<rect width="73" height="73" fill="white"/>
</clipPath>
</defs>
</svg>
