<svg width="78" height="78" viewBox="0 0 78 78" fill="none" xmlns="http://www.w3.org/2000/svg">
<path d="M20.2605 42.5137H1.67578" stroke="#FE5B21" stroke-width="3.35156" stroke-miterlimit="10" stroke-linecap="round" stroke-linejoin="round"/>
<path d="M48.2927 42.5137H29.708" stroke="#FE5B21" stroke-width="3.35156" stroke-miterlimit="10" stroke-linecap="round" stroke-linejoin="round"/>
<path d="M76.324 42.5137H57.7393" stroke="#FE5B21" stroke-width="3.35156" stroke-miterlimit="10" stroke-linecap="round" stroke-linejoin="round"/>
<path d="M10.9678 20.3379V35.5451" stroke="#FE5B21" stroke-width="3.35156" stroke-miterlimit="10" stroke-linecap="round" stroke-linejoin="round"/>
<path d="M39 20.3379V35.5451" stroke="#FE5B21" stroke-width="3.35156" stroke-miterlimit="10" stroke-linecap="round" stroke-linejoin="round"/>
<path d="M67.0322 20.3379V35.5451" stroke="#FE5B21" stroke-width="3.35156" stroke-miterlimit="10" stroke-linecap="round" stroke-linejoin="round"/>
<path d="M17.9063 14.0294C18.2716 10.1977 15.4615 6.79537 11.6298 6.4301C7.79811 6.06483 4.3958 8.87492 4.03052 12.7066C3.66525 16.5383 6.47535 19.9406 10.307 20.3059C14.1387 20.6712 17.5411 17.8611 17.9063 14.0294Z" stroke="white" stroke-width="3.35156" stroke-miterlimit="10" stroke-linecap="round" stroke-linejoin="round"/>
<path d="M10.9678 71.6787V49.4844" stroke="white" stroke-width="3.35156" stroke-miterlimit="10" stroke-linecap="round" stroke-linejoin="round"/>
<path d="M45.7317 15.1049C46.7329 11.3883 44.5315 7.56377 40.8149 6.56264C37.0983 5.56151 33.2738 7.76284 32.2727 11.4795C31.2715 15.1961 33.4729 19.0206 37.1895 20.0217C40.9061 21.0228 44.7306 18.8215 45.7317 15.1049Z" stroke="white" stroke-width="3.35156" stroke-miterlimit="10" stroke-linecap="round" stroke-linejoin="round"/>
<path d="M20.2607 29.6309H29.7079V71.6787H48.2926V29.6309H57.7397" stroke="white" stroke-width="3.35156" stroke-miterlimit="10" stroke-linecap="round" stroke-linejoin="round"/>
<path d="M39 71.6787V49.4844" stroke="white" stroke-width="3.35156" stroke-miterlimit="10" stroke-linecap="round" stroke-linejoin="round"/>
<path d="M1.67578 71.678H20.2605V29.6303C20.2605 24.4982 16.1001 20.3379 10.9681 20.3379C5.83614 20.3379 1.67578 24.4982 1.67578 29.6303V71.678Z" stroke="white" stroke-width="3.35156" stroke-miterlimit="10" stroke-linecap="round" stroke-linejoin="round"/>
<path d="M10.9678 20.3379H67.0315" stroke="white" stroke-width="3.35156" stroke-miterlimit="10" stroke-linecap="round" stroke-linejoin="round"/>
<path d="M69.7009 19.8064C73.257 18.3334 74.9457 14.2564 73.4727 10.7003C71.9997 7.14422 67.9228 5.45554 64.3666 6.92856C60.8105 8.40158 59.1219 12.4785 60.5949 16.0346C62.0679 19.5907 66.1448 21.2794 69.7009 19.8064Z" stroke="white" stroke-width="3.35156" stroke-miterlimit="10" stroke-linecap="round" stroke-linejoin="round"/>
<path d="M67.0322 71.6787V49.4844" stroke="white" stroke-width="3.35156" stroke-miterlimit="10" stroke-linecap="round" stroke-linejoin="round"/>
<path d="M57.7393 71.678H76.324V29.6303C76.324 24.4982 72.1636 20.3379 67.0316 20.3379C61.8996 20.3379 57.7393 24.4982 57.7393 29.6303V71.678Z" stroke="white" stroke-width="3.35156" stroke-miterlimit="10" stroke-linecap="round" stroke-linejoin="round"/>
</svg>
