<svg width="80" height="80" viewBox="0 0 80 80" fill="none" xmlns="http://www.w3.org/2000/svg">
<path d="M52.4525 26.7436H43.7939V14.2422H52.4525" stroke="#FE5B21" stroke-width="3.4375" stroke-miterlimit="10" stroke-linecap="round" stroke-linejoin="round"/>
<path d="M64.9727 24.5391V25.8316" stroke="#FE5B21" stroke-width="3.4375" stroke-miterlimit="10" stroke-linecap="round" stroke-linejoin="round"/>
<path d="M64.9727 33.2656V34.5581" stroke="#FE5B21" stroke-width="3.4375" stroke-miterlimit="10" stroke-linecap="round" stroke-linejoin="round"/>
<path d="M70.0113 29.5488H68.7119" stroke="#FE5B21" stroke-width="3.4375" stroke-miterlimit="10" stroke-linecap="round" stroke-linejoin="round"/>
<path d="M61.2361 29.5488H59.9365" stroke="#FE5B21" stroke-width="3.4375" stroke-miterlimit="10" stroke-linecap="round" stroke-linejoin="round"/>
<path d="M1.71875 34.2108C1.71875 29.2533 5.73797 25.2344 10.6959 25.2344H15.663C20.6209 25.2344 24.6402 29.2533 24.6402 34.2108V50.1711H1.71875V34.2108Z" stroke="white" stroke-width="3.4375" stroke-miterlimit="10" stroke-linecap="round" stroke-linejoin="round"/>
<path d="M21.7543 51.1465L19.3146 73.1162H7.04223L4.60254 51.1465" stroke="white" stroke-width="3.4375" stroke-miterlimit="10" stroke-linecap="round" stroke-linejoin="round"/>
<path d="M13.1817 25.2344H13.1787C8.58406 25.2344 4.85938 21.5097 4.85938 16.915V15.2022C4.85938 10.6075 8.58406 6.88281 13.1787 6.88281H13.1817C17.7764 6.88281 21.5011 10.6075 21.5011 15.2022V16.915C21.5011 21.5097 17.7764 25.2344 13.1817 25.2344Z" stroke="white" stroke-width="3.4375" stroke-miterlimit="10" stroke-linecap="round" stroke-linejoin="round"/>
<path d="M28.8135 73.1172H78.2824" stroke="white" stroke-width="3.4375" stroke-miterlimit="10" stroke-linecap="round" stroke-linejoin="round"/>
<path d="M32.0508 72.1084V63.7871H75.0448V72.1084" stroke="white" stroke-width="3.4375" stroke-miterlimit="10" stroke-linecap="round" stroke-linejoin="round"/>
<path d="M37.0732 62.7781V54.457H70.0173V62.7781" stroke="white" stroke-width="3.4375" stroke-miterlimit="10" stroke-linecap="round" stroke-linejoin="round"/>
<path d="M42.1006 53.448V45.127H64.9945V53.448" stroke="white" stroke-width="3.4375" stroke-miterlimit="10" stroke-linecap="round" stroke-linejoin="round"/>
<path d="M53.5459 12.7227V44.7922" stroke="white" stroke-width="3.4375" stroke-miterlimit="10" stroke-linecap="round" stroke-linejoin="round"/>
<path d="M43.795 27.0841V30.0307H31.4971L34.5149 23.7801L31.4971 17.5293H42.3732" stroke="#FE5B21" stroke-width="3.4375" stroke-miterlimit="10" stroke-linecap="round" stroke-linejoin="round"/>
</svg>
