<svg width="74" height="74" viewBox="0 0 74 74" fill="none" xmlns="http://www.w3.org/2000/svg">
<g clip-path="url(#clip0_783_51904)">
<path d="M64.5266 11.6243C58.9859 11.6243 54.4941 7.13255 54.4941 1.5918" stroke="#FE5B21" stroke-width="3.17969" stroke-miterlimit="10"/>
<path d="M28.3499 1.5918C28.3499 7.13255 23.8583 11.6243 18.3174 11.6243" stroke="#FE5B21" stroke-width="3.17969" stroke-miterlimit="10"/>
<path d="M53.1583 11.6243C47.6176 11.6243 43.126 7.13255 43.126 1.5918" stroke="#FE5B21" stroke-width="3.17969" stroke-miterlimit="10"/>
<path d="M28.3496 20.5051C28.3496 16.7129 31.4238 13.6387 35.216 13.6387H35.6607C39.4529 13.6387 42.5271 16.7129 42.5271 20.5051" stroke="#FE5B21" stroke-width="3.17969" stroke-miterlimit="10"/>
<path d="M10.2686 37.4067V27.1813C10.2686 23.4934 13.2582 20.5039 16.9459 20.5039H65.7331C69.421 20.5039 72.4105 23.4935 72.4105 27.1813V65.7285C72.4105 69.4163 69.4209 72.4058 65.7331 72.4058H16.9459C13.2582 72.4058 10.2686 69.4163 10.2686 65.7285V55.5446" stroke="white" stroke-width="3.17969" stroke-miterlimit="10" stroke-linecap="round" stroke-linejoin="round"/>
<path d="M18.3167 72.4058H8.26719C4.57947 72.4058 1.58984 69.4163 1.58984 65.7285V27.1813C1.58984 23.4934 4.57933 20.5039 8.26719 20.5039H18.3167" stroke="white" stroke-width="3.17969" stroke-miterlimit="10" stroke-linecap="round" stroke-linejoin="round"/>
<path d="M22.0465 55.5152H1.58984V37.3926H22.0465C27.0509 37.3926 31.1079 41.4494 31.1079 46.454C31.1079 51.4584 27.0509 55.5152 22.0465 55.5152Z" stroke="white" stroke-width="3.17969" stroke-miterlimit="10" stroke-linecap="round" stroke-linejoin="round"/>
<path d="M53.1593 1.5918H18.1543V20.5036H53.1593V1.5918Z" stroke="white" stroke-width="3.17969" stroke-miterlimit="10" stroke-linecap="round" stroke-linejoin="round"/>
<path d="M64.5265 1.5918H53.1582V20.5036H64.5265V1.5918Z" stroke="white" stroke-width="3.17969" stroke-miterlimit="10" stroke-linecap="round" stroke-linejoin="round"/>
<path d="M21.6738 46.3854V46.3203" stroke="white" stroke-width="3.17969" stroke-miterlimit="10" stroke-linecap="round" stroke-linejoin="round"/>
</g>
<defs>
<clipPath id="clip0_783_51904">
<rect width="74" height="74" fill="white"/>
</clipPath>
</defs>
</svg>
