<svg width="18" height="19" viewBox="0 0 18 19" fill="none" xmlns="http://www.w3.org/2000/svg">
<path d="M10.9688 12.0625C10.7227 12.0625 10.5117 11.9922 10.3711 11.8164L1.6875 3.13281V7C1.6875 7.49219 1.30078 7.84375 0.84375 7.84375C0.351562 7.84375 0 7.49219 0 7V1.09375C0 0.636719 0.351562 0.25 0.84375 0.25H6.75C7.20703 0.25 7.59375 0.636719 7.59375 1.09375C7.59375 1.58594 7.20703 1.9375 6.75 1.9375H2.84766L11.5312 10.6562C11.8828 10.9727 11.8828 11.5 11.5312 11.8164C11.3906 11.9922 11.1797 12.0625 10.9688 12.0625ZM10.125 2.5C14.4492 2.5 18 6.05078 18 10.375C18 14.7344 14.4492 18.25 10.125 18.25C5.76562 18.25 2.25 14.7344 2.25 10.375C2.25 9.91797 2.60156 9.53125 3.09375 9.53125C3.55078 9.53125 3.9375 9.91797 3.9375 10.375C3.9375 13.7852 6.67969 16.5625 10.125 16.5625C13.5352 16.5625 16.3125 13.8203 16.3125 10.375C16.3125 6.96484 13.5352 4.1875 10.125 4.1875C9.63281 4.1875 9.28125 3.83594 9.28125 3.34375C9.28125 2.88672 9.63281 2.5 10.125 2.5Z" fill="white"/>
</svg>
