<svg width="19" height="15" viewBox="0 0 19 15" fill="none" xmlns="http://www.w3.org/2000/svg">
<path d="M3.84766 4.62891C3.70703 4.76953 3.49609 4.875 3.25 4.875C3.03906 4.91016 2.79297 4.80469 2.65234 4.62891L1.24609 3.22266C0.894531 2.90625 0.894531 2.37891 1.24609 2.0625C1.5625 1.71094 2.08984 1.71094 2.40625 2.0625L3.21484 2.83594L5.14844 0.65625C5.46484 0.339844 5.99219 0.304688 6.34375 0.621094C6.66016 0.9375 6.69531 1.46484 6.37891 1.81641L3.84766 4.62891ZM3.84766 10.2539C3.70703 10.3945 3.49609 10.5 3.25 10.5C3.03906 10.5352 2.79297 10.4297 2.65234 10.2539L1.24609 8.84766C0.894531 8.53125 0.894531 8.00391 1.24609 7.65234C1.5625 7.33594 2.08984 7.33594 2.40625 7.65234L3.21484 8.46094L5.14844 6.28125C5.46484 5.96484 5.99219 5.92969 6.34375 6.24609C6.66016 6.52734 6.69531 7.08984 6.37891 7.44141L3.84766 10.2539ZM8.59375 3.46875C8.10156 3.46875 7.75 3.11719 7.75 2.625C7.75 2.16797 8.10156 1.78125 8.59375 1.78125H18.1562C18.6133 1.78125 19 2.16797 19 2.625C19 3.11719 18.6133 3.46875 18.1562 3.46875H8.59375ZM7.75 8.25C7.75 7.79297 8.10156 7.40625 8.59375 7.40625H18.1562C18.6133 7.40625 19 7.79297 19 8.25C19 8.74219 18.6133 9.09375 18.1562 9.09375H8.59375C8.10156 9.09375 7.75 8.74219 7.75 8.25ZM6.625 13.875C6.625 13.418 6.97656 13.0312 7.46875 13.0312H18.1562C18.6133 13.0312 19 13.418 19 13.875C19 14.3672 18.6133 14.7188 18.1562 14.7188H7.46875C6.97656 14.7188 6.625 14.3672 6.625 13.875ZM3.25 15C2.61719 15 2.125 14.5078 2.125 13.875C2.125 13.2773 2.61719 12.75 3.25 12.75C3.84766 12.75 4.375 13.2773 4.375 13.875C4.375 14.5078 3.84766 15 3.25 15Z" fill="white"/>
</svg>
