<svg width="14" height="19" viewBox="0 0 14 19" fill="none" xmlns="http://www.w3.org/2000/svg">
<path d="M9.5625 7C9.5625 8.58203 8.29688 9.8125 6.75 9.8125C5.16797 9.8125 3.9375 8.58203 3.9375 7C3.9375 5.45312 5.16797 4.1875 6.75 4.1875C8.29688 4.1875 9.5625 5.45312 9.5625 7ZM6.75 5.875C6.11719 5.875 5.625 6.40234 5.625 7C5.625 7.63281 6.11719 8.125 6.75 8.125C7.34766 8.125 7.875 7.63281 7.875 7C7.875 6.40234 7.34766 5.875 6.75 5.875ZM13.5 7C13.5 10.0938 9.38672 15.543 7.55859 17.8281C7.13672 18.3555 6.32812 18.3555 5.90625 17.8281C4.07812 15.543 0 10.0938 0 7C0 3.27344 2.98828 0.25 6.75 0.25C10.4766 0.25 13.5 3.27344 13.5 7ZM6.75 1.9375C3.9375 1.9375 1.6875 4.22266 1.6875 7C1.6875 7.45703 1.82812 8.125 2.21484 9.03906C2.56641 9.88281 3.09375 10.8672 3.69141 11.8516C4.71094 13.4688 5.87109 15.0156 6.75 16.1406C7.59375 15.0156 8.75391 13.4688 9.77344 11.8516C10.3711 10.8672 10.8984 9.88281 11.25 9.03906C11.6367 8.125 11.8125 7.45703 11.8125 7C11.8125 4.22266 9.52734 1.9375 6.75 1.9375Z" fill="white"/>
</svg>
