<svg width="18" height="17" viewBox="0 0 18 17" fill="none" xmlns="http://www.w3.org/2000/svg">
<path d="M8.57812 2.20312L8.96484 2.625L9.38672 2.23828C10.5469 1.07812 12.1992 0.550781 13.7812 0.832031C16.207 1.21875 18 3.32812 18 5.78906V5.96484C18 7.44141 17.3672 8.84766 16.3125 9.83203L9.94922 15.7734C9.70312 16.0195 9.35156 16.125 9 16.125C8.61328 16.125 8.26172 16.0195 8.01562 15.7734L1.65234 9.83203C0.597656 8.84766 0 7.44141 0 5.96484V5.78906C0 3.32812 1.75781 1.21875 4.18359 0.832031C5.76562 0.550781 7.41797 1.07812 8.57812 2.20312C8.57812 2.23828 8.54297 2.20312 8.57812 2.20312ZM8.96484 5.01562L7.38281 3.39844C6.60938 2.66016 5.51953 2.30859 4.46484 2.48438C2.84766 2.76562 1.6875 4.13672 1.6875 5.78906V5.96484C1.6875 6.98438 2.07422 7.93359 2.8125 8.60156L9 14.3672L15.1523 8.60156C15.8906 7.93359 16.3125 6.98438 16.3125 5.96484V5.78906C16.3125 4.13672 15.1172 2.76562 13.5 2.48438C12.4453 2.30859 11.3555 2.66016 10.582 3.39844L8.96484 5.01562Z" fill="white"/>
</svg>
