<svg width="16" height="19" viewBox="0 0 16 19" fill="none" xmlns="http://www.w3.org/2000/svg">
<path d="M9.5625 10.9375C12.9727 10.9375 15.75 13.7148 15.75 17.125C15.75 17.7578 15.2227 18.25 14.625 18.25H1.125C0.492188 18.25 0 17.7578 0 17.125C0 13.7148 2.74219 10.9375 6.1875 10.9375H9.5625ZM1.6875 16.5625H14.0273C13.7461 14.3477 11.8477 12.625 9.5625 12.625H6.1875C3.86719 12.625 1.96875 14.3477 1.6875 16.5625ZM7.875 9.25C5.37891 9.25 3.375 7.24609 3.375 4.75C3.375 2.28906 5.37891 0.25 7.875 0.25C10.3359 0.25 12.375 2.28906 12.375 4.75C12.375 7.24609 10.3359 9.25 7.875 9.25ZM7.875 1.9375C6.29297 1.9375 5.0625 3.20312 5.0625 4.75C5.0625 6.33203 6.29297 7.5625 7.875 7.5625C9.42188 7.5625 10.6875 6.33203 10.6875 4.75C10.6875 3.20312 9.42188 1.9375 7.875 1.9375Z" fill="white"/>
</svg>
